<svg width="342" height="374" viewBox="0 0 342 374" fill="none" xmlns="http://www.w3.org/2000/svg">
<path d="M66.0258 292.303C124.166 325.515 218.387 325.515 276.513 292.303C334.639 259.092 334.653 205.266 276.513 172.055C218.373 138.844 124.152 138.851 66.0258 172.055C7.89945 205.259 7.90629 259.1 66.0258 292.303Z" fill="#F5F5F5"/>
<path d="M48.7813 239.36H51.23C52.3524 235.262 53.0881 231.049 53.4257 226.786C53.9592 218.895 50.464 206.815 44.0617 202.768C37.6595 198.721 34.1916 203.726 36.3394 208.004C38.4871 212.283 45.7307 224.453 45.8264 234.925L48.7813 239.36Z" fill="#275991"/>
<path d="M48.1927 239.36H48.8767C49.545 234.193 49.545 228.947 48.8767 223.78C47.7686 213.539 44.6906 208.782 41.8315 205.476C41.7689 205.404 41.6826 205.361 41.5915 205.359C41.5004 205.356 41.4121 205.393 41.3458 205.461C41.2796 205.529 41.241 205.624 41.2384 205.723C41.2359 205.823 41.2696 205.92 41.3322 205.992C44.116 209.201 47.112 213.839 48.1722 223.862C48.8498 229.001 48.8567 234.219 48.1927 239.36Z" fill="white"/>
<path d="M48.9807 239.36C47.7222 232.867 42.0039 225.148 36.6072 223.816C30.3486 222.32 27.3048 225.933 28.2008 229.052C29.0968 232.172 34.0422 233.623 38.8438 236.069C40.4607 236.887 41.9386 238 43.2146 239.36H48.9807Z" fill="#275991"/>
<path d="M46.7039 239.36H47.4357C44.7887 232.082 38.7695 226.891 33.8447 226.412C33.8001 226.407 33.755 226.412 33.7121 226.426C33.6692 226.44 33.6294 226.464 33.5949 226.495C33.5605 226.526 33.5321 226.565 33.5116 226.609C33.4911 226.652 33.4787 226.7 33.4753 226.749C33.4696 226.798 33.4732 226.847 33.4858 226.895C33.4984 226.942 33.5199 226.986 33.5488 227.024C33.5776 227.062 33.6134 227.093 33.6537 227.115C33.694 227.137 33.738 227.15 33.7831 227.153C38.4343 227.609 44.1183 232.486 46.7039 239.36Z" fill="white"/>
<path d="M269.782 170.926L274.905 173.865L275.336 170.357C272.798 162.533 274.885 153.662 277.628 149.967C280.37 146.272 279.844 143.556 278.852 142.345C277.86 141.133 274.098 140.213 270.377 144.97C266.656 149.727 265.801 155.502 266.424 161.329C266.82 164.972 268.571 168.712 269.782 170.926Z" fill="#275991"/>
<path opacity="0.2" d="M269.782 170.926L274.905 173.865L275.336 170.357C272.798 162.533 274.885 153.662 277.628 149.967C280.37 146.272 279.844 143.556 278.852 142.345C277.86 141.133 274.098 140.213 270.377 144.97C266.656 149.727 265.801 155.502 266.424 161.329C266.82 164.972 268.571 168.712 269.782 170.926Z" fill="black"/>
<path d="M271.895 172.138L272.908 172.721C272.898 172.7 272.887 172.68 272.874 172.661C271.424 170.776 269.549 161.546 270.336 156.138C271.307 149.458 274.44 145.097 277.121 143.25C277.154 143.228 277.183 143.199 277.205 143.164C277.227 143.13 277.243 143.091 277.251 143.05C277.26 143.009 277.26 142.966 277.253 142.924C277.246 142.883 277.231 142.844 277.21 142.808C277.167 142.737 277.1 142.687 277.023 142.669C276.946 142.65 276.866 142.666 276.8 142.711C274.064 144.634 270.753 149.144 269.748 156.041C269.023 161.075 270.473 169.048 271.895 172.138Z" fill="white"/>
<path d="M275.009 157.574C276.507 161.59 276.5 163.558 274.058 163.969C271.856 164.328 269.182 167.253 271.664 172.003L286.193 180.335C286.229 179.447 286.43 178.576 286.783 177.776C287.135 176.975 287.633 176.26 288.245 175.675C290.632 173.065 292.834 171.097 292.492 168.195C292.15 165.293 289.845 162.495 289.462 159.967C289.079 157.439 290.256 155.995 292.766 153.16C295.276 150.325 297.554 145.927 294.202 143.923C290.851 141.918 287.013 145.351 285.413 147.663C283.812 149.974 282.349 150.991 279.195 150.797C276.042 150.602 273.511 153.557 275.009 157.574Z" fill="#275991"/>
<path d="M279.12 176.281C279.051 163.954 287.129 149.518 291.623 146.601C291.689 146.554 291.737 146.482 291.756 146.399C291.775 146.315 291.764 146.227 291.726 146.152C291.685 146.08 291.62 146.028 291.544 146.007C291.469 145.986 291.39 145.998 291.322 146.04C286.767 149.032 278.62 163.476 278.531 175.96L279.12 176.281Z" fill="white"/>
<path d="M281.28 163.468C281.218 163.484 281.153 163.476 281.096 163.446C281.039 163.416 280.993 163.366 280.965 163.304C279.66 160.642 278.562 157.864 277.682 155.001C277.67 154.961 277.666 154.918 277.669 154.876C277.672 154.834 277.683 154.793 277.701 154.756C277.719 154.718 277.743 154.685 277.773 154.658C277.802 154.63 277.836 154.61 277.873 154.597C277.91 154.584 277.949 154.58 277.987 154.583C278.026 154.587 278.063 154.599 278.098 154.618C278.132 154.638 278.162 154.664 278.187 154.697C278.212 154.729 278.231 154.766 278.243 154.807C279.114 157.63 280.199 160.37 281.485 162.997C281.521 163.074 281.529 163.163 281.506 163.245C281.483 163.328 281.431 163.397 281.362 163.438L281.28 163.468Z" fill="white"/>
<path d="M279.338 171.023C279.282 171.034 279.225 171.028 279.171 171.006C279.118 170.983 279.072 170.945 279.037 170.895C278.992 170.824 278.975 170.736 278.989 170.65C279.003 170.565 279.048 170.489 279.113 170.439C282.058 168.184 285.632 167.126 289.215 167.447C289.293 167.458 289.364 167.502 289.412 167.57C289.46 167.638 289.482 167.725 289.472 167.81C289.462 167.895 289.421 167.973 289.359 168.025C289.297 168.078 289.218 168.101 289.14 168.09C285.709 167.805 282.292 168.81 279.455 170.94C279.421 170.976 279.382 171.004 279.338 171.023Z" fill="white"/>
<path d="M193.495 95.7216L176.826 85.1973L160.164 95.7216L176.826 106.246L193.495 95.7216Z" fill="#F5F5F5"/>
<path d="M176.828 127.302L193.497 116.778V95.7217L176.828 106.246V127.302Z" fill="#EBEBEB"/>
<path d="M180.043 120.315C179.954 120.317 179.867 120.294 179.79 120.248C179.683 120.163 179.598 120.049 179.543 119.918C179.488 119.788 179.465 119.643 179.475 119.5V117.256V117.091H179.578L181.178 116.066V118.557C181.176 118.878 181.103 119.194 180.966 119.477C180.83 119.761 180.632 120.005 180.392 120.188C180.288 120.264 180.167 120.308 180.043 120.315ZM179.735 117.42V119.485C179.723 119.581 179.734 119.679 179.767 119.769C179.799 119.859 179.852 119.939 179.92 120.001C179.975 120.028 180.036 120.038 180.096 120.03C180.156 120.022 180.214 119.997 180.262 119.956C180.466 119.8 180.635 119.593 180.754 119.353C180.872 119.113 180.938 118.845 180.946 118.572V118.393H180.35L180.234 117.518L179.735 117.42ZM180.556 118.108H180.925V116.575L179.967 117.181L180.439 117.278L180.556 118.108Z" fill="white"/>
<path d="M180.329 122.096C180.295 122.096 180.262 122.081 180.237 122.054C180.213 122.028 180.199 121.991 180.199 121.954V120.084C180.198 120.065 180.201 120.046 180.207 120.028C180.213 120.01 180.223 119.994 180.235 119.981C180.248 119.967 180.262 119.957 180.278 119.95C180.295 119.943 180.312 119.941 180.329 119.942C180.364 119.942 180.397 119.957 180.421 119.983C180.446 120.01 180.459 120.046 180.459 120.084V121.924C180.462 121.945 180.461 121.966 180.456 121.986C180.451 122.007 180.442 122.025 180.43 122.042C180.417 122.058 180.402 122.071 180.385 122.08C180.367 122.09 180.349 122.095 180.329 122.096Z" fill="white"/>
<path d="M179.583 122.567C179.56 122.567 179.538 122.56 179.518 122.547C179.499 122.533 179.483 122.515 179.473 122.492C179.464 122.477 179.457 122.46 179.455 122.441C179.452 122.423 179.453 122.404 179.457 122.387C179.462 122.369 179.47 122.352 179.481 122.338C179.492 122.324 179.506 122.313 179.521 122.305L181.005 121.363C181.02 121.353 181.036 121.347 181.053 121.345C181.07 121.343 181.088 121.344 181.104 121.349C181.121 121.353 181.136 121.362 181.15 121.373C181.163 121.385 181.175 121.399 181.183 121.415C181.199 121.448 181.202 121.487 181.194 121.523C181.185 121.559 181.164 121.59 181.135 121.61L179.644 122.545L179.583 122.567Z" fill="white"/>
<path d="M184.893 119.335C184.846 119.351 184.796 119.351 184.749 119.335C184.699 119.299 184.659 119.248 184.632 119.189C184.606 119.13 184.594 119.064 184.598 118.999V118.617C184.598 118.599 184.6 118.581 184.606 118.564C184.612 118.546 184.621 118.531 184.632 118.517C184.644 118.504 184.657 118.493 184.673 118.486C184.688 118.479 184.705 118.475 184.722 118.475C184.739 118.474 184.756 118.477 184.772 118.484C184.789 118.491 184.803 118.501 184.816 118.514C184.828 118.528 184.838 118.544 184.844 118.562C184.85 118.579 184.853 118.598 184.852 118.617V118.932C184.852 118.991 184.852 119.021 184.852 119.021C184.852 119.021 184.893 119.021 184.934 119.021C185.013 118.942 185.076 118.845 185.117 118.736C185.159 118.628 185.178 118.511 185.173 118.393V115.94C185.173 115.921 185.176 115.903 185.183 115.886C185.19 115.869 185.199 115.854 185.211 115.842C185.224 115.829 185.238 115.819 185.254 115.813C185.27 115.807 185.286 115.804 185.303 115.805C185.336 115.805 185.367 115.819 185.39 115.844C185.413 115.87 185.426 115.904 185.426 115.94V118.438C185.431 118.604 185.401 118.77 185.338 118.922C185.275 119.073 185.181 119.207 185.064 119.313C185.008 119.332 184.95 119.34 184.893 119.335Z" fill="white"/>
<path d="M183.535 117.159V116.919C183.567 116.296 183.732 115.69 184.017 115.15C184.302 114.609 184.7 114.15 185.177 113.808C185.348 113.65 185.558 113.555 185.781 113.533C186.003 113.511 186.226 113.565 186.419 113.687C186.613 113.808 186.767 113.992 186.862 114.213C186.957 114.434 186.987 114.682 186.948 114.922V115.004L183.535 117.159ZM185.943 113.838C185.717 113.845 185.497 113.92 185.307 114.054C184.901 114.347 184.556 114.732 184.297 115.182C184.037 115.632 183.868 116.138 183.802 116.665L186.688 114.847C186.699 114.671 186.669 114.494 186.599 114.334C186.53 114.175 186.424 114.037 186.292 113.935C186.185 113.869 186.065 113.835 185.943 113.838Z" fill="white"/>
<path d="M189.466 116.463C189.433 116.463 189.401 116.449 189.376 116.424C189.352 116.399 189.338 116.365 189.336 116.328V111.556C189.336 111.518 189.35 111.482 189.374 111.456C189.398 111.429 189.431 111.414 189.466 111.414C189.5 111.414 189.533 111.429 189.558 111.456C189.582 111.482 189.596 111.518 189.596 111.556V116.328C189.594 116.365 189.58 116.399 189.555 116.424C189.531 116.449 189.499 116.463 189.466 116.463Z" fill="white"/>
<path d="M189.119 112.641H189.071C189.055 112.633 189.041 112.623 189.029 112.609C189.017 112.596 189.008 112.58 189.001 112.563C188.995 112.545 188.992 112.527 188.992 112.508C188.992 112.489 188.996 112.471 189.003 112.454L189.461 111.302L189.967 111.945C189.978 111.959 189.986 111.975 189.991 111.992C189.997 112.009 189.998 112.027 189.997 112.045C189.996 112.063 189.991 112.081 189.984 112.097C189.976 112.113 189.966 112.128 189.954 112.14C189.941 112.151 189.926 112.16 189.911 112.166C189.895 112.172 189.878 112.174 189.862 112.172C189.845 112.171 189.829 112.166 189.814 112.158C189.8 112.15 189.787 112.138 189.776 112.125L189.529 111.825L189.235 112.573C189.224 112.595 189.207 112.614 189.186 112.625C189.166 112.637 189.142 112.643 189.119 112.641Z" fill="white"/>
<path d="M190.677 115.73C190.644 115.729 190.613 115.713 190.59 115.686C190.567 115.66 190.554 115.625 190.554 115.588V110.816C190.55 110.795 190.55 110.774 190.554 110.753C190.558 110.732 190.567 110.712 190.579 110.695C190.591 110.679 190.607 110.665 190.624 110.656C190.642 110.646 190.661 110.642 190.681 110.642C190.7 110.642 190.72 110.646 190.737 110.656C190.755 110.665 190.77 110.679 190.783 110.695C190.795 110.712 190.803 110.732 190.808 110.753C190.812 110.774 190.812 110.795 190.807 110.816V115.588C190.807 115.626 190.794 115.662 190.769 115.689C190.745 115.715 190.712 115.73 190.677 115.73Z" fill="white"/>
<path d="M190.303 111.9H190.255C190.239 111.893 190.225 111.882 190.213 111.869C190.201 111.856 190.191 111.84 190.185 111.822C190.179 111.805 190.176 111.787 190.176 111.768C190.176 111.749 190.18 111.731 190.186 111.713L190.645 110.562L191.151 111.205C191.173 111.231 191.186 111.266 191.186 111.302C191.186 111.338 191.173 111.373 191.151 111.399C191.126 111.425 191.093 111.439 191.059 111.439C191.024 111.439 190.991 111.425 190.966 111.399L190.727 111.093L190.433 111.841C190.419 111.863 190.399 111.881 190.376 111.891C190.353 111.902 190.327 111.905 190.303 111.9Z" fill="white"/>
<path d="M176.825 127.302L160.156 116.778L160.163 95.7217L176.825 106.246V127.302Z" fill="#E0E0E0"/>
<path d="M169.4 101.556L186.055 91.0243L184.174 89.835L167.512 100.367L169.4 101.556Z" fill="white"/>
<path d="M162.687 107.794L168.659 111.534C169.002 111.782 169.288 112.113 169.493 112.503C169.699 112.892 169.818 113.329 169.842 113.778V117.802C169.842 118.633 169.308 118.969 168.659 118.55L162.687 114.81C162.343 114.563 162.057 114.232 161.852 113.842C161.646 113.452 161.527 113.015 161.504 112.566V108.542C161.504 107.712 162.037 107.383 162.687 107.794Z" fill="#275991"/>
<path d="M162.23 108.796L162.456 108.945V113.411L162.23 113.269V108.796Z" fill="#275991"/>
<path d="M163.152 109.38L163.542 109.634V114.1L163.152 113.853V109.38Z" fill="#275991"/>
<path d="M164.078 109.963L164.304 110.105V114.578L164.078 114.436V109.963Z" fill="#275991"/>
<path d="M164.77 110.397L165.228 110.689V115.162L164.77 114.863V110.397Z" fill="#275991"/>
<path d="M165.918 111.13L166.151 111.272V115.745L165.918 115.595V111.13Z" fill="#275991"/>
<path d="M166.589 111.541L167.068 111.855V116.321L166.582 116.007L166.589 111.541Z" fill="#275991"/>
<path d="M167.762 112.297L167.987 112.439V116.905L167.762 116.762V112.297Z" fill="#275991"/>
<path d="M168.289 112.618L168.405 112.693V117.159L168.289 117.091V112.618Z" fill="#275991"/>
<path d="M167.348 112.05L167.457 112.125V116.59L167.348 116.523V112.05Z" fill="#275991"/>
<path d="M165.484 110.86L165.594 110.928V115.401L165.484 115.326V110.86Z" fill="#275991"/>
<path d="M164.465 110.218L164.581 110.293V114.766L164.465 114.691V110.218Z" fill="#275991"/>
<path d="M163.734 109.776L163.851 109.851V114.324L163.734 114.249V109.776Z" fill="#275991"/>
<path d="M162.742 109.118L162.858 109.193V113.666L162.742 113.591V109.118Z" fill="#275991"/>
<path d="M168.688 112.873L168.913 113.015V117.488L168.688 117.346V112.873Z" fill="#275991"/>
<path d="M171.274 92.2132L151.821 79.9385L132.375 92.2132L151.821 104.495L171.274 92.2132Z" fill="#F5F5F5"/>
<path d="M143.483 99.2296L162.936 86.9549L161.048 85.7656L141.602 98.0403L143.483 99.2296Z" fill="white"/>
<path d="M151.82 143.084L171.273 130.81V92.2129L151.82 104.495V143.084Z" fill="#EBEBEB"/>
<path d="M155.036 136.136C154.947 136.138 154.859 136.112 154.783 136.061C154.675 135.978 154.589 135.865 154.534 135.733C154.478 135.602 154.456 135.457 154.468 135.313V133.069V132.905H154.578L156.171 131.88V134.371C156.168 134.691 156.095 135.006 155.958 135.29C155.821 135.573 155.625 135.817 155.385 136.001C155.282 136.08 155.161 136.127 155.036 136.136ZM154.728 133.241V135.306C154.717 135.402 154.728 135.499 154.76 135.59C154.792 135.68 154.845 135.76 154.913 135.822C154.968 135.849 155.029 135.859 155.089 135.851C155.15 135.843 155.207 135.818 155.255 135.777C155.46 135.621 155.628 135.414 155.747 135.174C155.866 134.934 155.931 134.666 155.939 134.393V134.214H155.344L155.227 133.338L154.728 133.241ZM155.549 133.929H155.952V132.396L154.995 133.009L155.467 133.099L155.549 133.929Z" fill="white"/>
<path d="M155.321 137.886C155.287 137.886 155.254 137.871 155.229 137.844C155.205 137.818 155.191 137.781 155.191 137.744V135.866C155.191 135.848 155.195 135.83 155.201 135.813C155.208 135.796 155.218 135.781 155.23 135.768C155.242 135.756 155.256 135.746 155.272 135.74C155.288 135.733 155.305 135.731 155.321 135.732C155.355 135.732 155.387 135.746 155.411 135.771C155.435 135.796 155.45 135.83 155.451 135.866V137.744C155.45 137.781 155.435 137.816 155.411 137.842C155.387 137.869 155.355 137.884 155.321 137.886Z" fill="white"/>
<path d="M154.582 138.38C154.56 138.381 154.538 138.375 154.518 138.363C154.499 138.351 154.483 138.334 154.472 138.313C154.457 138.28 154.453 138.241 154.462 138.205C154.471 138.169 154.491 138.138 154.52 138.118L156.004 137.183C156.019 137.174 156.036 137.168 156.053 137.165C156.069 137.163 156.087 137.164 156.103 137.169C156.12 137.174 156.135 137.182 156.149 137.194C156.162 137.205 156.174 137.219 156.182 137.236C156.191 137.251 156.196 137.268 156.198 137.286C156.2 137.304 156.199 137.323 156.195 137.34C156.19 137.358 156.183 137.374 156.172 137.388C156.162 137.402 156.149 137.414 156.134 137.423L154.643 138.365C154.625 138.377 154.603 138.382 154.582 138.38Z" fill="white"/>
<path d="M159.885 135.126C159.835 135.126 159.786 135.114 159.741 135.089C159.691 135.052 159.651 135.002 159.625 134.943C159.598 134.884 159.586 134.818 159.591 134.752V134.363C159.591 134.345 159.594 134.327 159.601 134.31C159.607 134.293 159.617 134.278 159.629 134.265C159.641 134.253 159.656 134.243 159.671 134.237C159.687 134.23 159.704 134.228 159.721 134.229C159.737 134.229 159.753 134.232 159.768 134.239C159.783 134.246 159.796 134.256 159.808 134.268C159.819 134.281 159.828 134.295 159.834 134.312C159.841 134.328 159.844 134.346 159.844 134.363V134.752C159.844 134.805 159.844 134.835 159.844 134.842C159.844 134.849 159.885 134.842 159.926 134.842C160.006 134.761 160.068 134.663 160.11 134.553C160.151 134.443 160.17 134.325 160.165 134.206V131.715C160.165 131.678 160.179 131.642 160.203 131.615C160.228 131.588 160.261 131.573 160.295 131.573C160.329 131.575 160.361 131.591 160.385 131.617C160.409 131.643 160.423 131.678 160.425 131.715V134.206C160.432 134.374 160.401 134.54 160.337 134.693C160.273 134.845 160.177 134.978 160.056 135.081C160.003 135.11 159.944 135.126 159.885 135.126Z" fill="white"/>
<path d="M158.531 132.95V132.703C158.564 132.081 158.729 131.476 159.014 130.937C159.299 130.398 159.696 129.939 160.173 129.599C160.344 129.442 160.554 129.346 160.777 129.324C160.999 129.302 161.222 129.356 161.415 129.478C161.609 129.599 161.763 129.783 161.858 130.004C161.953 130.225 161.983 130.473 161.944 130.713V130.795L158.531 132.95ZM160.939 129.621C160.713 129.632 160.494 129.707 160.303 129.838C159.896 130.132 159.551 130.517 159.291 130.969C159.032 131.42 158.864 131.927 158.798 132.456L161.684 130.638C161.695 130.461 161.664 130.283 161.594 130.123C161.525 129.962 161.419 129.823 161.288 129.718C161.181 129.655 161.061 129.621 160.939 129.621Z" fill="white"/>
<path d="M164.485 132.254C164.451 132.254 164.418 132.239 164.394 132.212C164.369 132.185 164.355 132.149 164.355 132.112V127.339C164.355 127.302 164.369 127.266 164.394 127.239C164.418 127.212 164.451 127.197 164.485 127.197C164.52 127.197 164.553 127.212 164.577 127.239C164.602 127.266 164.615 127.302 164.615 127.339V132.112C164.615 132.149 164.602 132.185 164.577 132.212C164.553 132.239 164.52 132.254 164.485 132.254Z" fill="white"/>
<path d="M164.111 128.431H164.063C164.048 128.424 164.033 128.415 164.022 128.402C164.01 128.389 164 128.374 163.994 128.357C163.987 128.34 163.984 128.322 163.984 128.304C163.985 128.286 163.988 128.268 163.995 128.252L164.453 127.1L164.959 127.743C164.981 127.771 164.992 127.807 164.989 127.843C164.987 127.88 164.971 127.914 164.945 127.937C164.92 127.961 164.887 127.973 164.854 127.97C164.82 127.967 164.789 127.95 164.768 127.922L164.521 127.616L164.227 128.364C164.216 128.386 164.199 128.404 164.178 128.416C164.157 128.428 164.134 128.433 164.111 128.431Z" fill="white"/>
<path d="M165.67 131.513C165.638 131.513 165.606 131.499 165.583 131.474C165.56 131.448 165.547 131.414 165.547 131.378V126.606C165.546 126.588 165.549 126.57 165.554 126.552C165.56 126.535 165.569 126.519 165.581 126.506C165.592 126.493 165.606 126.482 165.621 126.475C165.637 126.468 165.653 126.464 165.67 126.464C165.688 126.463 165.705 126.466 165.721 126.473C165.737 126.479 165.752 126.49 165.764 126.503C165.777 126.517 165.786 126.533 165.792 126.551C165.798 126.568 165.801 126.587 165.8 126.606V131.378C165.8 131.397 165.797 131.415 165.79 131.432C165.784 131.449 165.774 131.464 165.762 131.476C165.75 131.489 165.735 131.499 165.719 131.505C165.704 131.511 165.687 131.514 165.67 131.513Z" fill="white"/>
<path d="M165.3 127.69H165.245C165.214 127.674 165.19 127.646 165.178 127.611C165.165 127.577 165.165 127.538 165.177 127.503L165.635 126.352L166.148 126.995C166.169 127.022 166.181 127.056 166.181 127.092C166.181 127.128 166.169 127.162 166.148 127.189C166.136 127.203 166.121 127.213 166.106 127.22C166.09 127.228 166.073 127.231 166.056 127.231C166.038 127.231 166.021 127.228 166.006 127.22C165.99 127.213 165.975 127.203 165.963 127.189L165.724 126.883L165.43 127.631C165.416 127.654 165.397 127.672 165.373 127.683C165.35 127.694 165.324 127.696 165.3 127.69Z" fill="white"/>
<path d="M151.821 143.084L132.375 130.81V92.2129L151.821 104.495V143.084Z" fill="#E0E0E0"/>
<path d="M136.328 122.784L142.292 126.524C142.637 126.77 142.925 127.101 143.132 127.491C143.338 127.881 143.458 128.318 143.482 128.768V132.8C143.482 133.622 142.949 133.959 142.292 133.548L136.328 129.808C135.983 129.562 135.696 129.231 135.49 128.841C135.285 128.451 135.166 128.013 135.145 127.564V123.539C135.145 122.672 135.678 122.372 136.328 122.784Z" fill="#F5F5F5"/>
<path d="M135.867 123.786L136.093 123.936V128.401L135.867 128.259V123.786Z" fill="#E0E0E0"/>
<path d="M136.793 124.37L137.183 124.624V129.097L136.793 128.843V124.37Z" fill="#E0E0E0"/>
<path d="M137.707 124.953L137.94 125.095L137.933 129.568L137.707 129.426V124.953Z" fill="#E0E0E0"/>
<path d="M138.406 125.387L138.858 125.678V130.151L138.406 129.852V125.387Z" fill="#E0E0E0"/>
<path d="M139.555 126.12L139.78 126.262V130.735L139.555 130.586V126.12Z" fill="#E0E0E0"/>
<path d="M140.219 126.531L140.704 126.845V131.311L140.219 130.997V126.531Z" fill="#E0E0E0"/>
<path d="M141.402 127.279L141.628 127.429V131.894L141.402 131.752V127.279Z" fill="#E0E0E0"/>
<path d="M141.93 127.608L142.046 127.683V132.156L141.93 132.081V127.608Z" fill="#E0E0E0"/>
<path d="M140.984 127.04L141.094 127.115V131.58L140.984 131.513V127.04Z" fill="#E0E0E0"/>
<path d="M139.125 125.851L139.234 125.918V130.391L139.125 130.316V125.851Z" fill="#E0E0E0"/>
<path d="M138.105 125.207L138.215 125.282V129.755L138.105 129.68V125.207Z" fill="#E0E0E0"/>
<path d="M137.375 124.767L137.491 124.841V129.314L137.375 129.24V124.767Z" fill="#E0E0E0"/>
<path d="M136.383 124.107L136.499 124.182V128.655L136.383 128.58V124.107Z" fill="#E0E0E0"/>
<path d="M142.324 127.863L142.55 128.005V132.478L142.324 132.336V127.863Z" fill="#E0E0E0"/>
<path d="M141.602 103.022L143.483 104.211V99.2294L141.602 98.04V103.022Z" fill="#F0F0F0"/>
<path d="M112.92 132.561L99.0282 123.794L79.582 136.069L93.4741 144.843L112.92 132.561Z" fill="#F5F5F5"/>
<path d="M93.4727 179.924L112.919 167.649V132.561L93.4727 144.843V179.924Z" fill="#EBEBEB"/>
<path d="M96.681 172.945C96.594 172.947 96.5084 172.921 96.4347 172.87C96.3274 172.786 96.2418 172.673 96.1867 172.541C96.1315 172.41 96.1085 172.266 96.1201 172.122V169.878V169.713H96.2227L97.8233 168.688V171.179C97.8199 171.5 97.7468 171.815 97.61 172.099C97.4733 172.382 97.2767 172.626 97.0367 172.81C96.931 172.888 96.8083 172.935 96.681 172.945ZM96.38 170.05V172.114C96.3673 172.21 96.3776 172.309 96.41 172.399C96.4424 172.49 96.4957 172.569 96.5647 172.63C96.6206 172.655 96.6812 172.663 96.7409 172.655C96.8006 172.647 96.8576 172.623 96.9067 172.586C97.1115 172.429 97.2801 172.223 97.3989 171.982C97.5176 171.742 97.5833 171.475 97.5907 171.202V171.022H96.9956L96.8793 170.147L96.38 170.05ZM97.2008 170.738H97.5702V169.197L96.6126 169.81L97.0845 169.9L97.2008 170.738Z" fill="white"/>
<path d="M96.9776 174.725C96.9432 174.725 96.9101 174.71 96.8857 174.683C96.8613 174.656 96.8477 174.62 96.8477 174.583V172.705C96.8476 172.687 96.851 172.669 96.8576 172.652C96.8643 172.635 96.8739 172.62 96.8861 172.607C96.8983 172.595 96.9127 172.585 96.9284 172.579C96.9441 172.572 96.9609 172.57 96.9776 172.571C97.0103 172.571 97.0416 172.585 97.0647 172.61C97.0878 172.635 97.1007 172.669 97.1007 172.705V174.583C97.1008 174.619 97.088 174.654 97.0651 174.681C97.0422 174.707 97.0109 174.723 96.9776 174.725Z" fill="white"/>
<path d="M96.2292 175.189C96.2069 175.19 96.1848 175.184 96.1654 175.172C96.146 175.161 96.1302 175.143 96.1197 175.121C96.1099 175.106 96.1031 175.088 96.0999 175.07C96.0966 175.051 96.0969 175.032 96.1008 175.014C96.1047 174.996 96.112 174.978 96.1223 174.963C96.1327 174.948 96.1457 174.936 96.1608 174.927L97.6519 173.992C97.6667 173.982 97.6831 173.976 97.7 173.974C97.717 173.971 97.7342 173.973 97.7507 173.978C97.7673 173.982 97.7828 173.991 97.7963 174.002C97.8099 174.014 97.8212 174.028 97.8297 174.044C97.8381 174.06 97.8436 174.077 97.8457 174.095C97.8479 174.113 97.8467 174.131 97.8422 174.149C97.8377 174.166 97.8301 174.183 97.8197 174.197C97.8093 174.211 97.7965 174.223 97.7819 174.231L96.2907 175.174C96.2721 175.186 96.2506 175.191 96.2292 175.189Z" fill="white"/>
<path d="M101.537 171.965C101.487 171.965 101.438 171.953 101.394 171.928C101.344 171.891 101.303 171.841 101.277 171.782C101.251 171.723 101.239 171.657 101.243 171.591V171.202C101.243 171.167 101.256 171.132 101.279 171.107C101.302 171.082 101.333 171.068 101.366 171.068C101.383 171.067 101.4 171.069 101.415 171.076C101.431 171.082 101.445 171.092 101.458 171.104C101.47 171.117 101.48 171.132 101.486 171.149C101.493 171.166 101.496 171.184 101.496 171.202V171.591C101.496 171.644 101.496 171.674 101.496 171.681C101.496 171.689 101.537 171.681 101.578 171.681C101.657 171.599 101.718 171.5 101.76 171.391C101.801 171.281 101.821 171.164 101.818 171.045V168.554C101.813 168.534 101.813 168.512 101.817 168.491C101.822 168.47 101.83 168.45 101.842 168.434C101.854 168.417 101.87 168.403 101.888 168.394C101.905 168.385 101.925 168.38 101.944 168.38C101.964 168.38 101.983 168.385 102.001 168.394C102.018 168.403 102.034 168.417 102.046 168.434C102.058 168.45 102.067 168.47 102.071 168.491C102.075 168.512 102.075 168.534 102.071 168.554V171.045C102.076 171.212 102.046 171.378 101.984 171.529C101.921 171.681 101.826 171.815 101.708 171.92C101.655 171.949 101.597 171.965 101.537 171.965Z" fill="white"/>
<path d="M100.184 169.796V169.549C100.216 168.927 100.381 168.322 100.667 167.783C100.952 167.244 101.349 166.785 101.825 166.445C101.995 166.286 102.206 166.189 102.428 166.166C102.651 166.144 102.874 166.197 103.068 166.32C103.261 166.442 103.416 166.627 103.509 166.849C103.603 167.071 103.631 167.319 103.59 167.559V167.641L100.184 169.796ZM102.591 166.467C102.366 166.478 102.147 166.553 101.955 166.684C101.548 166.978 101.203 167.363 100.944 167.815C100.684 168.266 100.516 168.774 100.45 169.302L103.337 167.477C103.346 167.301 103.315 167.124 103.246 166.965C103.176 166.805 103.071 166.667 102.94 166.564C102.836 166.499 102.718 166.463 102.598 166.46L102.591 166.467Z" fill="white"/>
<path d="M106.142 169.093C106.107 169.093 106.074 169.078 106.05 169.051C106.025 169.024 106.012 168.988 106.012 168.95V164.178C106.012 164.141 106.025 164.104 106.05 164.078C106.074 164.051 106.107 164.036 106.142 164.036C106.176 164.036 106.209 164.051 106.234 164.078C106.258 164.104 106.272 164.141 106.272 164.178V168.95C106.272 168.988 106.258 169.024 106.234 169.051C106.209 169.078 106.176 169.093 106.142 169.093Z" fill="white"/>
<path d="M105.767 165.308H105.719C105.704 165.301 105.69 165.292 105.678 165.279C105.666 165.266 105.656 165.251 105.65 165.234C105.644 165.217 105.64 165.199 105.641 165.181C105.641 165.163 105.644 165.145 105.651 165.128L106.109 163.977L106.615 164.62C106.637 164.648 106.648 164.684 106.645 164.72C106.643 164.757 106.627 164.791 106.602 164.814C106.589 164.826 106.575 164.835 106.559 164.841C106.543 164.846 106.526 164.849 106.51 164.847C106.477 164.844 106.446 164.827 106.424 164.799L106.178 164.493L105.883 165.241C105.872 165.263 105.855 165.281 105.834 165.293C105.814 165.305 105.79 165.31 105.767 165.308Z" fill="white"/>
<path d="M107.325 168.352C107.292 168.352 107.26 168.338 107.236 168.313C107.212 168.288 107.197 168.254 107.195 168.217V163.445C107.195 163.407 107.209 163.371 107.233 163.345C107.258 163.318 107.291 163.303 107.325 163.303C107.343 163.302 107.36 163.305 107.376 163.312C107.392 163.318 107.407 163.329 107.419 163.342C107.432 163.356 107.441 163.372 107.447 163.389C107.454 163.407 107.456 163.426 107.455 163.445V168.217C107.455 168.236 107.452 168.254 107.445 168.271C107.439 168.287 107.429 168.303 107.417 168.315C107.405 168.328 107.39 168.338 107.374 168.344C107.359 168.35 107.342 168.353 107.325 168.352Z" fill="white"/>
<path d="M106.951 164.56C106.935 164.566 106.918 164.566 106.903 164.56C106.887 164.553 106.873 164.543 106.861 164.531C106.85 164.518 106.84 164.503 106.834 164.486C106.827 164.469 106.824 164.451 106.824 164.433C106.824 164.415 106.828 164.397 106.835 164.38L107.293 163.229L107.799 163.872C107.822 163.898 107.834 163.933 107.834 163.969C107.834 164.005 107.822 164.04 107.799 164.066C107.787 164.08 107.773 164.09 107.757 164.097C107.741 164.105 107.724 164.108 107.707 164.108C107.689 164.108 107.672 164.105 107.657 164.097C107.641 164.09 107.626 164.08 107.614 164.066L107.375 163.76L107.081 164.508C107.066 164.529 107.046 164.545 107.023 164.554C107 164.564 106.975 164.566 106.951 164.56Z" fill="white"/>
<path d="M93.4741 179.924L79.582 171.157V136.068L93.4741 144.842V179.924Z" fill="#E0E0E0"/>
<path d="M86.0312 145.126L87.9123 146.316V141.334L86.0312 140.145V145.126Z" fill="#F5F5F5"/>
<path d="M87.9123 141.335L107.365 129.053L105.477 127.863L86.0312 140.145L87.9123 141.335Z" fill="white"/>
<path d="M87.9135 162.383L62.9133 146.601L37.9062 162.383L62.9133 178.174L87.9135 162.383Z" fill="#F5F5F5"/>
<path d="M62.9141 199.222L87.9143 183.439V162.383L62.9141 178.173V199.222Z" fill="#EBEBEB"/>
<path d="M66.1221 192.235C66.0355 192.233 65.9508 192.208 65.8758 192.16C65.7689 192.076 65.6838 191.963 65.6287 191.832C65.5736 191.701 65.5503 191.556 65.5612 191.412V189.168V189.004H65.6638L67.2644 187.972V190.47C67.2599 190.789 67.1863 191.103 67.0496 191.385C66.9129 191.667 66.7169 191.91 66.4778 192.093C66.3725 192.174 66.2499 192.223 66.1221 192.235ZM65.8143 189.341V191.405C65.8021 191.5 65.8127 191.597 65.8451 191.686C65.8775 191.775 65.9305 191.854 65.999 191.914C66.055 191.942 66.1167 191.953 66.178 191.946C66.2393 191.94 66.2978 191.916 66.3478 191.876C66.5519 191.719 66.7199 191.512 66.8385 191.272C66.9572 191.032 67.0234 190.765 67.0318 190.492V190.305H66.4162L66.2999 189.43L65.8143 189.341ZM66.6351 190.029H67.0318V188.495L66.081 189.109L66.553 189.198L66.6351 190.029Z" fill="white"/>
<path d="M66.4078 194.016C66.3916 194.016 66.3756 194.012 66.3607 194.005C66.3457 193.999 66.3322 193.989 66.3207 193.976C66.3093 193.964 66.3002 193.949 66.294 193.933C66.2879 193.916 66.2847 193.899 66.2847 193.881V192.004C66.2802 191.983 66.2801 191.961 66.2844 191.94C66.2887 191.919 66.2972 191.9 66.3094 191.883C66.3215 191.866 66.337 191.853 66.3547 191.843C66.3723 191.834 66.3916 191.829 66.4112 191.829C66.4308 191.829 66.4501 191.834 66.4678 191.843C66.4854 191.853 66.5009 191.866 66.513 191.883C66.5252 191.9 66.5338 191.919 66.538 191.94C66.5423 191.961 66.5422 191.983 66.5377 192.004V193.881C66.5378 193.899 66.5344 193.918 66.5278 193.934C66.5212 193.951 66.5115 193.966 66.4993 193.979C66.4871 193.992 66.4727 194.001 66.457 194.008C66.4413 194.014 66.4245 194.017 66.4078 194.016Z" fill="white"/>
<path d="M65.6648 194.479C65.6374 194.478 65.6113 194.466 65.5901 194.447C65.569 194.428 65.5539 194.402 65.5471 194.373C65.5402 194.344 65.542 194.313 65.5521 194.285C65.5622 194.257 65.5801 194.234 65.6032 194.218L67.0944 193.283C67.1079 193.272 67.1234 193.265 67.1398 193.261C67.1561 193.258 67.173 193.258 67.1892 193.262C67.2055 193.267 67.2206 193.275 67.2338 193.286C67.2469 193.297 67.2577 193.311 67.2654 193.327C67.2752 193.343 67.2819 193.36 67.2852 193.379C67.2885 193.397 67.2881 193.416 67.2843 193.435C67.2804 193.453 67.2731 193.47 67.2627 193.485C67.2524 193.5 67.2393 193.513 67.2243 193.522L65.7332 194.479H65.6648Z" fill="white"/>
<path d="M70.9709 191.264C70.9259 191.275 70.8791 191.275 70.8341 191.264C70.7818 191.227 70.7396 191.176 70.7119 191.115C70.6842 191.055 70.672 190.987 70.6768 190.92V190.538C70.6768 190.5 70.6905 190.464 70.7148 190.438C70.7392 190.411 70.7723 190.396 70.8067 190.396C70.8412 190.396 70.8743 190.411 70.8986 190.438C70.923 190.464 70.9367 190.5 70.9367 190.538V190.92C70.9273 190.951 70.9273 190.985 70.9367 191.017C70.9367 191.017 70.9777 191.017 71.0256 191.017C71.1028 190.934 71.1634 190.835 71.2034 190.726C71.2435 190.616 71.2621 190.499 71.2582 190.381V187.89C71.2598 187.853 71.2741 187.818 71.2981 187.792C71.3221 187.765 71.3542 187.75 71.3881 187.748C71.4226 187.748 71.4557 187.763 71.48 187.79C71.5044 187.816 71.5181 187.852 71.5181 187.89V190.381C71.5237 190.548 71.4939 190.713 71.431 190.865C71.3681 191.017 71.2738 191.151 71.1556 191.256C71.0954 191.275 71.0321 191.277 70.9709 191.264Z" fill="white"/>
<path d="M69.625 189.087V188.84C69.6547 188.217 69.819 187.611 70.1043 187.072C70.3897 186.532 70.788 186.074 71.2666 185.736C71.4365 185.577 71.6472 185.48 71.8698 185.457C72.0923 185.435 72.3158 185.488 72.5093 185.611C72.7029 185.733 72.857 185.918 72.9505 186.14C73.044 186.362 73.0722 186.61 73.0313 186.85V186.932L69.625 189.087ZM72.0327 185.758C71.8052 185.771 71.5842 185.845 71.3897 185.975C70.984 186.27 70.6404 186.656 70.3821 187.107C70.1238 187.559 69.9566 188.065 69.8918 188.593L72.7714 186.768C72.7824 186.592 72.7525 186.416 72.6843 186.257C72.6161 186.097 72.5119 185.959 72.3815 185.855C72.2753 185.789 72.1548 185.756 72.0327 185.758Z" fill="white"/>
<path d="M75.5826 188.391C75.5653 188.392 75.5479 188.389 75.5317 188.382C75.5155 188.375 75.5008 188.365 75.4885 188.351C75.4762 188.338 75.4667 188.322 75.4605 188.304C75.4543 188.286 75.4516 188.267 75.4526 188.249V183.476C75.4482 183.455 75.4481 183.434 75.4524 183.413C75.4566 183.392 75.4652 183.372 75.4773 183.356C75.4895 183.339 75.505 183.325 75.5226 183.316C75.5403 183.307 75.5596 183.302 75.5792 183.302C75.5988 183.302 75.6181 183.307 75.6357 183.316C75.6534 183.325 75.6688 183.339 75.681 183.356C75.6932 183.372 75.7017 183.392 75.706 183.413C75.7103 183.434 75.7102 183.455 75.7057 183.476V188.249C75.7066 188.267 75.7042 188.285 75.6984 188.302C75.6926 188.32 75.6837 188.335 75.6722 188.349C75.6606 188.362 75.6468 188.372 75.6313 188.38C75.6159 188.387 75.5994 188.391 75.5826 188.391Z" fill="white"/>
<path d="M75.2398 184.568H75.1851C75.1693 184.561 75.1551 184.551 75.1433 184.537C75.1315 184.523 75.1224 184.507 75.1167 184.49C75.1109 184.472 75.1085 184.453 75.1097 184.435C75.1109 184.416 75.1156 184.398 75.1236 184.381L75.575 183.229L76.088 183.873C76.1107 183.902 76.122 183.939 76.1194 183.977C76.1168 184.015 76.1006 184.05 76.0743 184.075C76.048 184.1 76.0138 184.112 75.9791 184.109C75.9445 184.106 75.9123 184.089 75.8896 184.06L75.6502 183.753L75.3561 184.501C75.344 184.523 75.3268 184.54 75.3063 184.552C75.2859 184.564 75.2629 184.57 75.2398 184.568Z" fill="white"/>
<path d="M76.7628 187.65C76.7283 187.65 76.6952 187.635 76.6709 187.609C76.6465 187.582 76.6328 187.546 76.6328 187.508V182.736C76.6328 182.698 76.6465 182.662 76.6709 182.635C76.6952 182.609 76.7283 182.594 76.7628 182.594C76.7972 182.594 76.8303 182.609 76.8547 182.635C76.879 182.662 76.8927 182.698 76.8927 182.736V187.508C76.8927 187.546 76.879 187.582 76.8547 187.609C76.8303 187.635 76.7972 187.65 76.7628 187.65Z" fill="white"/>
<path d="M76.3883 183.828H76.3404C76.3249 183.822 76.3108 183.812 76.2989 183.799C76.287 183.786 76.2776 183.771 76.2712 183.754C76.2648 183.738 76.2616 183.72 76.2617 183.701C76.2619 183.683 76.2654 183.665 76.272 183.649L76.7303 182.489L77.2365 183.133C77.2487 183.146 77.2584 183.161 77.265 183.179C77.2716 183.196 77.275 183.215 77.275 183.234C77.275 183.252 77.2716 183.271 77.265 183.288C77.2584 183.306 77.2487 183.321 77.2365 183.335C77.225 183.348 77.2112 183.358 77.1959 183.365C77.1806 183.372 77.1642 183.376 77.1476 183.376C77.1309 183.376 77.1145 183.372 77.0992 183.365C77.0839 183.358 77.0701 183.348 77.0586 183.335L76.8124 183.028L76.5183 183.776C76.5039 183.798 76.4838 183.815 76.4607 183.824C76.4375 183.833 76.4123 183.835 76.3883 183.828Z" fill="white"/>
<path d="M62.9133 199.222L37.9062 183.439V162.383L62.9133 178.173V199.222Z" fill="#E0E0E0"/>
<path d="M49.4648 174.665L51.3458 175.855V170.873L49.4648 169.684V174.665Z" fill="#F5F5F5"/>
<path d="M51.3458 170.873L76.3529 155.09L74.4719 153.894L49.4648 169.684L51.3458 170.873Z" fill="white"/>
<path d="M41.8669 175.414L47.8314 179.154C48.1765 179.4 48.4639 179.731 48.6706 180.121C48.8773 180.511 48.9975 180.948 49.0216 181.398V185.429C49.0216 186.252 48.488 186.589 47.8314 186.177L41.8669 182.437C41.522 182.192 41.235 181.86 41.0294 181.47C40.8237 181.08 40.7053 180.643 40.6836 180.193V176.169C40.6836 175.331 41.2171 175.032 41.8669 175.414Z" fill="#F5F5F5"/>
<path d="M41.4102 176.416L41.6359 176.558V181.031L41.4102 180.889V176.416Z" fill="#E0E0E0"/>
<path d="M42.3242 176.999L42.7209 177.253V181.719L42.3242 181.472V176.999Z" fill="#E0E0E0"/>
<path d="M43.25 177.582L43.4826 177.724L43.4757 182.197L43.25 182.055V177.582Z" fill="#E0E0E0"/>
<path d="M43.9453 178.017L44.4036 178.308L44.3968 182.781L43.9453 182.482V178.017Z" fill="#E0E0E0"/>
<path d="M45.0938 178.749L45.3195 178.891V183.364L45.0938 183.215V178.749Z" fill="#E0E0E0"/>
<path d="M45.7578 179.161L46.2435 179.475V183.941L45.7578 183.627V179.161Z" fill="#E0E0E0"/>
<path d="M46.9414 179.916L47.1671 180.058V184.524L46.9414 184.382V179.916Z" fill="#E0E0E0"/>
<path d="M47.4688 180.238L47.585 180.313V184.779L47.4688 184.711V180.238Z" fill="#E0E0E0"/>
<path d="M46.5234 179.669L46.6329 179.736V184.209L46.5234 184.142V179.669Z" fill="#E0E0E0"/>
<path d="M44.6641 178.48L44.7735 178.548V183.021L44.6641 182.946V178.48Z" fill="#E0E0E0"/>
<path d="M43.6445 177.837L43.7608 177.912V182.377L43.6445 182.31V177.837Z" fill="#E0E0E0"/>
<path d="M42.9141 177.396L43.0303 177.47V181.943L42.9141 181.869V177.396Z" fill="#E0E0E0"/>
<path d="M41.9219 176.737L42.0382 176.812V181.278L41.9219 181.21V176.737Z" fill="#E0E0E0"/>
<path d="M47.8672 180.492L48.0929 180.642V185.107L47.8672 184.965V180.492Z" fill="#E0E0E0"/>
<path d="M82.36 120.286L62.9139 108.004L43.4609 120.286L62.9139 132.561L82.36 120.286Z" fill="#F5F5F5"/>
<path d="M62.9141 174.665L82.3602 162.383V120.285L62.9141 132.56V174.665Z" fill="#EBEBEB"/>
<path d="M66.1221 167.679C66.0361 167.68 65.9514 167.657 65.8758 167.612C65.7689 167.527 65.6838 167.414 65.6287 167.283C65.5736 167.152 65.5503 167.008 65.5612 166.864V164.62V164.455H65.6638L67.2644 163.431V165.922C67.2605 166.242 67.1871 166.557 67.0504 166.84C66.9137 167.124 66.7174 167.368 66.4778 167.552C66.3714 167.628 66.2488 167.672 66.1221 167.679ZM65.8143 164.785V166.857C65.8034 166.951 65.8147 167.048 65.847 167.137C65.8793 167.226 65.9315 167.304 65.999 167.365C66.055 167.393 66.1167 167.404 66.178 167.398C66.2393 167.391 66.2978 167.367 66.3478 167.328C66.552 167.169 66.72 166.961 66.8386 166.72C66.9573 166.478 67.0234 166.21 67.0318 165.936V165.757H66.4162L66.2999 164.882L65.8143 164.785ZM66.6351 165.473H67.0318V163.939L66.081 164.553L66.553 164.642L66.6351 165.473Z" fill="white"/>
<path d="M66.4085 169.459C66.3917 169.459 66.3751 169.455 66.3597 169.448C66.3443 169.441 66.3304 169.43 66.3189 169.417C66.3074 169.404 66.2984 169.388 66.2927 169.371C66.2869 169.354 66.2844 169.335 66.2853 169.317V167.447C66.2844 167.429 66.2869 167.41 66.2927 167.393C66.2984 167.376 66.3074 167.36 66.3189 167.347C66.3304 167.334 66.3443 167.323 66.3597 167.316C66.3751 167.309 66.3917 167.305 66.4085 167.305C66.4258 167.304 66.4431 167.307 66.4593 167.314C66.4756 167.32 66.4903 167.331 66.5026 167.344C66.5148 167.358 66.5244 167.374 66.5306 167.391C66.5367 167.409 66.5394 167.428 66.5384 167.447V169.317C66.5394 169.336 66.5367 169.355 66.5306 169.373C66.5244 169.39 66.5148 169.407 66.5026 169.42C66.4903 169.433 66.4756 169.444 66.4593 169.451C66.4431 169.457 66.4258 169.46 66.4085 169.459Z" fill="white"/>
<path d="M65.6648 169.93C65.6374 169.928 65.6113 169.917 65.5901 169.898C65.569 169.879 65.5539 169.853 65.5471 169.824C65.5402 169.795 65.542 169.764 65.5521 169.736C65.5622 169.708 65.5801 169.685 65.6032 169.669L67.0944 168.726C67.1243 168.707 67.1598 168.702 67.1932 168.712C67.2265 168.722 67.255 168.746 67.2722 168.778C67.2894 168.811 67.2941 168.85 67.2851 168.886C67.2761 168.923 67.2543 168.954 67.2243 168.973L65.7332 169.908C65.7131 169.923 65.6892 169.931 65.6648 169.93Z" fill="white"/>
<path d="M70.971 166.707C70.9223 166.707 70.8747 166.691 70.8342 166.662C70.7819 166.627 70.7395 166.578 70.7118 166.518C70.684 166.459 70.6719 166.392 70.6769 166.325V165.944C70.6769 165.906 70.6906 165.87 70.7149 165.843C70.7393 165.817 70.7724 165.802 70.8068 165.802C70.8413 165.802 70.8744 165.817 70.8987 165.843C70.9231 165.87 70.9368 165.906 70.9368 165.944V166.325C70.9274 166.357 70.9274 166.391 70.9368 166.423C70.9659 166.432 70.9966 166.432 71.0257 166.423C71.1038 166.343 71.165 166.245 71.2052 166.136C71.2453 166.028 71.2635 165.911 71.2583 165.794V163.303C71.2583 163.266 71.272 163.23 71.2963 163.203C71.3207 163.176 71.3538 163.161 71.3882 163.161C71.4056 163.16 71.4229 163.163 71.4391 163.17C71.4553 163.177 71.4701 163.187 71.4823 163.201C71.4946 163.214 71.5041 163.23 71.5103 163.248C71.5165 163.266 71.5192 163.285 71.5182 163.303V165.794C71.5238 165.961 71.494 166.127 71.4311 166.279C71.3682 166.43 71.2739 166.564 71.1557 166.669C71.0977 166.698 71.0344 166.711 70.971 166.707Z" fill="white"/>
<path d="M69.625 164.56V164.32C69.6558 163.697 69.8205 163.091 70.1057 162.55C70.3909 162.009 70.7886 161.55 71.2666 161.209C71.438 161.054 71.6488 160.96 71.8706 160.94C72.0924 160.92 72.3144 160.974 72.5068 161.097C72.6992 161.219 72.8526 161.403 72.9464 161.624C73.0402 161.844 73.0698 162.091 73.0313 162.331V162.406L69.625 164.56ZM72.0327 161.239C71.8052 161.251 71.5842 161.326 71.3897 161.456C70.9848 161.749 70.6417 162.134 70.3834 162.584C70.1251 163.034 69.9575 163.54 69.8918 164.066L72.7714 162.249C72.7838 162.073 72.7544 161.896 72.6861 161.736C72.6178 161.576 72.5129 161.438 72.3815 161.336C72.2788 161.257 72.1581 161.21 72.0327 161.201V161.239Z" fill="white"/>
<path d="M75.5826 163.812C75.5481 163.812 75.5151 163.797 75.4907 163.77C75.4663 163.743 75.4526 163.707 75.4526 163.669V158.897C75.4482 158.876 75.4481 158.855 75.4524 158.834C75.4566 158.813 75.4652 158.793 75.4773 158.776C75.4895 158.76 75.505 158.746 75.5226 158.737C75.5403 158.727 75.5596 158.723 75.5792 158.723C75.5988 158.723 75.6181 158.727 75.6357 158.737C75.6534 158.746 75.6688 158.76 75.681 158.776C75.6932 158.793 75.7017 158.813 75.706 158.834C75.7103 158.855 75.7102 158.876 75.7057 158.897V163.669C75.7058 163.706 75.693 163.741 75.6701 163.767C75.6472 163.794 75.6159 163.81 75.5826 163.812Z" fill="white"/>
<path d="M75.2398 160.004H75.1851C75.1693 159.997 75.1551 159.986 75.1433 159.973C75.1315 159.959 75.1224 159.943 75.1167 159.925C75.1109 159.908 75.1085 159.889 75.1097 159.87C75.1109 159.852 75.1156 159.834 75.1236 159.817L75.575 158.665L76.088 159.308C76.1106 159.335 76.1232 159.369 76.1232 159.406C76.1232 159.442 76.1106 159.476 76.088 159.503C76.0628 159.528 76.0298 159.542 75.9957 159.542C75.9615 159.542 75.9285 159.528 75.9033 159.503L75.6639 159.196L75.3698 159.944C75.3563 159.967 75.3367 159.986 75.3134 159.996C75.2902 160.007 75.2645 160.01 75.2398 160.004Z" fill="white"/>
<path d="M76.7628 163.063C76.7288 163.061 76.6967 163.046 76.6727 163.02C76.6487 162.993 76.6345 162.958 76.6328 162.921V158.149C76.6328 158.111 76.6465 158.075 76.6709 158.048C76.6952 158.022 76.7283 158.007 76.7628 158.007C76.7972 158.007 76.8303 158.022 76.8547 158.048C76.879 158.075 76.8927 158.111 76.8927 158.149V162.921C76.8911 162.958 76.8768 162.993 76.8528 163.02C76.8288 163.046 76.7967 163.061 76.7628 163.063Z" fill="white"/>
<path d="M76.3886 159.272H76.3407C76.325 159.264 76.3107 159.254 76.2988 159.24C76.2868 159.227 76.2774 159.211 76.271 159.194C76.2647 159.176 76.2615 159.158 76.2617 159.139C76.262 159.12 76.2656 159.102 76.2723 159.085L76.7306 157.933L77.2368 158.576C77.249 158.589 77.2587 158.605 77.2653 158.622C77.2719 158.64 77.2753 158.658 77.2753 158.677C77.2753 158.696 77.2719 158.714 77.2653 158.732C77.2587 158.749 77.249 158.765 77.2368 158.778C77.212 158.801 77.1805 158.814 77.1479 158.814C77.1152 158.814 77.0837 158.801 77.0589 158.778L76.8127 158.471L76.5186 159.219C76.5036 159.24 76.4835 159.257 76.4605 159.266C76.4375 159.275 76.4126 159.277 76.3886 159.272Z" fill="white"/>
<path d="M62.9139 174.665L43.4609 162.383V120.285L62.9139 132.56V174.665Z" fill="#E0E0E0"/>
<path d="M52.6875 131.087L54.5753 132.276V127.302L52.6875 126.105V131.087Z" fill="#F5F5F5"/>
<path d="M54.5753 127.302L74.0215 115.019L72.1405 113.83L52.6875 126.105L54.5753 127.302Z" fill="white"/>
<path d="M47.4206 154.357L53.3851 158.097C53.7304 158.342 54.0177 158.674 54.2234 159.064C54.4291 159.454 54.5473 159.892 54.5684 160.341V164.365C54.5684 165.188 54.0418 165.525 53.3851 165.113L47.4206 161.373C47.0744 161.129 46.7861 160.798 46.5793 160.408C46.3724 160.018 46.2529 159.58 46.2305 159.129V155.105C46.2373 154.282 46.764 153.946 47.4206 154.357Z" fill="#F5F5F5"/>
<path d="M46.957 155.367L47.1828 155.509V159.982L46.957 159.833V155.367Z" fill="#E0E0E0"/>
<path d="M47.8789 155.95L48.2688 156.197V160.67L47.8789 160.416V155.95Z" fill="#E0E0E0"/>
<path d="M48.8008 156.526L49.0265 156.676V161.142L48.8008 160.999V156.526Z" fill="#E0E0E0"/>
<path d="M49.5 156.96L49.9514 157.259V161.725L49.5 161.433V156.96Z" fill="#E0E0E0"/>
<path d="M50.6484 157.693L50.8742 157.835V162.309L50.6484 162.166V157.693Z" fill="#E0E0E0"/>
<path d="M51.3125 158.104L51.7981 158.419V162.892L51.3125 162.578V158.104Z" fill="#E0E0E0"/>
<path d="M52.4961 158.86L52.7218 159.002V163.476L52.4961 163.326V158.86Z" fill="#E0E0E0"/>
<path d="M53.0234 159.189L53.1329 159.257V163.73L53.0234 163.655V159.189Z" fill="#E0E0E0"/>
<path d="M52.0703 158.613L52.1866 158.688V163.161L52.0703 163.086V158.613Z" fill="#E0E0E0"/>
<path d="M50.2109 157.424L50.3272 157.499V161.964L50.2109 161.897V157.424Z" fill="#E0E0E0"/>
<path d="M49.1914 156.788L49.3077 156.855V161.328L49.1914 161.254V156.788Z" fill="#E0E0E0"/>
<path d="M48.4688 156.347L48.5782 156.414V160.887L48.4688 160.812V156.347Z" fill="#E0E0E0"/>
<path d="M47.4766 155.688L47.586 155.756V160.229L47.4766 160.154V155.688Z" fill="#E0E0E0"/>
<path d="M53.4141 159.443L53.6466 159.585V164.051L53.4141 163.909V159.443Z" fill="#E0E0E0"/>
<path d="M43.644 236.181L118.296 283.305C119.214 283.814 120.228 284.079 121.258 284.079C122.287 284.079 123.301 283.814 124.219 283.305L287.784 180.081C289.419 179.048 289.419 177.373 287.784 176.341L213.132 129.217C212.216 128.704 211.2 128.437 210.171 128.437C209.141 128.437 208.126 128.704 207.209 129.217L43.644 232.441C42.0093 233.473 42.0093 235.148 43.644 236.181Z" fill="#455A64"/>
<path d="M83.9934 258.059C85.2662 258.761 86.6719 259.127 88.0974 259.127C89.523 259.127 90.9287 258.761 92.2014 258.059C94.4792 256.623 94.4792 254.319 92.2014 252.861C90.9296 252.155 89.5236 251.787 88.0974 251.787C86.6713 251.787 85.2652 252.155 83.9934 252.861C81.7157 254.319 81.7157 256.638 83.9934 258.059Z" fill="#263238"/>
<path d="M119.699 283.305L45.0477 236.181C43.5839 235.254 43.4334 233.817 44.5894 232.785C43.8593 233.417 43.259 234.209 42.8276 235.112C42.3963 236.014 42.1436 237.005 42.0859 238.021V241.066C42.1421 242.189 42.4395 243.283 42.954 244.257C43.4686 245.232 44.1858 246.06 45.0477 246.676L119.699 293.8C120.612 294.321 121.632 294.578 122.661 294.548V284.083C121.629 284.105 120.61 283.837 119.699 283.305Z" fill="#37474F"/>
<path d="M287.778 190.567C288.641 189.954 289.361 189.126 289.876 188.151C290.392 187.176 290.69 186.082 290.746 184.957V181.913C290.691 180.895 290.438 179.902 290.005 179C289.573 178.097 288.97 177.305 288.236 176.677C289.399 177.709 289.248 179.145 287.784 180.065L124.22 283.304C123.306 283.824 122.287 284.081 121.258 284.052V294.577C122.287 294.605 123.306 294.348 124.22 293.829L287.778 190.567Z" fill="#263238"/>
<path d="M130.596 273.543L59.145 228.409C58.16 227.788 58.16 226.778 59.145 226.165L197.258 138.94C197.809 138.634 198.419 138.475 199.037 138.475C199.655 138.475 200.264 138.634 200.815 138.94L272.293 184.067C273.271 184.688 273.271 185.69 272.293 186.311L134.125 273.543C133.578 273.844 132.973 274.001 132.36 274.001C131.747 274.001 131.143 273.844 130.596 273.543Z" fill="white"/>
<path d="M101.804 248.343L110.142 243.077L107.365 241.327L99.0273 246.586L101.804 248.343Z" fill="#275991"/>
<path d="M201.836 185.189L210.174 179.923L207.39 178.173L199.059 183.439L201.836 185.189Z" fill="#275991"/>
<path d="M218.504 174.665L226.842 169.399L224.065 167.648L215.727 172.907L218.504 174.665Z" fill="#275991"/>
<path d="M245.262 156.227C245.586 156.404 245.943 156.496 246.305 156.496C246.668 156.496 247.025 156.404 247.349 156.227C247.474 156.18 247.583 156.091 247.66 155.973C247.737 155.855 247.779 155.714 247.779 155.569C247.779 155.424 247.737 155.282 247.66 155.164C247.583 155.046 247.474 154.957 247.349 154.91C247.026 154.73 246.668 154.636 246.305 154.636C245.943 154.636 245.585 154.73 245.262 154.91C245.137 154.957 245.028 155.046 244.951 155.164C244.874 155.282 244.832 155.424 244.832 155.569C244.832 155.714 244.874 155.855 244.951 155.973C245.028 156.091 245.137 156.18 245.262 156.227Z" fill="#263238"/>
<path d="M248.592 166.557C249.238 166.914 249.951 167.101 250.675 167.101C251.399 167.101 252.112 166.914 252.758 166.557C253.907 165.809 253.907 164.649 252.758 163.924C252.112 163.566 251.399 163.38 250.675 163.38C249.951 163.38 249.238 163.566 248.592 163.924C247.443 164.649 247.443 165.831 248.592 166.557Z" fill="#263238"/>
<path d="M245.652 161.979C246.418 161.493 246.377 160.685 245.563 160.169L231.883 151.515C231.443 151.257 230.952 151.116 230.453 151.106C229.954 151.096 229.459 151.215 229.01 151.455C228.244 151.941 228.285 152.749 229.099 153.265L242.82 161.919C243.255 162.17 243.738 162.305 244.229 162.316C244.721 162.326 245.208 162.211 245.652 161.979Z" fill="#263238"/>
<path d="M222.3 126.883L222.766 126.584C222.444 127.86 222.288 129.179 222.3 130.503V132.328C222.3 138.881 229.489 155.621 232.136 161.545C232.41 162.166 228.778 166.392 228.778 166.392L233.094 163.67C233.094 163.67 243.881 153.946 243.881 145.957V144.132C243.881 136.106 239.052 126.554 233.094 122.791C230.084 120.899 227.369 120.832 225.413 122.268L221.309 124.841L222.3 126.883ZM227.697 133.009C227.697 129.269 230.112 127.721 233.094 129.606C232.848 132.022 236.883 139.547 238.484 139.823C238.484 143.563 236.069 145.112 233.094 143.227C231.528 142.105 230.225 140.595 229.293 138.82C228.36 137.044 227.822 135.054 227.725 133.009H227.697Z" fill="#275991"/>
<path d="M217.862 135.253C217.985 143.271 229.12 166.392 229.12 166.392C229.12 166.392 239.763 156.503 239.647 148.485V146.66C239.524 138.641 234.551 129.171 228.532 125.521C222.513 121.871 217.739 125.402 217.862 133.428V135.253ZM223.265 135.836C223.211 132.096 225.605 130.503 228.607 132.328C230.194 133.419 231.524 134.904 232.488 136.663C233.452 138.421 234.023 140.403 234.155 142.448C234.216 146.188 231.822 147.782 228.813 145.957C227.227 144.863 225.899 143.378 224.936 141.62C223.972 139.862 223.4 137.881 223.265 135.836Z" fill="#275991"/>
<path opacity="0.1" d="M217.862 135.253C217.985 143.271 229.12 166.392 229.12 166.392C229.12 166.392 239.763 156.503 239.647 148.485V146.66C239.524 138.641 234.551 129.171 228.532 125.521C222.513 121.871 217.739 125.402 217.862 133.428V135.253ZM223.265 135.836C223.211 132.096 225.605 130.503 228.607 132.328C230.194 133.419 231.524 134.904 232.488 136.663C233.452 138.421 234.023 140.403 234.155 142.448C234.216 146.188 231.822 147.782 228.813 145.957C227.227 144.863 225.899 143.378 224.936 141.62C223.972 139.862 223.4 137.881 223.265 135.836Z" fill="black"/>
<path d="M113.542 242.195C120.458 246.548 136.669 243.384 149.753 235.119L185.698 212.432C198.783 204.167 203.776 193.949 196.847 189.603C189.918 185.257 173.693 188.436 160.595 196.694L124.719 219.351C111.641 227.609 106.634 237.864 113.542 242.195Z" fill="#F0F0F0"/>
<path d="M218.197 52.0005H218.231L224.148 48.2605H224.196C227.924 46.196 232.903 46.7645 238.266 50.5793C249.046 58.164 257.274 75.6672 256.652 89.6623C256.337 96.6411 253.916 101.428 250.174 103.538H250.14L244.216 107.278H244.175C240.448 109.35 235.461 108.774 230.092 104.966C219.319 97.3742 211.09 79.8784 211.713 65.8834C212.041 58.897 214.497 54.1098 218.197 52.0005Z" fill="#37474F"/>
<path d="M244.516 107.083L250.159 103.493H250.2C253.907 101.376 256.356 96.5888 256.67 89.6174C256.944 83.3791 255.46 76.4452 252.778 70.0049L246.855 73.7449C249.543 80.1852 251.027 87.1191 250.747 93.3649C250.453 100.172 248.1 104.907 244.516 107.083Z" fill="#263238"/>
<path d="M230.119 104.959C219.346 97.3663 211.118 79.8706 211.74 65.8755C212.363 51.8804 221.617 46.6818 232.37 54.2665C243.122 61.8513 251.378 79.3545 250.756 93.3495C250.133 107.345 240.892 112.543 230.119 104.959Z" fill="#455A64"/>
<path d="M239.148 103.971C245.503 104.308 246.535 96.4913 246.672 93.1253C247.219 80.7833 239.654 64.7013 230.154 58.0067C228.129 56.456 225.773 55.5027 223.314 55.2391C216.966 54.9025 215.933 62.7191 215.79 66.0851C215.242 78.4271 222.801 94.5091 232.308 101.241C234.333 102.792 236.688 103.745 239.148 104.009V103.971Z" fill="#FAFAFA"/>
<path d="M230.002 81.9282C230.077 81.9285 230.151 81.9132 230.221 81.8833C230.364 81.8326 230.488 81.7319 230.573 81.5967C230.658 81.4615 230.7 81.2994 230.693 81.1353V63.3105C230.693 63.1121 230.621 62.9219 230.493 62.7816C230.364 62.6413 230.19 62.5625 230.009 62.5625C229.828 62.5625 229.654 62.6413 229.525 62.7816C229.397 62.9219 229.325 63.1121 229.325 63.3105V78.9661L221.712 68.2697C221.6 68.111 221.434 68.0077 221.252 67.9824C221.07 67.9572 220.886 68.0121 220.741 68.1351C220.596 68.2581 220.501 68.4391 220.478 68.6383C220.455 68.8375 220.505 69.0386 220.618 69.1973L229.476 81.6365C229.538 81.7251 229.617 81.7972 229.709 81.8477C229.8 81.8982 229.9 81.9257 230.002 81.9282Z" fill="#37474F"/>
<path d="M233.929 95.115C233.961 95.1219 233.994 95.1219 234.025 95.115C234.098 95.0907 234.159 95.0366 234.196 94.9641C234.233 94.8916 234.243 94.8063 234.223 94.726L230.386 80.5963C230.364 80.516 230.314 80.4484 230.247 80.4084C230.18 80.3684 230.101 80.3593 230.027 80.3831C229.954 80.4069 229.892 80.4617 229.855 80.5353C229.819 80.609 229.81 80.6955 229.832 80.7758L233.663 94.9056C233.682 94.9661 233.718 95.0186 233.766 95.0561C233.814 95.0935 233.871 95.1141 233.929 95.115Z" fill="#275991"/>
<path d="M230.221 77.5969C228.949 76.7068 227.861 77.3201 227.793 78.9657C227.797 79.8633 227.995 80.7471 228.371 81.5452C228.746 82.3433 229.289 83.0331 229.954 83.5584C231.22 84.456 232.307 83.8427 232.383 82.1971C232.377 81.2988 232.178 80.4145 231.803 79.6155C231.427 78.8165 230.886 78.1251 230.221 77.5969Z" fill="#275991"/>
<path d="M118.484 237.82L126.815 232.554L124.038 230.804L115.707 236.062L118.484 237.82Z" fill="#275991"/>
<path d="M135.152 227.296L143.49 222.03L140.706 220.279L132.375 225.538L135.152 227.296Z" fill="#275991"/>
<path d="M131.727 225.148C131.727 229.546 128.909 234.872 125.428 237.116C123.574 238.29 121.905 238.328 120.756 237.445C120.293 237.047 119.912 236.546 119.64 235.974C119.367 235.403 119.209 234.775 119.176 234.132C119.41 234.012 119.638 233.88 119.86 233.735C123.341 231.543 126.159 226.195 126.159 221.767C126.163 221.439 126.144 221.112 126.105 220.787C126.626 220.485 127.2 220.305 127.789 220.259C128.378 220.213 128.969 220.301 129.525 220.518C130.893 221.146 131.727 222.769 131.727 225.148Z" fill="#263238"/>
<path d="M132.293 216.112L132.177 216.038C130.426 215.02 128.073 215.207 125.426 216.868C120.056 220.256 115.699 228.499 115.699 235.284C115.699 238.695 116.8 241.081 118.579 242.188C120.357 243.295 122.758 243.108 125.419 241.44C130.788 238.051 135.139 229.801 135.139 223.016C135.145 219.606 134.065 217.219 132.293 216.112ZM125.453 237.101C123.593 238.276 121.924 238.313 120.775 237.423C119.762 236.675 119.147 235.179 119.147 233.122C119.147 228.731 121.972 223.398 125.453 221.154C127.04 220.152 128.483 219.98 129.557 220.496C130.884 221.117 131.719 222.74 131.719 225.133C131.725 229.561 128.907 234.91 125.426 237.116L125.453 237.101Z" fill="#37474F"/>
<path d="M129.88 220.698L129.805 220.653C128.67 219.987 127.131 220.114 125.428 221.184C121.946 223.383 119.121 228.731 119.121 233.152C119.121 235.396 119.805 236.892 120.988 237.64C122.172 238.388 123.724 238.238 125.428 237.146C128.909 234.947 131.727 229.599 131.727 225.178C131.727 222.964 131.023 221.408 129.88 220.698ZM125.428 235.546C123.936 236.488 122.596 236.518 121.666 235.8C120.858 235.179 120.359 233.99 120.359 232.344C120.455 230.421 120.964 228.551 121.844 226.883C122.725 225.216 123.953 223.799 125.428 222.747C125.907 222.381 126.457 222.143 127.036 222.051C127.614 221.959 128.204 222.015 128.759 222.216C129.826 222.717 130.496 224.019 130.496 225.956C130.401 227.878 129.892 229.748 129.011 231.414C128.131 233.081 126.903 234.496 125.428 235.546Z" fill="#275991"/>
<path d="M151.82 216.763L160.158 211.505L157.381 209.747L149.043 215.013L151.82 216.763Z" fill="#275991"/>
<path d="M168.499 206.239L176.83 200.98L174.053 199.223L165.715 204.489L168.499 206.239Z" fill="#275991"/>
<path d="M185.167 195.714L193.498 190.456L190.721 188.698L182.383 193.964L185.167 195.714Z" fill="#275991"/>
<path d="M143.682 146.773C143.769 146.646 143.891 146.552 144.031 146.506C144.17 146.46 144.319 146.463 144.456 146.516C144.593 146.568 144.711 146.667 144.794 146.798C144.876 146.929 144.918 147.086 144.914 147.245C144.967 147.67 144.927 148.104 144.798 148.51C144.668 148.915 144.452 149.282 144.168 149.578C143.621 150.094 143.067 149.885 142.937 149.107C142.884 148.681 142.924 148.248 143.053 147.842C143.183 147.437 143.398 147.07 143.682 146.773Z" fill="#275991"/>
<path d="M150.1 150.079L144.525 146.556L143.301 149.78L148.896 153.31L150.1 150.079Z" fill="#275991"/>
<path d="M149.242 150.281C149.789 149.773 150.336 149.982 150.473 150.76C150.523 151.185 150.481 151.617 150.351 152.021C150.22 152.425 150.004 152.79 149.72 153.086C149.173 153.602 148.619 153.393 148.489 152.615C148.439 152.189 148.481 151.756 148.612 151.35C148.743 150.945 148.958 150.579 149.242 150.281Z" fill="#275991"/>
<path d="M192.091 179.782C192.091 179.931 192.091 180.066 192.091 180.216C192.091 180.515 192.091 180.822 192.091 181.128C190.983 180.612 189.539 180.784 187.952 181.786C184.471 183.986 181.646 189.334 181.646 193.754C181.646 195.804 182.262 197.285 183.274 198.055C182.99 198.276 182.695 198.481 182.392 198.669L182.07 198.848L181.106 202.82L175.524 199.417C173.759 198.302 172.672 195.924 172.672 192.528C172.672 185.743 177.022 177.5 182.392 174.105C185.045 172.429 187.446 172.257 189.232 173.357L194.704 176.708L194.82 176.782L192.091 179.782Z" fill="#455A64"/>
<path d="M194.813 176.715L194.696 176.64C192.945 175.623 190.592 175.81 187.945 177.47C182.576 180.859 178.219 189.102 178.219 195.886C178.219 199.297 179.32 201.683 181.098 202.79C182.877 203.897 185.278 203.71 187.938 202.042C193.308 198.654 197.658 190.403 197.658 183.619C197.679 180.208 196.577 177.822 194.813 176.715ZM187.973 197.704C186.112 198.878 184.443 198.916 183.294 198.025C182.282 197.277 181.666 195.781 181.666 193.724C181.666 189.334 184.491 184 187.973 181.756C189.559 180.754 191.003 180.582 192.111 181.098C193.438 181.719 194.272 183.342 194.272 185.736C194.259 190.164 191.427 195.512 187.945 197.704H187.973Z" fill="#37474F"/>
<path d="M194.258 185.766C194.258 190.164 191.44 195.49 187.959 197.734C186.105 198.909 184.436 198.946 183.287 198.063C182.824 197.665 182.443 197.164 182.171 196.592C181.898 196.021 181.74 195.393 181.707 194.75C181.941 194.63 182.169 194.498 182.391 194.353C185.873 192.162 188.691 186.813 188.691 182.385C188.694 182.058 188.676 181.73 188.636 181.405C189.158 181.103 189.731 180.924 190.32 180.877C190.909 180.831 191.5 180.919 192.056 181.136C193.41 181.764 194.258 183.373 194.258 185.766Z" fill="#263238"/>
<path d="M192.396 181.301L192.321 181.249C191.185 180.591 189.64 180.71 187.943 181.787C184.462 183.986 181.637 189.327 181.637 193.755C181.637 195.999 182.321 197.495 183.504 198.243C184.687 198.991 186.24 198.834 187.943 197.742C191.425 195.551 194.243 190.202 194.243 185.774C194.257 183.568 193.573 182.019 192.396 181.301ZM187.943 196.141C186.445 197.091 185.105 197.121 184.181 196.403C183.367 195.782 182.875 194.593 182.875 192.948C182.971 191.025 183.479 189.154 184.36 187.487C185.241 185.819 186.468 184.402 187.943 183.351C189.215 182.543 190.378 182.401 191.267 182.82C192.334 183.321 193.005 184.622 193.005 186.56C192.91 188.48 192.402 190.348 191.522 192.013C190.643 193.678 189.417 195.092 187.943 196.141Z" fill="#275991"/>
<path d="M182.382 188.003L198.114 178.069C199.94 176.91 194.01 170.141 189.598 169.684C187.169 169.363 184.706 169.618 182.375 170.432C182.375 170.432 185.733 175.137 185.159 177.808C184.584 180.478 182.382 188.003 182.382 188.003Z" fill="#275991"/>
<path d="M160.158 159.931C160.158 159.931 182.963 172.512 183.948 173.268C184.933 174.023 183.948 182.797 182.381 188.003C180.815 193.209 178.407 201.213 177.443 203.457C176.479 205.701 175.22 206.539 172.908 207.997L156.492 218.372L134.269 221.334L125.445 216.098L127.744 200.308C127.744 200.308 151.362 186.567 154.597 184.525C157.833 182.483 167.402 172.901 160.158 159.931Z" fill="#275991"/>
<path opacity="0.2" d="M160.158 159.931C160.158 159.931 182.963 172.512 183.948 173.268C184.933 174.023 183.948 182.797 182.381 188.003C180.815 193.209 178.407 201.213 177.443 203.457C176.479 205.701 175.22 206.539 172.908 207.997L156.492 218.372L134.269 221.334L125.445 216.098L127.744 200.308C127.744 200.308 151.362 186.567 154.597 184.525C157.833 182.483 167.402 172.901 160.158 159.931Z" fill="black"/>
<path d="M184.388 185.003C186.44 178.974 187.972 173.978 187.712 170.604C187.397 166.602 186.029 163.334 179.996 161.688C173.964 160.042 165.53 160.072 165.53 160.072L162.965 161.695C162.965 161.695 180.311 172.691 182.281 173.888C183.485 174.636 184.771 177.935 182.411 188.01L182.815 188.264C183.013 188.399 183.731 186.94 184.388 185.003Z" fill="#275991"/>
<path opacity="0.3" d="M184.388 185.003C186.44 178.974 187.972 173.978 187.712 170.604C187.397 166.602 186.029 163.334 179.996 161.688C173.964 160.042 165.53 160.072 165.53 160.072L162.965 161.695C162.965 161.695 180.311 172.691 182.281 173.888C183.485 174.636 184.771 177.935 182.411 188.01L182.815 188.264C183.013 188.399 183.731 186.94 184.388 185.003Z" fill="white"/>
<path d="M171.246 166.946L174.05 165.196C174.05 165.196 173.886 154.567 169.796 151.986C165.705 149.406 151.82 151.164 151.82 151.164L149.043 152.914L171.246 166.946Z" fill="#275991"/>
<path d="M162.149 154.417C160.815 155.262 160.815 156.624 162.149 157.461C162.897 157.878 163.724 158.095 164.563 158.095C165.403 158.095 166.23 157.878 166.978 157.461C168.305 156.624 168.305 155.255 166.978 154.417C166.229 154.004 165.402 153.789 164.563 153.789C163.725 153.789 162.898 154.004 162.149 154.417Z" fill="#F0F0F0"/>
<path d="M166.418 159.497C165.481 160.095 165.481 161.06 166.418 161.651C166.947 161.947 167.533 162.101 168.128 162.101C168.722 162.101 169.308 161.947 169.838 161.651C170.782 161.06 170.782 160.095 169.838 159.497C169.307 159.204 168.722 159.052 168.128 159.052C167.534 159.052 166.948 159.204 166.418 159.497Z" fill="#F0F0F0"/>
<path d="M155.673 153.064C154.729 153.655 154.729 154.62 155.673 155.218C156.203 155.511 156.789 155.663 157.383 155.663C157.977 155.663 158.562 155.511 159.093 155.218C160.037 154.62 160.037 153.655 159.093 153.064C158.563 152.768 157.977 152.613 157.383 152.613C156.788 152.613 156.202 152.768 155.673 153.064Z" fill="#F0F0F0"/>
<path d="M171.685 163.865C172.232 163.349 172.779 163.558 172.916 164.336C172.966 164.762 172.925 165.196 172.794 165.601C172.663 166.006 172.447 166.372 172.164 166.67C172.077 166.797 171.955 166.891 171.815 166.937C171.676 166.983 171.527 166.98 171.39 166.928C171.253 166.875 171.135 166.776 171.052 166.645C170.97 166.514 170.928 166.358 170.932 166.199C170.88 165.772 170.921 165.338 171.051 164.933C171.182 164.527 171.399 164.161 171.685 163.865Z" fill="#275991"/>
<path d="M178.068 167.171L172.487 163.647L171.27 166.871L176.858 170.394L178.068 167.171Z" fill="#275991"/>
<path d="M177.203 167.373C177.29 167.246 177.412 167.152 177.551 167.106C177.69 167.059 177.839 167.063 177.977 167.115C178.114 167.168 178.232 167.267 178.315 167.398C178.397 167.529 178.439 167.685 178.434 167.844C178.486 168.27 178.445 168.704 178.315 169.11C178.184 169.516 177.967 169.882 177.682 170.178C177.135 170.694 176.588 170.477 176.451 169.707C176.4 169.28 176.441 168.847 176.572 168.442C176.703 168.036 176.919 167.67 177.203 167.373Z" fill="#275991"/>
<path d="M177.203 167.373C177.29 167.246 177.412 167.152 177.551 167.106C177.69 167.059 177.839 167.063 177.977 167.115C178.114 167.168 178.232 167.267 178.315 167.398C178.397 167.529 178.439 167.685 178.434 167.844C178.486 168.27 178.445 168.704 178.315 169.11C178.184 169.516 177.967 169.882 177.682 170.178C177.135 170.694 176.588 170.477 176.451 169.707C176.4 169.28 176.441 168.847 176.572 168.442C176.703 168.036 176.919 167.67 177.203 167.373Z" fill="black"/>
<path d="M129.572 219.165C129.572 219.314 129.572 219.449 129.572 219.598C129.572 219.898 129.572 220.204 129.572 220.511C128.464 219.995 127.021 220.167 125.468 221.169C121.986 223.368 119.162 228.717 119.162 233.137C119.162 235.187 119.777 236.668 120.789 237.438C120.505 237.659 120.211 237.864 119.907 238.052L119.586 238.231L118.621 242.203L113.04 238.8C111.275 237.685 110.188 235.306 110.188 231.911C110.188 225.126 114.538 216.883 119.907 213.487C122.561 211.812 124.962 211.64 126.747 212.739L132.219 216.09L132.335 216.165L129.572 219.165Z" fill="#455A64"/>
<path d="M112.923 207.294L108.758 223.084L117.096 228.35L121.412 212.657L112.923 207.294Z" fill="#275991"/>
<path opacity="0.2" d="M112.923 207.294L108.758 223.084L117.096 228.35L121.412 212.657L112.923 207.294Z" fill="black"/>
<path d="M112.922 207.294C112.922 207.294 117.648 211.685 121.41 212.657C126.349 213.966 134.201 214.108 136.985 214.318C141.239 214.639 144.454 214.632 145.959 214.041C147.908 213.293 153.148 209.964 154.598 209.052C157.375 207.301 158.558 200.412 150.904 198.527C145.729 197.355 140.458 196.766 135.172 196.77L112.922 207.294Z" fill="#275991"/>
<path d="M160.057 205.274C159.819 205.925 159.658 206.606 159.578 207.301C159.358 208.024 159.306 208.795 159.427 209.545C159.949 210.488 160.769 211.188 161.733 211.512C162.426 211.681 163.145 211.692 163.842 211.544C164.54 211.396 165.203 211.092 165.789 210.652C167.205 209.724 168.272 208.602 170.283 207.974C171.72 207.641 173.074 206.97 174.25 206.007C175.365 205.027 176.856 202.319 174.722 201.691C172.588 201.063 167.95 203.277 163.723 203.479L160.057 205.274Z" fill="#37474F"/>
<path d="M160.059 202.387V205.842C160.188 206.231 160.413 206.572 160.709 206.83C161.004 207.087 161.359 207.25 161.734 207.301C162.078 207.356 162.429 207.315 162.754 207.181C163.266 206.967 163.71 206.594 164.031 206.108C164.352 205.621 164.535 205.043 164.559 204.444L164.682 202.387H160.059Z" fill="#FFA8A7"/>
<path d="M166.075 181.017C166.075 185.318 164.967 203.913 164.967 203.913C164.967 203.913 163.359 206.157 159.864 203.913L158.688 183.133L166.075 181.017Z" fill="#37474F"/>
<path d="M147.746 199.342L158.69 192.445C159.139 192.188 159.514 191.801 159.776 191.327C160.038 190.853 160.177 190.31 160.177 189.756C160.177 189.202 160.038 188.659 159.776 188.185C159.514 187.711 159.139 187.325 158.69 187.067L150.537 181.921C150.078 181.667 149.57 181.534 149.056 181.534C148.541 181.534 148.034 181.667 147.575 181.921L136.631 188.818C136.185 189.077 135.811 189.464 135.551 189.938C135.29 190.411 135.152 190.954 135.152 191.507C135.152 192.059 135.29 192.602 135.551 193.076C135.811 193.549 136.185 193.937 136.631 194.196L144.784 199.342C145.243 199.596 145.751 199.729 146.265 199.729C146.78 199.729 147.287 199.596 147.746 199.342Z" fill="#275991"/>
<path d="M147.746 199.342L158.69 192.445C159.139 192.188 159.514 191.801 159.776 191.327C160.038 190.853 160.177 190.31 160.177 189.756C160.177 189.202 160.038 188.659 159.776 188.185C159.514 187.711 159.139 187.325 158.69 187.067L150.537 181.921C150.078 181.667 149.57 181.534 149.056 181.534C148.541 181.534 148.034 181.667 147.575 181.921L136.631 188.818C136.185 189.077 135.811 189.464 135.551 189.938C135.29 190.411 135.152 190.954 135.152 191.507C135.152 192.059 135.29 192.602 135.551 193.076C135.811 193.549 136.185 193.937 136.631 194.196L144.784 199.342C145.243 199.596 145.751 199.729 146.265 199.729C146.78 199.729 147.287 199.596 147.746 199.342Z" fill="white"/>
<path d="M136.628 190.688L144.782 195.834C145.241 196.088 145.748 196.221 146.263 196.221C146.777 196.221 147.284 196.088 147.743 195.834L158.687 188.937C158.866 188.871 159.021 188.745 159.131 188.577C159.241 188.41 159.3 188.209 159.3 188.002C159.3 187.796 159.241 187.595 159.131 187.427C159.021 187.259 158.866 187.134 158.687 187.067L150.534 181.921C150.075 181.667 149.568 181.534 149.053 181.534C148.539 181.534 148.031 181.667 147.572 181.921L136.628 188.818C136.45 188.884 136.295 189.01 136.185 189.177C136.075 189.345 136.016 189.546 136.016 189.753C136.016 189.959 136.075 190.16 136.185 190.328C136.295 190.495 136.45 190.621 136.628 190.688Z" fill="#275991"/>
<path d="M143.298 144.91L141.91 151.171L135.945 151.567L137.231 142.891L143.298 144.91Z" fill="#FFA8A7"/>
<path d="M149.115 140.198C149.115 140.198 149.799 142.846 149.518 142.996C149.088 143.068 148.649 143.068 148.219 142.996L149.115 140.198Z" fill="#F28F8F"/>
<path d="M147.971 131.745C148.929 132.979 149.805 135.007 149.127 139.973C148.389 145.404 147.472 146.032 146.733 146.556C145.769 147.244 141.911 146.877 140.824 146.01C139.517 144.97 137.499 141.671 137.021 138.417C136.46 134.595 137.629 130.354 140.201 129.628C143.82 128.604 147.157 130.698 147.971 131.745Z" fill="#FFA8A7"/>
<path d="M136.632 144.649C137.555 145.696 139.45 145.98 140.64 146.219C141.83 146.459 145.489 146.721 146.57 143.871C147.651 141.021 146.912 138.971 148.239 138.283C149.566 137.595 150.893 137.146 151.242 136.787C151.591 136.428 151.597 131.738 148.034 129.307C144.47 126.876 139.012 126.315 135.421 131.245C132.699 135.052 133.813 141.432 136.632 144.649Z" fill="#455A64"/>
<path d="M140.223 146.257C141.146 146.347 144.067 145.845 144.949 144.529C145.831 143.213 146.187 140.856 146.317 139.622C146.329 139.136 146.492 138.669 146.779 138.298C147.066 137.927 147.461 137.673 147.897 137.58C148.779 137.273 150.729 136.226 150.729 136.226V135.643C151.358 135.6 151.988 135.6 152.617 135.643C153.027 135.725 152.801 136.391 151.762 136.967C150.722 137.543 147.87 138.657 147.432 139.039C146.994 139.42 146.789 141.028 146.44 142.741C146.091 144.454 145.011 147.012 140.223 146.257Z" fill="#37474F"/>
<path d="M148.428 153.34L151.848 151.193C152.176 150.109 151.649 149.563 150.719 149.63C149.789 149.697 150.076 148.71 149.508 148.433C148.763 148.059 148.339 148.269 148.003 148.097C147.668 147.925 147.525 147.491 147.087 147.438C145.131 147.236 143.797 150.288 143.797 150.288L148.428 153.34Z" fill="#F28F8F"/>
<path d="M125.215 180.807C125.215 180.807 140.324 172.616 142.958 171.292C145.591 169.968 149.723 168.046 151.918 168.046C152.776 168.123 153.58 168.537 154.182 169.21C154.784 169.883 155.143 170.771 155.195 171.711C155.223 173.154 155.148 174.597 154.969 176.027C150.818 177.516 146.575 178.684 142.274 179.52C135.988 180.717 125.215 180.807 125.215 180.807Z" fill="#37474F"/>
<path d="M126.857 176.072C126.857 179.468 126.563 182.998 127.856 185.482C129.148 187.965 136.152 193.71 142.746 192.505C147.055 191.712 159.846 185.272 159.846 185.272C159.846 185.272 166.05 182.781 166.077 181.009C166.118 178.398 165.954 174.718 160.544 174.875C155.612 175.017 141.064 178.338 141.064 178.338L126.857 176.072Z" fill="#455A64"/>
<path d="M131.078 149.167C133.417 146.496 134.997 146.272 136.119 146.601C138.697 147.408 141.193 148.501 143.568 149.862C143.568 149.862 142.665 159.422 146.94 162.174V177.075C146.94 177.075 146.81 178.69 144.949 180.298C143.308 181.712 139.594 183.141 135.161 182.737C129.894 182.258 126.858 176.072 126.858 176.072C126.858 176.072 126.721 163.887 127.466 159.048C128.342 153.4 130.271 150.094 131.078 149.167Z" fill="#455A64"/>
<path d="M146.939 162.899C146.939 162.899 144.353 160.655 143.566 157.738C143.566 157.738 143.874 162.316 146.939 164.635V162.899Z" fill="#37474F"/>
<path d="M170.872 169.931C172.1 169.987 173.308 169.577 174.292 168.772C174.292 168.772 175.482 166.244 176.946 166.461C176.946 166.461 177.206 165.383 176.604 165.032C176.002 164.68 175.742 164.778 175.496 164.404C175.249 164.03 175.222 163.334 174.128 163.334C173.676 163.334 173.738 162.982 172.643 162.84C171.549 162.698 170.468 165.458 169.668 165.458L170.872 169.931Z" fill="#FFA8A7"/>
<path d="M143.568 149.862C147.323 150.498 148.684 151.717 150.052 153.101C151.42 154.485 159.792 163.67 159.792 163.67L169.929 165.264C170.462 165.735 170.853 166.371 171.051 167.089C171.461 168.39 171.092 169.811 170.702 170.148C170.702 170.148 160.647 170.806 158.67 170.395C156.694 169.984 146.906 162.878 146.906 162.878C145.97 162.106 145.185 161.137 144.598 160.029C144.011 158.92 143.632 157.694 143.486 156.422C142.849 151.912 143.568 149.862 143.568 149.862Z" fill="#455A64"/>
<path d="M134.551 189.371L119.017 210.106C118.845 210.13 118.671 210.142 118.497 210.143C117.881 210.154 117.273 209.997 116.726 209.687L103.607 201.399L102.717 200.838C102.232 200.531 101.828 199.275 101.828 198.033V194.54C101.828 190.952 102.691 187.426 104.331 184.319C105.971 181.211 108.33 178.63 111.172 176.835L126.835 166.946L143.504 177.471L134.551 189.371Z" fill="#275991"/>
<g opacity="0.1">
<path d="M134.551 189.371L119.017 210.106C118.845 210.13 118.671 210.142 118.497 210.143C117.881 210.154 117.273 209.997 116.726 209.687L103.607 201.399L102.717 200.838C102.232 200.531 101.828 199.275 101.828 198.033V194.54C101.828 190.952 102.691 187.426 104.331 184.319C105.971 181.211 108.33 178.63 111.172 176.835L126.835 166.946L143.504 177.471L134.551 189.371Z" fill="black"/>
</g>
<path d="M129.195 196.523L143.483 177.478L126.814 166.954L111.157 176.835C109.132 178.117 107.345 179.805 105.891 181.809L129.195 196.523Z" fill="#275991"/>
<path d="M143.484 192.767C143.484 194.009 143.087 195.266 142.594 195.572L141.705 196.133L120.255 209.68C119.865 209.91 119.437 210.054 118.996 210.106C118.824 210.13 118.65 210.142 118.477 210.143V205.064C118.476 201.475 119.34 197.949 120.981 194.841C122.623 191.733 124.984 189.153 127.827 187.359L129.598 186.245L143.484 177.471V192.767Z" fill="#275991"/>
<g opacity="0.2">
<path d="M143.484 192.767C143.484 194.009 143.087 195.266 142.594 195.572L141.705 196.133L120.255 209.68C119.865 209.91 119.437 210.054 118.996 210.106C118.824 210.13 118.65 210.142 118.477 210.143V205.064C118.476 201.475 119.34 197.949 120.981 194.841C122.623 191.733 124.984 189.153 127.827 187.359L129.598 186.245L143.484 177.471V192.767Z" fill="black"/>
</g>
<path d="M148.086 218.424L156.479 218.394L168.49 210.81L156.725 220.107L147.867 220.242L148.086 218.424Z" fill="#E0E0E0"/>
<path d="M127.711 231.484C127.711 231.484 142.841 225.246 144.127 224.513C145.637 223.501 147.069 222.358 148.409 221.094C148.683 220.699 148.811 220.205 148.77 219.711C148.728 219.217 148.519 218.758 148.183 218.424C148.183 218.424 142.027 218.117 140.447 218.648C139.565 218.94 125.324 223.937 125.324 223.937L127.711 231.484Z" fill="#E0E0E0"/>
<path d="M127.035 224.513C125.783 223.339 124.525 223.825 124.217 225.59C124.1 226.564 124.194 227.555 124.492 228.481C124.79 229.408 125.284 230.245 125.934 230.923C127.186 232.098 128.444 231.619 128.752 229.846C128.869 228.872 128.775 227.882 128.476 226.955C128.178 226.029 127.684 225.192 127.035 224.513Z" fill="#455A64"/>
</svg>
