<svg width="342" height="374" viewBox="0 0 342 374" fill="none" xmlns="http://www.w3.org/2000/svg">
<path d="M171 319.815C244.244 319.815 303.62 316.024 303.62 311.347C303.62 306.671 244.244 302.88 171 302.88C97.7552 302.88 38.3789 306.671 38.3789 311.347C38.3789 316.024 97.7552 319.815 171 319.815Z" fill="#F5F5F5"/>
<path d="M65.3203 221.962L90.2658 193.561H142.954L170.437 221.962H65.3203Z" fill="#275991"/>
<path opacity="0.1" d="M90.2658 192.939L121.244 223.233L65.3203 221.341L90.2658 192.939Z" fill="black"/>
<path d="M158.161 225.373H64.7539V262.257H158.161V225.373Z" fill="#275991"/>
<path opacity="0.8" d="M158.161 225.373H64.7539V262.257H158.161V225.373Z" fill="white"/>
<path opacity="0.05" d="M119.789 225.373H64.7539V262.257H119.789V225.373Z" fill="black"/>
<path d="M154.939 230.624H101.156V252.353H154.939V230.624Z" fill="#275991"/>
<path opacity="0.1" d="M101.156 230.624V252.353H154.932V230.624H101.156ZM152.75 250.304H103.065V233.04H152.75V250.304Z" fill="white"/>
<path opacity="0.1" d="M121.464 230.624H101.156V252.353H121.464V230.624Z" fill="black"/>
<path d="M150.418 233.04H104.863V249.93H150.418V233.04Z" fill="#275991"/>
<path opacity="0.5" d="M150.425 233.047H104.863V249.937H150.425V233.047Z" fill="white"/>
<path opacity="0.05" d="M120.021 233.04H104.863V249.93H120.021V233.04Z" fill="black"/>
<path opacity="0.3" d="M117.383 233.047L113.245 249.937H107.602L111.74 233.047H117.383Z" fill="white"/>
<path opacity="0.3" d="M150.426 233.047V247.827L149.906 249.937H144.27L148.401 233.047H150.426Z" fill="white"/>
<path opacity="0.3" d="M120.732 233.047L116.601 249.937H114.973L119.104 233.047H120.732Z" fill="white"/>
<path opacity="0.3" d="M146.808 233.047L142.669 249.937H141.855L145.987 233.047H146.808Z" fill="white"/>
<path d="M92.2302 233.145H64.6992V250.139H92.2302V233.145Z" fill="black"/>
<path d="M92.2302 233.145H64.6992V250.139H92.2302V233.145Z" fill="#275991"/>
<path opacity="0.5" d="M92.2302 233.145H64.6992V250.139H92.2302V233.145Z" fill="white"/>
<path opacity="0.3" d="M64.6992 233.145V248.134L68.3655 233.145H64.6992Z" fill="white"/>
<path opacity="0.3" d="M72.2145 233.145L68.0558 250.139H66.1953L70.354 233.145H72.2145Z" fill="white"/>
<path d="M146.026 249.93H111.348V251.149H112.928V262.586H113.783V261.913H125.103V262.586H125.951V261.913H137.271V262.586H138.126V261.913H149.645V262.586H150.479V261.913H161.8V262.586H162.655V261.913H173.975V262.586H174.823V251.149H176.41V249.93H146.026ZM125.103 261.591H113.783V260.372H125.103V261.591ZM125.103 260.05H113.783V258.808H125.103V260.05ZM125.103 258.509H113.783V257.312H125.103V258.509ZM125.103 256.968H113.783V255.742H125.103V256.968ZM125.103 255.427H113.783V254.201H125.103V255.427ZM125.103 253.887H113.783V252.66H125.103V253.887ZM125.103 252.346H113.783V251.149H125.103V252.346ZM137.271 261.591H125.951V260.372H137.271V261.591ZM137.271 260.05H125.951V258.808H137.271V260.05ZM137.271 258.509H125.951V257.312H137.271V258.509ZM137.271 256.968H125.951V255.742H137.271V256.968ZM137.271 255.427H125.951V254.201H137.271V255.427ZM137.271 253.887H125.951V252.66H137.271V253.887ZM137.271 252.346H125.951V251.149H137.271V252.346ZM149.645 261.591H138.126V260.372H149.645V261.591ZM149.645 260.05H138.126V258.808H149.645V260.05ZM149.645 258.509H138.126V257.312H149.645V258.509ZM149.645 256.968H138.126V255.742H149.645V256.968ZM149.645 255.427H138.126V254.201H149.645V255.427ZM149.645 253.887H138.126V252.66H149.645V253.887ZM149.645 252.346H138.126V251.149H149.645V252.346ZM161.813 261.591H150.479V260.372H161.8L161.813 261.591ZM161.813 260.05H150.479V258.808H161.8L161.813 260.05ZM161.813 258.509H150.479V257.312H161.8L161.813 258.509ZM161.813 256.968H150.479V255.742H161.8L161.813 256.968ZM161.813 255.427H150.479V254.201H161.8L161.813 255.427ZM161.813 253.887H150.479V252.66H161.8L161.813 253.887ZM161.813 252.346H150.479V251.149H161.8L161.813 252.346ZM173.988 261.591H162.668V260.372H173.988V261.591ZM173.988 260.05H162.668V258.808H173.988V260.05ZM173.988 258.509H162.668V257.312H173.988V258.509ZM173.988 256.968H162.668V255.742H173.988V256.968ZM173.988 255.427H162.668V254.201H173.988V255.427ZM173.988 253.887H162.668V252.66H173.988V253.887ZM173.988 252.346H162.668V251.149H173.988V252.346Z" fill="#275991"/>
<path opacity="0.3" d="M146.026 249.93H111.348V251.149H112.928V262.586H113.783V261.913H125.103V262.586H125.951V261.913H137.271V262.586H138.126V261.913H149.645V262.586H150.479V261.913H161.8V262.586H162.655V261.913H173.975V262.586H174.823V251.149H176.41V249.93H146.026ZM125.103 261.591H113.783V260.372H125.103V261.591ZM125.103 260.05H113.783V258.808H125.103V260.05ZM125.103 258.509H113.783V257.312H125.103V258.509ZM125.103 256.968H113.783V255.742H125.103V256.968ZM125.103 255.427H113.783V254.201H125.103V255.427ZM125.103 253.887H113.783V252.66H125.103V253.887ZM125.103 252.346H113.783V251.149H125.103V252.346ZM137.271 261.591H125.951V260.372H137.271V261.591ZM137.271 260.05H125.951V258.808H137.271V260.05ZM137.271 258.509H125.951V257.312H137.271V258.509ZM137.271 256.968H125.951V255.742H137.271V256.968ZM137.271 255.427H125.951V254.201H137.271V255.427ZM137.271 253.887H125.951V252.66H137.271V253.887ZM137.271 252.346H125.951V251.149H137.271V252.346ZM149.645 261.591H138.126V260.372H149.645V261.591ZM149.645 260.05H138.126V258.808H149.645V260.05ZM149.645 258.509H138.126V257.312H149.645V258.509ZM149.645 256.968H138.126V255.742H149.645V256.968ZM149.645 255.427H138.126V254.201H149.645V255.427ZM149.645 253.887H138.126V252.66H149.645V253.887ZM149.645 252.346H138.126V251.149H149.645V252.346ZM161.813 261.591H150.479V260.372H161.8L161.813 261.591ZM161.813 260.05H150.479V258.808H161.8L161.813 260.05ZM161.813 258.509H150.479V257.312H161.8L161.813 258.509ZM161.813 256.968H150.479V255.742H161.8L161.813 256.968ZM161.813 255.427H150.479V254.201H161.8L161.813 255.427ZM161.813 253.887H150.479V252.66H161.8L161.813 253.887ZM161.813 252.346H150.479V251.149H161.8L161.813 252.346ZM173.988 261.591H162.668V260.372H173.988V261.591ZM173.988 260.05H162.668V258.808H173.988V260.05ZM173.988 258.509H162.668V257.312H173.988V258.509ZM173.988 256.968H162.668V255.742H173.988V256.968ZM173.988 255.427H162.668V254.201H173.988V255.427ZM173.988 253.887H162.668V252.66H173.988V253.887ZM173.988 252.346H162.668V251.149H173.988V252.346Z" fill="white"/>
<path d="M173.675 264.501H137.43V307.616H173.675V264.501Z" fill="#275991"/>
<path opacity="0.3" d="M173.675 264.501H137.43V307.616H173.675V264.501Z" fill="white"/>
<path d="M67.7428 262.257H60.1367V307.683H67.7428V262.257Z" fill="#275991"/>
<path opacity="0.3" d="M67.7428 262.257H60.1367V307.683H67.7428V262.257Z" fill="white"/>
<path opacity="0.2" d="M67.7421 266.468H62.9062V307.683H67.7421V266.468Z" fill="white"/>
<path d="M158.223 263.7H64.7539V307.683H158.223V263.7Z" fill="#275991"/>
<path opacity="0.8" d="M158.223 263.7H64.7539V307.683H158.223V263.7Z" fill="white"/>
<path opacity="0.05" d="M112.757 263.7H64.7539V307.683H112.757V263.7Z" fill="black"/>
<path d="M104.993 273.125H86.9766V290.12H104.993V273.125Z" fill="black"/>
<path d="M85.884 273.125H69.0234V290.12H85.884V273.125Z" fill="black"/>
<path d="M85.884 273.125H69.0234V290.12H85.884V273.125Z" fill="#275991"/>
<path d="M104.993 273.125H86.9766V290.12H104.993V273.125Z" fill="#275991"/>
<path opacity="0.5" d="M104.993 273.125H86.9766V290.12H104.993V273.125Z" fill="white"/>
<path opacity="0.5" d="M85.884 273.125H69.0234V290.12H85.884V273.125Z" fill="white"/>
<path opacity="0.3" d="M80.4868 273.125L76.3212 290.12H69.8438L74.0025 273.125H80.4868Z" fill="white"/>
<path opacity="0.3" d="M84.3317 273.125L80.173 290.12H78.3125L82.4712 273.125H84.3317Z" fill="white"/>
<path opacity="0.3" d="M104.995 274.823V290.12H101.254L104.995 274.823Z" fill="white"/>
<path d="M159.021 290.12V273.125H162.325V270.163H137.934V293.127H162.325V290.12H159.021Z" fill="#275991"/>
<path d="M159.736 273.125H142.875V290.12H159.736V273.125Z" fill="black"/>
<path d="M159.736 273.125H142.875V290.12H159.736V273.125Z" fill="#275991"/>
<path opacity="0.5" d="M159.736 273.125H142.875V290.12H159.736V273.125Z" fill="white"/>
<path opacity="0.3" d="M154.332 273.125L150.173 290.12H143.695L147.854 273.125H154.332Z" fill="white"/>
<path opacity="0.3" d="M158.182 273.125L154.024 290.12H152.156L156.315 273.125H158.182Z" fill="white"/>
<path opacity="0.1" d="M140.235 270.163H137.93V293.127H140.235V270.163Z" fill="black"/>
<path d="M129.071 273.125H117.23V307.683H129.071V273.125Z" fill="#275991"/>
<path opacity="0.1" d="M127.983 273.125H117.23V307.683H127.983V273.125Z" fill="white"/>
<path opacity="0.2" d="M126.716 275.451H124.363V286.335H126.716V275.451Z" fill="white"/>
<path d="M176.259 266.071H170.172V307.683H176.259V266.071Z" fill="#275991"/>
<path opacity="0.3" d="M176.259 266.071H170.172V307.683H176.259V266.071Z" fill="white"/>
<path opacity="0.2" d="M176.255 266.071H173.211V307.683H176.255V266.071Z" fill="white"/>
<path d="M176.255 262.257H63.3672V266.58H176.255V262.257Z" fill="#275991"/>
<path opacity="0.3" d="M176.255 262.257H63.3672V266.58H176.255V262.257Z" fill="white"/>
<path opacity="0.2" d="M176.259 262.257H133.789V266.58H176.259V262.257Z" fill="white"/>
<path d="M174.781 221.071H60.1289V225.395H174.781V221.071Z" fill="#275991"/>
<path opacity="0.3" d="M174.781 221.071H60.1289V225.395H174.781V221.071Z" fill="white"/>
<path opacity="0.2" d="M174.782 221.071H130.555V225.395H174.782V221.071Z" fill="white"/>
<path d="M179.543 306.62H56.1629L54.7812 307.682H180.925L179.543 306.62Z" fill="#275991"/>
<path d="M154.842 88.9375H77.6117C75.4207 88.9375 73.6445 90.8799 73.6445 93.2759V141.986C73.6445 144.382 75.4207 146.324 77.6117 146.324H154.842C157.033 146.324 158.809 144.382 158.809 141.986V93.2759C158.809 90.8799 157.033 88.9375 154.842 88.9375Z" fill="#275991"/>
<path opacity="0.6" d="M154.842 88.9375H77.6117C75.4207 88.9375 73.6445 90.8799 73.6445 93.2759V141.986C73.6445 144.382 75.4207 146.324 77.6117 146.324H154.842C157.033 146.324 158.809 144.382 158.809 141.986V93.2759C158.809 90.8799 157.033 88.9375 154.842 88.9375Z" fill="white"/>
<path d="M116.914 195.109V143.751H115.546V195.109C115.212 195.279 114.94 195.569 114.777 195.931C114.614 196.293 114.568 196.705 114.648 197.099C114.727 197.493 114.928 197.846 115.216 198.098C115.503 198.351 115.861 198.489 116.23 198.489C116.6 198.489 116.958 198.351 117.245 198.098C117.533 197.846 117.734 197.493 117.813 197.099C117.893 196.705 117.847 196.293 117.684 195.931C117.521 195.569 117.249 195.279 116.914 195.109Z" fill="#275991"/>
<path opacity="0.6" d="M116.914 195.109V143.751H115.546V195.109C115.212 195.279 114.94 195.569 114.777 195.931C114.614 196.293 114.568 196.705 114.648 197.099C114.727 197.493 114.928 197.846 115.216 198.098C115.503 198.351 115.861 198.489 116.23 198.489C116.6 198.489 116.958 198.351 117.245 198.098C117.533 197.846 117.734 197.493 117.813 197.099C117.893 196.705 117.847 196.293 117.684 195.931C117.521 195.569 117.249 195.279 116.914 195.109Z" fill="white"/>
<path d="M151.411 113.86H121.643C121.429 113.86 121.224 113.767 121.072 113.601C120.921 113.436 120.836 113.211 120.836 112.977C120.835 112.86 120.855 112.745 120.895 112.637C120.936 112.529 120.995 112.431 121.07 112.348C121.145 112.265 121.234 112.2 121.333 112.155C121.431 112.11 121.537 112.087 121.643 112.087H151.411C151.627 112.087 151.834 112.181 151.986 112.348C152.139 112.515 152.225 112.741 152.225 112.977C152.225 113.094 152.204 113.209 152.163 113.317C152.122 113.424 152.062 113.522 151.986 113.604C151.91 113.686 151.82 113.751 151.722 113.795C151.623 113.839 151.517 113.861 151.411 113.86Z" fill="#275991"/>
<path d="M151.411 121.565H121.643C121.537 121.565 121.431 121.542 121.333 121.497C121.234 121.452 121.145 121.386 121.07 121.304C120.995 121.221 120.936 121.123 120.895 121.015C120.855 120.907 120.835 120.791 120.836 120.675C120.836 120.559 120.857 120.444 120.897 120.337C120.938 120.23 120.997 120.133 121.072 120.051C121.147 119.969 121.236 119.904 121.334 119.859C121.432 119.815 121.537 119.792 121.643 119.792H151.411C151.517 119.791 151.623 119.813 151.722 119.857C151.82 119.901 151.91 119.966 151.986 120.048C152.062 120.13 152.122 120.228 152.163 120.335C152.204 120.443 152.225 120.558 152.225 120.675C152.225 120.911 152.139 121.137 151.986 121.304C151.834 121.471 151.627 121.565 151.411 121.565Z" fill="#275991"/>
<path d="M151.411 129.269H121.643C121.537 129.269 121.431 129.245 121.333 129.201C121.234 129.156 121.145 129.09 121.07 129.007C120.995 128.925 120.936 128.826 120.895 128.718C120.855 128.611 120.835 128.495 120.836 128.378C120.836 128.144 120.921 127.918 121.072 127.752C121.223 127.585 121.428 127.49 121.643 127.488H151.411C151.627 127.488 151.834 127.582 151.986 127.749C152.139 127.916 152.225 128.142 152.225 128.378C152.225 128.614 152.139 128.841 151.986 129.008C151.834 129.175 151.627 129.269 151.411 129.269Z" fill="#275991"/>
<path d="M151.411 136.966H121.643C121.537 136.966 121.432 136.943 121.334 136.899C121.236 136.855 121.147 136.79 121.072 136.708C120.997 136.626 120.938 136.528 120.897 136.421C120.857 136.314 120.836 136.199 120.836 136.083C120.835 135.967 120.855 135.851 120.895 135.743C120.936 135.635 120.995 135.537 121.07 135.455C121.145 135.372 121.234 135.306 121.333 135.261C121.431 135.216 121.537 135.193 121.643 135.193H151.411C151.627 135.193 151.834 135.287 151.986 135.454C152.139 135.621 152.225 135.847 152.225 136.083C152.225 136.2 152.204 136.315 152.163 136.423C152.122 136.531 152.062 136.628 151.986 136.71C151.91 136.792 151.82 136.857 151.722 136.901C151.623 136.945 151.517 136.967 151.411 136.966Z" fill="#275991"/>
<path d="M80.9922 97.7702H82.8869C83.2073 97.7433 83.5293 97.7891 83.8327 97.9047C84.1362 98.0203 84.4145 98.2032 84.6503 98.442C84.886 98.6808 85.0741 98.9703 85.2028 99.2923C85.3314 99.6143 85.3978 99.962 85.3978 100.313C85.3978 100.665 85.3314 101.012 85.2028 101.334C85.0741 101.656 84.886 101.946 84.6503 102.185C84.4145 102.424 84.1362 102.606 83.8327 102.722C83.5293 102.838 83.2073 102.883 82.8869 102.857H80.9922V97.7702ZM82.8595 102.385C83.1184 102.402 83.3776 102.361 83.6214 102.265C83.8652 102.168 84.0884 102.018 84.2772 101.823C84.4659 101.629 84.6164 101.394 84.7192 101.134C84.822 100.874 84.875 100.593 84.875 100.31C84.875 100.026 84.822 99.7455 84.7192 99.4851C84.6164 99.2248 84.4659 98.9902 84.2772 98.7958C84.0884 98.6014 83.8652 98.4513 83.6214 98.3546C83.3776 98.258 83.1184 98.2169 82.8595 98.2339H81.4915V102.385H82.8595Z" fill="#275991"/>
<path d="M89.7598 102.386V102.857H86.4766V97.7705H89.6572V98.2343H86.9622V100.044H89.3699V100.501H86.9622V102.386H89.7598Z" fill="#275991"/>
<path d="M90.918 97.7705H91.4036V102.386H94.0097V102.857H90.918V97.7705Z" fill="#275991"/>
<path d="M94.8203 97.7705H95.3128V102.857H94.8203V97.7705Z" fill="#275991"/>
<path d="M100.637 97.7705L98.5845 102.857H98.0989L96.0469 97.7705H96.5804L98.3588 102.184L100.151 97.7705H100.637Z" fill="#275991"/>
<path d="M104.588 102.386V102.857H101.305V97.7705H104.492V98.2343H101.797V100.044H104.198V100.501H101.797V102.386H104.588Z" fill="#275991"/>
<path d="M108.92 102.857L107.853 101.219C107.73 101.227 107.606 101.227 107.483 101.219H106.232V102.834H105.746V97.748H107.483C108.667 97.748 109.378 98.4063 109.378 99.4909C109.394 99.8498 109.298 100.204 109.106 100.495C108.913 100.786 108.635 100.997 108.318 101.092L109.453 102.834L108.92 102.857ZM108.92 99.5133C108.92 98.698 108.427 98.2343 107.497 98.2343H106.259V100.785H107.497C108.4 100.785 108.892 100.314 108.892 99.4834L108.92 99.5133Z" fill="#275991"/>
<path d="M112.066 101.099V102.857H111.58V101.099L109.727 97.7705H110.246L111.84 100.628L113.434 97.7705H113.926L112.066 101.099Z" fill="#275991"/>
<path d="M119.343 101.496H116.751L116.197 102.857H115.684L117.804 97.7705H118.29L120.417 102.857H119.897L119.343 101.496ZM119.158 101.062L118.043 98.3315L116.963 101.062H119.158Z" fill="#275991"/>
<path d="M121.184 97.7702H123.078C123.399 97.7433 123.721 97.7891 124.024 97.9047C124.328 98.0203 124.606 98.2032 124.842 98.442C125.077 98.6808 125.266 98.9703 125.394 99.2923C125.523 99.6143 125.589 99.962 125.589 100.313C125.589 100.665 125.523 101.012 125.394 101.334C125.266 101.656 125.077 101.946 124.842 102.185C124.606 102.424 124.328 102.606 124.024 102.722C123.721 102.838 123.399 102.883 123.078 102.857H121.184V97.7702ZM123.051 102.385C123.31 102.402 123.569 102.361 123.813 102.265C124.057 102.168 124.28 102.018 124.469 101.823C124.657 101.629 124.808 101.394 124.911 101.134C125.013 100.874 125.066 100.593 125.066 100.31C125.066 100.026 125.013 99.7455 124.911 99.4851C124.808 99.2248 124.657 98.9902 124.469 98.7958C124.28 98.6014 124.057 98.4513 123.813 98.3546C123.569 98.258 123.31 98.2169 123.051 98.2339H121.683V102.385H123.051Z" fill="#275991"/>
<path d="M126.664 97.7702H128.593C128.913 97.7433 129.235 97.7891 129.539 97.9047C129.842 98.0203 130.121 98.2032 130.356 98.442C130.592 98.6808 130.78 98.9703 130.909 99.2923C131.037 99.6143 131.104 99.962 131.104 100.313C131.104 100.665 131.037 101.012 130.909 101.334C130.78 101.656 130.592 101.946 130.356 102.185C130.121 102.424 129.842 102.606 129.539 102.722C129.235 102.838 128.913 102.883 128.593 102.857H126.698L126.664 97.7702ZM128.531 102.385C128.79 102.402 129.05 102.361 129.293 102.265C129.537 102.168 129.76 102.018 129.949 101.823C130.138 101.629 130.288 101.394 130.391 101.134C130.494 100.874 130.547 100.593 130.547 100.31C130.547 100.026 130.494 99.7455 130.391 99.4851C130.288 99.2248 130.138 98.9902 129.949 98.7958C129.76 98.6014 129.537 98.4513 129.293 98.3546C129.05 98.258 128.79 98.2169 128.531 98.2339H127.163V102.385H128.531Z" fill="#275991"/>
<path d="M135.322 102.857L134.255 101.219C134.132 101.227 134.009 101.227 133.886 101.219H132.634V102.834H132.148V97.748H133.886C135.069 97.748 135.78 98.4063 135.78 99.4909C135.797 99.8498 135.701 100.204 135.508 100.495C135.315 100.786 135.037 100.997 134.72 101.092L135.856 102.834L135.322 102.857ZM135.322 99.5133C135.322 98.698 134.83 98.2343 133.899 98.2343H132.661V100.785H133.899C134.802 100.785 135.295 100.314 135.295 99.4834L135.322 99.5133Z" fill="#275991"/>
<path d="M140.221 102.386V102.857H136.938V97.7705H140.125V98.2343H137.43V100.044H139.831V100.501H137.43V102.386H140.221Z" fill="#275991"/>
<path d="M140.938 102.236L141.129 101.825C141.554 102.227 142.099 102.445 142.661 102.438C143.53 102.438 143.913 102.042 143.913 101.541C143.913 100.149 141.047 101.002 141.047 99.1245C141.047 98.3765 141.58 97.7257 142.764 97.7257C143.273 97.7202 143.773 97.8789 144.2 98.182L144.036 98.6084C143.657 98.3391 143.216 98.1938 142.764 98.1895C141.916 98.1895 141.533 98.6009 141.533 99.1095C141.533 100.501 144.399 99.6631 144.399 101.511C144.399 102.259 143.851 102.894 142.661 102.894C142.032 102.919 141.416 102.684 140.938 102.236Z" fill="#275991"/>
<path d="M145.008 102.236L145.199 101.825C145.624 102.228 146.169 102.446 146.731 102.438C147.6 102.438 147.976 102.042 147.976 101.541C147.976 100.149 145.117 101.002 145.117 99.1245C145.117 98.3765 145.651 97.7257 146.827 97.7257C147.339 97.72 147.841 97.8787 148.27 98.182L148.106 98.6084C147.725 98.3382 147.281 98.1928 146.827 98.1895C145.979 98.1895 145.603 98.6009 145.603 99.1095C145.603 100.501 148.462 99.6631 148.462 101.511C148.462 102.259 147.922 102.894 146.731 102.894C146.102 102.919 145.487 102.684 145.008 102.236Z" fill="#275991"/>
<path d="M83.1049 111.152V114.294H82.8519L81.0051 111.751V114.294H80.7109V111.152H80.964L82.8108 113.703V111.152H83.1049Z" fill="#275991"/>
<path d="M85.8431 113.456H84.2426L83.9006 114.294H83.5859L84.8992 111.152H85.1933L86.5066 114.294H86.1851L85.8431 113.456ZM85.7337 113.187L85.0497 111.504L84.3657 113.187H85.7337Z" fill="#275991"/>
<path d="M89.9666 111.152V114.294H89.6725V111.781L88.5439 113.898H88.4003L87.2785 111.796V114.294H86.9844V111.152H87.2375L88.4823 113.486L89.7135 111.152H89.9666Z" fill="#275991"/>
<path d="M92.9348 114.01V114.294H90.8828V111.152H92.8527V111.452H91.1838V112.566H92.6681V112.85H91.1838V114.017L92.9348 114.01Z" fill="#275991"/>
<path d="M82.5033 121.176H80.9027L80.5607 122.014H80.2461L81.5594 118.872H81.8535L83.1668 122.014H82.8521L82.5033 121.176ZM82.3939 120.907L81.7099 119.216L81.0259 120.907H82.3939Z" fill="#275991"/>
<path d="M83.6445 118.857H84.8142C85.0146 118.836 85.2169 118.86 85.408 118.93C85.5992 118.999 85.775 119.111 85.9242 119.259C86.0733 119.407 86.1925 119.587 86.2741 119.789C86.3556 119.99 86.3978 120.208 86.3978 120.428C86.3978 120.648 86.3556 120.866 86.2741 121.067C86.1925 121.269 86.0733 121.449 85.9242 121.597C85.775 121.745 85.5992 121.857 85.408 121.926C85.2169 121.995 85.0146 122.02 84.8142 121.999H83.6445V118.857ZM84.8005 121.707C84.9621 121.72 85.1245 121.697 85.2775 121.639C85.4305 121.581 85.5708 121.488 85.6897 121.368C85.8086 121.247 85.9034 121.101 85.9683 120.939C86.0331 120.777 86.0666 120.601 86.0666 120.424C86.0666 120.247 86.0331 120.072 85.9683 119.909C85.9034 119.747 85.8086 119.601 85.6897 119.48C85.5708 119.36 85.4305 119.268 85.2775 119.209C85.1245 119.151 84.9621 119.128 84.8005 119.141H83.9455V121.707H84.8005Z" fill="#275991"/>
<path d="M87.0391 118.857H88.2361C88.4365 118.836 88.6388 118.86 88.8299 118.93C89.0211 118.999 89.1969 119.111 89.346 119.259C89.4952 119.407 89.6144 119.587 89.696 119.789C89.7775 119.99 89.8196 120.208 89.8196 120.428C89.8196 120.648 89.7775 120.866 89.696 121.067C89.6144 121.269 89.4952 121.449 89.346 121.597C89.1969 121.745 89.0211 121.857 88.8299 121.926C88.6388 121.995 88.4365 122.02 88.2361 121.999H87.0664L87.0391 118.857ZM88.1882 121.707C88.3498 121.72 88.5122 121.697 88.6652 121.639C88.8182 121.581 88.9585 121.488 89.0774 121.368C89.1963 121.247 89.2911 121.101 89.356 120.939C89.4208 120.777 89.4543 120.601 89.4543 120.424C89.4543 120.247 89.4208 120.072 89.356 119.909C89.2911 119.747 89.1963 119.601 89.0774 119.48C88.9585 119.36 88.8182 119.268 88.6652 119.209C88.5122 119.151 88.3498 119.128 88.1882 119.141H87.34V121.707H88.1882Z" fill="#275991"/>
<path d="M92.3889 121.998L91.7049 120.989H91.4723H90.7062V121.983H90.3984V118.842H91.4723C92.2042 118.842 92.6488 119.246 92.6488 119.919C92.6562 120.144 92.5922 120.366 92.4676 120.546C92.3429 120.726 92.1653 120.853 91.9648 120.906L92.6488 121.983L92.3889 121.998ZM92.3889 119.934C92.3889 119.433 92.0811 119.141 91.5065 119.141H90.7473V120.719H91.5065C92.0674 120.719 92.3752 120.428 92.3752 119.934H92.3889Z" fill="#275991"/>
<path d="M95.4231 121.706V121.998H93.3711V118.856H95.341V119.141H93.7063V120.263H95.1974V120.547H93.7063V121.706H95.4231Z" fill="#275991"/>
<path d="M95.8633 121.617L95.9864 121.363C96.2477 121.612 96.5836 121.748 96.9303 121.744C97.4707 121.744 97.7032 121.497 97.7032 121.183C97.7032 120.323 95.9385 120.854 95.9385 119.687C95.9385 119.223 96.26 118.82 96.9919 118.82C97.3077 118.814 97.6177 118.913 97.8811 119.104L97.7785 119.366C97.5436 119.2 97.2712 119.11 96.9919 119.104C96.472 119.104 96.2326 119.358 96.2326 119.672C96.2326 120.54 98.0042 120.016 98.0042 121.168C98.0042 121.632 97.669 122.021 96.9303 122.021C96.5413 122.035 96.1613 121.891 95.8633 121.617Z" fill="#275991"/>
<path d="M98.3867 121.617L98.5098 121.363C98.7712 121.612 99.107 121.748 99.4538 121.744C99.9941 121.744 100.227 121.497 100.227 121.183C100.227 120.323 98.462 120.854 98.462 119.687C98.462 119.223 98.7903 118.82 99.5153 118.82C99.8312 118.814 100.141 118.913 100.405 119.104L100.302 119.366C100.067 119.2 99.7947 119.11 99.5153 119.104C98.9955 119.104 98.7561 119.358 98.7561 119.672C98.7561 120.54 100.528 120.016 100.528 121.168C100.528 121.632 100.192 122.021 99.4538 122.021C99.0647 122.035 98.6848 121.891 98.3867 121.617Z" fill="#275991"/>
<path d="M82.9545 127.639C82.9545 128.304 82.5099 128.708 81.778 128.708H81.0051V129.703H80.7109V126.562H81.7848C82.5099 126.562 82.9545 126.965 82.9545 127.639ZM82.6467 127.639C82.6467 127.137 82.3457 126.846 81.7711 126.846H81.0051V128.417H81.7711C82.3457 128.417 82.6467 128.132 82.6467 127.639Z" fill="#275991"/>
<path d="M83.3992 128.132C83.3897 127.804 83.4698 127.481 83.6292 127.203C83.7886 126.926 84.0202 126.707 84.2942 126.574C84.5682 126.442 84.8721 126.402 85.1671 126.459C85.4621 126.517 85.7347 126.669 85.95 126.897C86.1652 127.125 86.3134 127.418 86.3754 127.738C86.4375 128.059 86.4106 128.392 86.2982 128.696C86.1859 129 85.9932 129.26 85.7448 129.443C85.4964 129.627 85.2036 129.725 84.904 129.725C84.7082 129.734 84.5127 129.699 84.3295 129.623C84.1464 129.547 83.9793 129.431 83.8385 129.282C83.6977 129.133 83.5861 128.954 83.5106 128.756C83.4351 128.558 83.3972 128.346 83.3992 128.132ZM86.1352 128.132C86.1393 127.868 86.0716 127.61 85.9407 127.389C85.8099 127.168 85.6219 126.995 85.4006 126.892C85.1794 126.788 84.935 126.759 84.6986 126.808C84.4622 126.858 84.2446 126.983 84.0735 127.168C83.9024 127.353 83.7856 127.589 83.738 127.847C83.6903 128.105 83.7141 128.373 83.8061 128.616C83.8982 128.859 84.0544 129.066 84.2548 129.212C84.4552 129.358 84.6908 129.435 84.9314 129.433C85.0875 129.435 85.2425 129.403 85.387 129.338C85.5315 129.273 85.6625 129.177 85.7723 129.056C85.8821 128.934 85.9684 128.79 86.0261 128.631C86.0837 128.472 86.1115 128.302 86.1078 128.132H86.1352Z" fill="#275991"/>
<path d="M86.8203 129.321L86.9366 129.06C87.1972 129.315 87.5375 129.452 87.8874 129.441C88.4209 129.441 88.6603 129.194 88.6603 128.887C88.6603 128.027 86.8887 128.558 86.8887 127.391C86.8887 126.935 87.217 126.531 87.9489 126.531C88.2633 126.529 88.5718 126.625 88.8381 126.808L88.7355 127.077C88.5021 126.908 88.2288 126.818 87.9489 126.816C87.4222 126.816 87.1897 127.07 87.1897 127.384C87.1897 128.244 88.9544 127.728 88.9544 128.88C88.9544 129.336 88.6192 129.733 87.8874 129.733C87.4972 129.746 87.1167 129.599 86.8203 129.321Z" fill="#275991"/>
<path d="M90.1373 126.846H89.125V126.562H91.4506V126.846H90.4383V129.703H90.1373V126.846Z" fill="#275991"/>
<path d="M93.5922 128.858H91.9916L91.6496 129.703H91.3281L92.6414 126.562H92.9424L94.2556 129.703H93.9342L93.5922 128.858ZM93.4827 128.589L92.7987 126.906L92.1147 128.589H93.4827Z" fill="#275991"/>
<path d="M94.7344 126.562H95.0353V129.404H96.6427V129.696H94.7344V126.562Z" fill="#275991"/>
<path d="M97.9689 128.131C97.9659 127.917 98.0032 127.703 98.0783 127.505C98.1534 127.306 98.2648 127.126 98.4057 126.976C98.5466 126.826 98.714 126.71 98.8976 126.633C99.0813 126.556 99.2773 126.522 99.4737 126.531C99.6686 126.523 99.8627 126.56 100.044 126.639C100.225 126.717 100.39 126.836 100.527 126.987L100.336 127.204C100.224 127.081 100.091 126.984 99.9436 126.92C99.7965 126.855 99.6389 126.825 99.4806 126.83C99.3243 126.83 99.1695 126.864 99.0251 126.929C98.8807 126.994 98.7495 127.09 98.639 127.211C98.5285 127.332 98.4408 127.475 98.381 127.633C98.3212 127.791 98.2904 127.961 98.2904 128.131C98.2904 128.302 98.3212 128.472 98.381 128.63C98.4408 128.787 98.5285 128.931 98.639 129.052C98.7495 129.173 98.8807 129.268 99.0251 129.334C99.1695 129.399 99.3243 129.433 99.4806 129.433C99.6396 129.438 99.7978 129.407 99.9451 129.342C100.092 129.276 100.225 129.177 100.336 129.051L100.527 129.261C100.392 129.416 100.228 129.538 100.046 129.618C99.8647 129.698 99.6694 129.734 99.4737 129.725C99.2779 129.734 99.0825 129.699 98.8993 129.623C98.7161 129.547 98.549 129.431 98.4082 129.282C98.2674 129.133 98.1558 128.954 98.0803 128.756C98.0048 128.558 97.9669 128.346 97.9689 128.131Z" fill="#275991"/>
<path d="M100.86 128.132C100.851 127.804 100.931 127.481 101.09 127.203C101.25 126.926 101.481 126.707 101.755 126.574C102.029 126.442 102.333 126.402 102.628 126.459C102.923 126.517 103.196 126.669 103.411 126.897C103.626 127.125 103.774 127.418 103.836 127.738C103.898 128.059 103.872 128.392 103.759 128.696C103.647 129 103.454 129.26 103.206 129.443C102.957 129.627 102.665 129.725 102.365 129.725C102.169 129.734 101.974 129.699 101.79 129.623C101.607 129.547 101.44 129.431 101.299 129.282C101.159 129.133 101.047 128.954 100.972 128.756C100.896 128.558 100.858 128.346 100.86 128.132ZM103.596 128.132C103.6 127.868 103.533 127.61 103.402 127.389C103.271 127.168 103.083 126.995 102.862 126.892C102.64 126.788 102.396 126.759 102.16 126.808C101.923 126.858 101.706 126.983 101.534 127.168C101.363 127.353 101.247 127.589 101.199 127.847C101.151 128.105 101.175 128.373 101.267 128.616C101.359 128.859 101.515 129.066 101.716 129.212C101.916 129.358 102.152 129.435 102.392 129.433C102.548 129.435 102.703 129.403 102.848 129.338C102.992 129.273 103.123 129.177 103.233 129.056C103.343 128.934 103.429 128.79 103.487 128.631C103.545 128.472 103.572 128.302 103.569 128.132H103.596Z" fill="#275991"/>
<path d="M104.555 126.561H105.724C105.925 126.54 106.127 126.564 106.318 126.634C106.509 126.703 106.685 126.815 106.834 126.963C106.983 127.111 107.103 127.291 107.184 127.493C107.266 127.694 107.308 127.912 107.308 128.132C107.308 128.352 107.266 128.57 107.184 128.771C107.103 128.973 106.983 129.153 106.834 129.301C106.685 129.449 106.509 129.561 106.318 129.63C106.127 129.7 105.925 129.724 105.724 129.703H104.555V126.561ZM105.711 129.411C105.872 129.425 106.035 129.401 106.188 129.343C106.341 129.285 106.481 129.192 106.6 129.072C106.719 128.952 106.814 128.806 106.878 128.643C106.943 128.481 106.977 128.305 106.977 128.128C106.977 127.951 106.943 127.776 106.878 127.613C106.814 127.451 106.719 127.305 106.6 127.184C106.481 127.064 106.341 126.972 106.188 126.913C106.035 126.855 105.872 126.832 105.711 126.845H104.862V129.404L105.711 129.411Z" fill="#275991"/>
<path d="M109.978 129.404V129.695H107.926V126.554H109.896V126.838H108.227V127.952H109.711V128.237H108.227V129.404H109.978Z" fill="#275991"/>
<path d="M82.9545 135.335C82.9545 136.008 82.5099 136.412 81.778 136.412H81.0051V137.399H80.7109V134.258H81.7848C82.5099 134.258 82.9545 134.639 82.9545 135.335ZM82.6467 135.335C82.6467 134.834 82.3457 134.55 81.7711 134.55H81.0051V136.135H81.7711C82.3457 136.135 82.6467 135.829 82.6467 135.335Z" fill="#275991"/>
<path d="M86.0141 134.258V137.399H85.7132V135.948H83.9142V137.399H83.6133V134.258H83.9142V135.664H85.7132V134.258H86.0141Z" fill="#275991"/>
<path d="M86.6883 135.828C86.6787 135.5 86.7592 135.175 86.9194 134.896C87.0796 134.618 87.3122 134.398 87.5875 134.264C87.8627 134.131 88.168 134.091 88.4644 134.149C88.7607 134.206 89.0345 134.36 89.2507 134.589C89.4669 134.818 89.6157 135.112 89.678 135.434C89.7403 135.756 89.7133 136.091 89.6005 136.396C89.4876 136.701 89.294 136.962 89.0445 137.147C88.795 137.331 88.5009 137.429 88.1999 137.429C88.003 137.439 87.8062 137.405 87.6217 137.329C87.4372 137.253 87.269 137.137 87.1274 136.987C86.9857 136.837 86.8737 136.656 86.7982 136.457C86.7226 136.258 86.6852 136.044 86.6883 135.828ZM89.4243 135.828C89.4283 135.565 89.3606 135.307 89.2298 135.086C89.099 134.865 88.9109 134.692 88.6897 134.589C88.4685 134.485 88.2241 134.456 87.9877 134.505C87.7513 134.555 87.5337 134.68 87.3626 134.865C87.1915 135.05 87.0747 135.286 87.027 135.544C86.9794 135.802 87.0031 136.069 87.0952 136.313C87.1872 136.556 87.3434 136.763 87.5439 136.909C87.7443 137.054 87.9798 137.131 88.2204 137.13C88.3772 137.133 88.5329 137.101 88.6782 137.037C88.8234 136.973 88.9553 136.877 89.0659 136.755C89.1764 136.634 89.2633 136.489 89.3214 136.33C89.3794 136.17 89.4075 136 89.4037 135.828H89.4243Z" fill="#275991"/>
<path d="M92.7915 134.258V137.399H92.5384L90.6916 134.856V137.399H90.3906V134.258H90.6437L92.4905 136.808V134.258H92.7915Z" fill="#275991"/>
<path d="M95.759 137.115V137.399H93.707V134.258H95.677V134.55H94.008V135.664H95.4923V135.948H94.008V137.115H95.759Z" fill="#275991"/>
<path d="M114.652 112.2C114.646 112.164 114.648 112.128 114.656 112.093C114.665 112.058 114.68 112.026 114.701 111.998C114.722 111.971 114.749 111.948 114.779 111.933C114.809 111.918 114.841 111.91 114.874 111.91C114.907 111.91 114.94 111.918 114.97 111.933C114.999 111.948 115.026 111.971 115.047 111.998C115.068 112.026 115.084 112.058 115.092 112.093C115.101 112.128 115.102 112.164 115.096 112.2C115.102 112.235 115.101 112.272 115.092 112.307C115.084 112.341 115.068 112.374 115.047 112.401C115.026 112.429 114.999 112.451 114.97 112.466C114.94 112.482 114.907 112.489 114.874 112.489C114.841 112.489 114.809 112.482 114.779 112.466C114.749 112.451 114.722 112.429 114.701 112.401C114.68 112.374 114.665 112.341 114.656 112.307C114.648 112.272 114.646 112.235 114.652 112.2ZM114.652 114.107C114.661 114.05 114.688 113.998 114.729 113.961C114.77 113.924 114.821 113.903 114.874 113.903C114.927 113.903 114.979 113.924 115.019 113.961C115.06 113.998 115.087 114.05 115.096 114.107C115.102 114.143 115.101 114.179 115.092 114.214C115.084 114.249 115.068 114.281 115.047 114.309C115.026 114.336 114.999 114.358 114.97 114.374C114.94 114.389 114.907 114.397 114.874 114.397C114.841 114.397 114.809 114.389 114.779 114.374C114.749 114.358 114.722 114.336 114.701 114.309C114.68 114.281 114.665 114.249 114.656 114.214C114.648 114.179 114.646 114.143 114.652 114.107Z" fill="#275991"/>
<path d="M114.652 119.859C114.661 119.802 114.688 119.75 114.729 119.713C114.77 119.676 114.821 119.655 114.874 119.655C114.927 119.655 114.979 119.676 115.019 119.713C115.06 119.75 115.087 119.802 115.096 119.859C115.102 119.895 115.101 119.931 115.092 119.966C115.084 120.001 115.068 120.033 115.047 120.061C115.026 120.088 114.999 120.111 114.97 120.126C114.94 120.141 114.907 120.149 114.874 120.149C114.841 120.149 114.809 120.141 114.779 120.126C114.749 120.111 114.722 120.088 114.701 120.061C114.68 120.033 114.665 120.001 114.656 119.966C114.648 119.931 114.646 119.895 114.652 119.859ZM114.652 121.774C114.661 121.717 114.688 121.665 114.729 121.628C114.77 121.591 114.821 121.57 114.874 121.57C114.927 121.57 114.979 121.591 115.019 121.628C115.06 121.665 115.087 121.717 115.096 121.774C115.102 121.81 115.101 121.846 115.092 121.881C115.084 121.916 115.068 121.948 115.047 121.976C115.026 122.003 114.999 122.025 114.97 122.041C114.94 122.056 114.907 122.064 114.874 122.064C114.841 122.064 114.809 122.056 114.779 122.041C114.749 122.025 114.722 122.003 114.701 121.976C114.68 121.948 114.665 121.916 114.656 121.881C114.648 121.846 114.646 121.81 114.652 121.774Z" fill="#275991"/>
<path d="M114.652 127.563C114.661 127.506 114.688 127.454 114.729 127.417C114.77 127.38 114.821 127.359 114.874 127.359C114.927 127.359 114.979 127.38 115.019 127.417C115.06 127.454 115.087 127.506 115.096 127.563C115.102 127.599 115.101 127.635 115.092 127.67C115.084 127.705 115.068 127.737 115.047 127.765C115.026 127.793 114.999 127.815 114.97 127.83C114.94 127.845 114.907 127.853 114.874 127.853C114.841 127.853 114.809 127.845 114.779 127.83C114.749 127.815 114.722 127.793 114.701 127.765C114.68 127.737 114.665 127.705 114.656 127.67C114.648 127.635 114.646 127.599 114.652 127.563ZM114.652 129.478C114.646 129.443 114.648 129.406 114.656 129.372C114.665 129.337 114.68 129.304 114.701 129.277C114.722 129.249 114.749 129.227 114.779 129.212C114.809 129.197 114.841 129.189 114.874 129.189C114.907 129.189 114.94 129.197 114.97 129.212C114.999 129.227 115.026 129.249 115.047 129.277C115.068 129.304 115.084 129.337 115.092 129.372C115.101 129.406 115.102 129.443 115.096 129.478C115.102 129.514 115.101 129.55 115.092 129.585C115.084 129.62 115.068 129.652 115.047 129.68C115.026 129.707 114.999 129.73 114.97 129.745C114.94 129.76 114.907 129.768 114.874 129.768C114.841 129.768 114.809 129.76 114.779 129.745C114.749 129.73 114.722 129.707 114.701 129.68C114.68 129.652 114.665 129.62 114.656 129.585C114.648 129.55 114.646 129.514 114.652 129.478Z" fill="#275991"/>
<path d="M114.652 135.268C114.646 135.233 114.648 135.196 114.656 135.161C114.665 135.127 114.68 135.094 114.701 135.067C114.722 135.039 114.749 135.017 114.779 135.002C114.809 134.986 114.841 134.979 114.874 134.979C114.907 134.979 114.94 134.986 114.97 135.002C114.999 135.017 115.026 135.039 115.047 135.067C115.068 135.094 115.084 135.127 115.092 135.161C115.101 135.196 115.102 135.233 115.096 135.268C115.102 135.304 115.101 135.34 115.092 135.375C115.084 135.41 115.068 135.442 115.047 135.47C115.026 135.497 114.999 135.519 114.97 135.535C114.94 135.55 114.907 135.558 114.874 135.558C114.841 135.558 114.809 135.55 114.779 135.535C114.749 135.519 114.722 135.497 114.701 135.47C114.68 135.442 114.665 135.41 114.656 135.375C114.648 135.34 114.646 135.304 114.652 135.268ZM114.652 137.176C114.661 137.118 114.688 137.067 114.729 137.029C114.77 136.992 114.821 136.972 114.874 136.972C114.927 136.972 114.979 136.992 115.019 137.029C115.06 137.067 115.087 137.118 115.096 137.176C115.102 137.211 115.101 137.247 115.092 137.282C115.084 137.317 115.068 137.349 115.047 137.377C115.026 137.405 114.999 137.427 114.97 137.442C114.94 137.457 114.907 137.465 114.874 137.465C114.841 137.465 114.809 137.457 114.779 137.442C114.749 137.427 114.722 137.405 114.701 137.377C114.68 137.349 114.665 137.317 114.656 137.282C114.648 137.247 114.646 137.211 114.652 137.176Z" fill="#275991"/>
<path d="M163.73 82.7512C162.107 80.9747 159.904 79.9763 157.608 79.9756C155.311 79.9749 153.108 80.972 151.483 82.7475C149.859 84.523 148.946 86.9315 148.945 89.4432C148.945 91.9548 149.856 94.3639 151.48 96.1404L157.602 102.872L163.758 96.1404C165.377 94.3607 166.284 91.9504 166.279 89.4396C166.274 86.9288 165.357 84.523 163.73 82.7512ZM160.44 92.55C159.88 93.1628 159.166 93.5799 158.388 93.7488C157.611 93.9177 156.805 93.8308 156.073 93.4989C155.34 93.1671 154.715 92.6053 154.274 91.8845C153.834 91.1637 153.599 90.3164 153.599 89.4496C153.599 88.5828 153.834 87.7354 154.274 87.0146C154.715 86.2939 155.34 85.7321 156.073 85.4002C156.805 85.0684 157.611 84.9814 158.388 85.1503C159.166 85.3192 159.88 85.7364 160.44 86.3491C160.813 86.7562 161.108 87.2395 161.31 87.7715C161.512 88.3035 161.615 88.8737 161.615 89.4496C161.615 90.0254 161.512 90.5956 161.31 91.1276C161.108 91.6596 160.813 92.143 160.44 92.55Z" fill="#275991"/>
<path d="M236.664 140.033C233.456 140.362 228.887 157.177 228.887 157.177L237.71 158.427L238.155 142.307L236.664 140.033Z" fill="#275991"/>
<path opacity="0.1" d="M236.664 140.033C233.456 140.362 228.887 157.177 228.887 157.177L237.71 158.427L238.155 142.307L236.664 140.033Z" fill="white"/>
<path d="M257.793 308.849H264.024C264.127 308.85 264.226 308.889 264.305 308.959C264.385 309.03 264.44 309.128 264.462 309.238L265.474 314.219C265.515 314.433 265.477 314.657 265.368 314.84C265.259 315.023 265.088 315.153 264.893 315.199C264.836 315.207 264.779 315.207 264.722 315.199C262.711 315.162 261.247 315.027 258.716 315.027C257.164 315.027 252.465 315.207 250.317 315.207C248.169 315.207 247.882 312.88 248.764 312.663C252.711 311.728 255.679 310.42 256.972 309.185C257.198 308.966 257.491 308.846 257.793 308.849Z" fill="#263238"/>
<path d="M231.412 308.669H237.629C237.732 308.67 237.831 308.709 237.91 308.78C237.99 308.85 238.045 308.948 238.067 309.058L239.079 314.04C239.12 314.255 239.081 314.479 238.97 314.663C238.86 314.846 238.688 314.975 238.491 315.02C238.437 315.027 238.381 315.027 238.327 315.02C236.316 314.982 234.845 314.848 232.321 314.848C230.762 314.848 226.07 315.027 223.915 315.027C221.76 315.027 221.487 312.701 222.369 312.491C226.316 311.549 229.284 310.247 230.577 309.006C230.808 308.785 231.105 308.665 231.412 308.669Z" fill="#263238"/>
<path opacity="0.3" d="M257.793 308.849H264.024C264.127 308.85 264.226 308.889 264.305 308.959C264.385 309.03 264.44 309.128 264.462 309.238L265.474 314.219C265.515 314.433 265.477 314.657 265.368 314.84C265.259 315.023 265.088 315.153 264.893 315.199C264.836 315.207 264.779 315.207 264.722 315.199C262.711 315.162 261.247 315.027 258.716 315.027C257.164 315.027 252.465 315.207 250.317 315.207C248.169 315.207 247.882 312.88 248.764 312.663C252.711 311.728 255.679 310.42 256.972 309.185C257.198 308.966 257.491 308.846 257.793 308.849Z" fill="white"/>
<path opacity="0.3" d="M231.412 308.669H237.629C237.732 308.67 237.831 308.709 237.91 308.78C237.99 308.85 238.045 308.948 238.067 309.058L239.079 314.04C239.12 314.255 239.081 314.479 238.97 314.663C238.86 314.846 238.688 314.975 238.491 315.02C238.437 315.027 238.381 315.027 238.327 315.02C236.316 314.982 234.845 314.848 232.321 314.848C230.762 314.848 226.07 315.027 223.915 315.027C221.76 315.027 221.487 312.701 222.369 312.491C226.316 311.549 229.284 310.247 230.577 309.006C230.808 308.785 231.105 308.665 231.412 308.669Z" fill="white"/>
<path d="M261.09 182.736H233.928C231.342 198.168 223.258 260.835 229.058 309.5H238.264C238.264 309.5 237.389 235.62 245.515 211.684C246.445 224.467 255.946 309.418 255.946 309.418H265.317C265.317 309.418 263.915 277.463 262.512 247.274C261.63 228.297 261.131 186.641 261.09 182.736Z" fill="#263238"/>
<path opacity="0.2" d="M245.514 211.684C244.175 215.872 243.159 220.176 242.477 224.55C241.718 213.173 244.755 201.107 244.755 201.107L245.514 211.684Z" fill="black"/>
<path d="M233.681 183.095H261.041V186.655L233.332 186.289L233.681 183.095Z" fill="black"/>
<path d="M252.248 181.487H251.27V187.808H252.248V181.487Z" fill="#263238"/>
<path d="M238.408 181.487H237.43V187.808H238.408V181.487Z" fill="#263238"/>
<path d="M246.151 182.467H241.09V186.454H246.151V182.467Z" fill="white"/>
<path d="M233.696 183.671H261.124C261.746 169.077 265.228 149.263 266.172 143.929C266.243 143.559 266.177 143.172 265.989 142.854C265.801 142.536 265.505 142.312 265.166 142.231C263.798 141.902 262.369 141.618 260.932 141.379C254.457 140.376 247.923 139.896 241.384 139.943C238.49 139.943 236.671 140.032 236.671 140.032C233.347 153.04 233.415 174.014 233.696 183.671Z" fill="#275991"/>
<path opacity="0.3" d="M233.696 183.671H261.124C261.63 174.935 262.564 166.236 263.922 157.61C264.845 151.387 265.748 146.271 266.172 143.929C266.193 143.803 266.193 143.674 266.172 143.548C266.156 143.236 266.047 142.938 265.862 142.701C265.677 142.463 265.425 142.298 265.146 142.231C263.778 141.902 262.349 141.618 260.912 141.379C254.437 140.376 247.903 139.896 241.363 139.943C238.47 139.943 236.651 140.032 236.651 140.032C233.347 153.04 233.415 174.014 233.696 183.671Z" fill="white"/>
<path d="M256.357 140.669C254.004 143.002 248.245 142.165 248.245 142.165C248.245 142.165 244.647 141.088 245.406 139.861C247.52 139.479 248.546 138.365 248.97 137.011C249.201 136.155 249.273 135.257 249.182 134.371C249.15 133.868 249.091 133.369 249.004 132.875L256.124 127.107C255.194 130.9 254.052 137.909 256.357 140.669Z" fill="#E4897B"/>
<path opacity="0.2" d="M254.482 130.765C254.201 135.44 250.686 136.749 248.969 136.988C249.2 136.132 249.272 135.234 249.181 134.348L254.482 130.765Z" fill="black"/>
<path d="M255.304 137.706L248.498 141.057L248.102 138.372L245.598 139.329C245.16 139.495 244.787 139.819 244.538 140.246C244.29 140.674 244.181 141.181 244.23 141.685L244.511 144.677L247.931 142.613L249.647 145.268L257.869 140.93L255.304 137.706Z" fill="#275991"/>
<path opacity="0.1" d="M255.304 137.706L248.498 141.057L248.102 138.372L245.598 139.329C245.16 139.495 244.787 139.819 244.538 140.246C244.29 140.674 244.181 141.181 244.23 141.685L244.511 144.677L247.931 142.613L249.647 145.268L257.869 140.93L255.304 137.706Z" fill="white"/>
<path d="M239.434 119.119C238.1 119.687 248.586 119.8 248.586 119.8C248.586 119.8 245.282 116.621 239.434 119.119Z" fill="#275991"/>
<path opacity="0.2" d="M239.434 119.119C238.1 119.687 248.586 119.8 248.586 119.8C248.586 119.8 245.282 116.621 239.434 119.119Z" fill="black"/>
<path d="M244.01 115.289C244.01 115.289 241.685 122.672 244.947 126.053C248.21 129.434 249.879 115.581 249.879 115.581L244.01 115.289Z" fill="#263238"/>
<path d="M243.568 130.241C243.636 130.503 243.718 130.757 243.807 130.989C244.46 132.781 245.712 134.233 247.309 135.051C248.74 135.804 250.377 135.945 251.899 135.447C252.983 135.078 253.955 134.393 254.71 133.465C257.111 130.608 256.94 127.436 257.042 122.043C257.087 120.781 256.834 119.528 256.309 118.403C255.784 117.278 255.004 116.319 254.043 115.618C253.082 114.917 251.973 114.498 250.822 114.399C249.67 114.301 248.515 114.527 247.466 115.057C242.74 117.436 242.343 125.439 243.568 130.241Z" fill="#E4897B"/>
<path d="M249.612 123.876C249.66 124.31 249.434 124.676 249.168 124.684C248.901 124.691 248.682 124.347 248.662 123.936C248.641 123.525 248.853 123.136 249.113 123.128C249.373 123.121 249.599 123.42 249.612 123.876Z" fill="#263238"/>
<path d="M245.077 124.063C245.125 124.496 244.892 124.863 244.633 124.87C244.373 124.878 244.147 124.534 244.126 124.122C244.106 123.711 244.318 123.322 244.578 123.315C244.838 123.307 245.063 123.644 245.077 124.063Z" fill="#263238"/>
<path d="M246.527 124.22C246.096 125.58 245.495 126.868 244.742 128.049C245.026 128.252 245.347 128.385 245.682 128.44C246.017 128.494 246.359 128.468 246.685 128.364L246.527 124.22Z" fill="#DE5753"/>
<path d="M243.328 122.013C243.366 122.037 243.408 122.049 243.452 122.049C243.495 122.049 243.537 122.037 243.575 122.013C243.815 121.826 244.093 121.701 244.385 121.651C244.677 121.6 244.975 121.624 245.257 121.722C245.286 121.735 245.316 121.742 245.347 121.743C245.378 121.744 245.408 121.737 245.437 121.725C245.466 121.712 245.492 121.694 245.514 121.67C245.536 121.646 245.553 121.618 245.565 121.587C245.588 121.524 245.588 121.454 245.565 121.392C245.543 121.329 245.498 121.278 245.442 121.25C245.09 121.116 244.713 121.077 244.344 121.136C243.975 121.194 243.624 121.349 243.322 121.587C243.295 121.605 243.273 121.628 243.255 121.655C243.237 121.682 243.224 121.713 243.217 121.746C243.21 121.778 243.209 121.812 243.214 121.845C243.219 121.878 243.23 121.91 243.246 121.939C243.269 121.969 243.297 121.994 243.328 122.013Z" fill="#263238"/>
<path d="M250.446 121.856C250.491 121.847 250.533 121.827 250.569 121.796C250.613 121.749 250.637 121.684 250.637 121.617C250.637 121.549 250.613 121.485 250.569 121.437C250.28 121.176 249.938 120.995 249.571 120.909C249.204 120.823 248.824 120.835 248.463 120.944C248.433 120.954 248.406 120.97 248.383 120.992C248.36 121.014 248.341 121.041 248.328 121.071C248.314 121.101 248.306 121.133 248.305 121.167C248.303 121.2 248.308 121.234 248.319 121.265C248.339 121.329 248.381 121.381 248.436 121.412C248.491 121.442 248.554 121.449 248.613 121.43C248.901 121.352 249.201 121.349 249.49 121.422C249.779 121.495 250.048 121.641 250.275 121.849C250.329 121.874 250.39 121.877 250.446 121.856Z" fill="#263238"/>
<path d="M253.197 115.483L252.91 117.862C253.276 118.058 253.561 118.398 253.708 118.814C253.855 119.23 253.854 119.691 253.704 120.106C252.979 122.096 253.991 125.207 255.379 126.464C255.379 126.464 255.434 125.596 256.098 125.806C256.761 126.015 256.542 130.526 255.215 132.665C255.215 132.665 257.206 130.743 258.362 126.015C259.429 121.654 259.593 118.004 258.786 116.291L253.197 115.483Z" fill="#263238"/>
<path d="M259.346 126.412C259.097 127.027 258.739 127.582 258.293 128.045C257.847 128.509 257.321 128.871 256.747 129.112C255.208 129.748 254.291 128.282 254.592 126.606C254.879 125.11 256.008 122.956 257.615 123.053C259.223 123.15 259.92 124.856 259.346 126.412Z" fill="#E4897B"/>
<path d="M247.432 130.548C247.394 130.547 247.358 130.533 247.328 130.508C247.298 130.482 247.277 130.446 247.268 130.406C247.262 130.382 247.26 130.358 247.263 130.333C247.266 130.309 247.274 130.286 247.285 130.264C247.297 130.243 247.312 130.225 247.33 130.211C247.348 130.197 247.369 130.187 247.391 130.181C248.195 129.894 248.88 129.306 249.327 128.521C249.352 128.479 249.391 128.45 249.436 128.438C249.48 128.427 249.527 128.435 249.566 128.461C249.604 128.487 249.631 128.528 249.641 128.576C249.651 128.624 249.644 128.674 249.621 128.715C249.133 129.591 248.369 130.24 247.473 130.54L247.432 130.548Z" fill="#263238"/>
<path d="M242.867 117.66C242.867 117.66 244.837 111.893 245.699 111.197C246.561 110.502 249.461 109.948 252.115 110.36C254.769 110.771 258.524 113.486 259.263 114.848C260.001 116.209 259.263 121.378 259.263 121.378L253.408 119.5L242.867 117.66Z" fill="#275991"/>
<path opacity="0.1" d="M242.867 117.66C242.867 117.66 244.837 111.893 245.699 111.197C246.561 110.502 249.461 109.948 252.115 110.36C254.769 110.771 258.524 113.486 259.263 114.848C260.001 116.209 259.263 121.378 259.263 121.378L253.408 119.5L242.867 117.66Z" fill="white"/>
<path d="M239.434 119.119C239.434 119.119 244.837 116.194 247.375 116.127C249.912 116.06 253.531 117.795 254.427 119.186C254.427 119.186 249.919 120.682 248.073 119.807C245.306 118.713 242.316 118.475 239.434 119.119Z" fill="#275991"/>
<path d="M244.914 114.952L247.595 112.432L247.315 114.017L250.571 114.002L250.441 114.908L244.914 114.952Z" fill="white"/>
<path d="M247.891 112.97L250.647 112.933L250.517 113.561L247.754 113.553L247.891 112.97Z" fill="white"/>
<path d="M244.9 153.287H207.465V182.369H244.9V153.287Z" fill="#263238"/>
<path opacity="0.3" d="M244.9 153.287H207.465V182.369H244.9V153.287Z" fill="white"/>
<path opacity="0.1" d="M229.654 153.287H207.465V182.369H229.654V153.287Z" fill="white"/>
<path opacity="0.3" d="M239.141 153.287H236.008V156.339H239.141V153.287Z" fill="white"/>
<path opacity="0.3" d="M239.141 179.685H236.008V182.37H239.141V179.685Z" fill="white"/>
<path opacity="0.3" d="M228.045 176.071H220.254V180.799H228.045V176.071Z" fill="white"/>
<path opacity="0.3" d="M214.408 154.769H208.648V157.177H214.408V154.769Z" fill="white"/>
<path d="M259.194 158.576C259.194 158.576 258.127 165.241 257.142 166.355C254.974 168.854 239.652 170.574 239.652 170.574L239.892 174.314C239.892 174.314 255.932 173.237 258.968 170.843C261.479 168.869 264.399 159.219 264.399 159.219L259.194 158.576Z" fill="#E4897B"/>
<path d="M240.326 171.695C240.326 171.695 239.82 169.818 239.375 169.451C238.931 169.085 232.645 169.1 232.323 169.1C232.002 169.1 232.515 174.725 232.959 175.286C233.404 175.847 238.548 175.286 239.375 175.076C240.203 174.867 240.771 173.288 240.326 171.695Z" fill="#E4897B"/>
<path d="M265.167 142.232C271.487 144.678 263.026 166.437 263.026 166.437L257.438 164.56C257.438 164.56 260.536 140.437 265.167 142.232Z" fill="#275991"/>
<path opacity="0.1" d="M265.167 142.232C271.487 144.678 263.026 166.437 263.026 166.437L257.438 164.56C257.438 164.56 260.536 140.437 265.167 142.232Z" fill="white"/>
<path d="M257.227 162.525L264.019 165.024L263.321 167.245L256.844 164.538L257.227 162.525Z" fill="#275991"/>
<path d="M250.777 152.166L253.65 149.914L253.247 151.462L256.496 151.762L256.29 152.652L250.777 152.166Z" fill="white"/>
<path d="M253.903 150.482L256.653 150.699L256.475 151.32L253.719 151.043L253.903 150.482Z" fill="white"/>
</svg>
