<svg width="153" height="196" viewBox="0 0 153 196" fill="none" xmlns="http://www.w3.org/2000/svg">
<path d="M97.0023 45.2881C86.9441 37.8088 70.4171 36.9072 61.029 45.7076C50.6617 55.4213 52.2529 73.8649 41.647 82.6222C30.8605 91.5324 17.9167 87.7457 19.3426 110.682C20.4412 128.361 32.1946 133.084 43.5166 137.784C63.8228 146.216 103.122 155.589 117.434 127.526C133.722 95.5621 119.555 62.05 97.0023 45.2881Z" fill="#053D7B"/>
<path opacity="0.9" d="M97.0023 45.2881C86.9441 37.8088 70.4171 36.9072 61.029 45.7076C50.6617 55.4213 52.2529 73.8649 41.647 82.6222C30.8605 91.5324 17.9167 87.7457 19.3426 110.682C20.4412 128.361 32.1946 133.084 43.5166 137.784C63.8228 146.216 103.122 155.589 117.434 127.526C133.722 95.5621 119.555 62.05 97.0023 45.2881Z" fill="white"/>
<path d="M76.4983 167.603C109.266 167.603 135.829 165.617 135.829 163.166C135.829 160.715 109.266 158.729 76.4983 158.729C43.7311 158.729 17.168 160.715 17.168 163.166C17.168 165.617 43.7311 167.603 76.4983 167.603Z" fill="#F5F5F5"/>
<path d="M110.919 122.077H52.8156C52.6345 122.079 52.4551 122.032 52.2888 121.941C52.1224 121.849 51.9727 121.714 51.849 121.545C51.7254 121.375 51.6305 121.175 51.5704 120.956C51.5103 120.737 51.4862 120.505 51.4998 120.274L53.8927 71.6304C53.923 71.1456 54.0929 70.6925 54.3695 70.3592C54.646 70.026 55.0094 69.8363 55.389 69.8272H113.489C113.67 69.8255 113.85 69.8718 114.016 69.9634C114.182 70.055 114.332 70.1897 114.456 70.3592C114.579 70.5286 114.674 70.7291 114.734 70.9479C114.795 71.1667 114.819 71.3991 114.805 71.6304L112.412 120.274C112.382 120.758 112.212 121.21 111.936 121.544C111.661 121.877 111.298 122.067 110.919 122.077Z" fill="#263238"/>
<path opacity="0.6" d="M110.919 122.077H52.8156C52.6345 122.079 52.4551 122.032 52.2888 121.941C52.1224 121.849 51.9727 121.714 51.849 121.545C51.7254 121.375 51.6305 121.175 51.5704 120.956C51.5103 120.737 51.4862 120.505 51.4998 120.274L53.8927 71.6304C53.923 71.1456 54.0929 70.6925 54.3695 70.3592C54.646 70.026 55.0094 69.8363 55.389 69.8272H113.489C113.67 69.8255 113.85 69.8718 114.016 69.9634C114.182 70.055 114.332 70.1897 114.456 70.3592C114.579 70.5286 114.674 70.7291 114.734 70.9479C114.795 71.1667 114.819 71.3991 114.805 71.6304L112.412 120.274C112.382 120.758 112.212 121.21 111.936 121.544C111.661 121.877 111.298 122.067 110.919 122.077Z" fill="black"/>
<path d="M110.485 122.077H52.385C52.2037 122.079 52.024 122.033 51.8573 121.942C51.6905 121.851 51.5404 121.716 51.4165 121.546C51.2925 121.377 51.1973 121.176 51.137 120.957C51.0767 120.738 51.0526 120.505 51.0662 120.274L53.4591 71.6304C53.4894 71.1456 53.6593 70.6925 53.9359 70.3593C54.2124 70.026 54.5758 69.8364 54.9554 69.8272H113.056C113.237 69.8249 113.416 69.8709 113.583 69.9623C113.75 70.0536 113.9 70.1884 114.023 70.3579C114.147 70.5275 114.242 70.7282 114.302 70.9473C114.362 71.1664 114.385 71.399 114.371 71.6304L111.979 120.274C111.948 120.758 111.779 121.21 111.503 121.544C111.227 121.877 110.864 122.067 110.485 122.077Z" fill="#263238"/>
<path d="M110.411 122.696H41.2763C40.958 122.693 40.6455 122.804 40.3747 123.019C40.104 123.233 39.8861 123.541 39.7463 123.908C39.7109 124.003 39.695 124.108 39.7002 124.213C39.7053 124.318 39.7313 124.42 39.7758 124.509C39.8202 124.597 39.8816 124.67 39.954 124.72C40.0265 124.77 40.1078 124.795 40.19 124.794H111.482C111.564 124.795 111.645 124.77 111.718 124.72C111.79 124.67 111.852 124.597 111.896 124.509C111.941 124.42 111.967 124.318 111.972 124.213C111.977 124.108 111.961 124.003 111.926 123.908C111.788 123.544 111.572 123.237 111.304 123.023C111.036 122.809 110.727 122.695 110.411 122.696Z" fill="#263238"/>
<path opacity="0.6" d="M110.409 122.696H100.577C100.261 122.695 99.9517 122.808 99.6837 123.022C99.4157 123.236 99.2005 123.543 99.0627 123.908C99.0274 124.002 99.0115 124.107 99.0165 124.212C99.0215 124.317 99.0473 124.418 99.0914 124.507C99.1354 124.596 99.1964 124.668 99.2684 124.718C99.3405 124.769 99.4213 124.794 99.5033 124.794H111.48C111.562 124.795 111.644 124.77 111.716 124.72C111.789 124.67 111.85 124.597 111.894 124.509C111.939 124.42 111.965 124.318 111.97 124.213C111.975 124.108 111.959 124.003 111.924 123.908C111.786 123.544 111.57 123.237 111.303 123.023C111.035 122.809 110.725 122.695 110.409 122.696Z" fill="black"/>
<path d="M104.315 124.225H101.775C101.716 124.224 101.66 124.193 101.619 124.139C101.578 124.086 101.555 124.014 101.555 123.939C101.555 123.863 101.578 123.791 101.619 123.738C101.66 123.684 101.716 123.653 101.775 123.652H104.315C104.344 123.652 104.373 123.66 104.4 123.674C104.427 123.689 104.452 123.71 104.473 123.736C104.494 123.763 104.51 123.794 104.521 123.829C104.532 123.864 104.538 123.901 104.538 123.939C104.538 123.976 104.532 124.013 104.521 124.048C104.51 124.083 104.494 124.114 104.473 124.141C104.452 124.167 104.427 124.188 104.4 124.203C104.373 124.217 104.344 124.225 104.315 124.225Z" fill="#053D7B"/>
<path opacity="0.7" d="M71.6547 124.225H69.1179C69.0587 124.225 69.0019 124.195 68.96 124.141C68.9181 124.087 68.8945 124.014 68.8945 123.939C68.8945 123.901 68.9003 123.864 68.9115 123.829C68.9228 123.794 68.9392 123.763 68.96 123.736C68.9807 123.71 69.0053 123.689 69.0324 123.674C69.0595 123.66 69.0886 123.652 69.1179 123.652H71.6547C71.684 123.652 71.713 123.66 71.7401 123.674C71.7672 123.689 71.7919 123.71 71.8126 123.736C71.8333 123.763 71.8498 123.794 71.861 123.829C71.8723 123.864 71.878 123.901 71.878 123.939C71.878 124.014 71.8545 124.087 71.8126 124.141C71.7707 124.195 71.7139 124.225 71.6547 124.225Z" fill="white"/>
<path d="M106.943 123.652H105.281C105.18 123.652 105.098 123.758 105.098 123.888V123.989C105.098 124.119 105.18 124.225 105.281 124.225H106.943C107.044 124.225 107.126 124.119 107.126 123.989V123.888C107.126 123.758 107.044 123.652 106.943 123.652Z" fill="#053D7B"/>
<path d="M52.3761 118.517L54.5977 73.3863C54.6091 73.198 54.6751 73.0221 54.7827 72.8929C54.8903 72.7638 55.0317 72.6909 55.1791 72.6886H112.551C112.621 72.6872 112.691 72.7046 112.756 72.7398C112.821 72.775 112.879 72.827 112.927 72.8927C112.975 72.9584 113.012 73.0362 113.035 73.1212C113.058 73.2062 113.068 73.2965 113.062 73.3863L110.844 118.517C110.831 118.706 110.765 118.882 110.657 119.011C110.549 119.14 110.407 119.213 110.259 119.215H52.8902C52.8199 119.216 52.7502 119.198 52.6856 119.163C52.6209 119.127 52.5626 119.075 52.5144 119.01C52.4661 118.944 52.429 118.867 52.4052 118.782C52.3814 118.697 52.3715 118.607 52.3761 118.517Z" fill="white"/>
<path opacity="0.1" d="M85.0118 71.2969L65.9021 117.827H51.8047C51.734 117.829 51.6639 117.811 51.5988 117.776C51.5337 117.74 51.475 117.688 51.4266 117.622C51.3782 117.556 51.3412 117.478 51.3177 117.392C51.2943 117.307 51.2851 117.216 51.2906 117.126L53.5122 71.9986C53.5236 71.8099 53.5895 71.6335 53.697 71.5037C53.8045 71.374 53.9459 71.3002 54.0936 71.2969H85.0118Z" fill="#053D7B"/>
<path opacity="0.1" d="M101.749 71.2969L82.639 117.827H78.1836L97.2933 71.2969H101.749Z" fill="#053D7B"/>
<path opacity="0.1" d="M111.978 71.9988L109.757 117.126C109.746 117.315 109.68 117.492 109.573 117.622C109.465 117.752 109.323 117.825 109.175 117.827H87.4492L106.559 71.2971H111.455C111.526 71.2947 111.597 71.3114 111.663 71.3462C111.729 71.3811 111.789 71.4332 111.838 71.4993C111.887 71.5654 111.925 71.644 111.949 71.73C111.974 71.8161 111.983 71.9076 111.978 71.9988Z" fill="#053D7B"/>
<path opacity="0.4" d="M84.3439 71.3437C84.3355 71.4859 84.286 71.6189 84.2051 71.7168C84.1242 71.8147 84.0176 71.8704 83.9063 71.8729C83.8532 71.8737 83.8004 71.8602 83.7516 71.8334C83.7027 71.8066 83.6587 71.767 83.6224 71.7173C83.5861 71.6675 83.5583 71.6085 83.5408 71.5442C83.5233 71.4799 83.5165 71.4116 83.5208 71.3437C83.5284 71.2012 83.5777 71.0676 83.6588 70.9695C83.7399 70.8715 83.8468 70.8161 83.9583 70.8145C84.0115 70.8137 84.0642 70.8272 84.1131 70.854C84.162 70.8808 84.206 70.9203 84.2423 70.9701C84.2785 71.0199 84.3063 71.0789 84.3238 71.1432C84.3413 71.2075 84.3482 71.2758 84.3439 71.3437Z" fill="white"/>
<path d="M74.8612 60.5214C73.1873 62.9753 72.2204 70.4978 73.4597 74.1982C74.699 77.8987 60.32 81.6031 72.1837 87.6164C84.0473 93.6297 93.5363 86.656 90.103 80.4271C86.6697 74.1982 90.4733 63.8259 86.4983 61.2191C82.9059 58.8436 78.2149 55.6018 74.8612 60.5214Z" fill="#263238"/>
<path d="M71.3175 90.8111C70.6902 93.5551 70.0231 96.2991 69.3316 99.0431C68.64 101.787 67.9209 104.5 67.159 107.224L66.8683 108.251L66.7214 108.765L66.6755 108.918L66.6021 109.149C66.5562 109.298 66.4858 109.459 66.4246 109.611C66.1254 110.311 65.6791 110.89 65.1363 111.281C64.6435 111.624 64.0935 111.81 63.5329 111.822C62.7466 111.827 61.9674 111.631 61.2409 111.246C60.6462 110.937 60.0704 110.571 59.5182 110.152C57.5119 108.572 55.6729 106.667 54.0469 104.484L55.3657 102.493C55.8094 102.857 56.2837 103.245 56.7427 103.61C57.2017 103.974 57.6822 104.327 58.1473 104.676C59.0587 105.359 59.9996 105.976 60.9655 106.522C61.4057 106.771 61.8599 106.977 62.3242 107.138C62.6453 107.274 62.9848 107.325 63.3217 107.287C63.4074 107.287 63.3921 107.224 63.3217 107.259C63.2514 107.295 63.1749 107.397 63.1718 107.385C63.1687 107.373 63.1718 107.385 63.1718 107.361C63.1732 107.354 63.1732 107.346 63.1718 107.338L63.1963 107.24L63.3126 106.734L63.5482 105.715L65.4178 97.483C66.0543 94.739 66.7092 91.995 67.3824 89.251L71.3175 90.8111Z" fill="#B65B52"/>
<path d="M55.2706 102.43L51.7148 100.744L53.1255 105.558C53.1255 105.558 55.6347 106.02 56.6078 104.331L55.8152 102.971C55.6779 102.727 55.4888 102.54 55.2706 102.43Z" fill="#B55B52"/>
<path d="M48.5781 102.144L49.9306 106.091L53.1406 105.55L51.7269 100.736L48.5781 102.144Z" fill="#B55B52"/>
<path d="M68.7228 83.7119C67.0948 84.2411 65.9688 92.8141 65.9688 92.8141L70.4516 96.7341C70.4516 96.7341 74.7356 88.0866 73.4963 85.7973C72.1805 83.3944 71.0943 82.9396 68.7228 83.7119Z" fill="#053D7B"/>
<path opacity="0.5" d="M68.7228 83.7119C67.0948 84.2411 65.9688 92.8141 65.9688 92.8141L70.4516 96.7341C70.4516 96.7341 74.7356 88.0866 73.4963 85.7973C72.1805 83.3944 71.0943 82.9396 68.7228 83.7119Z" fill="white"/>
<path opacity="0.2" d="M68.5756 86.8281L72.0548 87.8591L72.3883 92.222C71.7988 93.7624 71.1482 95.2631 70.4391 96.7183L67.7188 94.3663C67.8381 92.3475 68.1319 88.2001 68.5756 86.8281Z" fill="black"/>
<path d="M68.7201 83.7117C68.7201 83.7117 66.8382 84.5584 70.6051 114.217H86.6272C86.3579 105.864 86.3518 100.709 89.4669 83.5666C87.2242 82.9726 84.9507 82.5887 82.6645 82.4181C79.9686 82.2495 77.7685 82.1398 75.3878 82.4181C72.2636 82.7826 68.7201 83.7117 68.7201 83.7117Z" fill="#053D7B"/>
<path opacity="0.5" d="M68.7201 83.7117C68.7201 83.7117 66.8382 84.5584 70.6051 114.217H86.6272C86.3579 105.864 86.3518 100.709 89.4669 83.5666C87.2242 82.9726 84.9507 82.5887 82.6645 82.4181C79.9686 82.2495 77.7685 82.1398 75.3878 82.4181C72.2636 82.7826 68.7201 83.7117 68.7201 83.7117Z" fill="white"/>
<path opacity="0.2" d="M85.6983 91.5244L87.7669 93.7823C87.3262 96.7811 87.0294 99.2703 86.8489 101.501C86.4541 99.2743 85.4688 93.2296 85.6983 91.5244Z" fill="black"/>
<path d="M81.9418 71.9199C81.4828 74.9187 81.0238 80.4146 82.664 82.4177C82.664 82.4177 81.134 86.91 77.0795 86.91C73.025 86.91 75.3873 82.4177 75.3873 82.4177C77.9975 81.6337 77.9302 79.1366 77.4773 76.8082L81.9418 71.9199Z" fill="#B55B52"/>
<path d="M82.1444 81.2972C81.7589 82.2968 80.5165 84.5822 77.0465 85.3975C76.95 85.4202 76.8505 85.395 76.768 85.327C76.1193 84.7468 75.7154 83.5198 76 82.0969C76.0188 82.0095 76.0182 81.917 75.9982 81.83C75.9782 81.743 75.9396 81.6649 75.8868 81.6045C75.8339 81.5442 75.7689 81.504 75.6992 81.4884C75.6294 81.4729 75.5576 81.4827 75.492 81.5167C75.2255 81.6596 74.9694 81.8328 74.727 82.0342C74.6737 82.0794 74.6305 82.1415 74.6015 82.2145C74.3476 82.826 73.3194 85.8209 76.4222 87.6672C76.4717 87.6943 76.5245 87.7102 76.5783 87.7142C78.4143 87.7613 81.6242 87.2987 83.653 82.6182C83.6892 82.5337 83.7054 82.4374 83.6994 82.3413C83.6934 82.2452 83.6656 82.1534 83.6194 82.0773C83.3467 81.6949 83.0299 81.3684 82.6799 81.109C82.6359 81.0728 82.5864 81.0488 82.5346 81.0387C82.4828 81.0286 82.43 81.0325 82.3795 81.0502C82.329 81.068 82.2819 81.0991 82.2414 81.1417C82.201 81.1842 82.1679 81.2372 82.1444 81.2972Z" fill="#FAFAFA"/>
<path d="M82.9975 93.6376L78.8665 93.4848C78.8233 93.4851 78.7805 93.4737 78.741 93.4514C78.7015 93.429 78.6661 93.3963 78.6372 93.3552C78.6083 93.3141 78.5866 93.2656 78.5733 93.2129C78.5601 93.1603 78.5557 93.1046 78.5605 93.0496L78.6002 92.395C78.6122 92.2849 78.6552 92.1842 78.7212 92.112C78.7871 92.0398 78.8715 92.001 78.9582 92.003L83.0892 92.1559C83.1327 92.1555 83.1758 92.167 83.2155 92.1895C83.2552 92.2121 83.2908 92.2453 83.3197 92.2868C83.3487 92.3283 83.3704 92.3773 83.3834 92.4304C83.3964 92.4836 83.4005 92.5396 83.3952 92.5949L83.3555 93.2456C83.3435 93.3558 83.3005 93.4564 83.2345 93.5287C83.1685 93.6009 83.0842 93.6397 82.9975 93.6376Z" fill="#FAFAFA"/>
<path opacity="0.2" d="M80.1243 73.916L77.4805 76.8051C77.5939 77.3468 77.6697 77.9004 77.7069 78.4593C78.7014 78.2751 80.0723 76.8717 80.1794 75.535C80.2379 74.9955 80.2193 74.4469 80.1243 73.916Z" fill="black"/>
<path d="M85.0291 66.2477C84.2917 71.1751 84.0622 73.2801 81.8467 75.5028C78.5144 78.8505 73.9519 76.6082 73.5297 71.5005C73.1472 66.9023 74.4171 59.6189 78.4257 58.2705C79.3041 57.9714 80.2276 57.9646 81.1086 58.2506C81.9897 58.5366 82.7992 59.106 83.4604 59.9048C84.1217 60.7036 84.6128 61.7054 84.8874 62.8154C85.1619 63.9254 85.2107 65.1068 85.0291 66.2477Z" fill="#B55B52"/>
<path d="M82.8385 62.6024C82.3611 65.6875 82.2479 69.776 84.4541 69.776C86.6604 69.776 88.3893 64.9662 86.486 61.1991C84.5827 57.4319 83.1169 60.7835 82.8385 62.6024Z" fill="#263238"/>
<path d="M86.6535 62.9828C86.6535 66.3383 83.3548 64.6801 81.8952 63.2337C80.4356 61.7872 80.3652 61.944 77.6602 61.9401C74.9551 61.9361 74.4135 61.697 73.6148 60.0428C72.8162 58.3885 72.8896 57.2988 74.6889 57.6477C76.4882 57.9965 74.9765 55.6445 76.3168 54.3392C77.6571 53.0338 79.2452 53.3631 81.0782 56.3423C82.9111 59.3215 86.6535 57.1694 86.6535 62.9828Z" fill="#263238"/>
<path d="M85.6836 70.6322C86.0307 69.1157 85.6902 67.6527 84.9232 67.3646C84.1561 67.0765 83.2529 68.0724 82.9058 69.5889C82.5587 71.1055 82.8992 72.5685 83.6663 72.8566C84.4333 73.1447 85.3365 72.1488 85.6836 70.6322Z" fill="white"/>
<path d="M79.5618 74.4254C78.8516 74.4253 78.1488 74.2399 77.4963 73.8806C77.4824 73.8733 77.4697 73.8625 77.459 73.8488C77.4483 73.8352 77.4399 73.8189 77.4342 73.801C77.4285 73.7831 77.4256 73.7639 77.4258 73.7446C77.426 73.7253 77.4291 73.7062 77.4351 73.6885C77.4479 73.6527 77.4709 73.6246 77.4994 73.61C77.5279 73.5954 77.5597 73.5954 77.5881 73.6101C78.203 73.9481 78.8646 74.1247 79.5337 74.1294C80.2027 74.1341 80.8658 73.9669 81.4835 73.6375C82.0843 73.3226 82.6299 72.8569 83.0881 72.2678C83.5464 71.6788 83.908 70.9783 84.1518 70.2075C85.0698 66.8402 86.0062 62.638 84.923 60.0155C84.705 59.5051 84.4035 59.0611 84.0391 58.714C83.6746 58.3669 83.2559 58.1249 82.8116 58.0046C82.7821 57.9944 82.7569 57.9698 82.7414 57.9361C82.7259 57.9023 82.7215 57.8622 82.7289 57.8242C82.7368 57.7864 82.756 57.7542 82.7824 57.7344C82.8087 57.7146 82.8401 57.7088 82.8697 57.7184C83.3444 57.8493 83.7915 58.1095 84.1807 58.4816C84.5699 58.8536 84.8919 59.3287 85.1249 59.8744C86.251 62.5831 85.3116 66.8677 84.366 70.2977C84.1095 71.1071 83.7291 71.8425 83.2472 72.4606C82.7652 73.0786 82.1916 73.5668 81.56 73.8962C80.927 74.237 80.2484 74.4167 79.5618 74.4254Z" fill="white"/>
<path opacity="0.6" d="M85.5721 70.6461C85.2997 71.8221 84.6755 72.6492 84.1767 72.465C83.6779 72.2807 83.4943 71.1596 83.7667 69.968C84.039 68.7763 84.6632 67.9609 85.162 68.1491C85.6608 68.3372 85.8444 69.4544 85.5721 70.6461Z" fill="#053D7B"/>
<path d="M77.8109 73.2314L76.6121 72.9351C76.4013 72.883 76.1975 73.0597 76.1568 73.3296L76.1435 73.4182C76.1029 73.6881 76.2407 73.9492 76.4515 74.0013L77.6503 74.2976C77.8611 74.3497 78.0649 74.1731 78.1055 73.9031L78.1188 73.8146C78.1595 73.5446 78.0216 73.2835 77.8109 73.2314Z" fill="white"/>
<path d="M76.2464 66.6602C76.2464 66.6602 75.5365 68.3105 74.8633 69.0514C75.2274 69.6198 75.9618 69.51 75.9618 69.51L76.2464 66.6602Z" fill="#A02724"/>
<path d="M76.9217 71.6188H76.9493C77.643 71.689 78.3318 71.4201 78.8771 70.8662C78.8883 70.8516 78.8946 70.8318 78.8946 70.8113C78.8946 70.7908 78.8883 70.7711 78.8771 70.7564C78.8717 70.7495 78.8652 70.7439 78.8581 70.7401C78.8511 70.7363 78.8435 70.7344 78.8358 70.7344C78.8281 70.7344 78.8205 70.7363 78.8134 70.7401C78.8063 70.7439 78.7999 70.7495 78.7945 70.7564C78.2738 71.2807 77.6189 71.5366 76.9585 71.4738C76.9506 71.4721 76.9425 71.4726 76.9348 71.4751C76.927 71.4776 76.9198 71.4821 76.9135 71.4884C76.9072 71.4946 76.9019 71.5025 76.8981 71.5114C76.8942 71.5204 76.8919 71.5303 76.8911 71.5404C76.8896 71.5559 76.8916 71.5717 76.8971 71.5856C76.9025 71.5996 76.9111 71.6112 76.9217 71.6188Z" fill="#263238"/>
<path d="M80.4234 64.7195C80.4407 64.7319 80.4602 64.7383 80.48 64.7383C80.4998 64.7383 80.5193 64.7319 80.5366 64.7195C80.5628 64.6971 80.5813 64.6625 80.5881 64.6231C80.5949 64.5837 80.5896 64.5424 80.5733 64.5078C80.427 64.1939 80.2243 63.9291 79.9822 63.7355C79.7401 63.5419 79.4654 63.425 79.181 63.3945C79.1491 63.3945 79.1184 63.4105 79.0955 63.4391C79.0726 63.4676 79.0594 63.5065 79.0586 63.5474C79.0586 63.5873 79.0707 63.6256 79.0925 63.6541C79.1142 63.6827 79.1438 63.6993 79.1749 63.7003C79.42 63.7302 79.6561 63.8339 79.864 64.0028C80.0719 64.1717 80.2457 64.4012 80.3713 64.6724C80.385 64.6939 80.403 64.7101 80.4234 64.7195Z" fill="#263238"/>
<path d="M78.6689 66.7261C78.6169 67.1181 78.4058 67.42 78.1977 67.3768C77.9896 67.3337 77.8703 66.9848 77.9223 66.5615C77.9743 66.1381 78.1885 65.8676 78.3935 65.9108C78.5986 65.9539 78.724 66.3224 78.6689 66.7261Z" fill="#263238"/>
<path d="M75.1025 65.9502C75.0505 66.3422 74.8394 66.644 74.6313 66.6009C74.4232 66.5578 74.3039 66.1893 74.3559 65.7855C74.4079 65.3818 74.6221 65.0878 74.8271 65.1348C75.0322 65.1819 75.1576 65.5425 75.1025 65.9502Z" fill="#263238"/>
<path d="M74.9136 65.1783L74.1914 64.7314C74.1914 64.7314 74.479 65.5742 74.9136 65.1783Z" fill="#263238"/>
<path d="M78.4839 65.9537L77.7617 65.5107C77.7617 65.5107 78.0494 66.3535 78.4839 65.9537Z" fill="#263238"/>
<path d="M73.8896 63.2182C73.9081 63.2324 73.9293 63.2399 73.9508 63.2399C73.9724 63.2399 73.9935 63.2324 74.012 63.2182C74.2008 63.0149 74.4252 62.8731 74.666 62.8048C74.9069 62.7366 75.157 62.7439 75.3952 62.8262C75.4252 62.8398 75.4582 62.8374 75.4869 62.8198C75.5156 62.8022 75.5376 62.7706 75.5482 62.7322C75.5587 62.6937 75.5569 62.6514 75.5431 62.6147C75.5293 62.5779 75.5047 62.5497 75.4747 62.5362C75.2001 62.436 74.9107 62.4221 74.631 62.4959C74.3513 62.5696 74.0897 62.7286 73.8682 62.9595C73.8554 62.9711 73.8446 62.9859 73.8366 63.0031C73.8285 63.0203 73.8233 63.0394 73.8213 63.0593C73.8192 63.0792 73.8205 63.0994 73.8249 63.1187C73.8293 63.138 73.8367 63.1558 73.8468 63.1712C73.857 63.1921 73.872 63.2085 73.8896 63.2182Z" fill="#263238"/>
<path d="M69.9967 119.215C69.9967 119.215 69.9538 116.408 70.6087 114.217H86.6278C86.6278 114.217 88.069 117.196 88.4423 119.215H69.9967Z" fill="#053D7B"/>
<path d="M86.8695 113.013L86.995 114.848C87.0531 114.993 86.9215 115.138 86.7349 115.138H70.5169C70.3731 115.138 70.2537 115.048 70.2445 114.93L70.0977 113.092C70.0977 112.966 70.2139 112.857 70.3731 112.857H86.5911C86.6441 112.849 86.6977 112.86 86.7466 112.888C86.7954 112.915 86.8378 112.959 86.8695 113.013Z" fill="#053D7B"/>
<path opacity="0.3" d="M86.8695 113.013L86.995 114.848C87.0531 114.993 86.9215 115.138 86.7349 115.138H70.5169C70.3731 115.138 70.2537 115.048 70.2445 114.93L70.0977 113.092C70.0977 112.966 70.2139 112.857 70.3731 112.857H86.5911C86.6441 112.849 86.6977 112.86 86.7466 112.888C86.7954 112.915 86.8378 112.959 86.8695 113.013Z" fill="#FAFAFA"/>
<path d="M84.6884 115.334H85.123C85.2117 115.334 85.276 115.28 85.2698 115.209L85.0679 112.822C85.0679 112.751 84.9853 112.696 84.8996 112.696H84.4559C84.3671 112.696 84.3029 112.751 84.309 112.822L84.511 115.209C84.5263 115.28 84.6028 115.334 84.6884 115.334Z" fill="#053D7B"/>
<path d="M71.7487 115.334H72.1832C72.2689 115.334 72.3362 115.28 72.3301 115.209L72.1251 112.822C72.1251 112.751 72.0455 112.696 71.9568 112.696H71.5223C71.4366 112.696 71.3693 112.751 71.3754 112.822L71.5804 115.209C71.5865 115.28 71.663 115.334 71.7487 115.334Z" fill="#053D7B"/>
<path d="M78.218 115.334H78.6403C78.7259 115.334 78.7933 115.28 78.7871 115.209L78.5821 112.822C78.5821 112.751 78.4995 112.696 78.4138 112.696H77.9793C77.8936 112.696 77.8263 112.751 77.8324 112.822L78.0374 115.209C78.0558 115.28 78.1292 115.334 78.218 115.334Z" fill="#053D7B"/>
<path d="M90.8411 89.376C91.5449 92.3029 92.2211 95.2455 92.8699 98.2038L93.846 102.618L94.3325 104.813L94.4549 105.354L94.5161 105.624L94.5314 105.687L94.4825 105.589C94.4052 105.447 94.31 105.323 94.201 105.221C93.9615 104.997 93.6766 104.868 93.3809 104.848C93.1574 104.835 92.9347 104.891 92.7322 105.013C92.5118 105.166 92.5333 105.201 92.5516 105.174C92.6035 105.116 92.6507 105.051 92.6924 104.981C92.8366 104.751 92.9695 104.508 93.0902 104.256C93.3595 103.692 93.6257 103.057 93.8766 102.406C94.3968 101.105 94.865 99.7248 95.3393 98.3371C95.8136 96.9494 96.2573 95.5461 96.7163 94.1309C97.1753 92.7158 97.6129 91.2929 98.0657 89.8895L100.021 90.6343C99.5131 93.6919 98.9195 96.6946 98.1851 99.6856C97.824 101.187 97.4231 102.673 96.9611 104.178C96.7224 104.931 96.4684 105.683 96.1532 106.463C95.9852 106.885 95.7972 107.294 95.5902 107.686C95.4616 107.933 95.3184 108.166 95.1618 108.384C94.9135 108.745 94.6119 109.039 94.2744 109.25C93.9376 109.46 93.5654 109.56 93.1912 109.54C92.7475 109.509 92.3213 109.308 91.9672 108.964C91.7415 108.746 91.546 108.481 91.3888 108.18C91.2894 107.987 91.2024 107.784 91.1287 107.573C91.1012 107.486 91.0706 107.396 91.0492 107.318L90.991 107.126L90.9115 106.847L90.7523 106.295C90.5443 105.562 90.3331 104.829 90.1403 104.096C89.7487 102.629 89.357 101.167 88.9898 99.6973C88.2391 96.76 87.5393 93.8082 86.8906 90.8421L90.8411 89.376Z" fill="#B65B52"/>
<path d="M89.4688 83.5662C91.0753 84.1895 93.5325 92.2608 93.5325 92.2608L87.3054 97.9644C87.3054 97.9644 84.5055 91.0652 85.1787 88.4074C85.8825 85.6399 87.639 82.8528 89.4688 83.5662Z" fill="#053D7B"/>
<path opacity="0.5" d="M89.4688 83.5662C91.0753 84.1895 93.5325 92.2608 93.5325 92.2608L87.3054 97.9644C87.3054 97.9644 84.5055 91.0652 85.1787 88.4074C85.8825 85.6399 87.639 82.8528 89.4688 83.5662Z" fill="white"/>
<path d="M98.135 90.9642L97.2812 86.1426L100.831 88.5416C100.831 88.5416 100.874 91.7874 99.4416 92.8105L98.135 90.9642Z" fill="#B55B52"/>
<path d="M98.7684 82.3164L101.033 84.3744L100.831 88.5414L97.2812 86.1423L98.7684 82.3164Z" fill="#B55B52"/>
<path d="M35.1916 58.052H59.9776C60.4508 58.046 60.9199 58.1659 61.3551 58.404C61.7903 58.6422 62.1822 58.9934 62.5061 59.4355C62.8299 59.8776 63.0786 60.401 63.2365 60.9725C63.3943 61.5441 63.4579 62.1513 63.4232 62.756L62.7316 77.1267C62.6556 78.3918 62.2139 79.575 61.4929 80.445C60.7719 81.3149 59.8235 81.8091 58.8332 81.8307H55.9629L57.1349 86.766L51.5289 81.8307H34.0563C33.5831 81.8367 33.1141 81.7168 32.6788 81.4787C32.2436 81.2405 31.8517 80.8893 31.5279 80.4472C31.204 80.0051 30.9553 79.4817 30.7975 78.9101C30.6396 78.3386 30.5761 77.7313 30.6108 77.1267L31.2962 62.756C31.3722 61.4916 31.8135 60.3089 32.5338 59.439C33.2542 58.5691 34.2018 58.0746 35.1916 58.052Z" fill="#053D7B"/>
<path d="M57.7056 65.5785H36.7446C36.6556 65.5779 36.5677 65.5536 36.4864 65.5072C36.4051 65.4608 36.3322 65.3932 36.2724 65.3088C36.2126 65.2244 36.1671 65.125 36.1388 65.0169C36.1105 64.9088 36.1001 64.7944 36.1081 64.6808C36.1218 64.4429 36.2044 64.2202 36.3397 64.0563C36.475 63.8924 36.6533 63.7992 36.8394 63.7949H57.8035C57.892 63.7952 57.9796 63.8187 58.0607 63.8642C58.1418 63.9096 58.2148 63.9759 58.2751 64.059C58.3353 64.1421 58.3816 64.2402 58.411 64.3472C58.4405 64.4541 58.4524 64.5677 58.4461 64.6808C58.4352 64.9232 58.3525 65.151 58.2148 65.3179C58.0772 65.4847 57.8951 65.5779 57.7056 65.5785Z" fill="white"/>
<path d="M45.2885 70.8266H36.4941C36.4051 70.8274 36.3168 70.8046 36.235 70.7597C36.1531 70.7147 36.0794 70.6486 36.0185 70.5654C35.9576 70.4822 35.9108 70.3837 35.881 70.2762C35.8512 70.1687 35.8391 70.0545 35.8454 69.9407C35.8591 69.7021 35.9422 69.4788 36.0781 69.3148C36.2141 69.1508 36.3931 69.058 36.5798 69.0547H45.3834C45.4727 69.0534 45.5613 69.0757 45.6435 69.1205C45.7257 69.1652 45.7998 69.2312 45.861 69.3145C45.9223 69.3978 45.9694 69.4964 45.9994 69.6042C46.0293 69.712 46.0415 69.8265 46.0352 69.9407C46.0206 70.1816 45.9356 70.4066 45.7972 70.5708C45.6588 70.735 45.4772 70.8263 45.2885 70.8266Z" fill="white"/>
<path d="M52.8262 76.0756H36.2441C36.1551 76.0764 36.0668 76.0537 35.985 76.0087C35.9031 75.9638 35.8294 75.8976 35.7685 75.8144C35.7076 75.7312 35.6607 75.6327 35.631 75.5252C35.6012 75.4177 35.5891 75.3035 35.5954 75.1897C35.6085 74.9508 35.6913 74.727 35.8274 74.5628C35.9635 74.3986 36.1429 74.3061 36.3298 74.3038H52.9119C53.0011 74.3024 53.0896 74.3247 53.1716 74.3695C53.2537 74.4142 53.3276 74.4804 53.3886 74.5637C53.4496 74.647 53.4964 74.7457 53.526 74.8535C53.5557 74.9613 53.5674 75.0758 53.5606 75.1897C53.5469 75.4283 53.4638 75.6516 53.3279 75.8156C53.1919 75.9796 53.013 76.0723 52.8262 76.0756Z" fill="white"/>
<path d="M51.7501 70.8266H48.2832C48.1941 70.8274 48.1059 70.8046 48.024 70.7597C47.9422 70.7147 47.8685 70.6486 47.8076 70.5654C47.7466 70.4822 47.6998 70.3837 47.67 70.2762C47.6402 70.1687 47.6281 70.0545 47.6344 69.9407C47.6489 69.7024 47.7321 69.4796 47.8679 69.3158C48.0037 69.152 48.1823 69.0589 48.3688 69.0548H51.8328C51.922 69.0533 52.0104 69.0757 52.0924 69.1205C52.1745 69.1652 52.2484 69.2314 52.3094 69.3147C52.3705 69.398 52.4173 69.4967 52.4469 69.6045C52.4765 69.7123 52.4883 69.8267 52.4815 69.9407C52.4678 70.1786 52.3852 70.4013 52.2499 70.5652C52.1146 70.7291 51.9363 70.8223 51.7501 70.8266Z" fill="white"/>
<path d="M69.7035 32.2189H56.1906C55.42 32.2337 54.6816 32.6172 54.1204 33.2939C53.5593 33.9707 53.2161 34.8918 53.1581 35.8763L52.6318 47.0639C52.6055 47.5343 52.6557 48.0066 52.779 48.4509C52.9023 48.8952 53.0961 49.302 53.3483 49.6456C53.6004 49.9892 53.9053 50.2622 54.2439 50.4473C54.5825 50.6325 54.9473 50.7257 55.3154 50.7213H57.5278L56.2487 54.5629L60.9794 50.7213H68.8192C69.5898 50.7065 70.3282 50.323 70.8893 49.6463C71.4504 48.9695 71.7937 48.0484 71.8516 47.0639L72.3871 35.8763C72.4133 35.4059 72.3632 34.9336 72.2399 34.4893C72.1166 34.045 71.9228 33.6382 71.6706 33.2946C71.4185 32.951 71.1136 32.678 70.775 32.4929C70.4364 32.3077 70.0716 32.2145 69.7035 32.2189Z" fill="#053D7B"/>
<g opacity="0.5">
<path d="M69.7035 32.2189H56.1906C55.42 32.2337 54.6816 32.6172 54.1204 33.2939C53.5593 33.9707 53.2161 34.8918 53.1581 35.8763L52.6318 47.0639C52.6055 47.5343 52.6557 48.0066 52.779 48.4509C52.9023 48.8952 53.0961 49.302 53.3483 49.6456C53.6004 49.9892 53.9053 50.2622 54.2439 50.4473C54.5825 50.6325 54.9473 50.7257 55.3154 50.7213H57.5278L56.2487 54.5629L60.9794 50.7213H68.8192C69.5898 50.7065 70.3282 50.323 70.8893 49.6463C71.4504 48.9695 71.7937 48.0484 71.8516 47.0639L72.3871 35.8763C72.4133 35.4059 72.3632 34.9336 72.2399 34.4893C72.1166 34.045 71.9228 33.6382 71.6706 33.2946C71.4185 32.951 71.1136 32.678 70.775 32.4929C70.4364 32.3077 70.0716 32.2145 69.7035 32.2189Z" fill="#FAFAFA"/>
</g>
<path d="M63.1907 43.3008C63.1441 43.5472 63.0344 43.7664 62.879 43.9235C62.7237 44.0805 62.5317 44.1663 62.3339 44.1671H61.5352C61.5352 43.877 61.5536 43.7006 61.5566 43.6379C61.5682 43.0729 61.6813 42.5189 61.8871 42.0189C62.1762 41.4616 62.5435 40.9778 62.9703 40.592C63.3107 40.2761 63.6319 39.9275 63.9312 39.5493C64.0899 39.3087 64.1843 39.0092 64.2005 38.6948C64.2125 38.4865 64.187 38.2774 64.126 38.0837C64.065 37.89 63.9701 37.7168 63.8486 37.5776C63.5517 37.2518 63.1678 37.086 62.7776 37.115C62.3672 37.1007 61.9661 37.2729 61.6454 37.6011C61.4547 37.8025 61.2985 38.0521 61.1864 38.3341C61.1037 38.5402 60.9754 38.7104 60.8175 38.8233C60.6597 38.9363 60.4792 38.9871 60.299 38.9692C60.1692 38.9486 60.0456 38.8864 59.9396 38.7885C59.8336 38.6905 59.7486 38.5598 59.6925 38.4086C59.6364 38.2573 59.6109 38.0904 59.6185 37.9232C59.6261 37.756 59.6665 37.594 59.7359 37.4521C59.9206 37.0552 60.1577 36.7023 60.4367 36.4094C61.0998 35.7265 61.9335 35.3742 62.7837 35.4176C63.7843 35.4176 64.5615 35.7509 65.1215 36.4212C65.3837 36.7099 65.59 37.0726 65.7243 37.4806C65.8587 37.8887 65.9173 38.3312 65.8957 38.7732C65.8676 39.2756 65.7321 39.7584 65.504 40.1687C65.0742 40.8467 64.5774 41.4502 64.026 41.964C63.7404 42.2195 63.4936 42.5397 63.2978 42.9088C63.248 43.0324 63.2119 43.1643 63.1907 43.3008ZM61.4434 46.1153V45.9899C61.4595 45.7066 61.5581 45.4414 61.7196 45.2468C61.8811 45.0523 62.0938 44.9425 62.3155 44.9393H62.4257C62.5317 44.9373 62.6369 44.9636 62.7346 45.0165C62.8323 45.0694 62.9203 45.1477 62.9931 45.2465C63.0659 45.3453 63.1219 45.4624 63.1575 45.5904C63.1931 45.7183 63.2075 45.8544 63.1998 45.9899V46.1153C63.1838 46.399 63.0853 46.6646 62.9239 46.8598C62.7624 47.055 62.5497 47.1656 62.3277 47.1698H62.2298C62.1225 47.1741 62.0156 47.1493 61.9163 47.0972C61.8169 47.0451 61.7272 46.9667 61.653 46.8673C61.5788 46.7678 61.5218 46.6494 61.4857 46.5199C61.4496 46.3903 61.4352 46.2525 61.4434 46.1153Z" fill="white"/>
</svg>
