<svg width="343" height="368" viewBox="0 0 343 368" fill="none" xmlns="http://www.w3.org/2000/svg">
<path d="M167.708 304.086V303.18C167.781 298.955 166.606 294.813 164.351 291.348C162.096 287.883 158.877 285.272 155.154 283.89C152.03 282.784 148.701 282.523 145.46 283.129C142.219 283.735 139.168 285.19 136.577 287.364C133.545 289.955 131.089 293.59 127.371 294.812C122.569 296.409 117.651 293.377 113.459 290.47C109.268 287.563 104.342 284.538 99.547 286.157C96.5423 287.172 94.2443 289.888 92.7556 292.884C88.8111 300.818 89.943 310.923 94.3677 318.445C98.7924 325.967 106.105 331.119 113.878 334.144C124.792 338.339 137.304 338.56 147.889 333.217C158.474 327.873 166.741 316.605 167.708 304.086Z" fill="#EBEBEB"/>
<path d="M148.663 32.5755L148.621 33.3115C148.406 36.4531 148.995 39.5982 150.325 42.4066C151.655 45.215 153.676 47.58 156.167 49.2459C156.827 49.6732 157.515 50.0471 158.225 50.3646C160.805 51.4917 163.605 51.9182 166.375 51.6062C169.145 51.2943 171.801 50.2534 174.106 48.5761C176.809 46.5668 179.094 43.6449 182.277 42.8353C186.393 41.7681 190.419 44.6312 193.808 47.3396C197.197 50.0481 201.21 52.8965 205.347 51.8145C207.933 51.1374 210.018 48.9809 211.432 46.5374C215.177 40.068 214.752 31.4641 211.432 24.8328C208.111 18.2014 202.178 13.4248 195.743 10.4292C186.736 6.22669 176.171 5.27725 166.931 9.17069C157.69 13.0641 150.131 22.0801 148.663 32.5755Z" fill="#EBEBEB"/>
<path d="M53.4005 303.239C54.6046 295.064 49.4041 287.391 41.7849 286.099C34.1657 284.807 27.013 290.386 25.809 298.561C24.605 306.736 29.8055 314.41 37.4247 315.701C45.0439 316.993 52.1965 311.414 53.4005 303.239Z" fill="#EBEBEB"/>
<path d="M313.044 305.84C314.725 299.469 311.273 292.842 305.334 291.039C299.396 289.236 293.219 292.94 291.539 299.311C289.858 305.683 293.31 312.309 299.249 314.112C305.187 315.915 311.364 312.212 313.044 305.84Z" fill="#EBEBEB"/>
<path d="M120.737 53.8758C127.811 53.8758 133.545 47.7237 133.545 40.1347C133.545 32.5457 127.811 26.3936 120.737 26.3936C113.664 26.3936 107.93 32.5457 107.93 40.1347C107.93 47.7237 113.664 53.8758 120.737 53.8758Z" fill="#EBEBEB"/>
<path d="M299.455 62.5527H34.0553C29.1944 62.5527 25.2539 66.7805 25.2539 71.9956V264.688C25.2539 269.903 29.1944 274.131 34.0553 274.131H299.455C304.316 274.131 308.256 269.903 308.256 264.688V71.9956C308.256 66.7805 304.316 62.5527 299.455 62.5527Z" fill="#263238"/>
<path d="M308.256 71.9956L308.214 71.3332C308.203 71.0613 308.173 70.7908 308.125 70.5236C308.074 70.1473 307.996 69.7757 307.892 69.4122C307.563 68.182 307.004 67.0369 306.247 66.0472C305.491 65.0575 304.555 64.244 303.495 63.6567C302.756 63.2511 301.969 62.9564 301.155 62.7809C300.249 62.6208 299.329 62.5616 298.411 62.6042H292.039H276.144L174.856 62.6705H104.884H35.1452C34.2831 62.6339 33.4196 62.6831 32.5659 62.8177C31.7167 62.9722 30.895 63.2676 30.1306 63.6935C28.586 64.544 27.3147 65.8721 26.4811 67.506C26.0765 68.3288 25.7809 69.2082 25.603 70.1188C25.4615 71.0478 25.4064 71.9896 25.4383 72.9303V90.2484C25.4383 98.0156 25.4383 105.866 25.4383 113.8V162.376C25.4383 195.386 25.4383 229.558 25.4383 264.563C25.4325 266.717 26.1297 268.805 27.4091 270.466C28.6885 272.126 30.4692 273.253 32.4424 273.652C33.4344 273.81 34.4384 273.864 35.4402 273.814H115.483H204.21H284.472H298.432C299.188 273.841 299.945 273.804 300.696 273.704C302.528 273.431 304.23 272.532 305.548 271.14C306.867 269.748 307.732 267.937 308.016 265.976C308.101 265.192 308.13 264.402 308.105 263.613C308.105 262.818 308.105 262.031 308.105 261.236V256.518C308.105 244.001 308.105 231.997 308.105 220.506C308.105 174.631 308.153 137.5 308.166 111.835C308.166 99.0141 308.166 89.0193 308.201 82.2922C308.201 78.9213 308.201 76.3453 308.201 74.6084C308.201 72.8714 308.201 71.9956 308.201 71.9956C308.201 71.9956 308.201 72.8788 308.201 74.6084C308.201 76.338 308.201 78.9213 308.201 82.2922C308.201 89.0487 308.201 99.0141 308.201 111.835C308.201 137.5 308.242 174.631 308.269 220.506C308.269 231.977 308.269 243.982 308.269 256.518C308.269 258.086 308.269 259.654 308.269 261.236V263.613C308.292 264.417 308.26 265.221 308.173 266.02C307.957 267.653 307.355 269.199 306.423 270.511C305.491 271.823 304.26 272.856 302.85 273.512C302.136 273.835 301.387 274.061 300.62 274.182C299.856 274.284 299.085 274.323 298.315 274.3H284.499H204.237H115.51H35.4539C34.4291 274.35 33.4022 274.293 32.3875 274.131C30.3229 273.713 28.4594 272.534 27.1201 270.797C25.7807 269.06 25.0499 266.876 25.0542 264.622C25.0542 229.617 25.0542 195.437 25.0542 162.435C25.0542 145.934 25.0542 129.742 25.0542 113.859V73.0039C25.0247 72.0382 25.0844 71.0718 25.2325 70.1188C25.4178 69.1701 25.7248 68.2536 26.1449 67.3956C27.0204 65.6947 28.345 64.3094 29.9522 63.4138C30.7498 62.9736 31.6059 62.6682 32.4904 62.5085C33.3644 62.3695 34.2486 62.3177 35.1315 62.354H65.9261H104.891H174.863L276.151 62.4202H292.045H298.411C299.33 62.3869 300.249 62.451 301.155 62.6116C301.978 62.7887 302.773 63.0911 303.515 63.5095C304.582 64.1048 305.523 64.9286 306.28 65.93C307.038 66.9315 307.596 68.0891 307.919 69.3313C308.02 69.6949 308.093 70.0665 308.139 70.4426C308.185 70.7124 308.213 70.9854 308.221 71.2596C308.256 71.7674 308.256 71.9956 308.256 71.9956Z" fill="#263238"/>
<path d="M294.034 160.22C295.527 160.22 296.986 160.695 298.227 161.584C299.468 162.474 300.435 163.738 301.006 165.218C301.577 166.697 301.726 168.325 301.435 169.895C301.144 171.466 300.425 172.908 299.37 174.04C298.315 175.173 296.97 175.944 295.506 176.256C294.043 176.569 292.525 176.408 291.147 175.795C289.768 175.183 288.589 174.145 287.76 172.814C286.931 171.482 286.488 169.917 286.488 168.316C286.488 166.169 287.283 164.109 288.698 162.591C290.114 161.073 292.033 160.22 294.034 160.22Z" fill="#455A64"/>
<path d="M40.2082 146.663V189.888C40.2091 190.284 40.1372 190.676 39.9966 191.042C39.856 191.408 39.6495 191.741 39.3888 192.021C39.1282 192.301 38.8186 192.524 38.4777 192.676C38.1369 192.827 37.7715 192.905 37.4024 192.905C37.0331 192.905 36.6673 192.827 36.3261 192.676C35.9849 192.524 35.6748 192.302 35.4136 192.022C35.1525 191.741 34.9453 191.409 34.8039 191.043C34.6626 190.676 34.5898 190.284 34.5898 189.888V146.685C34.5898 145.884 34.8862 145.117 35.4136 144.551C35.9411 143.985 36.6565 143.667 37.4024 143.667C38.1442 143.667 38.8558 143.982 39.3816 144.543C39.9074 145.105 40.2046 145.867 40.2082 146.663Z" fill="#455A64"/>
<path d="M281.782 69.4053H45.4414V267.64H281.782V69.4053Z" fill="#EBEBEB"/>
<path d="M197.824 212.506L216.099 247.061L261.032 246.347L258.487 208.848L197.824 212.506Z" fill="#E0E0E0"/>
<path d="M138.427 95.8124L131.828 150.431L145.459 153.92L172.11 151.079L167.219 91.4111L138.427 95.8124Z" fill="#E0E0E0"/>
<path d="M97.0285 207.596H65.5273V166.902L99.7587 167.27L97.0285 207.596Z" fill="#F5F5F5"/>
<path d="M226.711 208.847C226.711 207.692 232.261 167.271 232.261 167.271C232.261 167.271 253.979 160.89 254.062 161.802C254.144 162.715 258.384 207.773 258.384 207.773L226.711 208.847Z" fill="#F5F5F5"/>
<path d="M69.1484 105.322C69.2102 106.308 84.1924 138.633 84.1924 138.633L101.541 133.702V96.5119L83.6505 96.0703L69.1484 105.322Z" fill="#E0E0E0"/>
<path d="M175.095 172.769H151.105V184.913H175.095V172.769Z" fill="#E0E0E0"/>
<path d="M175.205 188.938L151.044 190.249L149.816 214.86L177.407 212.505L175.205 188.938Z" fill="#E0E0E0"/>
<path d="M271.987 143.3L268.633 93.3398H281.722L281.783 142.306L271.987 143.3Z" fill="#E0E0E0"/>
<path d="M218.383 85.1553L223.837 147.414L252.45 144.661L247.455 91.5585L224.804 85.1553H218.383Z" fill="#E0E0E0"/>
<path d="M86.9164 96.2908L45.6055 95.621L45.6466 92.677L84.68 93.31L89.187 69.4268L91.883 70.0082L86.9164 96.2908Z" fill="white"/>
<path d="M65.33 144.382L45.3125 96.2178L45.9368 95.916L65.721 143.506L101.462 133.342L101.633 134.056L65.33 144.382Z" fill="white"/>
<path d="M99.7651 166.535H45.6328V168.007H99.7651V166.535Z" fill="white"/>
<path d="M65.8657 143.947H65.1797V207.604H65.8657V143.947Z" fill="white"/>
<path d="M97.2132 207.272H45.6328V208.008H97.2132V207.272Z" fill="white"/>
<path d="M94.5385 265.188L45.4141 253.559L46.004 250.682L92.0346 261.582L99.9305 143.711L101.117 94.6864L102.963 69.6035L105.693 69.8317L103.854 94.8778L102.674 143.859L94.5385 265.188Z" fill="white"/>
<path d="M102.375 98.0798L85.6641 96.2692L85.9453 93.34L100.715 94.9444L103.157 89.3508L125.171 95.0769L224.161 82.9697L258.646 92.5819L281.682 91.868L281.764 94.8046L258.337 95.5406L223.962 85.9579L124.999 98.0577L104.694 92.7806L102.375 98.0798Z" fill="white"/>
<path d="M217.462 211.137L214.738 210.754L222.449 147.399L216.522 85.2146V69.4053H219.266V85.141L225.213 147.436L217.462 211.137Z" fill="white"/>
<path d="M95.8639 219.851L95.6992 216.914L257.506 206.36L279.527 158.255L281.989 159.55L259.269 209.193L258.473 209.245L95.8639 219.851Z" fill="white"/>
<path d="M176.88 214.279L166.535 91.4775L165.973 69.7434L167.345 69.6992L167.907 91.3965L178.245 214.147L176.88 214.279Z" fill="white"/>
<path d="M155.16 266.852L143.197 214.434V155.142L129.73 151.55L135.575 95.268L135.033 69.4344L137.777 69.3682L138.326 95.4005L138.319 95.4962L132.721 149.312L145.941 152.845V214.073L157.829 266.152L155.16 266.852Z" fill="white"/>
<path d="M144.567 166.902H99.7578V167.638H144.567V166.902Z" fill="white"/>
<path d="M101.365 143.453L101.227 144.174L131.154 150.782L131.292 150.061L101.365 143.453Z" fill="white"/>
<path d="M144.494 191.639L133.848 189.115V167.271H134.534V188.526L144.645 190.918L144.494 191.639Z" fill="white"/>
<path d="M127.872 266.815L121.89 246.215H94.5117V243.271H123.907L130.492 265.939L127.872 266.815Z" fill="white"/>
<path d="M215.898 247.436L197.527 212.682L198.124 212.321L216.296 246.692L281.631 245.647L281.645 246.383L215.898 247.436Z" fill="white"/>
<path d="M248.045 247.061H247.359V266.903H248.045V247.061Z" fill="white"/>
<path d="M260.689 246.376L258.144 208.877L245.027 69.4418L245.713 69.3682L258.83 208.811L261.375 246.317L260.689 246.376Z" fill="white"/>
<path d="M281.757 141.924L144.543 153.613L144.597 154.347L281.811 142.657L281.757 141.924Z" fill="white"/>
<path d="M269.308 94.551L267.941 94.6826L272.016 143.379L273.383 143.248L269.308 94.551Z" fill="white"/>
<path d="M270.869 121.907L250.766 127.245L250.93 127.96L271.034 122.622L270.869 121.907Z" fill="white"/>
<path d="M262.034 124.362L258.474 102.709L248.438 101.568L248.506 100.84L259.057 102.04L262.706 124.23L262.034 124.362Z" fill="white"/>
<path d="M194.09 88.8977L192.723 89.0234L197.488 148.656L198.855 148.53L194.09 88.8977Z" fill="white"/>
<path d="M220.743 121.504L196.43 127.244L196.577 127.963L220.89 122.223L220.743 121.504Z" fill="white"/>
<path d="M215.435 246.974L212.938 267.748L214.298 267.936L216.796 247.162L215.435 246.974Z" fill="white"/>
<path d="M102.488 168.522L99.7578 214.213L142.324 211.991V194.062L131.177 191.419V170.488L102.488 168.522Z" fill="#E0E0E0"/>
<path d="M90.7671 179.651C90.7679 178.056 90.4259 176.482 89.7677 175.051C89.1096 173.621 88.1529 172.373 86.9721 171.403C85.7912 170.434 84.418 169.77 82.9591 169.462C81.5002 169.155 79.9948 169.212 78.56 169.63C77.1251 170.048 75.7994 170.815 74.6858 171.872C73.5721 172.929 72.7006 174.247 72.1388 175.724C71.5771 177.201 71.3402 178.797 71.4467 180.388C71.5532 181.979 72.0001 183.523 72.7527 184.898V184.935C73.1232 185.605 73.5828 186.083 74.0561 186.79L79.6676 194.768C79.8307 195 80.0416 195.188 80.2838 195.317C80.5261 195.447 80.793 195.514 81.0636 195.514C81.3342 195.514 81.6011 195.447 81.8434 195.317C82.0856 195.188 82.2965 195 82.4596 194.768L87.9476 186.922C88.4497 186.285 88.9192 185.62 89.3539 184.928C90.2612 183.338 90.7496 181.515 90.7671 179.651ZM81.0945 184.17C80.2513 184.171 79.4267 183.904 78.7251 183.403C78.0235 182.901 77.4764 182.187 77.1532 181.352C76.8299 180.516 76.7449 179.597 76.9091 178.709C77.0732 177.822 77.4791 177.007 78.0753 176.367C78.6715 175.728 79.4312 175.292 80.2582 175.116C81.0852 174.94 81.9423 175.031 82.721 175.378C83.4997 175.725 84.165 176.312 84.6326 177.065C85.1002 177.817 85.349 178.702 85.3477 179.607C85.3459 180.816 84.8972 181.976 84.0999 182.831C83.3027 183.686 82.2219 184.168 81.0945 184.17Z" fill="#053D7B"/>
<path d="M181.79 143.137C181.794 141.541 181.454 139.965 180.798 138.532C180.141 137.099 179.185 135.848 178.004 134.877C176.823 133.905 175.449 133.239 173.989 132.93C172.529 132.622 171.022 132.678 169.586 133.096C168.15 133.514 166.823 134.282 165.708 135.34C164.594 136.398 163.722 137.718 163.16 139.197C162.599 140.675 162.363 142.273 162.471 143.865C162.579 145.458 163.028 147.002 163.783 148.378V148.422C164.153 149.092 164.62 149.57 165.093 150.277L170.718 158.24C170.882 158.472 171.092 158.66 171.335 158.789C171.577 158.919 171.844 158.986 172.114 158.986C172.385 158.986 172.652 158.919 172.894 158.789C173.136 158.66 173.347 158.472 173.51 158.24L179.046 150.402C179.539 149.765 179.997 149.099 180.418 148.407C181.31 146.815 181.784 144.994 181.79 143.137ZM172.118 147.656C171.275 147.656 170.452 147.388 169.751 146.886C169.051 146.384 168.505 145.67 168.182 144.835C167.86 144 167.775 143.081 167.94 142.194C168.104 141.308 168.51 140.493 169.106 139.854C169.701 139.215 170.46 138.779 171.287 138.603C172.113 138.427 172.97 138.517 173.748 138.863C174.527 139.209 175.192 139.795 175.66 140.547C176.128 141.298 176.378 142.182 176.378 143.086C176.378 143.687 176.268 144.282 176.053 144.837C175.838 145.392 175.524 145.896 175.128 146.32C174.731 146.745 174.261 147.081 173.743 147.311C173.226 147.54 172.671 147.657 172.111 147.656H172.118Z" fill="#053D7B"/>
<path d="M141.634 233.033C141.638 231.937 141.405 230.856 140.955 229.873C140.505 228.889 139.85 228.031 139.04 227.364C138.23 226.697 137.287 226.24 136.286 226.027C135.284 225.815 134.25 225.854 133.265 226.141C132.28 226.427 131.369 226.954 130.605 227.68C129.84 228.406 129.242 229.311 128.857 230.326C128.472 231.34 128.31 232.436 128.385 233.529C128.459 234.621 128.768 235.681 129.286 236.624C129.54 237.081 129.863 237.412 130.185 237.89L134.034 243.366C134.146 243.523 134.29 243.651 134.455 243.738C134.621 243.826 134.803 243.872 134.987 243.872C135.172 243.872 135.353 243.826 135.519 243.738C135.684 243.651 135.829 243.523 135.941 243.366L139.727 237.986C140.072 237.548 140.395 237.091 140.695 236.617C141.3 235.533 141.625 234.296 141.634 233.033ZM135.001 236.131C134.422 236.133 133.857 235.95 133.375 235.606C132.894 235.263 132.518 234.774 132.296 234.201C132.074 233.628 132.015 232.997 132.127 232.389C132.239 231.78 132.517 231.221 132.925 230.781C133.333 230.342 133.854 230.043 134.421 229.921C134.988 229.8 135.576 229.861 136.111 230.098C136.645 230.336 137.102 230.737 137.423 231.253C137.745 231.769 137.916 232.375 137.916 232.996C137.917 233.407 137.842 233.815 137.696 234.195C137.55 234.575 137.336 234.921 137.065 235.212C136.794 235.504 136.472 235.735 136.118 235.892C135.764 236.05 135.384 236.131 135.001 236.131Z" fill="#053D7B"/>
<path d="M261.963 103.849C261.956 102.077 261.332 100.37 260.214 99.0647C259.096 97.7591 257.564 96.9483 255.918 96.7908C254.273 96.6334 252.631 97.1407 251.315 98.2135C250 99.2863 249.105 100.847 248.805 102.591C248.522 104.259 248.81 105.982 249.615 107.441C249.869 107.897 250.191 108.229 250.514 108.714L254.362 114.183C254.474 114.34 254.618 114.467 254.784 114.555C254.949 114.643 255.131 114.688 255.316 114.688C255.5 114.688 255.682 114.643 255.847 114.555C256.013 114.467 256.157 114.34 256.269 114.183L260.056 108.803C260.401 108.365 260.723 107.908 261.023 107.434C261.629 106.35 261.953 105.113 261.963 103.849ZM255.329 106.948C254.751 106.949 254.185 106.767 253.703 106.423C253.222 106.079 252.846 105.589 252.624 105.016C252.402 104.443 252.343 103.812 252.456 103.203C252.568 102.594 252.847 102.035 253.256 101.596C253.665 101.157 254.187 100.858 254.754 100.737C255.322 100.616 255.91 100.679 256.444 100.917C256.978 101.156 257.435 101.559 257.755 102.075C258.076 102.592 258.246 103.199 258.245 103.82C258.245 104.65 257.938 105.445 257.391 106.032C256.844 106.618 256.103 106.948 255.329 106.948Z" fill="#053D7B"/>
<path d="M120.739 107.236C120.741 105.296 120.326 103.382 119.526 101.643C118.727 99.9032 117.565 98.3848 116.129 97.2056C114.694 96.0265 113.025 95.2182 111.251 94.8438C109.477 94.4693 107.647 94.5387 105.902 95.0466C104.157 95.5544 102.545 96.487 101.191 97.7719C99.837 99.0569 98.7772 100.659 98.0942 102.455C97.4112 104.251 97.1233 106.192 97.2529 108.126C97.3826 110.061 97.9262 111.937 98.8416 113.609L98.8759 113.654C99.3218 114.471 99.8912 115.052 100.461 115.906L107.286 125.614C107.485 125.894 107.741 126.122 108.035 126.278C108.329 126.435 108.652 126.517 108.981 126.517C109.309 126.517 109.633 126.435 109.927 126.278C110.221 126.122 110.477 125.894 110.675 125.614L117.391 116.046C118.003 115.271 118.573 114.46 119.099 113.617C120.166 111.685 120.732 109.482 120.739 107.236ZM108.974 112.726C107.949 112.726 106.948 112.4 106.096 111.789C105.244 111.178 104.58 110.31 104.188 109.294C103.796 108.278 103.694 107.161 103.895 106.083C104.095 105.005 104.589 104.014 105.314 103.238C106.039 102.461 106.962 101.932 107.968 101.719C108.973 101.505 110.014 101.616 110.961 102.038C111.907 102.459 112.715 103.173 113.284 104.088C113.852 105.002 114.154 106.077 114.153 107.177C114.151 108.649 113.605 110.061 112.634 111.101C111.663 112.142 110.346 112.726 108.974 112.726Z" fill="#053D7B"/>
<path d="M176.156 232.215C176.156 232.215 176.156 258.093 175.854 259.55C175.552 261.007 174.846 268.765 176.609 272.364C178.372 275.963 182.563 283.256 186.213 284.272C189.862 285.288 191.927 284.272 191.927 284.272C191.927 284.272 194.17 267.418 193.436 262.582C192.702 257.747 191.035 247.192 191.035 247.192L179.73 233.429L176.156 232.215Z" fill="#FFBE9D"/>
<path d="M204.57 196.695L215.224 193.185L235.372 191.742L247.562 194.223L234.322 216.987L215.224 215.441L204.57 196.695Z" fill="#FFBE9D"/>
<path d="M246.747 149.717C246.86 155.19 245.891 160.627 243.905 165.669C241.918 170.712 238.959 175.246 235.222 178.973C233.503 173.639 231.785 168.301 230.07 162.957" fill="#263238"/>
<path d="M207.905 117.863C212.33 115.272 217.674 114.919 222.613 115.964C227.552 117.009 232.162 119.423 236.525 122.132C238.967 123.648 241.409 125.319 243.172 127.696C246.383 132.031 249.552 139.148 249.868 144.675C250.115 149.143 248.496 160.33 246.76 164.393C245.141 168.117 237.581 170.951 233.85 171.871L199.625 129.139C200.24 126.764 201.288 124.544 202.71 122.609C204.131 120.673 205.897 119.06 207.905 117.863Z" fill="#263238"/>
<path d="M201.998 123.648L210.23 122.073C205.743 133.54 204.529 159.756 201.957 171.886C198.931 167.175 191.907 152.831 192.284 147.119C192.661 141.408 192.243 122.655 201.998 123.648Z" fill="#263238"/>
<path d="M240.93 142.717C240.783 139.502 239.679 136.421 237.78 133.928C235.881 131.434 233.287 129.66 230.379 128.866L211.473 123.714C203.303 122.772 197.842 133.554 197.307 142.357C196.717 152.131 196.346 162.442 197.41 169.743C199.55 184.412 210.025 186.311 210.025 186.311C210.025 186.311 210.025 193.288 210.025 197.572L226.915 211.931L236.738 195.452L240.964 142.924C240.978 142.644 240.95 143.049 240.93 142.717Z" fill="#FFBE9D"/>
<path d="M201.414 153.404C201.408 153.895 201.582 154.369 201.897 154.725C202.212 155.081 202.644 155.291 203.102 155.31C203.325 155.329 203.549 155.3 203.762 155.225C203.974 155.15 204.17 155.03 204.339 154.872C204.508 154.715 204.645 154.523 204.744 154.307C204.842 154.092 204.9 153.857 204.913 153.618C204.919 153.127 204.745 152.653 204.43 152.296C204.115 151.94 203.683 151.73 203.225 151.711C203.002 151.691 202.777 151.72 202.565 151.794C202.352 151.869 202.155 151.989 201.986 152.147C201.817 152.305 201.68 152.497 201.581 152.713C201.483 152.929 201.426 153.164 201.414 153.404Z" fill="#263238"/>
<path d="M199.358 148.069C199.578 148.319 200.908 147.267 202.788 147.274C204.668 147.281 206.053 148.304 206.259 148.054C206.362 147.944 206.143 147.502 205.539 147.031C204.724 146.421 203.754 146.097 202.761 146.104C201.777 146.095 200.815 146.422 200.017 147.038C199.454 147.517 199.255 147.936 199.358 148.069Z" fill="#263238"/>
<path d="M217.863 153.405C217.859 153.888 218.029 154.354 218.337 154.706C218.644 155.059 219.067 155.27 219.517 155.296C219.74 155.316 219.965 155.288 220.177 155.213C220.39 155.139 220.587 155.019 220.756 154.861C220.925 154.703 221.062 154.51 221.161 154.294C221.259 154.078 221.316 153.844 221.328 153.604C221.335 153.113 221.164 152.639 220.849 152.283C220.535 151.927 220.104 151.717 219.647 151.697C219.425 151.681 219.202 151.713 218.992 151.791C218.781 151.868 218.587 151.99 218.421 152.149C218.255 152.308 218.12 152.501 218.024 152.717C217.929 152.932 217.874 153.166 217.863 153.405Z" fill="#263238"/>
<path d="M217.276 148.069C217.496 148.319 218.826 147.267 220.706 147.274C222.586 147.281 223.978 148.304 224.177 148.054C224.28 147.944 224.061 147.502 223.457 147.031C222.642 146.421 221.672 146.097 220.679 146.104C219.695 146.096 218.734 146.423 217.935 147.038C217.372 147.517 217.173 147.936 217.276 148.069Z" fill="#263238"/>
<path d="M211.384 163.973C211.384 163.856 210.218 163.635 208.317 163.37C207.837 163.318 207.378 163.208 207.302 162.862C207.26 162.326 207.373 161.789 207.624 161.324L209.058 157.394C211.048 151.793 212.488 147.193 212.282 147.09C212.077 146.987 210.286 151.506 208.297 157.077L206.925 161.037C206.625 161.66 206.535 162.375 206.671 163.061C206.743 163.24 206.853 163.399 206.99 163.527C207.128 163.654 207.291 163.746 207.467 163.797C207.733 163.877 208.007 163.919 208.283 163.922C210.19 164.076 211.377 164.084 211.384 163.973Z" fill="#263238"/>
<path d="M228.162 181.056C228.162 181.056 223.71 191.132 210.031 189.726V186.281C216.409 186.374 222.686 184.565 228.162 181.056Z" fill="#EB996E"/>
<path d="M217.874 140.752C218.059 141.304 219.932 141.047 222.154 141.341C224.377 141.636 226.154 142.283 226.449 141.79C226.586 141.555 226.27 141.054 225.55 140.502C224.592 139.838 223.501 139.426 222.367 139.302C221.236 139.149 220.088 139.29 219.019 139.715C218.203 140.061 217.791 140.495 217.874 140.752Z" fill="#263238"/>
<path d="M199.973 141.879C200.303 142.342 201.606 141.879 203.17 141.879C204.734 141.879 206.058 142.195 206.36 141.709C206.497 141.481 206.285 141.017 205.708 140.583C204.934 140.057 204.03 139.791 203.114 139.818C202.197 139.846 201.309 140.166 200.563 140.738C200.008 141.179 199.829 141.65 199.973 141.879Z" fill="#263238"/>
<path d="M200.997 128.926C201.834 126.718 204.091 125.393 206.307 125.246C208.541 125.242 210.729 125.926 212.611 127.218C220.754 132.267 224.959 144.463 232.985 149.688C234.968 150.976 237.54 149.798 239.221 151.499C240.902 153.199 241.999 155.915 241.066 158.189C242.219 156.654 243.159 154.948 243.858 153.125C244.204 152.21 244.362 151.226 244.323 150.24C244.284 149.253 244.048 148.287 243.632 147.406C242.946 146.111 241.704 145.125 241.368 143.675C241.073 142.402 241.54 141.07 241.492 139.752C241.353 138.417 240.923 137.136 240.236 136.013C237.088 130.03 232.752 124.627 227.168 121.293C223.526 119.03 219.378 117.877 215.17 117.959C210.945 118.066 206.896 119.792 203.755 122.824C201.951 124.62 200.064 126.504 201.011 128.926" fill="#263238"/>
<path d="M239.055 153.346C239.199 152.926 246.326 150.166 246.422 158.299C246.512 166.197 239.082 164.644 239.068 164.415C239.055 164.187 239.055 153.346 239.055 153.346Z" fill="#FFBE9D"/>
<path d="M241.313 161.397C241.348 161.397 241.444 161.493 241.663 161.596C241.971 161.728 242.315 161.728 242.624 161.596C243.399 161.279 244.044 159.947 244.064 158.527C244.079 157.847 243.95 157.172 243.687 156.554C243.615 156.308 243.49 156.085 243.32 155.903C243.15 155.721 242.942 155.585 242.713 155.509C242.564 155.475 242.41 155.495 242.273 155.566C242.137 155.637 242.026 155.754 241.958 155.899C241.862 156.12 241.91 156.274 241.876 156.289C241.841 156.304 241.711 156.157 241.773 155.833C241.809 155.636 241.908 155.458 242.054 155.332C242.251 155.174 242.496 155.1 242.74 155.126C243.046 155.184 243.334 155.325 243.574 155.536C243.814 155.748 244 156.022 244.112 156.333C244.435 157.017 244.595 157.775 244.579 158.541C244.579 160.131 243.797 161.632 242.733 161.971C242.536 162.034 242.329 162.049 242.126 162.015C241.923 161.98 241.729 161.898 241.56 161.772C241.334 161.588 241.293 161.412 241.313 161.397Z" fill="#EB996E"/>
<path d="M241.984 149.283C241.827 149.211 241.678 149.122 241.538 149.018C241.257 148.827 240.818 148.569 240.303 148.179C238.854 147.036 237.521 145.734 236.324 144.293C234.588 142.133 232.967 139.87 231.467 137.515C229.653 134.641 227.62 131.933 225.389 129.419C224.197 128.164 222.881 127.051 221.466 126.099C220.136 125.227 218.712 124.533 217.226 124.031C214.71 123.163 212.063 122.816 209.426 123.008C207.646 123.122 205.888 123.491 204.199 124.105C203.595 124.303 203.149 124.517 202.827 124.649C202.67 124.724 202.507 124.783 202.34 124.826C202.487 124.733 202.641 124.652 202.799 124.583C203.244 124.348 203.702 124.144 204.171 123.972C205.86 123.3 207.63 122.889 209.426 122.75C212.096 122.526 214.781 122.853 217.336 123.715C218.847 124.216 220.296 124.913 221.651 125.79C223.088 126.758 224.424 127.888 225.636 129.161C227.883 131.696 229.921 134.434 231.728 137.345C233.216 139.701 234.819 141.971 236.53 144.146C237.699 145.591 238.997 146.91 240.406 148.083C240.914 148.496 241.332 148.768 241.6 148.981C241.735 149.071 241.864 149.172 241.984 149.283Z" fill="#455A64"/>
<path d="M242.156 162.796C242.518 162.728 242.89 162.81 243.197 163.026C243.504 163.241 243.724 163.574 243.811 163.957C243.898 164.339 243.846 164.743 243.667 165.086C243.487 165.43 243.192 165.687 242.842 165.806C242.488 165.938 242.1 165.918 241.759 165.75C241.419 165.581 241.153 165.278 241.017 164.903C240.881 164.528 240.885 164.111 241.03 163.74C241.175 163.369 241.448 163.073 241.793 162.913" fill="white"/>
<path d="M241.808 162.913C241.483 163.182 241.243 163.552 241.122 163.973C241.069 164.19 241.067 164.417 241.118 164.634C241.168 164.852 241.269 165.052 241.41 165.217C241.576 165.424 241.794 165.573 242.038 165.648C242.283 165.722 242.542 165.717 242.784 165.633C243.025 165.55 243.239 165.392 243.397 165.179C243.556 164.966 243.652 164.708 243.674 164.437C243.699 164.216 243.673 163.992 243.598 163.786C243.522 163.579 243.4 163.395 243.242 163.252C242.921 162.982 242.531 162.823 242.124 162.795C242.124 162.795 242.24 162.714 242.474 162.707C242.683 162.71 242.89 162.76 243.081 162.852C243.273 162.944 243.444 163.078 243.586 163.244C243.727 163.41 243.835 163.606 243.903 163.818C243.972 164.031 243.999 164.256 243.983 164.481C243.96 164.82 243.843 165.144 243.647 165.411C243.451 165.679 243.184 165.876 242.882 165.98C242.58 166.083 242.256 166.086 241.952 165.989C241.648 165.893 241.378 165.701 241.177 165.438C241.01 165.231 240.896 164.981 240.846 164.713C240.795 164.445 240.81 164.167 240.889 163.907C240.987 163.565 241.184 163.266 241.451 163.053C241.678 162.913 241.801 162.891 241.808 162.913Z" fill="#263238"/>
<path d="M240.132 151.52C240.249 153.676 240.338 155.936 239.412 157.872C238.486 159.807 236.133 161.095 234.39 160.021C232.964 159.152 232.531 157.187 232.291 155.443C231.605 150.416 231.276 145.323 230.535 140.296L240.132 151.52Z" fill="#263238"/>
<path d="M202.836 125.171C202.836 125.215 203.488 125.039 204.668 124.995C206.334 124.966 207.989 125.291 209.538 125.951C210.608 126.397 211.631 126.962 212.591 127.637C213.689 128.432 214.742 129.294 215.746 130.22C218.062 132.325 220.135 134.719 221.92 137.352C222.86 138.758 223.69 140.208 224.582 141.555C225.432 142.861 226.425 144.055 227.539 145.11C229.444 146.853 231.532 148.352 233.761 149.577C235.647 150.652 237.191 151.395 238.309 151.918L239.564 152.492C239.709 152.567 239.861 152.624 240.017 152.661C239.889 152.558 239.748 152.474 239.599 152.411L238.378 151.756C237.307 151.196 235.757 150.401 233.898 149.305C231.717 148.047 229.67 146.539 227.793 144.808C226.709 143.763 225.745 142.584 224.918 141.297C224.033 139.972 223.203 138.522 222.263 137.094C220.461 134.429 218.357 132.014 216 129.904C214.982 128.976 213.913 128.115 212.797 127.328C211.81 126.648 210.756 126.088 209.655 125.657C208.067 125.008 206.371 124.725 204.674 124.825C204.213 124.852 203.754 124.918 203.302 125.024C203.142 125.053 202.985 125.102 202.836 125.171Z" fill="#455A64"/>
<path d="M240.332 146.64C240.542 146.826 240.773 146.984 241.018 147.111L242.884 148.289L243.515 148.671C243.76 148.828 244.034 148.926 244.318 148.959C244.493 148.977 244.669 148.933 244.818 148.833C244.896 148.772 244.96 148.694 245.008 148.603C245.055 148.513 245.084 148.414 245.093 148.311C245.075 147.947 244.952 147.597 244.743 147.31C244.057 146.169 243.371 144.918 242.582 143.593L242.287 143.887C243.73 145.028 245.499 145.593 247.288 145.485C247.522 145.483 247.753 145.441 247.974 145.359C248.099 145.321 248.215 145.254 248.314 145.162C248.412 145.071 248.49 144.957 248.543 144.83C248.586 144.695 248.597 144.552 248.576 144.412C248.554 144.272 248.501 144.14 248.42 144.027C248.294 143.85 248.154 143.685 248.002 143.534C247.031 142.525 246.187 141.385 245.491 140.141C244.88 138.969 244.348 137.752 243.899 136.498C243.931 136.864 244.009 137.223 244.132 137.565C244.416 138.512 244.786 139.427 245.237 140.296C245.913 141.592 246.753 142.781 247.734 143.829C248.008 144.108 248.283 144.425 248.173 144.675C248.063 144.925 247.672 145.05 247.281 145.05C245.586 145.138 243.914 144.604 242.541 143.534L241.663 142.842L242.253 143.829L244.462 147.509C244.627 147.718 244.733 147.973 244.77 148.245C244.767 148.297 244.752 148.349 244.729 148.395C244.705 148.441 244.672 148.482 244.632 148.513C244.592 148.545 244.547 148.567 244.498 148.577C244.45 148.588 244.4 148.588 244.352 148.576C243.879 148.479 243.429 148.281 243.028 147.994L241.1 146.935C240.857 146.802 240.599 146.703 240.332 146.64Z" fill="#455A64"/>
<path d="M218.559 167.704C218.421 167.103 218.09 166.573 217.625 166.206C217.16 165.839 216.59 165.658 216.014 165.695C215.594 165.754 215.194 165.923 214.848 166.186C214.503 166.449 214.222 166.798 214.032 167.204C213.851 167.615 213.749 168.06 213.73 168.513C213.711 168.967 213.776 169.42 213.922 169.846L213.963 170.038C214.354 170.494 214.867 170.81 215.432 170.941C215.997 171.073 216.586 171.015 217.119 170.774C217.64 170.504 218.065 170.057 218.325 169.502C218.586 168.947 218.668 168.315 218.559 167.704Z" fill="#EB996E"/>
<path d="M212.59 170.082C212.59 169.773 214.497 169.869 215.938 168.191C217.378 166.513 217.262 164.319 217.529 164.319C217.653 164.319 217.879 164.827 217.859 165.747C217.819 166.947 217.387 168.094 216.638 168.986C215.921 169.851 214.915 170.38 213.839 170.458C213.036 170.472 212.576 170.222 212.59 170.082Z" fill="#263238"/>
<path d="M191.048 279.989L191.94 285.561L191.103 288.593C191.103 288.593 182.48 300.369 179.716 309.039C176.951 317.709 176.738 340.547 176.738 340.547L274.973 340.481C274.973 340.481 271.543 306.559 259.195 295.879V293.443L262.248 288.593C262.248 288.593 263.277 284.839 258.818 285.399C257.048 285.62 191.048 279.989 191.048 279.989Z" fill="#455A64"/>
<path d="M259.747 292.619H259.061L257.065 292.568C255.336 292.523 252.832 292.487 249.731 292.509C246.631 292.531 242.947 292.604 238.851 292.693C234.756 292.781 230.256 292.869 225.522 292.788C221.073 292.723 216.629 292.419 212.207 291.876C208.596 291.429 205.017 290.729 201.492 289.778C199.116 289.143 196.777 288.356 194.488 287.423C193.671 287.106 193.061 286.797 192.636 286.613L192.162 286.385C192.052 286.334 191.998 286.304 192.004 286.297L192.176 286.348L192.663 286.54C193.095 286.702 193.713 286.989 194.536 287.276C196.838 288.141 199.18 288.878 201.554 289.484C205.076 290.391 208.648 291.06 212.248 291.486C216.309 291.994 220.803 292.273 225.529 292.369C230.256 292.465 234.749 292.369 238.845 292.303C242.94 292.236 246.631 292.178 249.731 292.2C252.832 292.222 255.343 292.288 257.072 292.384C257.936 292.42 258.608 292.472 259.061 292.509L259.582 292.553C259.692 292.597 259.754 292.612 259.747 292.619Z" fill="#263238"/>
<path d="M259.746 297.506C259.689 297.517 259.631 297.517 259.575 297.506H259.053L257.057 297.454C255.328 297.41 252.824 297.373 249.724 297.395C246.623 297.418 242.939 297.491 238.844 297.579C234.748 297.668 230.248 297.756 225.515 297.675C220.781 297.594 216.274 297.285 212.199 296.762C208.589 296.316 205.009 295.615 201.484 294.665C199.108 294.028 196.769 293.239 194.48 292.302C193.664 291.986 193.053 291.684 192.628 291.5L192.154 291.272C192.045 291.22 191.99 291.191 191.997 291.184L192.168 291.235L192.655 291.426C193.087 291.588 193.705 291.868 194.528 292.162C196.83 293.029 199.172 293.766 201.546 294.37C205.068 295.278 208.64 295.946 212.241 296.372C216.302 296.88 220.795 297.16 225.521 297.256C230.248 297.351 234.741 297.256 238.837 297.189C242.932 297.123 246.623 297.064 249.724 297.086C252.824 297.108 255.335 297.175 257.064 297.27C257.928 297.307 258.6 297.359 259.053 297.395L259.575 297.44C259.691 297.491 259.753 297.498 259.746 297.506Z" fill="#263238"/>
<path d="M195.254 303.232C195.309 302.711 195.438 302.202 195.638 301.723C196.045 300.538 196.564 299.401 197.188 298.33C197.806 297.257 198.523 296.253 199.329 295.335C199.641 294.931 200.009 294.581 200.419 294.297C200.502 294.378 198.91 296.049 197.49 298.529C196.07 301.009 195.357 303.232 195.254 303.232Z" fill="#263238"/>
<path d="M198.747 310.011C198.704 309.808 198.692 309.599 198.713 309.393C198.719 308.829 198.753 308.267 198.816 307.707C199.025 305.861 199.397 304.039 199.927 302.268C200.446 300.499 201.093 298.777 201.862 297.116C202.15 296.411 202.506 295.74 202.925 295.114C202.686 295.836 202.407 296.541 202.088 297.227C201.398 298.909 200.792 300.628 200.27 302.379C199.748 304.133 199.347 305.926 199.07 307.744C198.857 309.12 198.802 310.018 198.747 310.011Z" fill="#263238"/>
<path d="M201.073 283.36C201.176 283.695 201.242 284.04 201.272 284.391C201.433 285.211 201.649 286.018 201.917 286.805C202.528 288.66 203.344 290.021 203.289 290.08C202.514 289.184 201.942 288.109 201.615 286.937C201.33 286.13 201.143 285.286 201.06 284.428C200.981 284.076 200.986 283.709 201.073 283.36Z" fill="#263238"/>
<path d="M203.98 285.568C204.331 286.336 204.576 287.154 204.708 287.997C204.957 288.81 205.088 289.659 205.099 290.514C204.495 288.936 204.118 287.268 203.98 285.568Z" fill="#263238"/>
<path d="M221.534 284.832C221.772 287.328 221.772 289.843 221.534 292.339C221.296 289.843 221.296 287.328 221.534 284.832Z" fill="#263238"/>
<path d="M223.729 286.753C224.242 288.635 224.194 290.642 223.592 292.494C223.489 292.494 223.688 291.198 223.722 289.623C223.756 288.048 223.633 286.768 223.729 286.753Z" fill="#263238"/>
<path d="M229.664 304.13C229.411 303.069 229.219 301.993 229.088 300.906C228.838 299.841 228.654 298.759 228.539 297.668C229.002 298.661 229.306 299.731 229.438 300.833C229.689 301.91 229.766 303.025 229.664 304.13Z" fill="#263238"/>
<path d="M170.812 230.744C170.62 230.074 177.837 207.928 182.118 204.571C186.398 201.215 205.723 196.409 205.723 196.409C205.723 196.409 213.859 205.02 224.766 203.232C235.674 201.443 244.05 193.186 244.05 193.186C244.05 193.186 264.691 196.085 268.197 198.764C271.702 201.443 281.231 225.724 281.231 225.724L264.41 240.761L262.922 254.377C262.922 254.377 263.704 282.735 261.947 285.642C260.191 288.549 191.454 281.152 191.454 281.152C191.454 281.152 187.949 280.482 190.672 273.792C193.395 267.102 195.351 262.627 195.351 262.627C195.351 262.627 190.48 256.82 189.698 246.546C188.916 236.271 187.002 235.167 187.002 235.167L170.812 230.744Z" fill="#053D7B"/>
<path d="M262.831 253.854C262.728 253.854 263.764 244.61 265.143 233.246C266.522 221.882 267.709 212.638 267.805 212.675C267.901 212.712 266.851 221.912 265.479 233.312C264.107 244.713 262.927 253.869 262.831 253.854Z" fill="#263238"/>
<path d="M189.155 238.935C189.066 238.972 187.783 235.66 186.28 231.531C184.778 227.402 183.646 224.031 183.735 223.994C183.825 223.958 185.107 227.27 186.617 231.391C188.126 235.513 189.251 238.898 189.155 238.935Z" fill="#263238"/>
<g opacity="0.3">
<path d="M210.949 250.733C210.638 248.815 209.894 247.008 208.781 245.47C207.169 243.512 204.617 242.681 202.189 242.696C199.754 242.835 197.35 243.343 195.048 244.204L190.664 251.564C190.807 252.009 191.042 252.413 191.351 252.747C191.659 253.081 192.034 253.336 192.448 253.493C193.273 253.801 194.139 253.967 195.013 253.986C199.55 254.339 204.087 254.543 208.624 254.597C209.209 254.662 209.8 254.544 210.325 254.258C211.285 253.537 211.217 251.969 210.949 250.733Z" fill="black"/>
</g>
<path d="M180.992 216.987C181.138 217.23 181.258 217.489 181.349 217.76C181.562 218.261 181.85 218.997 182.193 219.917C182.879 221.749 183.798 224.333 184.724 227.151C185.65 229.97 186.418 232.605 186.933 234.511C187.194 235.454 187.399 236.226 187.523 236.764C187.611 237.035 187.666 237.317 187.688 237.603C187.564 237.349 187.465 237.083 187.393 236.808L186.707 234.6C186.13 232.723 185.335 230.132 184.402 227.291C183.469 224.45 182.604 221.882 181.973 220.027C181.678 219.159 181.431 218.423 181.232 217.819C181.122 217.553 181.041 217.274 180.992 216.987Z" fill="#263238"/>
<path d="M180.96 219.328L188.65 249.423C188.784 249.915 189.065 250.347 189.451 250.65C189.837 250.953 190.305 251.112 190.783 251.101H207.46C207.781 251.113 208.1 251.046 208.394 250.906C208.687 250.766 208.947 250.556 209.154 250.292C209.361 250.029 209.509 249.718 209.587 249.384C209.666 249.049 209.673 248.7 209.607 248.363L202.864 218.283C202.74 217.775 202.461 217.327 202.072 217.011C201.682 216.695 201.205 216.528 200.716 216.538H183.086C182.761 216.527 182.438 216.596 182.142 216.74C181.846 216.884 181.585 217.099 181.38 217.369C181.174 217.639 181.029 217.956 180.956 218.296C180.883 218.635 180.884 218.989 180.96 219.328Z" fill="#263238"/>
<path d="M186.747 224.951C186.747 224.951 184.758 223.936 183.187 224.951C181.616 225.967 179.071 230.457 179.071 230.457L177.5 237.596L178.577 247.296L179.002 251.793L189.155 253.03V249.431L200.783 240.106C200.783 240.106 204.865 238.891 204.549 237.589C204.233 236.286 203.712 235.381 202.56 235.616C201.407 235.852 188.949 239.296 188.949 239.296C188.949 239.296 186.96 239.745 187.063 239.178C187.166 238.612 192.928 235.697 193.868 235.02C194.808 234.343 199.212 233.224 198.67 231.09C198.604 230.705 198.459 230.341 198.243 230.025C198.028 229.709 197.749 229.45 197.427 229.266C197.104 229.083 196.748 228.98 196.383 228.966C196.019 228.952 195.656 229.026 195.322 229.183L185.266 233.114L183.592 233.563L183.804 230.751L185.581 228.168C185.74 228.222 185.907 228.241 186.073 228.224C186.239 228.207 186.401 228.154 186.547 228.069C186.694 227.984 186.823 227.868 186.927 227.728C187.031 227.588 187.107 227.427 187.152 227.255C187.293 226.869 187.33 226.448 187.258 226.041C187.187 225.633 187.01 225.256 186.747 224.951Z" fill="#FFBE9D"/>
<path d="M185.399 233.062C184.626 233.536 183.798 233.898 182.936 234.136C182.114 234.507 181.248 234.755 180.363 234.872C181.137 234.401 181.965 234.04 182.826 233.798C183.649 233.431 184.514 233.183 185.399 233.062Z" fill="#EB996E"/>
<path d="M187.687 239.546C186.966 239.972 186.193 240.287 185.389 240.481C184.619 240.796 183.81 240.99 182.988 241.055C184.478 240.317 186.062 239.821 187.687 239.583V239.546Z" fill="#EB996E"/>
<path d="M200.146 240.216C199.968 240.368 199.772 240.494 199.563 240.591C199.172 240.812 198.603 241.114 197.883 241.467C196.017 242.371 194.11 243.172 192.168 243.866C190.226 244.567 188.25 245.154 186.248 245.625C185.48 245.809 184.876 245.935 184.416 246.008C184.192 246.064 183.961 246.091 183.73 246.089C184.533 245.792 185.35 245.547 186.179 245.353C187.696 244.934 189.781 244.308 192.045 243.498C194.309 242.689 196.325 241.842 197.78 241.209C198.551 240.831 199.341 240.499 200.146 240.216Z" fill="#EB996E"/>
<path d="M181.734 245.492C181.7 245.588 181.048 245.22 180.842 244.366C180.636 243.513 180.979 242.843 181.055 242.894C181.13 242.946 180.993 243.542 181.185 244.249C181.377 244.955 181.789 245.404 181.734 245.492Z" fill="#EB996E"/>
<path d="M179.732 239.818C179.732 239.862 179.546 239.818 179.313 239.693C179.021 239.478 178.802 239.167 178.689 238.808C178.575 238.448 178.573 238.059 178.682 237.698C178.778 237.426 178.902 237.301 178.943 237.323C178.984 237.345 178.792 237.978 179.032 238.684C179.272 239.391 179.732 239.715 179.732 239.818Z" fill="#EB996E"/>
<path d="M178.572 232.87C178.577 232.989 178.566 233.108 178.537 233.223C178.489 233.496 178.428 233.82 178.359 234.224C178.188 235.152 177.948 236.432 177.673 237.949V237.904C178.119 241.319 178.73 246.265 179.395 251.815V251.859V251.91C179.265 252.286 179.121 252.683 178.983 253.088C177.487 257.628 176.789 262.428 176.925 267.241C176.963 268.699 177.076 270.154 177.262 271.598C177.323 272.077 177.371 272.467 177.412 272.776C177.441 272.914 177.452 273.055 177.447 273.196C177.401 273.064 177.366 272.929 177.344 272.791C177.289 272.526 177.2 272.136 177.117 271.621C176.884 270.175 176.735 268.714 176.672 267.249C176.458 262.392 177.129 257.537 178.647 252.956C178.784 252.551 178.928 252.146 179.059 251.771V251.866C178.373 246.309 177.824 241.364 177.454 237.934L178.27 234.254C178.366 233.856 178.441 233.518 178.503 233.268C178.516 233.133 178.539 233 178.572 232.87Z" fill="#EB996E"/>
<path d="M190.828 248.378C190.169 249.107 189.378 249.683 188.503 250.071C187.676 250.568 186.763 250.876 185.82 250.976C185.82 250.873 186.973 250.446 188.345 249.725C189.717 249.003 190.766 248.282 190.828 248.378Z" fill="#EB996E"/>
<path d="M255.191 263.672C255.191 263.672 257.846 264.408 258.107 266.263C258.368 268.117 256.248 300.119 256.248 300.119H258.772C258.772 300.119 259.781 268.419 259.74 266.152C259.698 263.885 258.697 263.738 258.32 263.576C257.293 263.259 256.2 263.292 255.191 263.672Z" fill="#263238"/>
<path d="M253.853 263.613L266.002 264.114L263.581 248.378L264.411 240.761L280.511 226.335C280.511 226.335 286.143 261.383 286.651 265.431C287.255 270.289 286.377 276.729 284.181 279.033C282.309 280.99 268.815 279.033 263.601 279.033C260.72 279.033 253.833 279.084 253.833 279.084L251.418 266.999L253.853 263.613Z" fill="#FFBE9D"/>
<path d="M284.182 264.158C284.134 264.224 283.311 263.422 281.726 262.686C279.673 261.691 277.422 261.256 275.175 261.42C273.944 261.509 272.731 261.786 271.573 262.244C270.51 262.657 269.591 263.201 268.774 263.54C268.131 263.834 267.452 264.027 266.758 264.114C266.506 264.165 266.248 264.165 265.996 264.114C266.922 264.003 267.825 263.735 268.671 263.319C269.467 262.951 270.366 262.392 271.457 261.943C272.641 261.452 273.887 261.156 275.154 261.067C277.457 260.896 279.762 261.378 281.836 262.465C282.457 262.796 283.049 263.185 283.606 263.628C283.816 263.78 284.01 263.958 284.182 264.158Z" fill="#EB996E"/>
<path d="M241.327 292.634C240.881 293.245 235.75 340.673 235.75 340.673L289.073 340.481L280.621 292.781L241.327 292.634Z" fill="#053D7B"/>
<path d="M250.169 340.547C250.073 340.547 249.518 329.89 248.935 316.73C248.351 303.57 247.96 292.928 248.063 292.928C248.166 292.928 248.708 303.585 249.291 316.745C249.874 329.904 250.265 340.54 250.169 340.547Z" fill="#263238"/>
<path d="M228.437 264.408C229.91 264.178 231.367 263.847 232.8 263.414C233.471 263.064 234.12 262.666 234.741 262.222L241.601 261.626L253.847 263.613C253.847 263.613 255.905 265.203 255.61 270.083C255.359 273.351 254.704 276.568 253.661 279.651C253.661 279.651 248.173 284.442 246.705 284.736C245.237 285.031 236.868 284.53 236.038 283.831C235.547 283.433 235.137 282.932 234.831 282.359C234.384 282.114 234.024 281.719 233.805 281.234C233.587 280.749 233.523 280.2 233.623 279.673C233.623 279.673 230.749 275.691 230.379 273.998C230.008 272.305 230.468 271.908 230.468 271.908C230.468 271.908 229.638 269.619 230.282 268.824C230.445 268.63 230.642 268.473 230.862 268.363C231.082 268.253 231.321 268.191 231.563 268.182C231.806 268.173 232.048 268.217 232.275 268.311C232.502 268.405 232.708 268.547 232.882 268.728C233.534 269.523 237.616 268.927 237.616 268.927L241.231 266.336C239.371 266.843 237.48 267.21 235.572 267.433C233.63 267.492 227.785 268.89 228.437 264.408Z" fill="#FFBE9D"/>
<path d="M242.628 273.791C242.628 273.85 241.88 273.99 240.714 274.424C240.131 274.638 239.438 274.918 238.656 275.16C237.797 275.47 236.9 275.644 235.995 275.676C235.067 275.707 234.15 275.451 233.353 274.94C232.724 274.512 232.165 273.975 231.7 273.35C231.389 272.938 231.102 272.506 230.843 272.055C230.657 271.738 230.568 271.554 230.589 271.539C230.609 271.525 231.076 272.187 231.892 273.173C232.36 273.752 232.908 274.248 233.518 274.645C234.269 275.103 235.124 275.328 235.988 275.293C237.84 275.241 239.418 274.483 240.646 274.145C241.282 273.905 241.953 273.785 242.628 273.791Z" fill="#EB996E"/>
<path d="M245.128 270.289C245.163 270.289 245.293 270.377 245.389 270.65C245.506 271.005 245.506 271.392 245.389 271.746C245.277 272.105 245.051 272.41 244.751 272.607C244.518 272.755 244.353 272.755 244.333 272.711C244.312 272.666 244.833 272.32 245.053 271.621C245.272 270.922 245.039 270.333 245.128 270.289Z" fill="#EB996E"/>
<path d="M244.854 278.995C244.292 279.17 243.715 279.281 243.132 279.327C242.062 279.489 240.58 279.68 238.948 279.864C238.174 279.975 237.395 280.039 236.615 280.055C235.967 280.069 235.321 279.96 234.708 279.731C234.121 279.562 233.613 279.166 233.281 278.62C233.739 278.989 234.248 279.277 234.79 279.474C235.383 279.657 235.999 279.734 236.615 279.702C237.301 279.702 238.09 279.577 238.906 279.489C240.546 279.297 242.028 279.15 243.105 279.062C243.684 278.977 244.27 278.955 244.854 278.995Z" fill="#EB996E"/>
<path d="M248.021 275.846C248.062 275.846 248.193 275.993 248.282 276.324C248.399 276.757 248.399 277.216 248.282 277.649C248.167 278.083 247.944 278.475 247.637 278.782C247.397 279.003 247.205 279.069 247.184 279.033C247.164 278.996 247.712 278.444 247.939 277.561C248.031 276.995 248.059 276.419 248.021 275.846Z" fill="#EB996E"/>
<path d="M246.053 283.007C245.522 283.174 244.973 283.263 244.42 283.272C241.767 283.499 239.097 283.32 236.49 282.742C235.941 282.662 235.406 282.501 234.898 282.264C235.448 282.282 235.994 282.354 236.531 282.477C237.533 282.639 238.918 282.823 240.455 282.926C241.992 283.029 243.391 283.029 244.406 283.007C244.954 282.951 245.505 282.951 246.053 283.007Z" fill="#EB996E"/>
<path d="M257.66 263.399C257.66 263.399 260.061 265.328 260.507 266.498C260.953 267.668 265.748 292.626 265.748 292.626H267.806C267.806 292.626 262.915 265.585 261.721 264.54C261.292 264.168 260.833 263.838 260.349 263.554C259.946 263.325 259.501 263.192 259.046 263.162C258.59 263.133 258.134 263.209 257.708 263.385L257.66 263.399Z" fill="#263238"/>
<path d="M210.815 268.301C210.132 268.398 209.44 268.398 208.757 268.301C205.494 267.973 202.348 266.828 199.571 264.96C198.981 264.6 198.435 264.162 197.945 263.657C197.98 263.606 198.631 264.077 199.701 264.724C201.106 265.58 202.583 266.29 204.112 266.844C205.642 267.394 207.215 267.793 208.812 268.036C210.046 268.198 210.815 268.242 210.815 268.301Z" fill="#263238"/>
<g opacity="0.3">
<path d="M222.838 267.904C221.58 267.787 220.312 267.839 219.065 268.059C212.651 268.795 206.031 268.795 200.152 265.27C200.997 267.162 202.441 268.67 204.227 269.524C206.261 270.269 208.396 270.645 210.545 270.635C215.705 270.861 220.873 270.615 225.994 269.899C225.638 269.337 225.171 268.866 224.625 268.521C224.079 268.176 223.469 267.966 222.838 267.904Z" fill="black"/>
</g>
<path d="M203.254 197.248C203.254 194.636 202.287 192.132 200.565 190.285C198.844 188.438 196.509 187.4 194.075 187.4H138.193C135.803 187.471 133.533 188.538 131.866 190.377C130.199 192.215 129.266 194.679 129.266 197.244C129.266 199.81 130.199 202.273 131.866 204.112C133.533 205.95 135.803 207.018 138.193 207.088H171.595C174.73 210.334 180.087 214.713 180.087 214.713V206.728L194.747 207.044C199.762 206.882 203.254 202.4 203.254 197.248Z" fill="white"/>
<path d="M203.255 197.248C203.255 197.248 203.255 197.424 203.255 197.785C203.243 198.314 203.187 198.841 203.091 199.36C202.94 200.207 202.691 201.03 202.35 201.811C201.868 202.876 201.213 203.84 200.415 204.659C199.405 205.678 198.178 206.416 196.841 206.808C196.468 206.915 196.091 207.001 195.709 207.066C195.311 207.115 194.91 207.142 194.509 207.147L191.978 207.103L180.096 206.875L180.226 206.735C180.226 209.252 180.226 211.924 180.226 214.706V215.022L180 214.831C177.256 212.557 174.327 210.084 171.48 207.206L171.59 207.257H151.353H140.342C139.396 207.257 138.47 207.294 137.495 207.221C135.626 207.062 133.843 206.307 132.376 205.054C130.909 203.8 129.825 202.104 129.263 200.184C129.039 199.38 128.905 198.55 128.866 197.711C128.831 196.878 128.886 196.043 129.03 195.224C129.191 194.412 129.442 193.624 129.778 192.876C130.435 191.405 131.419 190.129 132.642 189.16C133.866 188.192 135.292 187.559 136.796 187.319C137.525 187.212 138.262 187.17 138.998 187.194H153.664L182.195 187.238H193.171C193.953 187.211 194.736 187.255 195.51 187.371C196.23 187.492 196.934 187.702 197.61 187.996C198.786 188.523 199.849 189.305 200.731 190.293C201.438 191.073 202.013 191.98 202.432 192.972C202.602 193.367 202.751 193.772 202.878 194.186C202.974 194.569 203.056 194.922 203.118 195.231C203.204 195.717 203.252 196.209 203.262 196.703C203.262 197.034 203.262 197.204 203.262 197.204C203.262 197.204 203.262 197.034 203.221 196.703C203.192 196.209 203.132 195.717 203.043 195.231C202.974 194.922 202.885 194.576 202.782 194.201C202.656 193.793 202.505 193.394 202.329 193.008C201.907 192.032 201.329 191.143 200.621 190.381C199.745 189.428 198.697 188.677 197.541 188.173C196.879 187.89 196.188 187.69 195.483 187.577C194.717 187.466 193.944 187.426 193.171 187.459H182.195H153.664H138.998C138.28 187.431 137.562 187.471 136.851 187.577C135.033 187.883 133.346 188.775 132.011 190.134C130.677 191.494 129.76 193.256 129.38 195.187C129.096 196.775 129.171 198.413 129.6 199.964C129.832 200.738 130.15 201.479 130.546 202.172C131.287 203.472 132.306 204.564 133.52 205.357C134.733 206.149 136.106 206.619 137.523 206.727C138.442 206.801 139.409 206.727 140.342 206.764H151.359H171.596H171.658L171.706 206.808C174.526 209.671 177.448 212.152 180.178 214.433L179.945 214.551C179.945 211.769 179.945 209.097 179.945 206.58V206.44H180.082L191.957 206.727C193.699 206.727 195.346 206.956 196.759 206.47C198.071 206.14 199.29 205.476 200.312 204.534C201.104 203.737 201.757 202.795 202.24 201.752C202.804 200.508 203.135 199.158 203.214 197.778C203.235 197.417 203.255 197.248 203.255 197.248Z" fill="#263238"/>
<path d="M191.193 200.317C191.047 200.328 190.9 200.328 190.754 200.317C190.095 200.222 189.476 199.92 188.976 199.449C188.476 198.977 188.118 198.357 187.946 197.668C187.774 196.978 187.797 196.249 188.011 195.573C188.225 194.897 188.621 194.304 189.149 193.869C189.676 193.434 190.312 193.177 190.976 193.129C191.64 193.082 192.303 193.246 192.879 193.602C193.456 193.958 193.922 194.489 194.218 195.129C194.513 195.769 194.626 196.488 194.541 197.196C194.427 198.062 194.026 198.854 193.41 199.427C192.795 200.001 192.008 200.317 191.193 200.317ZM191.193 193.818C190.542 193.818 189.913 194.073 189.424 194.535C188.935 194.997 188.62 195.634 188.539 196.328C188.449 197.084 188.641 197.849 189.074 198.454C189.507 199.059 190.146 199.456 190.85 199.559C191.557 199.657 192.271 199.45 192.836 198.983C193.401 198.517 193.77 197.829 193.862 197.071C193.908 196.696 193.885 196.315 193.794 195.949C193.703 195.584 193.545 195.241 193.33 194.941C193.116 194.641 192.848 194.389 192.542 194.2C192.237 194.011 191.9 193.889 191.55 193.84C191.429 193.825 191.308 193.818 191.186 193.818H191.193Z" fill="#263238"/>
<path d="M195.776 201.163C195.696 201.161 195.618 201.13 195.556 201.075L193.354 199.102C193.32 199.071 193.291 199.033 193.27 198.99C193.249 198.948 193.236 198.901 193.232 198.852C193.228 198.804 193.233 198.756 193.246 198.71C193.259 198.663 193.281 198.62 193.31 198.583C193.339 198.546 193.374 198.515 193.414 198.493C193.454 198.47 193.497 198.456 193.542 198.452C193.587 198.447 193.633 198.452 193.676 198.467C193.719 198.481 193.759 198.504 193.793 198.535L195.995 200.508C196.066 200.571 196.11 200.661 196.119 200.759C196.128 200.856 196.101 200.954 196.043 201.03C196.011 201.072 195.97 201.106 195.924 201.129C195.877 201.152 195.827 201.163 195.776 201.163Z" fill="#263238"/>
<path d="M138.867 200.192L139.32 199.095C139.799 199.427 140.355 199.608 140.925 199.618C141.501 199.618 141.721 199.441 141.721 199.191C141.721 198.359 138.977 198.963 138.977 197.02C138.977 196.085 139.663 195.32 141.138 195.32C141.754 195.312 142.362 195.469 142.908 195.776L142.482 196.88C142.064 196.623 141.592 196.483 141.11 196.475C140.527 196.475 140.322 196.681 140.322 196.946C140.322 197.741 143.066 197.145 143.066 199.073C143.066 199.986 142.38 200.766 140.905 200.766C140.189 200.783 139.483 200.584 138.867 200.192Z" fill="#263238"/>
<path d="M148.362 195.401V200.642H146.99V198.596H145.11V200.642H143.738V195.401H145.11V197.374H146.99V195.401H148.362Z" fill="#263238"/>
<path d="M149.082 198.021C149.041 197.432 149.166 196.842 149.441 196.33C149.716 195.818 150.129 195.406 150.625 195.149C151.122 194.892 151.679 194.801 152.224 194.889C152.769 194.976 153.277 195.238 153.682 195.639C154.086 196.041 154.369 196.564 154.492 197.14C154.616 197.716 154.575 198.319 154.375 198.87C154.174 199.421 153.824 199.894 153.37 200.229C152.915 200.563 152.377 200.743 151.826 200.744C151.476 200.773 151.125 200.723 150.794 200.599C150.462 200.476 150.158 200.28 149.901 200.024C149.643 199.769 149.438 199.459 149.297 199.114C149.156 198.77 149.083 198.398 149.082 198.021ZM153.116 198.021C153.106 197.743 153.021 197.473 152.87 197.247C152.718 197.02 152.509 196.846 152.266 196.746C152.023 196.647 151.759 196.626 151.505 196.686C151.252 196.747 151.02 196.886 150.84 197.086C150.659 197.287 150.538 197.54 150.491 197.814C150.443 198.088 150.472 198.371 150.574 198.628C150.675 198.884 150.845 199.103 151.061 199.257C151.278 199.411 151.532 199.493 151.792 199.493C151.97 199.495 152.147 199.459 152.312 199.385C152.477 199.311 152.626 199.202 152.75 199.064C152.874 198.926 152.97 198.762 153.033 198.583C153.096 198.404 153.124 198.213 153.116 198.021Z" fill="#263238"/>
<path d="M159.633 197.344C159.633 198.529 158.796 199.273 157.465 199.273H156.614V200.642H155.242V195.401H157.479C158.796 195.401 159.633 196.145 159.633 197.344ZM158.261 197.344C158.261 196.859 157.979 196.572 157.403 196.572H156.614V198.102H157.376C157.952 198.102 158.233 197.823 158.233 197.344H158.261Z" fill="#263238"/>
</svg>
