<svg width="343" height="339" viewBox="0 0 343 339" fill="none" xmlns="http://www.w3.org/2000/svg">
<path d="M92.7181 258.446C64.2148 244.573 44.0944 213.344 40.733 179.952C37.3716 146.559 50.337 112.078 73.4484 89.4238C96.5597 66.7697 129.049 56.0315 160.2 59.3214C185.465 61.9931 207.534 78.7665 222.118 101.053C227.435 109.149 231.722 118.223 238.582 124.884C251.829 137.75 271.929 139.295 285.916 151.196C301.358 164.312 306.249 188.629 300.261 208.759C294.272 228.888 279.001 244.764 261.364 254.133C243.727 263.503 223.847 267.021 204.193 268.397C195.131 269.037 117.99 270.752 92.7181 258.446Z" fill="#053D7B"/>
<path opacity="0.9" d="M92.7181 258.446C64.2148 244.573 44.0944 213.344 40.733 179.952C37.3716 146.559 50.337 112.078 73.4484 89.4238C96.5597 66.7697 129.049 56.0315 160.2 59.3214C185.465 61.9931 207.534 78.7665 222.118 101.053C227.435 109.149 231.722 118.223 238.582 124.884C251.829 137.75 271.929 139.295 285.916 151.196C301.358 164.312 306.249 188.629 300.261 208.759C294.272 228.888 279.001 244.764 261.364 254.133C243.727 263.503 223.847 267.021 204.193 268.397C195.131 269.037 117.99 270.752 92.7181 258.446Z" fill="white"/>
<path d="M168.192 311.851C241.651 311.851 301.201 308.12 301.201 303.519C301.201 298.918 241.651 295.188 168.192 295.188C94.7335 295.188 35.1836 298.918 35.1836 303.519C35.1836 308.12 94.7335 311.851 168.192 311.851Z" fill="#F5F5F5"/>
<path d="M216.46 264.335H146.542C144.71 264.364 142.891 263.98 141.205 263.208C139.519 262.436 138.003 261.293 136.755 259.853C135.506 258.413 134.553 256.708 133.958 254.848C133.362 252.988 133.136 251.015 133.296 249.055L144.958 69.751C145.273 65.6223 147.012 61.7681 149.835 58.9413C152.657 56.1145 156.36 54.5182 160.221 54.4643H230.138C231.971 54.4364 233.789 54.821 235.474 55.5934C237.16 56.3658 238.675 57.5088 239.924 58.9486C241.172 60.3884 242.125 62.093 242.721 63.9524C243.317 65.8118 243.544 67.7847 243.385 69.7437L231.723 249.048C231.408 253.177 229.669 257.031 226.846 259.858C224.024 262.684 220.32 264.281 216.46 264.335Z" fill="#053D7B"/>
<path d="M212.832 264.335H142.908C141.075 264.364 139.256 263.98 137.57 263.208C135.884 262.436 134.367 261.293 133.118 259.853C131.869 258.413 130.916 256.708 130.319 254.848C129.722 252.988 129.496 251.015 129.655 249.055L141.317 69.751C141.632 65.6211 143.372 61.7658 146.196 58.9388C149.02 56.1119 152.725 54.5164 156.587 54.4643H226.511C228.344 54.4363 230.162 54.8211 231.848 55.5939C233.534 56.3668 235.05 57.5104 236.299 58.9511C237.547 60.3917 238.5 62.0972 239.096 63.9575C239.692 65.8178 239.917 67.7915 239.758 69.751L228.096 249.055C227.781 253.184 226.043 257.038 223.22 259.864C220.397 262.69 216.693 264.284 212.832 264.335Z" fill="#263238"/>
<path d="M226.283 57.9752H208.104C207.517 57.9854 206.95 58.2095 206.498 58.6108C206.045 59.012 205.733 59.5666 205.614 60.1832L205.504 60.7941C205.223 62.3117 204.466 63.6801 203.359 64.6712C202.251 65.6623 200.861 66.2162 199.419 66.2405H182.145C180.769 66.2632 179.438 65.7107 178.435 64.6998C177.431 63.6889 176.833 62.2989 176.767 60.8236L176.733 60.2127C176.705 59.6101 176.459 59.0429 176.048 58.6309C175.637 58.2189 175.093 57.9944 174.531 58.0047H156.359C153.387 58.0507 150.538 59.2822 148.367 61.4593C146.196 63.6364 144.858 66.603 144.614 69.7807L132.952 249.085C132.829 250.595 133.003 252.116 133.462 253.549C133.921 254.982 134.656 256.296 135.618 257.406C136.58 258.516 137.748 259.397 139.047 259.992C140.346 260.587 141.748 260.883 143.16 260.861H213.057C216.028 260.815 218.877 259.583 221.048 257.406C223.22 255.229 224.557 252.263 224.801 249.085L236.463 69.7807C236.588 68.2714 236.416 66.7509 235.96 65.3171C235.503 63.8833 234.772 62.5679 233.813 61.4558C232.854 60.3436 231.688 59.4593 230.391 58.8598C229.094 58.2604 227.695 57.959 226.283 57.9752Z" fill="#053D7B"/>
<path opacity="0.8" d="M236.485 69.7506L236.245 73.4306L224.803 249.055C224.559 252.233 223.221 255.199 221.05 257.376C218.879 259.553 216.03 260.785 213.058 260.831H143.134C141.722 260.853 140.321 260.557 139.022 259.962C137.723 259.367 136.555 258.486 135.594 257.376C134.632 256.266 133.899 254.952 133.44 253.518C132.982 252.085 132.809 250.564 132.934 249.055L144.376 73.3938L144.616 69.7138C144.859 66.5374 146.196 63.5718 148.366 61.3949C150.536 59.218 153.383 57.9856 156.354 57.9378H174.533C175.095 57.9275 175.639 58.1521 176.05 58.5641C176.461 58.976 176.706 59.5432 176.735 60.1458L176.769 60.7494C176.817 62.2364 177.407 63.6439 178.411 64.6702C179.415 65.6966 180.754 66.2601 182.14 66.2399H199.414C200.852 66.2184 202.24 65.6692 203.347 64.6837C204.454 63.6982 205.214 62.3357 205.499 60.823L205.608 60.2194C205.73 59.6022 206.043 59.0475 206.496 58.6463C206.95 58.2451 207.517 58.0212 208.105 58.0114H226.278C227.687 57.9897 229.085 58.2848 230.382 58.8776C231.678 59.4705 232.845 60.3481 233.806 61.4538C234.768 62.5596 235.503 63.8691 235.964 65.298C236.426 66.727 236.603 68.2437 236.485 69.7506Z" fill="white"/>
<path opacity="0.7" d="M236.245 73.8945L224.803 249.556C224.559 252.733 223.221 255.7 221.05 257.877C218.879 260.054 216.03 261.286 213.058 261.332H143.134C141.722 261.354 140.321 261.058 139.022 260.463C137.723 259.868 136.555 258.987 135.594 257.877C134.632 256.767 133.899 255.452 133.44 254.019C132.982 252.586 132.809 251.065 132.934 249.556L144.376 73.8945H236.245Z" fill="black"/>
<g opacity="0.7">
<path d="M186.961 59.9625C186.926 60.3615 186.754 60.7325 186.479 61.0041C186.205 61.2758 185.846 61.429 185.472 61.4345C185.296 61.436 185.12 61.3982 184.958 61.3236C184.795 61.249 184.649 61.1391 184.528 61.0009C184.407 60.8626 184.314 60.6991 184.254 60.5204C184.195 60.3417 184.17 60.1517 184.183 59.9625C184.217 59.5628 184.388 59.191 184.663 58.919C184.938 58.647 185.297 58.4943 185.671 58.4905C185.849 58.4868 186.025 58.523 186.189 58.5969C186.352 58.6707 186.499 58.7806 186.621 58.9193C186.742 59.058 186.835 59.2225 186.894 59.4022C186.953 59.5819 186.976 59.7728 186.961 59.9625Z" fill="black"/>
<path d="M196.879 58.4758H192.118C191.745 58.4815 191.388 58.635 191.114 58.9068C190.84 59.1786 190.67 59.5494 190.636 59.9478C190.623 60.1373 190.647 60.3277 190.706 60.5069C190.765 60.6861 190.858 60.8502 190.979 60.9886C191.1 61.1271 191.247 61.2369 191.41 61.3112C191.573 61.3854 191.749 61.4224 191.926 61.4198H196.687C197.061 61.4144 197.419 61.2611 197.694 60.9895C197.969 60.7178 198.14 60.3469 198.176 59.9478C198.189 59.7577 198.165 59.5667 198.106 59.387C198.046 59.2073 197.953 59.0429 197.831 58.9043C197.709 58.7657 197.561 58.656 197.397 58.5822C197.233 58.5085 197.057 58.4722 196.879 58.4758Z" fill="black"/>
</g>
<path d="M152.465 66.1888H153.933L154.036 64.6064H152.568L152.465 66.1888Z" fill="#053D7B"/>
<path d="M155.501 64.6063L155.398 66.1887H156.873L156.976 64.6063L157.079 63.0312H155.604L155.501 64.6063Z" fill="#053D7B"/>
<path d="M158.652 61.4561L158.55 63.0311L158.447 64.6061L158.344 66.1885H159.812L159.915 64.6061L160.018 63.0311L160.12 61.4561H158.652Z" fill="#053D7B"/>
<path d="M221.88 61.5596L221.805 62.7151H221.085L220.934 65.0335H221.654L221.578 66.189H228.047L228.349 61.5596H221.88ZM224.528 65.0335H222.367L222.518 62.7151H224.679L224.528 65.0335Z" fill="#053D7B"/>
<path d="M185.268 148.672L182.25 150.387C182.345 151.361 182.508 152.325 182.737 153.272L186.03 153.213C186.476 154.737 187.128 156.183 187.964 157.504L186.03 160.529C186.577 161.28 187.176 161.986 187.82 162.642L190.791 160.831C191.936 161.846 193.211 162.679 194.577 163.304L194.234 166.829C195.09 167.143 195.966 167.389 196.855 167.565L198.707 164.482C199.467 164.591 200.232 164.647 200.998 164.651C201.772 164.647 202.544 164.59 203.31 164.482L204.682 167.565C205.611 167.386 206.528 167.141 207.426 166.829L207.659 163.304C209.145 162.669 210.55 161.839 211.844 160.831L214.519 162.642C215.272 161.984 215.986 161.279 216.66 160.529L215.219 157.504C216.267 156.203 217.159 154.767 217.874 153.228L221.16 153.287C221.534 152.348 221.852 151.384 222.113 150.402L219.369 148.687C219.537 147.874 219.656 147.051 219.726 146.221C219.793 145.399 219.809 144.573 219.774 143.749L222.793 142.034C222.691 141.061 222.528 140.097 222.306 139.149L219.013 139.207C218.554 137.689 217.896 136.249 217.058 134.931L218.992 131.906C218.442 131.156 217.842 130.45 217.195 129.794L214.231 131.612C213.088 130.592 211.812 129.757 210.445 129.132L210.788 125.606C209.929 125.296 209.051 125.05 208.16 124.87L206.308 127.961C205.551 127.849 204.788 127.792 204.024 127.792C203.248 127.793 202.473 127.849 201.705 127.961L200.333 124.87C199.404 125.052 198.488 125.298 197.589 125.606L197.356 129.132C195.868 129.768 194.46 130.601 193.164 131.612L190.496 129.794C189.742 130.449 189.027 131.155 188.355 131.906L189.796 134.931C188.752 136.235 187.861 137.671 187.141 139.207L183.862 139.149C183.482 140.085 183.164 141.049 182.909 142.034L185.653 143.749C185.305 145.367 185.169 147.029 185.248 148.687L185.268 148.672ZM196.67 146.207C196.831 144.506 197.568 142.927 198.741 141.77C199.914 140.613 201.442 139.958 203.036 139.929C203.785 139.913 204.529 140.07 205.218 140.387C205.907 140.705 206.524 141.177 207.029 141.771C207.535 142.365 207.916 143.068 208.147 143.833C208.379 144.598 208.456 145.407 208.373 146.207C208.212 147.907 207.476 149.484 206.304 150.641C205.132 151.798 203.606 152.454 202.014 152.485C201.266 152.5 200.524 152.344 199.836 152.028C199.149 151.711 198.532 151.242 198.026 150.65C197.521 150.058 197.139 149.358 196.905 148.596C196.671 147.834 196.591 147.027 196.67 146.229V146.207Z" fill="#053D7B"/>
<path opacity="0.4" d="M185.268 148.672L182.25 150.387C182.345 151.361 182.508 152.325 182.737 153.272L186.03 153.213C186.476 154.737 187.128 156.183 187.964 157.504L186.03 160.529C186.577 161.28 187.176 161.986 187.82 162.642L190.791 160.831C191.936 161.846 193.211 162.679 194.577 163.304L194.234 166.829C195.09 167.143 195.966 167.389 196.855 167.565L198.707 164.482C199.467 164.591 200.232 164.647 200.998 164.651C201.772 164.647 202.544 164.59 203.31 164.482L204.682 167.565C205.611 167.386 206.528 167.141 207.426 166.829L207.659 163.304C209.145 162.669 210.55 161.839 211.844 160.831L214.519 162.642C215.272 161.984 215.986 161.279 216.66 160.529L215.219 157.504C216.267 156.203 217.159 154.767 217.874 153.228L221.16 153.287C221.534 152.348 221.852 151.384 222.113 150.402L219.369 148.687C219.537 147.874 219.656 147.051 219.726 146.221C219.793 145.399 219.809 144.573 219.774 143.749L222.793 142.034C222.691 141.061 222.528 140.097 222.306 139.149L219.013 139.207C218.554 137.689 217.896 136.249 217.058 134.931L218.992 131.906C218.442 131.156 217.842 130.45 217.195 129.794L214.231 131.612C213.088 130.592 211.812 129.757 210.445 129.132L210.788 125.606C209.929 125.296 209.051 125.05 208.16 124.87L206.308 127.961C205.551 127.849 204.788 127.792 204.024 127.792C203.248 127.793 202.473 127.849 201.705 127.961L200.333 124.87C199.404 125.052 198.488 125.298 197.589 125.606L197.356 129.132C195.868 129.768 194.46 130.601 193.164 131.612L190.496 129.794C189.742 130.449 189.027 131.155 188.355 131.906L189.796 134.931C188.752 136.235 187.861 137.671 187.141 139.207L183.862 139.149C183.482 140.085 183.164 141.049 182.909 142.034L185.653 143.749C185.305 145.367 185.169 147.029 185.248 148.687L185.268 148.672ZM196.67 146.207C196.831 144.506 197.568 142.927 198.741 141.77C199.914 140.613 201.442 139.958 203.036 139.929C203.785 139.913 204.529 140.07 205.218 140.387C205.907 140.705 206.524 141.177 207.029 141.771C207.535 142.365 207.916 143.068 208.147 143.833C208.379 144.598 208.456 145.407 208.373 146.207C208.212 147.907 207.476 149.484 206.304 150.641C205.132 151.798 203.606 152.454 202.014 152.485C201.266 152.5 200.524 152.344 199.836 152.028C199.149 151.711 198.532 151.242 198.026 150.65C197.521 150.058 197.139 149.358 196.905 148.596C196.671 147.834 196.591 147.027 196.67 146.229V146.207Z" fill="white"/>
<path d="M156.154 121.536L151.133 124.385C151.226 125.177 151.359 125.963 151.531 126.74L157.019 126.637C157.391 127.784 157.89 128.879 158.507 129.897L155.283 134.932C155.742 135.535 156.232 136.11 156.751 136.654L161.683 133.636C162.573 134.386 163.542 135.018 164.572 135.52L164.002 141.408C164.704 141.663 165.419 141.874 166.142 142.041L169.216 136.889C169.797 136.957 170.381 136.992 170.965 136.992C171.554 136.991 172.143 136.957 172.728 136.889L174.964 142.041C175.722 141.872 176.471 141.661 177.208 141.408L177.599 135.52C178.719 135.011 179.788 134.379 180.789 133.636L185.234 136.654C185.838 136.109 186.421 135.535 186.983 134.932L184.575 129.897C185.353 128.888 186.031 127.796 186.599 126.637L192.087 126.74C192.382 125.967 192.643 125.187 192.869 124.385L188.321 121.529C188.431 120.911 188.513 120.285 188.568 119.652C188.62 119.026 188.638 118.397 188.623 117.768L193.637 114.92C193.547 114.128 193.416 113.342 193.246 112.565L187.758 112.66C187.385 111.514 186.885 110.419 186.27 109.4L189.494 104.373C189.036 103.767 188.545 103.19 188.026 102.643L183.087 105.661C182.198 104.916 181.231 104.287 180.205 103.784L180.775 97.8961C180.074 97.6411 179.359 97.4321 178.635 97.2705L175.554 102.423C174.976 102.355 174.394 102.32 173.812 102.319C173.223 102.321 172.635 102.355 172.049 102.423L169.813 97.2705C169.055 97.4339 168.306 97.6428 167.569 97.8961L167.178 103.784C166.059 104.294 164.991 104.923 163.988 105.661L159.543 102.643C158.933 103.188 158.35 103.769 157.794 104.373L160.195 109.4C159.424 110.412 158.748 111.504 158.178 112.66L152.69 112.565C152.391 113.334 152.13 114.12 151.908 114.92L156.456 117.768C156.342 118.391 156.26 119.02 156.209 119.652C156.157 120.279 156.138 120.908 156.154 121.536ZM165.518 119.66C165.707 117.668 166.57 115.82 167.942 114.464C169.315 113.108 171.103 112.338 172.968 112.3C173.847 112.281 174.719 112.464 175.527 112.837C176.334 113.209 177.058 113.762 177.651 114.459C178.243 115.156 178.69 115.98 178.961 116.877C179.233 117.774 179.322 118.722 179.225 119.66C179.035 121.651 178.173 123.5 176.801 124.856C175.428 126.212 173.64 126.981 171.775 127.02C170.896 127.038 170.023 126.855 169.216 126.483C168.408 126.11 167.684 125.557 167.092 124.86C166.5 124.164 166.053 123.339 165.782 122.442C165.51 121.546 165.42 120.597 165.518 119.66Z" fill="#053D7B"/>
<path opacity="0.3" d="M156.154 121.536L151.133 124.385C151.226 125.177 151.359 125.963 151.531 126.74L157.019 126.637C157.391 127.784 157.89 128.879 158.507 129.897L155.283 134.932C155.742 135.535 156.232 136.11 156.751 136.654L161.683 133.636C162.573 134.386 163.542 135.018 164.572 135.52L164.002 141.408C164.704 141.663 165.419 141.874 166.142 142.041L169.216 136.889C169.797 136.957 170.381 136.992 170.965 136.992C171.554 136.991 172.143 136.957 172.728 136.889L174.964 142.041C175.722 141.872 176.471 141.661 177.208 141.408L177.599 135.52C178.719 135.011 179.788 134.379 180.789 133.636L185.234 136.654C185.838 136.109 186.421 135.535 186.983 134.932L184.575 129.897C185.353 128.888 186.031 127.796 186.599 126.637L192.087 126.74C192.382 125.967 192.643 125.187 192.869 124.385L188.321 121.529C188.431 120.911 188.513 120.285 188.568 119.652C188.62 119.026 188.638 118.397 188.623 117.768L193.637 114.92C193.547 114.128 193.416 113.342 193.246 112.565L187.758 112.66C187.385 111.514 186.885 110.419 186.27 109.4L189.494 104.373C189.036 103.767 188.545 103.19 188.026 102.643L183.087 105.661C182.198 104.916 181.231 104.287 180.205 103.784L180.775 97.8961C180.074 97.6411 179.359 97.4321 178.635 97.2705L175.554 102.423C174.976 102.355 174.394 102.32 173.812 102.319C173.223 102.321 172.635 102.355 172.049 102.423L169.813 97.2705C169.055 97.4339 168.306 97.6428 167.569 97.8961L167.178 103.784C166.059 104.294 164.991 104.923 163.988 105.661L159.543 102.643C158.933 103.188 158.35 103.769 157.794 104.373L160.195 109.4C159.424 110.412 158.748 111.504 158.178 112.66L152.69 112.565C152.391 113.334 152.13 114.12 151.908 114.92L156.456 117.768C156.342 118.391 156.26 119.02 156.209 119.652C156.157 120.279 156.138 120.908 156.154 121.536ZM165.518 119.66C165.707 117.668 166.57 115.82 167.942 114.464C169.315 113.108 171.103 112.338 172.968 112.3C173.847 112.281 174.719 112.464 175.527 112.837C176.334 113.209 177.058 113.762 177.651 114.459C178.243 115.156 178.69 115.98 178.961 116.877C179.233 117.774 179.322 118.722 179.225 119.66C179.035 121.651 178.173 123.5 176.801 124.856C175.428 126.212 173.64 126.981 171.775 127.02C170.896 127.038 170.023 126.855 169.216 126.483C168.408 126.11 167.684 125.557 167.092 124.86C166.5 124.164 166.053 123.339 165.782 122.442C165.51 121.546 165.42 120.597 165.518 119.66Z" fill="white"/>
<path d="M168.611 175.168L165.277 177.067C165.338 177.592 165.427 178.113 165.545 178.627L169.181 178.561C169.429 179.322 169.761 180.048 170.169 180.725L168.028 184.074C168.333 184.473 168.658 184.854 169.002 185.215L172.281 183.213C172.871 183.709 173.514 184.129 174.195 184.464L173.818 188.357C174.286 188.526 174.763 188.669 175.245 188.784L177.303 185.369C177.688 185.416 178.075 185.441 178.462 185.443C178.852 185.44 179.241 185.416 179.628 185.369L181.117 188.784C181.62 188.669 182.116 188.526 182.606 188.357L182.866 184.464C183.611 184.126 184.321 183.707 184.986 183.213L187.936 185.215C188.341 184.854 188.732 184.479 189.102 184.074L187.504 180.725C188.028 180.055 188.487 179.33 188.876 178.561L192.498 178.627C192.699 178.118 192.873 177.597 193.019 177.067L189.953 175.168C190.031 174.757 190.088 174.342 190.124 173.924C190.156 173.508 190.168 173.091 190.159 172.673L193.493 170.774C193.432 170.249 193.342 169.728 193.225 169.214L189.589 169.28C189.341 168.519 189.009 167.793 188.601 167.116L190.742 163.775C190.439 163.371 190.113 162.988 189.768 162.627L186.488 164.629C185.899 164.132 185.256 163.712 184.575 163.377L184.952 159.484C184.484 159.314 184.008 159.174 183.525 159.064L181.467 162.472C181.082 162.425 180.695 162.4 180.308 162.399C179.918 162.401 179.529 162.425 179.141 162.472L177.673 159.087C177.17 159.196 176.673 159.336 176.185 159.506L175.924 163.399C175.179 163.737 174.469 164.157 173.804 164.651L170.855 162.649C170.448 163.01 170.059 163.393 169.688 163.797L171.287 167.138C170.763 167.808 170.303 168.533 169.915 169.302L166.293 169.236C166.091 169.745 165.917 170.266 165.771 170.796L168.797 172.695C168.718 173.109 168.661 173.526 168.625 173.946C168.601 174.353 168.596 174.761 168.611 175.168ZM173.043 173.924C173.217 172.081 174.015 170.371 175.285 169.116C176.556 167.862 178.211 167.15 179.937 167.116C180.75 167.101 181.556 167.271 182.303 167.616C183.049 167.961 183.719 168.472 184.266 169.116C184.814 169.76 185.228 170.522 185.48 171.351C185.731 172.18 185.816 173.058 185.727 173.924C185.551 175.766 184.753 177.475 183.482 178.728C182.212 179.981 180.558 180.691 178.833 180.725C178.022 180.741 177.218 180.573 176.473 180.23C175.728 179.887 175.06 179.378 174.512 178.737C173.965 178.096 173.55 177.337 173.297 176.511C173.044 175.685 172.957 174.811 173.043 173.946V173.924Z" fill="#053D7B"/>
<path opacity="0.5" d="M168.611 175.168L165.277 177.067C165.338 177.592 165.427 178.113 165.545 178.627L169.181 178.561C169.429 179.322 169.761 180.048 170.169 180.725L168.028 184.074C168.333 184.473 168.658 184.854 169.002 185.215L172.281 183.213C172.871 183.709 173.514 184.129 174.195 184.464L173.818 188.357C174.286 188.526 174.763 188.669 175.245 188.784L177.303 185.369C177.688 185.416 178.075 185.441 178.462 185.443C178.852 185.44 179.241 185.416 179.628 185.369L181.117 188.784C181.62 188.669 182.116 188.526 182.606 188.357L182.866 184.464C183.611 184.126 184.321 183.707 184.986 183.213L187.936 185.215C188.341 184.854 188.732 184.479 189.102 184.074L187.504 180.725C188.028 180.055 188.487 179.33 188.876 178.561L192.498 178.627C192.699 178.118 192.873 177.597 193.019 177.067L189.953 175.168C190.031 174.757 190.088 174.342 190.124 173.924C190.156 173.508 190.168 173.091 190.159 172.673L193.493 170.774C193.432 170.249 193.342 169.728 193.225 169.214L189.589 169.28C189.341 168.519 189.009 167.793 188.601 167.116L190.742 163.775C190.439 163.371 190.113 162.988 189.768 162.627L186.488 164.629C185.899 164.132 185.256 163.712 184.575 163.377L184.952 159.484C184.484 159.314 184.008 159.174 183.525 159.064L181.467 162.472C181.082 162.425 180.695 162.4 180.308 162.399C179.918 162.401 179.529 162.425 179.141 162.472L177.673 159.087C177.17 159.196 176.673 159.336 176.185 159.506L175.924 163.399C175.179 163.737 174.469 164.157 173.804 164.651L170.855 162.649C170.448 163.01 170.059 163.393 169.688 163.797L171.287 167.138C170.763 167.808 170.303 168.533 169.915 169.302L166.293 169.236C166.091 169.745 165.917 170.266 165.771 170.796L168.797 172.695C168.718 173.109 168.661 173.526 168.625 173.946C168.601 174.353 168.596 174.761 168.611 175.168ZM173.043 173.924C173.217 172.081 174.015 170.371 175.285 169.116C176.556 167.862 178.211 167.15 179.937 167.116C180.75 167.101 181.556 167.271 182.303 167.616C183.049 167.961 183.719 168.472 184.266 169.116C184.814 169.76 185.228 170.522 185.48 171.351C185.731 172.18 185.816 173.058 185.727 173.924C185.551 175.766 184.753 177.475 183.482 178.728C182.212 179.981 180.558 180.691 178.833 180.725C178.022 180.741 177.218 180.573 176.473 180.23C175.728 179.887 175.06 179.378 174.512 178.737C173.965 178.096 173.55 177.337 173.297 176.511C173.044 175.685 172.957 174.811 173.043 173.946V173.924Z" fill="white"/>
<path opacity="0.2" d="M225.968 57.9453H156.051C153.079 57.9913 150.23 59.2229 148.059 61.4C145.888 63.577 144.55 66.5436 144.307 69.7213L132.645 249.018L225.968 57.9453Z" fill="white"/>
<path d="M94.6696 303.165C94.9167 303.234 95.1752 303.24 95.4248 303.183C95.6743 303.126 95.9082 303.007 96.1077 302.837C96.3073 302.666 96.4672 302.448 96.5748 302.2C96.6824 301.952 96.7347 301.68 96.7276 301.406V297.999H138.203V300.678C138.23 301.282 138.449 301.859 138.823 302.311C139.197 302.764 139.705 303.065 140.261 303.165C140.508 303.232 140.766 303.237 141.015 303.18C141.264 303.122 141.497 303.003 141.696 302.833C141.896 302.663 142.056 302.445 142.164 302.198C142.272 301.95 142.325 301.679 142.319 301.406L141.551 132.215C141.519 131.612 141.299 131.038 140.925 130.587C140.552 130.135 140.047 129.832 139.493 129.727C139.246 129.66 138.988 129.655 138.739 129.713C138.49 129.77 138.257 129.889 138.058 130.059C137.858 130.23 137.698 130.447 137.59 130.694C137.482 130.942 137.429 131.213 137.435 131.486V134.194H95.925V132.215C95.8934 131.612 95.673 131.038 95.2994 130.587C94.9259 130.135 94.4211 129.832 93.867 129.727C93.6201 129.66 93.362 129.655 93.1131 129.713C92.8641 129.77 92.6309 129.889 92.4317 130.059C92.2325 130.23 92.0726 130.447 91.9646 130.694C91.8566 130.942 91.8033 131.213 91.809 131.486L92.6116 300.678C92.6395 301.282 92.8587 301.857 93.2329 302.31C93.6071 302.762 94.1139 303.064 94.6696 303.165ZM137.997 262.479H96.5081L96.3778 233.856H137.888L137.997 262.479ZM96.1034 169.743H137.579L137.709 198.366H96.22L96.1034 169.743ZM137.723 201.811L137.853 230.434H96.364L96.2337 201.811H137.723ZM137.414 137.632L137.545 166.255H96.0416L95.9387 137.632H137.414ZM96.659 294.547L96.5287 265.924H138.004L138.135 294.547H96.659Z" fill="#263238"/>
<path d="M66.6721 303.165C67.1969 303.261 67.7358 303.13 68.1705 302.8C68.6052 302.471 68.9002 301.969 68.9908 301.406L69.5396 297.999H111.008L110.583 300.678C110.513 301.231 110.646 301.791 110.953 302.242C111.261 302.692 111.719 302.997 112.231 303.092C112.744 303.187 113.271 303.066 113.702 302.753C114.133 302.44 114.433 301.96 114.541 301.414L141.576 132.222C141.646 131.669 141.514 131.108 141.206 130.658C140.899 130.208 140.44 129.903 139.928 129.808C139.415 129.712 138.888 129.834 138.457 130.147C138.027 130.46 137.726 130.94 137.618 131.486L137.186 134.195H95.7105L96.026 132.215C96.0959 131.662 95.9632 131.101 95.6557 130.651C95.3483 130.2 94.8901 129.896 94.3775 129.8C93.8649 129.705 93.3378 129.827 92.9071 130.14C92.4763 130.453 92.1755 130.933 92.0678 131.479L65.0325 300.678C64.943 301.241 65.0654 301.819 65.3727 302.285C65.6801 302.752 66.1474 303.068 66.6721 303.165ZM116.688 262.479H75.2128L79.7884 233.856H121.257L116.688 262.479ZM90.0372 169.743H131.506L126.91 198.337H85.4616L90.0372 169.743ZM126.395 201.811L121.826 230.434H80.3372L84.9128 201.811H126.395ZM136.63 137.632L132.062 166.255H90.586L95.1617 137.632H136.63ZM70.0884 294.539L74.664 265.916H116.133L111.564 294.539H70.0884Z" fill="#263238"/>
<path opacity="0.2" d="M66.6721 303.165C67.1969 303.261 67.7358 303.13 68.1705 302.8C68.6052 302.471 68.9002 301.969 68.9908 301.406L69.5396 297.999H111.008L110.583 300.678C110.513 301.231 110.646 301.791 110.953 302.242C111.261 302.692 111.719 302.997 112.231 303.092C112.744 303.187 113.271 303.066 113.702 302.753C114.133 302.44 114.433 301.96 114.541 301.414L141.576 132.222C141.646 131.669 141.514 131.108 141.206 130.658C140.899 130.208 140.44 129.903 139.928 129.808C139.415 129.712 138.888 129.834 138.457 130.147C138.027 130.46 137.726 130.94 137.618 131.486L137.186 134.195H95.7105L96.026 132.215C96.0959 131.662 95.9632 131.101 95.6557 130.651C95.3483 130.2 94.8901 129.896 94.3775 129.8C93.8649 129.705 93.3378 129.827 92.9071 130.14C92.4763 130.453 92.1755 130.933 92.0678 131.479L65.0325 300.678C64.943 301.241 65.0654 301.819 65.3727 302.285C65.6801 302.752 66.1474 303.068 66.6721 303.165ZM116.688 262.479H75.2128L79.7884 233.856H121.257L116.688 262.479ZM90.0372 169.743H131.506L126.91 198.337H85.4616L90.0372 169.743ZM126.395 201.811L121.826 230.434H80.3372L84.9128 201.811H126.395ZM136.63 137.632L132.062 166.255H90.586L95.1617 137.632H136.63ZM70.0884 294.539L74.664 265.916H116.133L111.564 294.539H70.0884Z" fill="white"/>
<path d="M149.609 113.697H190.453V107.14H149.609V113.697Z" fill="#263238"/>
<path opacity="0.1" d="M149.609 111.799H190.453V109.046H149.609V111.799Z" fill="white"/>
<path d="M79.2479 160.993C79.016 160.994 78.7905 160.911 78.6082 160.757C78.4258 160.603 78.2971 160.388 78.2431 160.146C78.1891 159.904 78.2129 159.65 78.3106 159.424C78.4083 159.198 78.5742 159.014 78.7814 158.903L169.567 109.436C169.687 109.37 169.819 109.331 169.954 109.32C170.089 109.309 170.225 109.326 170.353 109.371C170.482 109.416 170.601 109.488 170.704 109.583C170.807 109.677 170.891 109.792 170.952 109.922C171.014 110.051 171.051 110.193 171.061 110.337C171.071 110.482 171.055 110.628 171.013 110.766C170.971 110.904 170.904 111.032 170.816 111.142C170.728 111.252 170.62 111.343 170.5 111.409L79.7144 160.868C79.5701 160.948 79.4104 160.991 79.2479 160.993Z" fill="#263238"/>
<path d="M86.3242 131.479C86.3242 131.479 78.888 139.789 80.946 144.102C83.004 148.415 87.6139 154.406 87.6139 154.406C87.6139 154.406 87.4355 156.651 89.3975 157.07L93.4106 153.567C91.8653 153.18 90.2899 152.949 88.7046 152.875L85.357 141.312L90.55 133.643L86.3242 131.479Z" fill="#DD8C6A"/>
<path d="M93.4037 153.566L94.4876 155.539C94.7189 155.96 94.7965 156.458 94.7052 156.936C94.614 157.415 94.3604 157.84 93.9937 158.13L93.7947 158.284C93.5195 158.501 93.1931 158.632 92.8525 158.66C92.5118 158.689 92.1705 158.615 91.8671 158.446L89.3906 157.07L93.4037 153.566Z" fill="#DD8C6A"/>
<path d="M68.7727 238.692L65.6445 248.01L70.4671 250.012L74.2264 241.416L68.7727 238.692Z" fill="#DD8C6A"/>
<path d="M70.958 250.461C70.9354 250.445 70.9176 250.423 70.9066 250.397C70.8956 250.371 70.892 250.342 70.8962 250.314C70.9012 250.286 70.9137 250.261 70.932 250.242C70.9503 250.222 70.9737 250.209 70.9991 250.203C71.0952 250.203 73.2286 249.813 73.9832 250.395C74.1241 250.502 74.2221 250.662 74.2576 250.844C74.2859 250.947 74.2832 251.057 74.2499 251.159C74.2167 251.261 74.1546 251.348 74.0724 251.41C73.5277 251.564 72.9494 251.499 72.4466 251.226C71.9301 251.019 71.432 250.763 70.958 250.461ZM71.4039 250.461C72.3025 250.961 73.5785 251.462 73.9352 251.197C73.9832 251.197 74.0381 251.101 74.0038 250.902C73.9963 250.846 73.977 250.792 73.9473 250.745C73.9176 250.698 73.8783 250.659 73.8323 250.63C73.765 250.579 73.691 250.54 73.6128 250.512C72.8876 250.337 72.1378 250.312 71.4039 250.439V250.461Z" fill="#053D7B"/>
<path d="M70.8966 250.424C70.885 250.404 70.8789 250.381 70.8789 250.358C70.8789 250.335 70.885 250.312 70.8966 250.292C70.8966 250.225 71.5826 248.82 72.4058 248.503C72.5262 248.458 72.6538 248.44 72.7811 248.448C72.9084 248.457 73.0327 248.493 73.1467 248.555C73.4622 248.717 73.5034 248.937 73.4691 249.092C73.3662 249.74 71.7472 250.432 71.0407 250.483H70.9926C70.9733 250.483 70.9545 250.477 70.9377 250.467C70.9209 250.456 70.9068 250.442 70.8966 250.424ZM72.9546 248.761C72.8039 248.702 72.6388 248.702 72.4881 248.761C71.949 249.076 71.5131 249.562 71.2396 250.152C72.0079 250.005 73.1192 249.416 73.2153 249.026C73.2153 248.989 73.2153 248.893 73.0301 248.783H72.9546V248.761Z" fill="#053D7B"/>
<path d="M70.7055 249.504L65.2175 247.296C65.1165 247.257 65.0062 247.255 64.9043 247.291C64.8023 247.327 64.7145 247.399 64.655 247.495L61.9933 251.911C61.8808 252.099 61.8415 252.327 61.8838 252.546C61.9261 252.764 62.0467 252.957 62.2197 253.081C62.2663 253.115 62.3171 253.143 62.3706 253.162C64.3669 253.898 66.1779 254.509 68.6475 255.495C71.5699 256.658 70.7055 256.739 74.1355 258.16C76.1935 259.013 77.4489 256.643 76.612 256.165C72.7909 254.031 72.8252 252.559 71.81 250.402C71.5593 249.965 71.1653 249.645 70.7055 249.504Z" fill="#263238"/>
<path opacity="0.2" d="M67.2695 243.16L72.3254 245.751L74.2256 241.416L68.7719 238.692L67.2695 243.16Z" fill="#263238"/>
<path d="M97.6055 247.612L98.4424 257.475L103.601 257.107L103.622 247.612H97.6055Z" fill="#DD8C6A"/>
<path d="M104.486 256.938C104.46 256.932 104.437 256.919 104.418 256.899C104.4 256.88 104.388 256.855 104.383 256.827C104.376 256.801 104.378 256.773 104.388 256.748C104.398 256.722 104.415 256.701 104.438 256.688C104.52 256.629 106.358 255.407 107.264 255.642C107.348 255.66 107.428 255.696 107.499 255.748C107.569 255.8 107.63 255.867 107.675 255.944C107.734 256.031 107.766 256.135 107.766 256.242C107.766 256.349 107.734 256.454 107.675 256.54C107.226 256.906 106.667 257.084 106.104 257.041C105.563 257.056 105.021 257.021 104.486 256.938ZM104.897 256.739C105.899 256.835 107.257 256.776 107.497 256.386C107.531 256.342 107.559 256.253 107.497 256.091C107.47 256.041 107.432 255.998 107.387 255.966C107.342 255.935 107.29 255.914 107.236 255.907C107.157 255.892 107.076 255.892 106.996 255.907C106.253 256.038 105.541 256.32 104.897 256.739Z" fill="#053D7B"/>
<path d="M104.415 256.93C104.396 256.918 104.381 256.901 104.371 256.88C104.361 256.859 104.357 256.836 104.36 256.812C104.36 256.739 104.456 255.178 105.122 254.545C105.309 254.363 105.555 254.268 105.808 254.28C106.158 254.28 106.274 254.494 106.295 254.648C106.432 255.296 105.177 256.599 104.546 256.93H104.491C104.466 256.938 104.44 256.938 104.415 256.93ZM105.746 254.545C105.583 254.551 105.427 254.619 105.307 254.737C104.924 255.25 104.696 255.877 104.655 256.533C105.307 256.084 106.123 255.061 106.075 254.685C106.075 254.648 106.075 254.545 105.815 254.538L105.746 254.545Z" fill="#053D7B"/>
<path d="M103.907 256.128L98.035 256.356C97.9267 256.358 97.8223 256.4 97.7396 256.475C97.657 256.55 97.6014 256.654 97.5823 256.768L96.6905 261.92C96.6705 262.029 96.6709 262.142 96.6915 262.251C96.7121 262.36 96.7525 262.464 96.8105 262.556C96.8685 262.648 96.9429 262.727 97.0294 262.789C97.1159 262.85 97.2129 262.893 97.3147 262.914H97.4862C99.5991 262.789 101.479 262.597 104.12 262.502C107.227 262.376 106.452 262.811 110.116 262.722C112.318 262.671 112.633 259.97 111.693 259.874C107.399 259.454 106.891 258.086 105.204 256.51C104.829 256.218 104.368 256.082 103.907 256.128Z" fill="#263238"/>
<path opacity="0.2" d="M103.622 247.612H97.6055L98.0445 252.764L103.608 252.595L103.622 247.612Z" fill="#263238"/>
<path d="M93.1791 156.209C93.1791 156.209 83.9524 162.723 85.4616 181.895L83.9249 203.607C83.9249 203.607 74.7737 210.195 67.4609 240.533C69.3489 242.138 71.54 243.283 73.8819 243.889L95.8888 207.773L104.032 170.171L104.985 157.659L93.1791 156.209Z" fill="#053D7B"/>
<path opacity="0.1" d="M93.1791 156.209C93.1791 156.209 83.9524 162.723 85.4616 181.895L83.9249 203.607C83.9249 203.607 74.7737 210.195 67.4609 240.533C69.3489 242.138 71.54 243.283 73.8819 243.889L95.8888 207.773L104.032 170.171L104.985 157.659L93.1791 156.209Z" fill="black"/>
<path opacity="0.2" d="M99.9843 188.997L96.6641 175.168L91.375 172.371C91.375 172.371 91.375 199.287 93.7486 211.305L95.9163 207.743L99.9843 188.997Z" fill="black"/>
<path d="M92.4294 123.722C91.4353 123.605 90.4298 123.758 89.5047 124.165C88.5797 124.573 87.7645 125.222 87.1335 126.055C84.7256 128.999 82.2148 134.224 82.2148 134.224C82.2148 134.224 85.3156 138.383 88.8553 137.853L92.4294 123.722Z" fill="#053D7B"/>
<path opacity="0.1" d="M92.4294 123.722C91.4353 123.605 90.4298 123.758 89.5047 124.165C88.5797 124.573 87.7645 125.222 87.1335 126.055C84.7256 128.999 82.2148 134.224 82.2148 134.224C82.2148 134.224 85.3156 138.383 88.8553 137.853L92.4294 123.722Z" fill="black"/>
<path opacity="0.1" d="M88.8578 137.853L91.6979 126.592L88.851 126.975C88.851 126.975 87.3624 137.072 88.8578 137.853Z" fill="black"/>
<path d="M95.3521 156.209C95.3521 156.209 87.7375 165.144 92.3954 182.639L95.6882 204.608C95.6882 204.608 91.5173 225.533 96.6349 250.402C99.2157 250.791 101.838 250.729 104.4 250.218L109.161 203.387L111.542 158.623L95.3521 156.209Z" fill="#053D7B"/>
<path d="M106.028 106.352C106.247 106.308 106.481 106.558 106.549 106.911C106.618 107.264 106.494 107.603 106.275 107.647C106.055 107.691 105.822 107.441 105.753 107.08C105.685 106.72 105.808 106.389 106.028 106.352Z" fill="#263238"/>
<path d="M106.458 111.092C106.745 111.108 107.031 111.057 107.296 110.941C107.562 110.825 107.8 110.648 107.995 110.422C107.157 109.626 106.426 108.709 105.82 107.699L106.458 111.092Z" fill="#932A2A"/>
<path d="M104.27 105.321C104.434 105.106 104.645 104.938 104.884 104.831C105.123 104.724 105.384 104.683 105.642 104.711H105.71C105.737 104.711 105.763 104.705 105.788 104.694C105.813 104.682 105.835 104.666 105.853 104.645C105.872 104.625 105.886 104.6 105.896 104.574C105.906 104.547 105.91 104.518 105.909 104.49C105.909 104.432 105.888 104.377 105.851 104.336C105.814 104.295 105.764 104.271 105.71 104.269C105.394 104.239 105.075 104.29 104.781 104.418C104.486 104.546 104.224 104.747 104.016 105.005C103.981 105.042 103.961 105.092 103.961 105.145C103.961 105.202 103.982 105.257 104.019 105.298C104.056 105.34 104.106 105.364 104.16 105.366C104.2 105.362 104.238 105.347 104.27 105.321Z" fill="#263238"/>
<path d="M102.901 117.495C102.297 120.079 102.27 123.288 104.904 124.171C104.904 124.171 108.183 127.115 101.858 127.115C96.1094 127.115 95.2656 123.751 95.2656 123.751C97.4265 121.543 97.063 116.929 96.4524 113.609L102.901 117.495Z" fill="#DD8C6A"/>
<path d="M92.9258 123.185C92.9258 123.185 93.9685 120.241 95.3817 119.35C96.7948 118.46 102.756 119.777 103.675 120.226C104.595 120.675 105.445 123.045 105.445 123.045L92.9258 123.185Z" fill="#053D7B"/>
<path opacity="0.4" d="M92.9258 123.185C92.9258 123.185 93.9685 120.241 95.3817 119.35C96.7948 118.46 102.756 119.777 103.675 120.226C104.595 120.675 105.445 123.045 105.445 123.045L92.9258 123.185Z" fill="black"/>
<path d="M88.2945 128.219C90.2359 140.731 89.6665 153.007 89.1657 159.403C89.0766 160.448 88.9942 161.339 88.9256 162.038C88.8639 162.597 88.8227 163.039 88.7884 163.363L111.426 163.223C111.474 162.825 111.522 162.428 111.564 162.038C111.667 161.133 111.769 160.257 111.859 159.403C113.759 141.945 113.505 132.774 112.654 128.204C112.414 126.923 111.817 125.751 110.942 124.842C110.068 123.933 108.957 123.329 107.756 123.111C107.496 123.067 106.618 123.008 105.431 122.942C104.779 122.942 104.059 122.875 103.242 122.853C100.8 122.75 97.9328 122.691 96.0257 122.758C95.6896 122.758 95.3878 122.758 95.1134 122.802C94.4274 122.853 93.7071 122.919 93.0142 123.008C92.6095 123.045 92.2185 123.096 91.8206 123.155C91.274 123.226 90.7466 123.416 90.2702 123.712C89.7938 124.008 89.3782 124.405 89.0487 124.878C88.7192 125.351 88.4824 125.891 88.3528 126.466C88.2232 127.04 88.2034 127.636 88.2945 128.219Z" fill="#053D7B"/>
<path d="M94.2641 107.456C94.281 107.909 94.3454 108.358 94.4562 108.795C95.2519 111.99 95.6978 114.242 96.8709 115.927C97.3104 116.573 97.8541 117.129 98.4761 117.569C102.242 120.284 106.955 117.164 107.079 112.549C107.209 108.398 105.412 101.973 101.062 101.097C100.323 100.943 99.5629 100.947 98.8251 101.109C98.0874 101.27 97.3866 101.586 96.7628 102.039C96.139 102.492 95.6045 103.072 95.1899 103.746C94.7753 104.42 94.4886 105.176 94.3464 105.969C94.2644 106.46 94.2368 106.959 94.2641 107.456Z" fill="#DD8C6A"/>
<g opacity="0.2">
<path d="M94.2617 107.456C94.2786 107.909 94.343 108.359 94.4538 108.796C95.2496 111.99 95.6955 114.242 96.8685 115.928L101.293 115.987L103.351 110.444L103.914 105.094C103.914 105.094 97.8838 107.11 94.2617 107.456Z" fill="black"/>
</g>
<path d="M94.262 109.385C93.576 108.442 91.8336 105.373 91.9296 104.166C93.2824 102.285 95.0803 100.826 97.1363 99.9417C99.3901 99.0918 101.819 98.9288 104.154 99.4706C104.709 100.431 105.119 101.479 105.368 102.577C105.524 103.104 105.566 103.663 105.493 104.211C105.419 104.759 105.231 105.282 104.943 105.741C102.94 108.575 94.9617 110.327 94.262 109.385Z" fill="#263238"/>
<path d="M103.586 106.838C104.793 107.235 105.403 109.149 105.438 110.363C105.486 111.703 104.642 112.571 103.565 111.629C102.749 110.932 102.172 109.964 101.925 108.877C101.637 107.559 102.378 106.448 103.586 106.838Z" fill="#DD8C6A"/>
<path opacity="0.1" d="M91.957 104.137C92.1664 104.204 92.3795 104.259 92.595 104.299C93.6114 104.469 94.6428 104.511 95.6683 104.424C95.8741 104.851 96.073 105.285 96.2788 105.719V104.424C96.4778 104.725 96.7522 105.226 96.9648 105.528C96.9648 105.167 96.9991 104.733 96.9648 104.365C99.1756 104.053 101.245 103.026 102.899 101.421C103.345 101.015 103.707 100.514 103.962 99.9488C104.027 99.786 104.073 99.6155 104.099 99.4409C101.787 98.9186 99.3861 99.0867 97.1569 99.9267C95.1015 100.801 93.3047 102.256 91.957 104.137Z" fill="white"/>
<path opacity="0.2" d="M113.229 134.1C113.255 132.703 113.093 131.31 112.749 129.963L109.47 128.175L107.453 131.376C107.453 131.376 110.636 138.361 113.264 141.209C113.586 138.368 113.229 135.814 113.229 134.1Z" fill="black"/>
<path d="M111.25 127.121C111.25 127.121 121.574 134.371 120.909 134.342L134.512 128.976C134.777 127.996 135.089 127.03 135.445 126.084L136.728 124.899C136.863 124.712 137.041 124.567 137.244 124.477C137.447 124.386 137.669 124.354 137.887 124.384L138.848 124.737C139.417 125.23 139.87 125.23 139.856 125.554L138.532 127.026L136.248 130.154C136.248 130.154 124.888 137.661 121.958 139.722C119.029 141.783 111.36 134.452 111.36 134.452L111.25 127.121Z" fill="#DD8C6A"/>
<path d="M108.523 124.597C111.521 125.068 114.587 127.63 119.348 132.141C118.219 134.667 116.481 136.822 114.313 138.383C114.313 138.383 111.569 137.08 108.235 132.568C104.27 127.107 106.685 124.31 108.523 124.597Z" fill="#053D7B"/>
<path opacity="0.2" d="M101.344 162.038H111.545C111.647 161.133 111.75 160.257 111.84 159.403H101.817L101.344 162.038Z" fill="black"/>
<path opacity="0.2" d="M88.9258 162.038H89.9479L90.1537 159.403H89.1796C89.0767 160.448 88.9944 161.339 88.9258 162.038Z" fill="black"/>
</svg>
