<svg width="342" height="334" viewBox="0 0 342 334" fill="none" xmlns="http://www.w3.org/2000/svg">
<g clip-path="url(#clip0_1100_2160)">
<path d="M277.782 254.796C278.455 257.277 278.897 259.817 279.102 262.383C279.034 262.508 279.048 262.981 279.102 262.849C279.102 263.267 279.738 263.19 279.738 262.779C279.738 262.515 279.738 262.244 279.738 261.986C281.195 260.142 283.309 258.979 285.019 257.378C286.394 256.123 287.396 254.5 287.912 252.694C289.328 247.725 288.001 242.456 289.704 237.494C291.175 233.22 293.808 229.504 296.038 225.627C298.398 221.534 300.142 217.226 300.306 212.403C300.443 208.728 300.012 203.835 297.262 201.079C294.349 198.156 290.737 200.348 288.5 202.951C282.03 210.51 279.041 220.059 277.83 229.824C277.146 235.232 276.462 240.668 276.626 246.124C276.728 249.047 277.115 251.952 277.782 254.796Z" fill="#275991"/>
<path d="M279.076 264.366C278.721 259.266 278.78 254.144 279.253 249.054C279.253 249.054 279.253 249.054 279.253 248.998C279.171 244.864 278.85 240.737 279.007 236.596C279.21 232.114 279.81 227.66 280.799 223.288C280.799 223.239 280.888 223.253 280.881 223.288C280.085 227.584 279.612 231.935 279.465 236.303C279.383 238.635 279.397 240.981 279.52 243.312C279.561 244.078 279.63 244.843 279.677 245.609C281.369 233.989 285.498 222.875 291.784 213.022C291.866 212.89 292.099 213.022 292.017 213.168C287.53 220.659 284.208 228.81 282.167 237.333C285.232 231.473 289.951 226.643 293.44 221.005C293.44 221.005 293.508 221.005 293.494 221.005C290.362 227.269 285.184 232.232 281.866 238.405C281.292 240.929 280.836 243.481 280.498 246.061C280.033 249.571 279.781 253.106 279.746 256.647C281.728 253.121 283.534 249.495 285.156 245.783C285.197 245.679 285.341 245.748 285.307 245.853C283.993 249.813 282.215 254.079 279.732 257.455C279.732 259.967 279.794 262.473 279.937 264.979C280.327 271.66 281.449 278.258 281.989 284.919C281.994 284.96 281.982 285 281.957 285.032C281.932 285.064 281.896 285.085 281.856 285.09C281.816 285.094 281.776 285.082 281.745 285.057C281.713 285.032 281.693 284.994 281.688 284.954C280.36 278.159 279.487 271.281 279.076 264.366Z" fill="#263238"/>
<path d="M286.049 212.814C286.049 212.765 286.138 212.814 286.125 212.848C284.921 216.224 284.244 219.641 283.389 223.107C283.386 223.124 283.38 223.14 283.371 223.154C283.363 223.168 283.351 223.18 283.338 223.19C283.325 223.2 283.31 223.206 283.294 223.21C283.278 223.214 283.261 223.214 283.245 223.212C283.229 223.209 283.213 223.203 283.199 223.194C283.185 223.185 283.173 223.174 283.164 223.16C283.154 223.147 283.148 223.131 283.144 223.115C283.14 223.099 283.14 223.082 283.142 223.066C283.619 219.523 284.598 216.07 286.049 212.814Z" fill="#263238"/>
<path d="M255.578 226.964C256.37 228.944 257.284 230.871 258.314 232.734C260.476 236.729 262.726 240.39 263.137 245.032C263.202 247.114 263.493 249.182 264.005 251.198C264.573 252.918 265.386 254.544 266.42 256.022C268.759 259.502 271.687 262.481 273.855 266.086C276.112 269.841 277.781 273.932 278.8 278.21C278.855 278.447 279.217 278.384 279.163 278.148C279.157 278.132 279.157 278.115 279.163 278.099C279.166 278.083 279.166 278.066 279.163 278.05C279.505 268.076 278.725 258.033 275.743 248.484C274.422 244.285 272.837 240.177 270.996 236.186C269.49 232.658 267.312 229.469 264.587 226.804C262.767 225.133 258.814 221.966 256.214 223.644C254.997 224.451 255.086 225.718 255.578 226.964Z" fill="#275991"/>
<path d="M265.427 249.562C267.152 252.464 269.053 255.253 271.118 257.914C272.069 259.174 273.027 260.42 273.977 261.686C274.422 262.278 274.921 262.877 275.345 263.51C275.092 262.466 274.839 261.422 274.572 260.371C273.314 255.332 272.096 250.251 270.215 245.407C268.288 240.716 266.013 236.182 263.409 231.842C263.341 231.724 263.526 231.64 263.594 231.752C265.646 235.232 267.767 238.677 269.504 242.331C270.465 244.365 271.303 246.457 272.014 248.595C271.216 244.051 270.1 239.572 268.676 235.19C268.676 235.148 268.717 235.12 268.731 235.19C270.598 239.616 271.768 244.313 272.199 249.11C272.623 250.404 273.013 251.713 273.382 253.028C274.921 258.596 276.276 264.241 277.534 269.892C277.555 266.177 277.239 262.468 276.59 258.812C276.595 258.798 276.603 258.786 276.615 258.777C276.627 258.769 276.641 258.764 276.655 258.764C276.67 258.764 276.684 258.769 276.695 258.777C276.707 258.786 276.716 258.798 276.72 258.812C277.675 262.626 277.994 266.576 277.664 270.498C278.136 272.648 278.601 274.806 279.032 276.957C279.996 281.55 281.18 286.227 281.768 290.877C281.762 290.897 281.75 290.915 281.734 290.928C281.717 290.941 281.697 290.948 281.676 290.948C281.655 290.948 281.634 290.941 281.618 290.928C281.601 290.915 281.589 290.897 281.583 290.877C280.899 288.364 280.509 285.754 279.962 283.221C279.415 280.687 278.841 278.119 278.259 275.565C277.406 271.853 276.522 268.152 275.605 264.464C274.996 263.106 273.827 261.902 272.944 260.768C271.98 259.522 271.016 258.276 270.078 257.009C268.319 254.663 266.743 252.18 265.366 249.583C265.311 249.548 265.393 249.513 265.427 249.562Z" fill="#263238"/>
<path d="M265.011 245.296C267.167 248.111 269.032 251.142 270.579 254.344C270.579 254.386 270.538 254.428 270.51 254.386C268.636 251.4 266.796 248.387 264.922 245.394C264.888 245.296 264.97 245.255 265.011 245.296Z" fill="#263238"/>
<path d="M306.714 236.415C305.442 238.642 303.978 241.287 304.539 243.987C304.881 245.679 306.099 247.05 306.317 248.776C306.81 252.583 303.082 255.096 300.38 256.898C293.657 261.387 284.429 265.389 283.205 274.563C283.164 274.89 282.61 274.806 282.651 274.486C282.649 274.468 282.649 274.449 282.651 274.43C282.651 274.43 282.617 274.43 282.617 274.375C281.734 269.743 281.776 264.979 282.74 260.364C283.745 255.638 285.77 251.393 288.164 247.238C292.213 240.208 296.502 233.011 302.624 227.631C304.32 226.142 307.788 223.455 309.136 226.824C310.483 230.193 308.267 233.707 306.714 236.415Z" fill="#275991"/>
<path d="M300.55 251.317C296.09 256.23 289.004 258.973 285.16 264.485C287.307 256.109 291.361 248.365 296.993 241.879C297.137 241.712 296.911 241.468 296.747 241.628C292.639 245.688 289.356 250.528 287.082 255.876C288.14 252.144 289.532 248.519 291.241 245.046C291.251 245.019 291.252 244.99 291.243 244.964C291.234 244.937 291.215 244.914 291.191 244.9C291.167 244.886 291.139 244.88 291.112 244.885C291.084 244.891 291.06 244.905 291.042 244.927C288.925 248.729 287.41 252.846 286.555 257.128C281.5 269.587 281.028 284.203 282.089 297.336C282.089 297.524 282.39 297.531 282.383 297.336C282.089 286.987 282.253 276.456 284.695 266.35C284.743 266.135 284.804 265.926 284.852 265.717C289.031 259.794 296.09 257.052 300.632 251.421C300.673 251.338 300.605 251.261 300.55 251.317Z" fill="#263238"/>
<path d="M301.591 247.098C299.245 249.284 296.94 251.518 294.594 253.703C294.594 253.703 294.594 253.766 294.635 253.745C297.287 251.925 299.675 249.734 301.728 247.237C301.746 247.219 301.756 247.194 301.756 247.168C301.756 247.142 301.746 247.117 301.728 247.098C301.71 247.08 301.685 247.069 301.659 247.069C301.634 247.069 301.609 247.08 301.591 247.098Z" fill="#263238"/>
<path d="M301.959 237.64C299.888 241.095 297.545 244.375 294.955 247.446C294.921 247.488 294.955 247.544 295.01 247.502C297.919 244.692 300.313 241.379 302.082 237.716C302.123 237.64 302.007 237.542 301.959 237.64Z" fill="#263238"/>
<path d="M291.419 306.572H270.906L273.67 278.495H288.259L291.419 306.572Z" fill="#455A64"/>
<path d="M288.773 283.061H273.219L273.67 278.495H288.26L288.773 283.061Z" fill="#263238"/>
<path d="M290.771 275.384H271.551V279.866H290.771V275.384Z" fill="#455A64"/>
<path d="M32.4492 306.572L67.087 306.405L101.725 306.342L171 306.224L240.276 306.342L274.914 306.405L309.551 306.572L274.914 306.746L240.276 306.808L171 306.92L101.725 306.801L67.087 306.746L32.4492 306.572Z" fill="#263238"/>
<path d="M248.742 47.3604H136.265C134.754 47.374 133.26 47.6911 131.869 48.2937C130.478 48.8962 129.218 49.7722 128.16 50.8715C127.103 51.9708 126.269 53.2717 125.707 54.6996C125.144 56.1274 124.865 57.6542 124.884 59.1924V294.781C124.865 297.875 126.053 300.851 128.186 303.055C130.32 305.26 133.225 306.514 136.265 306.544H248.742C251.79 306.516 254.701 305.259 256.838 303.048C258.975 300.838 260.162 297.854 260.138 294.754V59.1575C260.151 57.6214 259.867 56.0977 259.302 54.6733C258.736 53.2489 257.901 51.9519 256.842 50.8563C255.784 49.7608 254.524 48.8881 253.134 48.2883C251.744 47.6884 250.252 47.3731 248.742 47.3604ZM253.024 287.48C253.024 293.682 248.462 298.7 242.833 298.7H142.196C136.553 298.7 131.99 293.682 131.99 287.48V68.0872C131.99 55.4548 136.553 54.8632 142.196 54.8632H162.353C163.523 54.8632 164.48 56.2552 164.48 57.8978V58.5938C164.48 62.5262 166.594 62.5401 169.2 62.5401H215.815C218.434 62.5401 220.534 62.5401 220.534 58.5938V57.8978C220.534 56.2204 221.478 54.8632 222.668 54.8632H242.819C248.448 54.8632 253.011 56.5476 253.011 68.0872L253.024 287.48Z" fill="#263238"/>
<path d="M198.865 57.6261H186.15C185.942 57.6261 185.743 57.5427 185.596 57.3941C185.449 57.2455 185.365 57.0437 185.363 56.8326C185.363 56.6203 185.446 56.4168 185.594 56.2667C185.741 56.1166 185.941 56.0322 186.15 56.0322H198.865C199.074 56.0322 199.274 56.1166 199.422 56.2667C199.569 56.4168 199.652 56.6203 199.652 56.8326C199.65 57.0437 199.567 57.2455 199.419 57.3941C199.272 57.5427 199.073 57.6261 198.865 57.6261Z" fill="white"/>
<path d="M253.026 68.0876V287.495C253.026 293.696 248.464 298.714 242.834 298.714H142.204C136.561 298.714 131.992 293.696 131.992 287.495V68.0876C131.992 55.4552 136.561 54.8636 142.204 54.8636H162.355C163.525 54.8636 164.482 56.2556 164.482 57.8982V58.5942C164.482 62.5266 166.603 62.5405 169.202 62.5405H215.816C218.443 62.5405 220.536 62.5405 220.536 58.5942V57.8982C220.536 56.2208 221.48 54.8636 222.67 54.8636H242.821C248.464 54.8358 253.026 56.5201 253.026 68.0876Z" fill="white"/>
<path d="M142.748 75.3182L140.594 73.265L142.748 71.2188L143.084 71.5807L141.305 73.265L143.084 74.9563L142.748 75.3182Z" fill="#DBDBDB"/>
<path d="M238.715 72.5557C238.851 72.5557 238.983 72.5965 239.095 72.673C239.208 72.7494 239.295 72.8581 239.347 72.9853C239.399 73.1125 239.412 73.2524 239.386 73.3874C239.36 73.5225 239.295 73.6465 239.199 73.7438C239.103 73.8411 238.981 73.9074 238.849 73.9343C238.716 73.9611 238.578 73.9474 238.453 73.8947C238.329 73.842 238.222 73.7528 238.147 73.6383C238.071 73.5239 238.031 73.3893 238.031 73.2517C238.031 73.0671 238.103 72.89 238.232 72.7595C238.36 72.629 238.534 72.5557 238.715 72.5557Z" fill="#DBDBDB"/>
<path d="M241.219 72.5557C241.354 72.5557 241.487 72.5965 241.599 72.673C241.712 72.7494 241.799 72.8581 241.851 72.9853C241.903 73.1125 241.916 73.2524 241.89 73.3874C241.864 73.5225 241.798 73.6465 241.703 73.7438C241.607 73.8411 241.485 73.9074 241.353 73.9343C241.22 73.9611 241.082 73.9474 240.957 73.8947C240.832 73.842 240.726 73.7528 240.65 73.6383C240.575 73.5239 240.535 73.3893 240.535 73.2517C240.535 73.0671 240.607 72.89 240.735 72.7595C240.864 72.629 241.038 72.5557 241.219 72.5557Z" fill="#DBDBDB"/>
<path d="M243.723 72.5557C243.858 72.5557 243.991 72.5965 244.103 72.673C244.216 72.7494 244.303 72.8581 244.355 72.9853C244.407 73.1125 244.42 73.2524 244.394 73.3874C244.368 73.5225 244.302 73.6465 244.207 73.7438C244.111 73.8411 243.989 73.9074 243.856 73.9343C243.724 73.9611 243.586 73.9474 243.461 73.8947C243.336 73.842 243.229 73.7528 243.154 73.6383C243.079 73.5239 243.039 73.3893 243.039 73.2517C243.039 73.0671 243.111 72.89 243.239 72.7595C243.368 72.629 243.542 72.5557 243.723 72.5557Z" fill="#DBDBDB"/>
<path d="M158.877 59.7629L158.678 59.9648C158.644 59.9648 158.603 60.0344 158.569 60.0761C158.323 59.8243 158.03 59.6244 157.708 59.4879C157.386 59.3515 157.04 59.2813 156.691 59.2813C156.342 59.2813 155.997 59.3515 155.674 59.4879C155.352 59.6244 155.06 59.8243 154.814 60.0761L154.711 59.9648L154.52 59.7699C154.602 59.6934 154.677 59.6168 154.766 59.5472C154.94 59.402 155.131 59.2781 155.333 59.1783C155.572 59.0584 155.825 58.9718 156.086 58.9208L156.469 58.8721H156.797C156.879 58.8721 156.968 58.8721 157.05 58.8721C157.284 58.8976 157.514 58.9537 157.734 59.0391C157.895 59.1005 158.051 59.175 158.199 59.2618C158.36 59.3533 158.511 59.4605 158.651 59.582C158.719 59.6377 158.788 59.7073 158.856 59.7699L158.877 59.7629Z" fill="#C7C7C7"/>
<path d="M155.429 60.6957L155.121 60.3895C155.456 60.0388 155.897 59.8132 156.373 59.7491C156.714 59.6962 157.063 59.7259 157.391 59.836C157.719 59.946 158.017 60.1333 158.261 60.3825L157.953 60.6957C157.617 60.357 157.164 60.1669 156.691 60.1669C156.218 60.1669 155.765 60.357 155.429 60.6957Z" fill="#C7C7C7"/>
<path d="M157.644 61.0088L157.336 61.322C157.164 61.1481 156.932 61.0505 156.69 61.0505C156.447 61.0505 156.215 61.1481 156.043 61.322L155.742 61.0157C155.996 60.7639 156.337 60.6224 156.692 60.6211C157.046 60.6198 157.388 60.7588 157.644 61.0088Z" fill="#C7C7C7"/>
<path d="M156.968 61.6071C156.957 61.6743 156.924 61.7355 156.873 61.7796C156.822 61.8238 156.757 61.8481 156.691 61.8481C156.624 61.8481 156.559 61.8238 156.508 61.7796C156.458 61.7355 156.424 61.6743 156.414 61.6071C156.407 61.5664 156.41 61.5248 156.421 61.4851C156.432 61.4454 156.451 61.4086 156.477 61.3773C156.504 61.346 156.536 61.3208 156.573 61.3035C156.61 61.2863 156.65 61.2773 156.691 61.2773C156.731 61.2773 156.771 61.2863 156.808 61.3035C156.845 61.3208 156.877 61.346 156.904 61.3773C156.93 61.4086 156.949 61.4454 156.96 61.4851C156.971 61.5248 156.974 61.5664 156.968 61.6071Z" fill="#C7C7C7"/>
<path d="M139.883 60.362C139.884 60.2013 139.932 60.0445 140.021 59.9115C140.11 59.7786 140.235 59.6753 140.382 59.6147C140.528 59.5541 140.689 59.539 140.843 59.5712C140.998 59.6034 141.14 59.6815 141.251 59.7956C141.363 59.9098 141.438 60.0549 141.468 60.2127C141.499 60.3704 141.483 60.5338 141.422 60.6822C141.361 60.8306 141.258 60.9574 141.127 61.0466C140.996 61.1357 140.841 61.1833 140.683 61.1833C140.577 61.1833 140.473 61.162 140.375 61.1207C140.278 61.0793 140.189 61.0187 140.115 60.9424C140.04 60.866 139.982 60.7754 139.942 60.6758C139.902 60.5762 139.882 60.4696 139.883 60.362Z" fill="#C7C7C7"/>
<path d="M142.406 60.3613C142.406 60.1989 142.454 60.0401 142.542 59.905C142.631 59.77 142.757 59.6647 142.905 59.6026C143.052 59.5404 143.214 59.5241 143.371 59.5558C143.527 59.5875 143.671 59.6657 143.784 59.7806C143.897 59.8954 143.974 60.0418 144.005 60.2011C144.036 60.3604 144.02 60.5255 143.959 60.6756C143.898 60.8257 143.795 60.9539 143.662 61.0442C143.529 61.1344 143.373 61.1826 143.213 61.1826C142.999 61.1826 142.794 61.0961 142.643 60.9421C142.491 60.788 142.406 60.5791 142.406 60.3613Z" fill="#C7C7C7"/>
<path d="M144.938 60.362C144.939 60.2013 144.987 60.0445 145.076 59.9115C145.164 59.7786 145.29 59.6753 145.436 59.6147C145.583 59.5541 145.743 59.539 145.898 59.5712C146.053 59.6034 146.195 59.6815 146.306 59.7956C146.417 59.9098 146.493 60.0549 146.523 60.2127C146.554 60.3704 146.537 60.5338 146.476 60.6822C146.416 60.8306 146.313 60.9574 146.182 61.0466C146.05 61.1357 145.896 61.1833 145.738 61.1833C145.632 61.1833 145.528 61.162 145.43 61.1207C145.332 61.0793 145.244 61.0187 145.17 60.9424C145.095 60.866 145.036 60.7754 144.996 60.6758C144.957 60.5762 144.937 60.4696 144.938 60.362Z" fill="#C7C7C7"/>
<path d="M147.461 60.3613C147.461 60.1986 147.508 60.0395 147.597 59.9043C147.686 59.7691 147.813 59.6638 147.961 59.6019C148.109 59.5399 148.271 59.5241 148.428 59.5563C148.585 59.5886 148.729 59.6675 148.841 59.7831C148.954 59.8986 149.03 60.0456 149.06 60.2054C149.091 60.3651 149.074 60.5305 149.012 60.6804C148.95 60.8304 148.845 60.9582 148.711 61.0476C148.578 61.137 148.421 61.1839 148.261 61.1826C148.048 61.1807 147.845 61.0934 147.695 60.9396C147.545 60.7858 147.461 60.5779 147.461 60.3613Z" fill="#C7C7C7"/>
<path d="M149.988 60.3613C149.988 60.1989 150.036 60.0401 150.124 59.905C150.213 59.77 150.339 59.6647 150.487 59.6026C150.634 59.5404 150.796 59.5241 150.953 59.5558C151.109 59.5875 151.253 59.6657 151.366 59.7806C151.479 59.8954 151.556 60.0418 151.587 60.2011C151.618 60.3604 151.602 60.5255 151.541 60.6756C151.48 60.8257 151.377 60.9539 151.244 61.0442C151.111 61.1344 150.955 61.1826 150.795 61.1826C150.689 61.1826 150.584 61.1614 150.487 61.1201C150.389 61.0788 150.3 61.0183 150.225 60.9421C150.15 60.8658 150.09 60.7753 150.05 60.6756C150.009 60.576 149.988 60.4692 149.988 60.3613Z" fill="#C7C7C7"/>
<path d="M243.949 62.1508H237.41V59.0605H243.949V62.1508ZM237.752 61.8028H243.607V59.4085H237.752V61.8028Z" fill="#C7C7C7"/>
<path d="M242.164 59.5889H237.957V61.6212H242.164V59.5889Z" fill="#C7C7C7"/>
<path d="M244.531 59.7842H243.949V61.4337H244.531V59.7842Z" fill="#C7C7C7"/>
<path d="M189.305 106.137C189.305 106.86 189.515 107.567 189.91 108.167C190.304 108.768 190.865 109.237 191.521 109.513C192.178 109.79 192.9 109.862 193.596 109.721C194.293 109.58 194.933 109.232 195.435 108.721C195.937 108.21 196.279 107.559 196.418 106.85C196.556 106.141 196.485 105.407 196.213 104.739C195.942 104.071 195.481 103.501 194.891 103.099C194.3 102.698 193.606 102.483 192.896 102.483C191.943 102.483 191.03 102.868 190.356 103.554C189.683 104.239 189.305 105.168 189.305 106.137Z" fill="#275991"/>
<path opacity="0.9" d="M172.086 110.864C172.086 111.552 172.287 112.225 172.662 112.797C173.038 113.369 173.572 113.815 174.197 114.079C174.822 114.342 175.51 114.411 176.173 114.277C176.837 114.143 177.446 113.811 177.924 113.325C178.403 112.838 178.728 112.218 178.86 111.543C178.992 110.868 178.924 110.168 178.666 109.532C178.407 108.896 177.968 108.353 177.406 107.97C176.844 107.588 176.182 107.384 175.506 107.384C174.599 107.384 173.729 107.75 173.088 108.403C172.446 109.056 172.086 109.941 172.086 110.864Z" fill="#275991"/>
<path opacity="0.8" d="M161.383 122.925C161.381 123.578 161.57 124.216 161.926 124.76C162.281 125.303 162.787 125.727 163.38 125.978C163.972 126.229 164.624 126.295 165.253 126.168C165.883 126.042 166.461 125.728 166.915 125.267C167.369 124.806 167.679 124.218 167.804 123.578C167.93 122.938 167.866 122.274 167.621 121.671C167.376 121.068 166.96 120.552 166.427 120.189C165.894 119.826 165.267 119.633 164.625 119.633C163.766 119.633 162.943 119.979 162.335 120.597C161.727 121.214 161.385 122.051 161.383 122.925Z" fill="#275991"/>
<path opacity="0.7" d="M160.901 142.239C162.59 142.239 163.959 140.846 163.959 139.128C163.959 137.409 162.59 136.017 160.901 136.017C159.213 136.017 157.844 137.409 157.844 139.128C157.844 140.846 159.213 142.239 160.901 142.239Z" fill="#275991"/>
<path opacity="0.6" d="M161.457 154.42C161.457 155 161.626 155.568 161.943 156.051C162.261 156.534 162.711 156.911 163.239 157.133C163.766 157.355 164.347 157.414 164.907 157.3C165.467 157.187 165.981 156.907 166.385 156.496C166.788 156.086 167.063 155.562 167.175 154.993C167.286 154.423 167.229 153.832 167.01 153.296C166.792 152.759 166.422 152.3 165.947 151.977C165.472 151.655 164.914 151.482 164.344 151.482C163.578 151.482 162.844 151.792 162.302 152.343C161.761 152.894 161.457 153.641 161.457 154.42Z" fill="#275991"/>
<path opacity="0.5" d="M172.168 166.927C172.168 167.477 172.328 168.015 172.629 168.473C172.93 168.931 173.357 169.288 173.857 169.499C174.357 169.709 174.907 169.765 175.438 169.657C175.968 169.55 176.456 169.285 176.839 168.895C177.221 168.506 177.482 168.01 177.587 167.47C177.693 166.93 177.639 166.37 177.432 165.861C177.225 165.352 176.874 164.918 176.424 164.612C175.974 164.306 175.445 164.143 174.904 164.143C174.178 164.143 173.482 164.436 172.969 164.958C172.456 165.48 172.168 166.188 172.168 166.927Z" fill="#275991"/>
<path opacity="0.4" d="M190.473 172.153C190.473 172.663 190.621 173.161 190.899 173.584C191.177 174.008 191.573 174.338 192.035 174.532C192.497 174.727 193.006 174.778 193.497 174.679C193.988 174.58 194.439 174.334 194.793 173.974C195.147 173.614 195.388 173.155 195.486 172.656C195.583 172.156 195.533 171.638 195.342 171.168C195.15 170.697 194.826 170.295 194.409 170.012C193.993 169.729 193.504 169.578 193.003 169.578C192.332 169.578 191.689 169.849 191.214 170.332C190.739 170.815 190.473 171.47 190.473 172.153Z" fill="#275991"/>
<path opacity="0.3" d="M209.008 166.522C209.006 166.997 209.144 167.462 209.402 167.858C209.661 168.254 210.029 168.563 210.46 168.746C210.891 168.928 211.366 168.977 211.824 168.885C212.282 168.793 212.703 168.565 213.034 168.23C213.365 167.894 213.59 167.466 213.682 167C213.773 166.534 213.727 166.051 213.548 165.612C213.37 165.173 213.068 164.797 212.679 164.533C212.291 164.269 211.835 164.128 211.368 164.128C211.058 164.127 210.751 164.188 210.465 164.308C210.179 164.428 209.919 164.604 209.699 164.827C209.48 165.049 209.306 165.313 209.188 165.604C209.069 165.895 209.008 166.207 209.008 166.522Z" fill="#275991"/>
<path opacity="0.2" d="M219.645 153.424C219.643 153.864 219.77 154.294 220.009 154.66C220.248 155.026 220.588 155.311 220.987 155.48C221.385 155.65 221.824 155.694 222.248 155.61C222.672 155.525 223.061 155.314 223.367 155.004C223.673 154.693 223.881 154.298 223.966 153.867C224.051 153.436 224.008 152.989 223.843 152.583C223.678 152.177 223.398 151.83 223.039 151.586C222.68 151.341 222.258 151.211 221.827 151.211C221.249 151.211 220.695 151.444 220.286 151.859C219.877 152.274 219.646 152.837 219.645 153.424Z" fill="#275991"/>
<path opacity="0.1" d="M223.168 138.808C223.168 139.211 223.286 139.605 223.506 139.941C223.726 140.276 224.039 140.538 224.405 140.692C224.771 140.846 225.174 140.887 225.563 140.808C225.952 140.729 226.309 140.535 226.589 140.25C226.87 139.965 227.06 139.601 227.138 139.206C227.215 138.81 227.175 138.4 227.024 138.027C226.872 137.655 226.615 137.336 226.286 137.112C225.956 136.888 225.568 136.769 225.172 136.769C224.641 136.769 224.131 136.983 223.755 137.366C223.379 137.748 223.168 138.267 223.168 138.808Z" fill="#275991"/>
<path opacity="0.05" d="M219.986 121.86C220.995 121.86 221.813 121.028 221.813 120.002C221.813 118.976 220.995 118.144 219.986 118.144C218.978 118.144 218.16 118.976 218.16 120.002C218.16 121.028 218.978 121.86 219.986 121.86Z" fill="#275991"/>
<path opacity="0.01" d="M205.883 109.436C205.883 109.769 205.98 110.095 206.162 110.372C206.344 110.649 206.602 110.865 206.905 110.992C207.207 111.12 207.54 111.153 207.861 111.088C208.182 111.023 208.477 110.863 208.709 110.627C208.94 110.392 209.098 110.092 209.162 109.765C209.225 109.438 209.193 109.099 209.067 108.792C208.942 108.484 208.73 108.221 208.458 108.036C208.186 107.851 207.865 107.752 207.538 107.752C207.32 107.751 207.105 107.794 206.904 107.878C206.702 107.963 206.52 108.087 206.366 108.243C206.212 108.4 206.09 108.586 206.007 108.791C205.924 108.995 205.882 109.215 205.883 109.436Z" fill="#275991"/>
<path d="M192.266 146.923C193.847 146.915 195.389 146.43 196.699 145.53C198.009 144.63 199.028 143.356 199.626 141.867C200.224 140.378 200.376 138.743 200.061 137.167C199.746 135.591 198.979 134.145 197.857 133.012C196.735 131.879 195.309 131.11 193.757 130.802C192.206 130.494 190.6 130.66 189.142 131.28C187.683 131.901 186.438 132.947 185.564 134.286C184.69 135.626 184.225 137.2 184.229 138.808C184.232 139.878 184.442 140.937 184.848 141.925C185.253 142.912 185.846 143.809 186.593 144.562C187.339 145.316 188.225 145.913 189.198 146.318C190.172 146.723 191.214 146.929 192.266 146.923ZM185.2 138.808C185.192 137.396 185.596 136.013 186.36 134.834C187.125 133.655 188.216 132.733 189.495 132.185C190.774 131.637 192.184 131.487 193.547 131.755C194.91 132.022 196.164 132.695 197.151 133.687C198.139 134.68 198.814 135.949 199.093 137.332C199.372 138.716 199.241 140.152 198.717 141.46C198.194 142.768 197.301 143.889 196.151 144.68C195.002 145.472 193.647 145.899 192.259 145.907C190.399 145.916 188.61 145.174 187.287 143.843C185.964 142.512 185.213 140.701 185.2 138.808ZM192.266 146.902C193.848 146.894 195.391 146.409 196.702 145.508C198.012 144.607 199.03 143.331 199.628 141.841C200.226 140.351 200.376 138.715 200.059 137.138C199.743 135.561 198.974 134.116 197.85 132.984C196.726 131.852 195.297 131.084 193.745 130.778C192.192 130.473 190.585 130.642 189.127 131.265C187.669 131.889 186.426 132.938 185.554 134.281C184.682 135.623 184.221 137.199 184.229 138.808C184.232 139.878 184.442 140.937 184.848 141.925C185.253 142.912 185.846 143.809 186.593 144.562C187.339 145.316 188.225 145.913 189.198 146.318C190.172 146.723 191.214 146.929 192.266 146.923V146.902ZM185.2 138.808C185.192 137.396 185.596 136.013 186.36 134.834C187.125 133.655 188.216 132.733 189.495 132.185C190.774 131.637 192.184 131.487 193.547 131.755C194.91 132.022 196.164 132.695 197.151 133.687C198.139 134.68 198.814 135.949 199.093 137.332C199.372 138.716 199.241 140.152 198.717 141.46C198.194 142.768 197.301 143.889 196.151 144.68C195.002 145.472 193.647 145.899 192.259 145.907C190.399 145.916 188.61 145.174 187.287 143.843C185.964 142.512 185.213 140.701 185.2 138.808ZM192.266 146.902C193.848 146.894 195.391 146.409 196.702 145.508C198.012 144.607 199.03 143.331 199.628 141.841C200.226 140.351 200.376 138.715 200.059 137.138C199.743 135.561 198.974 134.116 197.85 132.984C196.726 131.852 195.297 131.084 193.745 130.778C192.192 130.473 190.585 130.642 189.127 131.265C187.669 131.889 186.426 132.938 185.554 134.281C184.682 135.623 184.221 137.199 184.229 138.808C184.232 139.878 184.442 140.937 184.848 141.925C185.253 142.912 185.846 143.809 186.593 144.562C187.339 145.316 188.225 145.913 189.198 146.318C190.172 146.723 191.214 146.929 192.266 146.923V146.902ZM185.2 138.808C185.192 137.396 185.596 136.013 186.36 134.834C187.125 133.655 188.216 132.733 189.495 132.185C190.774 131.637 192.184 131.487 193.547 131.755C194.91 132.022 196.164 132.695 197.151 133.687C198.139 134.68 198.814 135.949 199.093 137.332C199.372 138.716 199.241 140.152 198.717 141.46C198.194 142.768 197.301 143.889 196.151 144.68C195.002 145.472 193.647 145.899 192.259 145.907C190.399 145.916 188.61 145.174 187.287 143.843C185.964 142.512 185.213 140.701 185.2 138.808ZM192.314 155.909C195.646 155.889 198.898 154.865 201.658 152.965C204.418 151.065 206.562 148.375 207.82 145.235C209.077 142.095 209.391 138.646 208.722 135.324C208.053 132.002 206.43 128.957 204.06 126.574C201.69 124.19 198.679 122.576 195.407 121.934C192.135 121.292 188.749 121.652 185.678 122.968C182.607 124.285 179.989 126.498 178.154 129.329C176.32 132.159 175.351 135.48 175.371 138.871C175.382 141.123 175.829 143.351 176.686 145.428C177.544 147.504 178.795 149.388 180.369 150.973C181.942 152.557 183.807 153.81 185.857 154.661C187.906 155.511 190.101 155.942 192.314 155.93V155.909ZM182.984 138.822C182.974 136.964 183.505 135.144 184.51 133.593C185.516 132.041 186.951 130.828 188.634 130.107C190.317 129.386 192.173 129.189 193.966 129.54C195.759 129.892 197.41 130.777 198.709 132.083C200.008 133.389 200.897 135.058 201.264 136.879C201.631 138.699 201.459 140.589 200.77 142.311C200.081 144.032 198.906 145.506 197.394 146.548C195.881 147.589 194.099 148.151 192.273 148.162C189.829 148.173 187.479 147.199 185.739 145.453C183.998 143.707 183.008 141.33 182.984 138.843V138.822ZM184.229 138.822C184.236 140.43 184.711 142.001 185.595 143.335C186.478 144.669 187.731 145.706 189.194 146.316C190.656 146.926 192.264 147.081 193.813 146.761C195.363 146.442 196.784 145.662 197.898 144.521C199.012 143.379 199.769 141.927 200.072 140.349C200.376 138.77 200.213 137.135 199.603 135.651C198.994 134.167 197.966 132.9 196.649 132.01C195.332 131.12 193.785 130.647 192.205 130.651C190.085 130.658 188.054 131.521 186.559 133.051C185.063 134.58 184.226 136.651 184.229 138.808V138.822ZM185.2 138.822C185.192 137.41 185.596 136.027 186.36 134.848C187.125 133.669 188.216 132.747 189.495 132.199C190.774 131.651 192.184 131.501 193.547 131.768C194.91 132.036 196.164 132.709 197.151 133.701C198.139 134.694 198.814 135.963 199.093 137.346C199.372 138.73 199.241 140.166 198.717 141.474C198.194 142.782 197.301 143.903 196.151 144.694C195.002 145.486 193.647 145.913 192.259 145.921C191.337 145.926 190.423 145.745 189.569 145.39C188.715 145.035 187.938 144.513 187.282 143.852C186.627 143.192 186.105 142.406 185.748 141.541C185.391 140.675 185.205 139.747 185.2 138.808V138.822ZM192.266 146.916C193.847 146.908 195.39 146.423 196.7 145.523C198.01 144.623 199.029 143.347 199.627 141.858C200.225 140.369 200.376 138.733 200.06 137.157C199.745 135.581 198.978 134.135 197.855 133.003C196.732 131.87 195.305 131.101 193.753 130.794C192.201 130.487 190.595 130.654 189.137 131.275C187.679 131.897 186.434 132.944 185.561 134.285C184.687 135.625 184.224 137.199 184.229 138.808C184.232 139.878 184.442 140.937 184.848 141.925C185.253 142.912 185.846 143.809 186.593 144.562C187.339 145.316 188.225 145.913 189.198 146.318C190.172 146.723 191.214 146.929 192.266 146.923V146.916ZM185.2 138.808C185.192 137.396 185.596 136.013 186.36 134.834C187.125 133.655 188.216 132.733 189.495 132.185C190.774 131.637 192.184 131.487 193.547 131.755C194.91 132.022 196.164 132.695 197.151 133.687C198.139 134.68 198.814 135.949 199.093 137.332C199.372 138.716 199.241 140.152 198.717 141.46C198.194 142.768 197.301 143.889 196.151 144.68C195.002 145.472 193.647 145.899 192.259 145.907C190.399 145.916 188.61 145.174 187.287 143.843C185.964 142.512 185.213 140.701 185.2 138.808ZM192.266 146.902C193.848 146.894 195.391 146.409 196.702 145.508C198.012 144.607 199.03 143.331 199.628 141.841C200.226 140.351 200.376 138.715 200.059 137.138C199.743 135.561 198.974 134.116 197.85 132.984C196.726 131.852 195.297 131.084 193.745 130.778C192.192 130.473 190.585 130.642 189.127 131.265C187.669 131.889 186.426 132.938 185.554 134.281C184.682 135.623 184.221 137.199 184.229 138.808C184.232 139.878 184.442 140.937 184.848 141.925C185.253 142.912 185.846 143.809 186.593 144.562C187.339 145.316 188.225 145.913 189.198 146.318C190.172 146.723 191.214 146.929 192.266 146.923V146.902ZM185.2 138.808C185.192 137.396 185.596 136.013 186.36 134.834C187.125 133.655 188.216 132.733 189.495 132.185C190.774 131.637 192.184 131.487 193.547 131.755C194.91 132.022 196.164 132.695 197.151 133.687C198.139 134.68 198.814 135.949 199.093 137.332C199.372 138.716 199.241 140.152 198.717 141.46C198.194 142.768 197.301 143.889 196.151 144.68C195.002 145.472 193.647 145.899 192.259 145.907C190.399 145.916 188.61 145.174 187.287 143.843C185.964 142.512 185.213 140.701 185.2 138.808Z" fill="#275991"/>
<path d="M188.887 122.375L195.364 122.333L194.981 117.67L189.215 117.705L188.887 122.375Z" fill="#275991"/>
<path d="M201.227 124.518L205.837 129.154L208.805 125.576L204.708 121.456L201.227 124.518Z" fill="#275991"/>
<path d="M208.461 134.917L208.502 141.508L213.085 141.118L213.051 135.258L208.461 134.917Z" fill="#275991"/>
<path d="M206.356 147.479L201.801 152.171L205.317 155.191L209.366 151.015L206.356 147.479Z" fill="#275991"/>
<path d="M196.138 154.844L189.66 154.886L190.043 159.549L195.802 159.514L196.138 154.844Z" fill="#275991"/>
<path d="M183.79 152.7L179.179 148.064L176.211 151.642L180.315 155.762L183.79 152.7Z" fill="#275991"/>
<path d="M176.554 142.295L176.512 135.704L171.93 136.101L171.964 141.961L176.554 142.295Z" fill="#275991"/>
<path d="M178.659 129.739L183.214 125.048L179.706 122.027L175.656 126.196L178.659 129.739Z" fill="#275991"/>
<path d="M232.872 195.344H152.16V188.495H232.872V195.344ZM152.482 194.996H232.558V188.843H152.53L152.482 194.996Z" fill="#275991"/>
<path d="M156.69 189.908H153.797V193.938H156.69V189.908Z" fill="#275991"/>
<path d="M160.682 189.908H157.789V193.938H160.682V189.908Z" fill="#275991"/>
<path d="M164.686 189.908H161.793V193.938H164.686V189.908Z" fill="#275991"/>
<path d="M168.678 189.908H165.785V193.938H168.678V189.908Z" fill="#275991"/>
<path d="M172.682 189.908H169.789V193.938H172.682V189.908Z" fill="#275991"/>
<path d="M176.675 189.908H173.781V193.938H176.675V189.908Z" fill="#275991"/>
<path d="M180.678 189.908H177.785V193.938H180.678V189.908Z" fill="#275991"/>
<path d="M184.671 189.908H181.777V193.938H184.671V189.908Z" fill="#275991"/>
<path d="M188.675 189.908H185.781V193.938H188.675V189.908Z" fill="#275991"/>
<path d="M192.667 189.908H189.773V193.938H192.667V189.908Z" fill="#275991"/>
<path d="M196.671 189.908H193.777V193.938H196.671V189.908Z" fill="#275991"/>
<path d="M200.663 189.908H197.77V193.938H200.663V189.908Z" fill="#275991"/>
<path d="M223.509 190.938L222.503 193.36C222.487 193.401 222.458 193.435 222.421 193.459C222.385 193.482 222.342 193.494 222.298 193.492H222.216C222.162 193.468 222.119 193.423 222.096 193.367C222.073 193.312 222.072 193.249 222.093 193.193L222.962 191.105H221.922C221.863 191.103 221.808 191.078 221.767 191.035C221.726 190.992 221.703 190.935 221.703 190.875C221.703 190.816 221.726 190.759 221.767 190.718C221.808 190.676 221.864 190.652 221.922 190.652H223.345L223.427 190.687V190.778L223.509 190.938Z" fill="#275991"/>
<path d="M223.989 192.059C223.981 191.714 224.077 191.374 224.262 191.085C224.334 190.948 224.441 190.833 224.572 190.754C224.702 190.674 224.852 190.632 225.004 190.632C225.157 190.632 225.306 190.674 225.437 190.754C225.568 190.833 225.675 190.948 225.747 191.085C225.932 191.374 226.028 191.714 226.02 192.059C226.028 192.407 225.932 192.749 225.747 193.04C225.675 193.177 225.568 193.292 225.437 193.371C225.306 193.451 225.157 193.493 225.004 193.493C224.852 193.493 224.702 193.451 224.572 193.371C224.441 193.292 224.334 193.177 224.262 193.04C224.076 192.749 223.981 192.407 223.989 192.059ZM225.576 192.059C225.575 191.813 225.506 191.571 225.377 191.363C225.342 191.292 225.29 191.232 225.225 191.188C225.16 191.144 225.085 191.118 225.008 191.113C224.929 191.119 224.852 191.145 224.785 191.188C224.718 191.232 224.663 191.292 224.625 191.363C224.502 191.574 224.436 191.814 224.433 192.059C224.434 192.304 224.5 192.545 224.625 192.755C224.663 192.826 224.718 192.887 224.785 192.932C224.852 192.977 224.928 193.005 225.008 193.013C225.086 193.005 225.16 192.977 225.225 192.932C225.29 192.887 225.342 192.826 225.377 192.755C225.507 192.547 225.576 192.306 225.576 192.059Z" fill="#275991"/>
<path d="M226.802 191.335C226.802 191.15 226.874 190.973 227.002 190.843C227.13 190.712 227.304 190.639 227.486 190.639C227.667 190.639 227.841 190.712 227.969 190.843C228.098 190.973 228.17 191.15 228.17 191.335C228.174 191.429 228.16 191.523 228.128 191.612C228.095 191.7 228.046 191.781 227.982 191.85C227.918 191.918 227.841 191.972 227.756 192.01C227.67 192.047 227.578 192.066 227.486 192.066C227.393 192.066 227.301 192.047 227.216 192.01C227.13 191.972 227.053 191.918 226.989 191.85C226.925 191.781 226.876 191.7 226.844 191.612C226.811 191.523 226.797 191.429 226.802 191.335ZM227.766 191.335C227.766 191.105 227.636 190.917 227.458 190.917C227.28 190.917 227.157 191.105 227.157 191.328C227.157 191.565 227.287 191.746 227.465 191.746C227.643 191.746 227.773 191.558 227.773 191.335H227.766ZM227.26 193.249L229.107 190.681C229.121 190.657 229.141 190.638 229.165 190.626C229.189 190.613 229.217 190.608 229.244 190.611C229.285 190.611 229.325 190.628 229.355 190.658C229.384 190.688 229.401 190.729 229.401 190.771C229.401 190.809 229.389 190.845 229.367 190.876L227.52 193.437C227.506 193.461 227.485 193.48 227.461 193.494C227.437 193.507 227.41 193.514 227.383 193.513C227.362 193.513 227.342 193.509 227.323 193.501C227.304 193.493 227.286 193.481 227.272 193.466C227.257 193.452 227.246 193.434 227.238 193.415C227.23 193.395 227.226 193.374 227.226 193.353C227.226 193.316 227.238 193.279 227.26 193.249ZM228.498 192.803C228.473 192.701 228.471 192.594 228.492 192.49C228.514 192.387 228.558 192.289 228.622 192.206C228.686 192.123 228.768 192.055 228.861 192.009C228.955 191.962 229.057 191.938 229.161 191.938C229.265 191.938 229.368 191.962 229.461 192.009C229.555 192.055 229.637 192.123 229.701 192.206C229.765 192.289 229.809 192.387 229.831 192.49C229.852 192.594 229.85 192.701 229.825 192.803C229.85 192.906 229.852 193.013 229.831 193.117C229.809 193.22 229.765 193.317 229.701 193.401C229.637 193.484 229.555 193.552 229.461 193.598C229.368 193.645 229.265 193.669 229.161 193.669C229.057 193.669 228.955 193.645 228.861 193.598C228.768 193.552 228.686 193.484 228.622 193.401C228.558 193.317 228.514 193.22 228.492 193.117C228.471 193.013 228.473 192.906 228.498 192.803ZM229.469 192.803C229.469 192.574 229.339 192.386 229.155 192.386C228.97 192.386 228.854 192.574 228.854 192.79C228.854 193.019 228.984 193.207 229.168 193.207C229.353 193.207 229.469 193.019 229.469 192.803Z" fill="#275991"/>
<path d="M172.57 202.896C172.569 202.85 172.577 202.805 172.594 202.763C172.61 202.721 172.635 202.683 172.666 202.65C172.697 202.618 172.735 202.592 172.776 202.574C172.817 202.557 172.861 202.548 172.906 202.548C172.997 202.548 173.085 202.584 173.15 202.649C173.215 202.714 173.253 202.803 173.254 202.896V206.592C173.253 206.685 173.215 206.773 173.15 206.838C173.085 206.903 172.997 206.94 172.906 206.94C172.861 206.94 172.817 206.931 172.776 206.913C172.735 206.895 172.697 206.87 172.666 206.837C172.635 206.805 172.61 206.766 172.594 206.724C172.577 206.682 172.569 206.637 172.57 206.592V202.896Z" fill="#C7C7C7"/>
<path d="M175.104 206.591C175.103 206.682 175.067 206.768 175.005 206.833C174.942 206.898 174.858 206.936 174.769 206.939C174.725 206.939 174.68 206.93 174.639 206.913C174.598 206.895 174.561 206.869 174.53 206.837C174.499 206.804 174.474 206.766 174.458 206.724C174.441 206.682 174.433 206.637 174.434 206.591V202.951C174.431 202.896 174.442 202.84 174.466 202.79C174.49 202.74 174.526 202.698 174.571 202.666C174.606 202.639 174.646 202.62 174.689 202.609C174.732 202.599 174.776 202.597 174.819 202.604C174.863 202.611 174.904 202.627 174.941 202.651C174.979 202.674 175.011 202.706 175.036 202.742L177.026 205.526V202.944C177.026 202.855 177.061 202.769 177.122 202.705C177.184 202.642 177.267 202.605 177.355 202.603C177.444 202.605 177.529 202.641 177.592 202.704C177.656 202.768 177.693 202.854 177.697 202.944V206.584C177.695 206.676 177.658 206.763 177.595 206.828C177.531 206.893 177.445 206.93 177.355 206.932C177.306 206.93 177.259 206.917 177.216 206.896C177.172 206.874 177.133 206.844 177.102 206.807V206.765L175.132 203.981L175.104 206.591Z" fill="#C7C7C7"/>
<path d="M179.016 205.846C179.042 205.813 179.075 205.785 179.112 205.764C179.15 205.744 179.191 205.731 179.233 205.728C179.275 205.724 179.317 205.728 179.358 205.742C179.398 205.755 179.435 205.776 179.467 205.804C179.798 206.089 180.211 206.258 180.644 206.285C180.916 206.291 181.184 206.211 181.41 206.055C181.486 206.006 181.55 205.94 181.597 205.862C181.643 205.783 181.671 205.694 181.676 205.603C181.677 205.531 181.658 205.461 181.622 205.401C181.573 205.327 181.51 205.263 181.437 205.213C181.169 205.066 180.877 204.969 180.575 204.927C180.3 204.88 180.031 204.798 179.775 204.684C179.543 204.578 179.345 204.407 179.207 204.19C179.111 204.039 179.061 203.862 179.064 203.682C179.07 203.5 179.118 203.323 179.204 203.163C179.289 203.004 179.41 202.867 179.556 202.763C179.869 202.542 180.242 202.425 180.623 202.429C181.118 202.451 181.595 202.626 181.991 202.93C182.06 202.978 182.107 203.051 182.124 203.134C182.141 203.217 182.125 203.304 182.08 203.375C182.058 203.411 182.029 203.442 181.995 203.467C181.96 203.491 181.922 203.508 181.881 203.517C181.84 203.526 181.798 203.527 181.757 203.519C181.716 203.512 181.677 203.496 181.642 203.473C181.36 203.238 181.014 203.097 180.65 203.069C180.406 203.066 180.167 203.142 179.966 203.285C179.899 203.327 179.843 203.385 179.803 203.454C179.762 203.523 179.739 203.601 179.734 203.682C179.729 203.743 179.743 203.804 179.775 203.856C179.819 203.919 179.875 203.973 179.939 204.016C180.177 204.157 180.439 204.252 180.712 204.294C181.004 204.347 181.289 204.435 181.56 204.559C181.809 204.668 182.022 204.847 182.176 205.074C182.269 205.236 182.319 205.421 182.319 205.61C182.314 205.802 182.263 205.99 182.172 206.158C182.08 206.327 181.95 206.47 181.793 206.577C181.462 206.818 181.064 206.945 180.657 206.939C180.078 206.91 179.523 206.69 179.077 206.312C179.009 206.259 178.964 206.18 178.952 206.092C178.941 206.005 178.963 205.916 179.016 205.846Z" fill="#C7C7C7"/>
<path d="M185.8 203.244H184.822V206.592C184.822 206.684 184.786 206.772 184.721 206.838C184.657 206.903 184.57 206.94 184.48 206.94C184.389 206.94 184.302 206.903 184.238 206.838C184.174 206.772 184.138 206.684 184.138 206.592V203.244H183.159C183.115 203.244 183.071 203.235 183.03 203.217C182.988 203.2 182.951 203.174 182.92 203.142C182.889 203.109 182.864 203.071 182.848 203.029C182.831 202.986 182.823 202.941 182.824 202.896C182.823 202.85 182.831 202.805 182.848 202.763C182.864 202.721 182.889 202.683 182.92 202.65C182.951 202.618 182.988 202.592 183.03 202.574C183.071 202.557 183.115 202.548 183.159 202.548H185.793C185.837 202.548 185.882 202.557 185.923 202.574C185.964 202.592 186.001 202.618 186.032 202.65C186.064 202.683 186.088 202.721 186.104 202.763C186.121 202.805 186.129 202.85 186.128 202.896C186.128 202.986 186.094 203.072 186.033 203.137C185.972 203.202 185.888 203.24 185.8 203.244Z" fill="#C7C7C7"/>
<path d="M188.785 205.902H187.287L186.986 206.717C186.96 206.782 186.916 206.838 186.859 206.878C186.801 206.917 186.734 206.939 186.665 206.939C186.626 206.946 186.587 206.946 186.548 206.939C186.464 206.905 186.395 206.839 186.357 206.755C186.319 206.671 186.314 206.575 186.343 206.487L187.711 202.798C187.736 202.731 187.782 202.674 187.84 202.634C187.899 202.594 187.969 202.573 188.039 202.575C188.11 202.574 188.179 202.595 188.237 202.635C188.296 202.675 188.341 202.732 188.368 202.798L189.736 206.487C189.767 206.574 189.764 206.67 189.727 206.754C189.69 206.839 189.622 206.905 189.537 206.939C189.499 206.946 189.459 206.946 189.421 206.939C189.352 206.94 189.285 206.919 189.228 206.879C189.172 206.839 189.129 206.783 189.106 206.717L188.785 205.902ZM188.532 205.206L188.033 203.863L187.533 205.206H188.532Z" fill="#C7C7C7"/>
<path d="M190.547 206.592V202.896C190.546 202.85 190.554 202.805 190.57 202.763C190.587 202.721 190.611 202.683 190.643 202.65C190.674 202.618 190.711 202.592 190.752 202.574C190.793 202.557 190.838 202.548 190.882 202.548C190.973 202.548 191.06 202.585 191.124 202.65C191.188 202.715 191.224 202.804 191.224 202.896V206.244H192.886C192.977 206.244 193.064 206.28 193.128 206.346C193.192 206.411 193.228 206.499 193.228 206.592C193.226 206.683 193.19 206.771 193.126 206.836C193.062 206.901 192.976 206.938 192.886 206.94H190.875C190.831 206.939 190.788 206.929 190.748 206.911C190.707 206.893 190.671 206.867 190.64 206.835C190.61 206.803 190.586 206.764 190.57 206.723C190.554 206.681 190.546 206.636 190.547 206.592Z" fill="#C7C7C7"/>
<path d="M194.008 206.592V202.896C194.008 202.804 194.044 202.715 194.108 202.65C194.172 202.585 194.259 202.548 194.35 202.548C194.441 202.548 194.528 202.585 194.592 202.65C194.656 202.715 194.692 202.804 194.692 202.896V206.244H196.361C196.451 206.245 196.537 206.283 196.601 206.348C196.664 206.412 196.701 206.5 196.703 206.592C196.701 206.683 196.664 206.771 196.601 206.836C196.537 206.901 196.451 206.938 196.361 206.94H194.35C194.259 206.94 194.172 206.903 194.108 206.838C194.044 206.772 194.008 206.684 194.008 206.592Z" fill="#C7C7C7"/>
<path d="M197.551 202.896C197.55 202.85 197.558 202.805 197.574 202.763C197.591 202.721 197.615 202.683 197.647 202.65C197.678 202.618 197.715 202.592 197.756 202.574C197.797 202.557 197.841 202.548 197.886 202.548C197.977 202.548 198.065 202.584 198.13 202.649C198.196 202.714 198.233 202.803 198.235 202.896V206.592C198.233 206.685 198.196 206.773 198.13 206.838C198.065 206.903 197.977 206.94 197.886 206.94C197.841 206.94 197.797 206.931 197.756 206.913C197.715 206.895 197.678 206.87 197.647 206.837C197.615 206.805 197.591 206.766 197.574 206.724C197.558 206.682 197.55 206.637 197.551 206.592V202.896Z" fill="#C7C7C7"/>
<path d="M200.061 206.591C200.06 206.682 200.024 206.768 199.962 206.833C199.899 206.898 199.815 206.936 199.726 206.939C199.682 206.939 199.637 206.93 199.596 206.913C199.555 206.895 199.518 206.869 199.487 206.837C199.456 206.804 199.431 206.766 199.415 206.724C199.398 206.682 199.39 206.637 199.391 206.591V202.951C199.388 202.896 199.399 202.84 199.423 202.79C199.447 202.74 199.483 202.698 199.528 202.666C199.563 202.639 199.603 202.62 199.646 202.609C199.689 202.599 199.733 202.597 199.776 202.604C199.82 202.611 199.861 202.627 199.898 202.651C199.936 202.674 199.968 202.706 199.993 202.742L201.983 205.526V202.944C201.983 202.855 202.018 202.769 202.079 202.705C202.141 202.642 202.224 202.605 202.312 202.603C202.401 202.605 202.486 202.641 202.549 202.704C202.613 202.768 202.65 202.854 202.654 202.944V206.584C202.658 206.656 202.639 206.726 202.601 206.786C202.563 206.846 202.506 206.892 202.44 206.917C202.375 206.942 202.303 206.944 202.235 206.925C202.168 206.905 202.108 206.864 202.066 206.807L202.031 206.765L200.061 203.981V206.591Z" fill="#C7C7C7"/>
<path d="M203.633 204.684C203.642 204.255 203.768 203.837 203.998 203.477C204.227 203.116 204.551 202.828 204.932 202.645C205.314 202.461 205.738 202.389 206.157 202.437C206.576 202.485 206.974 202.651 207.306 202.916C207.344 202.945 207.376 202.98 207.4 203.021C207.425 203.062 207.44 203.108 207.447 203.156C207.453 203.203 207.45 203.251 207.438 203.298C207.425 203.344 207.404 203.387 207.374 203.424C207.314 203.498 207.229 203.544 207.136 203.555C207.043 203.565 206.949 203.538 206.875 203.48C206.598 203.259 206.256 203.139 205.904 203.139C205.698 203.135 205.494 203.174 205.303 203.253C205.113 203.332 204.94 203.45 204.796 203.598C204.651 203.738 204.536 203.905 204.457 204.092C204.378 204.278 204.337 204.478 204.337 204.681C204.337 204.883 204.378 205.084 204.457 205.27C204.536 205.456 204.651 205.624 204.796 205.763C204.94 205.912 205.113 206.029 205.303 206.108C205.494 206.187 205.698 206.226 205.904 206.222C206.202 206.22 206.494 206.138 206.752 205.986V205.123H205.883C205.79 205.123 205.701 205.086 205.634 205.019C205.568 204.953 205.529 204.863 205.528 204.768C205.528 204.721 205.538 204.675 205.557 204.632C205.575 204.59 205.601 204.551 205.634 204.519C205.668 204.486 205.706 204.461 205.749 204.444C205.792 204.427 205.837 204.419 205.883 204.42H207.108C207.154 204.418 207.2 204.425 207.243 204.442C207.286 204.459 207.325 204.484 207.358 204.517C207.391 204.549 207.418 204.588 207.436 204.631C207.454 204.674 207.463 204.721 207.463 204.768V206.16C207.467 206.194 207.467 206.229 207.463 206.264C207.441 206.326 207.397 206.378 207.34 206.41C206.952 206.727 206.47 206.901 205.972 206.904C205.675 206.918 205.378 206.87 205.098 206.765C204.819 206.66 204.563 206.5 204.345 206.293C204.128 206.086 203.952 205.838 203.83 205.562C203.708 205.285 203.641 204.987 203.633 204.684Z" fill="#C7C7C7"/>
<path d="M209.154 206.049C209.275 206.049 209.392 206.098 209.478 206.185C209.564 206.273 209.612 206.391 209.612 206.515C209.612 206.639 209.564 206.757 209.478 206.845C209.392 206.932 209.275 206.981 209.154 206.981C209.032 206.981 208.915 206.932 208.83 206.845C208.744 206.757 208.695 206.639 208.695 206.515C208.695 206.391 208.744 206.273 208.83 206.185C208.915 206.098 209.032 206.049 209.154 206.049Z" fill="#C7C7C7"/>
<path d="M210.568 206.049C210.689 206.049 210.806 206.098 210.892 206.185C210.978 206.273 211.026 206.391 211.026 206.515C211.026 206.639 210.978 206.757 210.892 206.845C210.806 206.932 210.689 206.981 210.568 206.981C210.446 206.981 210.33 206.932 210.244 206.845C210.158 206.757 210.109 206.639 210.109 206.515C210.109 206.391 210.158 206.273 210.244 206.185C210.33 206.098 210.446 206.049 210.568 206.049Z" fill="#C7C7C7"/>
<path d="M211.986 206.049C212.107 206.049 212.224 206.098 212.31 206.185C212.396 206.273 212.444 206.391 212.444 206.515C212.444 206.639 212.396 206.757 212.31 206.845C212.224 206.932 212.107 206.981 211.986 206.981C211.864 206.981 211.748 206.932 211.662 206.845C211.576 206.757 211.527 206.639 211.527 206.515C211.527 206.391 211.576 206.273 211.662 206.185C211.748 206.098 211.864 206.049 211.986 206.049Z" fill="#C7C7C7"/>
<path d="M57.5384 306.801L156.281 307.233C180.282 288.058 182.758 259.647 165.638 242.428C155.275 231.988 142.122 234.111 129.591 232.455H129.55C125.124 231.978 120.819 230.693 116.841 228.662C103.941 221.736 96.67 205.394 85.8149 191.655C84.4469 189.929 83.0789 188.259 81.5673 186.644C72.6753 176.942 54.8913 176.629 45.5821 190.263C21.9704 224.896 32.7844 276.456 57.5384 306.801Z" fill="#275991"/>
<path opacity="0.5" d="M57.5384 306.801L156.281 307.233C180.282 288.058 182.758 259.647 165.638 242.428C155.275 231.988 142.122 234.111 129.591 232.455H129.55C125.124 231.978 120.819 230.693 116.841 228.662C103.941 221.736 96.67 205.394 85.8149 191.655C84.4469 189.929 83.0789 188.259 81.5673 186.644C72.6753 176.942 54.8913 176.629 45.5821 190.263C21.9704 224.896 32.7844 276.456 57.5384 306.801Z" fill="white"/>
<path d="M55.3508 227.541C57.9363 268.758 104.722 284.147 133.942 271.8C159.346 261.061 151.042 236.554 129.592 232.455H129.551C125.125 231.978 120.82 230.694 116.842 228.662C103.942 221.737 96.6712 205.395 85.8162 191.656C69.6464 183.102 53.4561 197.356 55.3508 227.541Z" fill="#275991"/>
<path d="M146.432 313.295C144.907 312.724 110.502 284.759 109.852 282.831C109.599 282.135 113.313 276.769 117.978 270.449C118.983 269.057 120.03 267.665 121.111 266.273C128.06 257.051 135.653 247.433 135.653 247.433L158.724 266.085L143.546 284.411L140.222 288.448C140.222 288.448 148.69 305.152 149.182 307.33C149.675 309.509 147.958 313.866 146.432 313.295Z" fill="#D2978F"/>
<path d="M147.486 313.72C145.906 313.164 109.907 284.941 109.182 282.978C108.908 282.24 112.643 276.658 117.349 270.053L117.493 269.852L140.92 287.794L140.605 288.191C140.605 288.191 149.634 305.264 150.181 307.505C150.728 309.746 149.066 314.277 147.486 313.72Z" fill="#263238"/>
<path d="M148.153 311.98C142.203 307.066 117.736 287.836 111.484 283.444C111.436 283.409 111.409 283.444 111.484 283.486C117.278 288.483 141.895 307.512 148.106 312.077C148.208 312.175 148.277 312.112 148.153 311.98Z" fill="white"/>
<path d="M142.526 289.792C140.474 287.467 137.28 285.546 134.147 285.845C134.024 285.845 134.045 286.033 134.147 286.068C136.989 287.11 139.714 288.458 142.273 290.091C142.312 290.125 142.363 290.142 142.414 290.138C142.466 290.134 142.513 290.11 142.547 290.07C142.58 290.03 142.597 289.979 142.593 289.926C142.589 289.874 142.565 289.826 142.526 289.792Z" fill="white"/>
<path d="M143.448 292.2C141.396 289.875 138.202 287.954 135.069 288.253C134.946 288.253 134.967 288.441 135.069 288.476C137.918 289.516 140.65 290.865 143.216 292.499C143.255 292.519 143.3 292.525 143.343 292.515C143.386 292.505 143.424 292.481 143.451 292.446C143.479 292.41 143.493 292.367 143.493 292.322C143.492 292.277 143.476 292.234 143.448 292.2Z" fill="white"/>
<path d="M144.374 294.608C142.322 292.283 139.128 290.362 135.995 290.662C135.872 290.662 135.892 290.85 135.995 290.884C138.844 291.925 141.575 293.273 144.141 294.907C144.181 294.927 144.226 294.933 144.269 294.923C144.312 294.913 144.35 294.889 144.377 294.854C144.405 294.819 144.419 294.775 144.418 294.73C144.418 294.686 144.402 294.642 144.374 294.608Z" fill="white"/>
<path d="M149.029 312.808C149.48 313.567 147.661 315.662 147.079 315.467C146.498 315.272 107.387 284.356 106.812 283.681C106.238 283.005 108.351 280.764 109.22 281.245C110.089 281.725 149.029 312.808 149.029 312.808Z" fill="#275991"/>
<path d="M120.383 278.614C118.782 275.238 113.625 277.765 115.232 281.147C116.84 284.53 121.963 281.989 120.383 278.614Z" fill="white"/>
<path d="M182.028 230.214C180.448 242.415 150.906 277.625 147.493 281.662L146.713 282.581L122.281 263.469L122.561 263.1L144.08 234.431C144.08 234.431 108.512 255.562 90.728 245.971C82.732 241.663 76.8086 234.014 76.8086 234.014L100.065 221.402C100.065 221.402 106.494 223.49 110.605 222.906C124.764 220.818 156.508 208.54 164.039 208.846C173.697 209.25 183.478 219.022 182.028 230.214Z" fill="#263238"/>
<path d="M151.809 223.776C151.009 224.693 150.267 225.66 149.586 226.672C148.827 227.688 148.054 228.69 147.294 229.706L147.698 228.815C148.177 227.806 148.56 226.762 149.127 225.802C149.127 225.739 149.073 225.683 149.039 225.746C148.457 226.699 147.78 227.611 147.281 228.62C147.048 229.101 146.822 229.581 146.597 230.068C146.487 230.332 146.371 230.604 146.268 230.875C146.213 231.002 146.165 231.133 146.125 231.265C145.783 231.738 145.441 232.212 145.126 232.692C144.401 233.757 143.758 234.884 143.026 235.949C142.985 236.005 143.074 236.054 143.115 236.005C143.861 235.01 144.688 234.077 145.448 233.089C146.207 232.1 146.939 231.049 147.664 230.005C148.389 228.961 149.032 227.959 149.75 226.943C150.521 225.941 151.229 224.89 151.87 223.797C151.87 223.797 151.85 223.72 151.809 223.776Z" fill="#37474F"/>
<path d="M127.171 259.133C128.539 260.393 129.962 261.569 131.378 262.745C132.794 263.921 134.223 265.105 135.66 266.274C138.526 268.612 141.385 270.965 144.285 273.234C145.879 274.501 147.486 275.746 149.141 276.916C149.217 276.971 149.299 276.853 149.23 276.79C146.494 274.278 143.615 271.974 140.749 269.642C137.883 267.311 134.996 264.979 132.089 262.682C130.502 261.423 128.922 260.135 127.253 258.98C127.226 258.966 127.117 259.077 127.171 259.133Z" fill="#37474F"/>
<path d="M89.0522 197.599C94.2642 210.169 110.537 222.731 115.817 223.065C121.973 223.455 137.705 215.82 143.608 206.946C145.01 204.858 131.713 195.386 129.552 196.979C125.113 200.265 116.706 204.782 115.981 204.858C114.531 205.011 104.353 199.401 96.4667 194.112C86.6787 187.528 86.9728 192.588 89.0522 197.599Z" fill="#D2978F"/>
<path d="M141.794 209.306C141.794 209.306 147.266 203.223 147.717 197.627C148.025 193.757 147.362 183.533 138.052 176.858C135.843 175.271 131.589 174.61 134.277 178.529C136.178 181.313 138.217 182.489 139.065 184.319C139.065 184.319 133.559 184.125 132.088 186.442C130.799 188.461 129.656 190.574 128.668 192.762C129.018 193.04 129.386 193.293 129.769 193.521C129.769 193.521 128.6 195.817 129.557 199.625L141.794 209.306Z" fill="#D2978F"/>
<path d="M127.341 173.183L121.636 193.569C121.404 194.168 121.684 194.669 122.266 194.683L132.683 195.01C133.002 194.993 133.31 194.886 133.573 194.7C133.835 194.514 134.041 194.258 134.167 193.959L139.872 173.608C140.104 173.009 139.824 172.508 139.243 172.494L128.818 172.167C128.504 172.179 128.198 172.281 127.937 172.461C127.676 172.64 127.47 172.89 127.341 173.183Z" fill="#455A64"/>
<path d="M128.594 173.211L122.889 193.597C122.65 194.195 122.937 194.697 123.519 194.71L133.936 195.038C134.255 195.022 134.562 194.915 134.824 194.729C135.085 194.543 135.29 194.286 135.413 193.987L141.111 173.608C141.344 173.009 141.063 172.508 140.482 172.494L130.058 172.167C129.742 172.184 129.437 172.29 129.178 172.475C128.919 172.66 128.717 172.915 128.594 173.211Z" fill="#37474F"/>
<path d="M131.404 174.235C131.394 174.412 131.333 174.582 131.228 174.724C131.124 174.866 130.98 174.973 130.815 175.032C130.651 175.091 130.473 175.099 130.304 175.055C130.135 175.011 129.983 174.917 129.866 174.784C129.75 174.652 129.674 174.488 129.65 174.312C129.625 174.137 129.652 173.958 129.727 173.798C129.802 173.637 129.922 173.504 130.072 173.413C130.222 173.322 130.395 173.279 130.569 173.288C130.686 173.294 130.8 173.323 130.905 173.373C131.01 173.424 131.104 173.495 131.182 173.583C131.26 173.672 131.319 173.775 131.357 173.886C131.396 173.998 131.411 174.117 131.404 174.235Z" fill="#263238"/>
<path d="M147.021 192.156C145.831 190.521 143.252 187.097 140.181 185.043C136.761 182.76 129.606 179.294 127.978 181.87C126.781 183.756 129.401 185.35 129.401 185.35C129.401 185.35 126.145 184.556 125.434 186.505C124.784 188.28 126.884 189.365 126.884 189.365C126.884 189.365 124.832 189.226 124.517 191.057C124.155 193.263 128.532 193.187 130.058 195.741C130.407 196.291 147.021 192.156 147.021 192.156Z" fill="#D2978F"/>
<path d="M138.416 189.108C135.891 186.936 132.774 185.603 129.483 185.287C129.401 185.287 129.353 185.343 129.428 185.364C132.555 186.25 135.566 187.516 138.395 189.136C138.395 189.136 138.43 189.122 138.416 189.108Z" fill="#263238"/>
<path d="M136.049 192.54C134.756 191.496 130.652 189.345 126.911 189.269C126.829 189.269 126.781 189.331 126.863 189.345C130.028 190.065 133.103 191.148 136.029 192.575C136.029 192.575 136.07 192.554 136.049 192.54Z" fill="#263238"/>
<path d="M129.329 194.836C129.377 196.068 129.425 197.258 129.562 198.448C129.63 199.04 129.74 199.617 129.863 200.202C130.005 200.789 130.178 201.368 130.383 201.935C129.614 200.951 129.139 199.762 129.015 198.511C128.95 197.894 128.936 197.272 128.974 196.652C129.02 196.035 129.139 195.425 129.329 194.836Z" fill="#263238"/>
<path d="M96.0132 210.566L105.336 199.361C105.336 199.361 97.518 192.916 91.9161 190.549C86.3141 188.183 85.6301 191.837 88.2088 197.252C90.7875 202.667 96.0132 210.566 96.0132 210.566Z" fill="#455A64"/>
<path d="M97.5505 193.688L96.9143 193.284C97.1281 193.738 97.392 194.165 97.7009 194.558C97.6719 194.264 97.6216 193.974 97.5505 193.688ZM104.322 198.56C103.786 198.67 103.262 198.831 102.756 199.04C102.092 199.308 101.468 199.669 100.902 200.112C101.608 200.026 102.298 199.841 102.954 199.562C103.505 199.339 104.031 199.054 104.52 198.713L104.322 198.56ZM92.0648 200.244C91.7824 200.91 91.5936 201.613 91.5039 202.332C91.9454 201.762 92.3068 201.132 92.5778 200.46C92.8602 199.794 93.049 199.091 93.1387 198.372C92.6961 198.947 92.3347 199.582 92.0648 200.258V200.244Z" fill="white"/>
<path d="M102.852 202.339L96.012 210.566C96.012 210.566 90.7726 202.673 88.1939 197.265C86.2514 193.193 86.1419 190.117 88.6112 189.853L102.852 202.339Z" fill="#263238"/>
<path d="M102.532 197.794C99.6391 200.73 96.9427 203.86 94.4609 207.162C94.4609 207.162 94.5225 207.246 94.5362 207.232C96.8823 204.81 101.198 199.638 102.635 197.891C102.662 197.864 102.559 197.766 102.532 197.794Z" fill="#263238"/>
<path d="M65.6172 239.52C66.9852 239.965 105.83 228.53 105.83 228.53L101.233 214.805C101.233 214.805 103.497 210.392 102.444 206.147C101.042 200.474 90.7268 191.148 89.9129 190.605C86.657 188.406 83.6064 188.447 80.9114 189.909C69.687 195.978 65.6172 239.52 65.6172 239.52Z" fill="#455A64"/>
<path d="M102.718 208.081C102.41 207.907 102.088 207.754 101.767 207.608C101.114 207.315 100.423 207.121 99.715 207.03C100.276 207.48 100.895 207.847 101.555 208.123C101.938 208.283 102.331 208.417 102.731 208.527C102.731 208.408 102.731 208.227 102.718 208.081ZM84.3318 206.084C83.679 205.791 82.9878 205.596 82.2798 205.506C82.8447 205.956 83.4686 206.324 84.1335 206.599C84.7877 206.886 85.4785 207.078 86.1855 207.17C85.6204 206.721 84.9965 206.356 84.3318 206.084ZM93.3128 230.882C92.6599 230.589 91.9687 230.395 91.2608 230.305C91.8204 230.755 92.4399 231.123 93.1007 231.397C93.544 231.584 94.0015 231.733 94.4687 231.843L94.8586 231.731C94.3752 231.392 93.8568 231.107 93.3128 230.882ZM73.552 229.984C72.8984 229.694 72.2075 229.499 71.5 229.407C72.0556 229.86 72.6731 230.228 73.3331 230.499C73.9863 230.791 74.6774 230.986 75.3851 231.077C74.8276 230.627 74.2105 230.259 73.552 229.984ZM83.9967 221.911C83.7083 222.575 83.5171 223.278 83.429 223.999C84.3052 222.849 84.8711 221.486 85.0706 220.046C84.6272 220.612 84.2656 221.24 83.9967 221.911ZM92.0679 200.258C91.7855 200.924 91.5966 201.627 91.507 202.346C91.9485 201.776 92.3099 201.146 92.5809 200.474C92.8633 199.808 93.0521 199.105 93.1418 198.386C92.7003 198.956 92.3389 199.587 92.0679 200.258ZM99.1268 220.7C98.463 220.968 97.8392 221.329 97.2731 221.772C97.9788 221.686 98.6694 221.501 99.3251 221.222C99.9902 220.956 100.614 220.595 101.179 220.15C100.473 220.236 99.7824 220.421 99.1268 220.7ZM73.7025 217.456C73.0388 217.725 72.4149 218.085 71.8488 218.528C72.5546 218.443 73.2452 218.257 73.9008 217.978C74.5659 217.713 75.1901 217.352 75.7545 216.907C75.0488 216.992 74.3582 217.177 73.7025 217.456ZM80.4878 194.593C79.823 194.856 79.1987 195.214 78.6341 195.658C79.3398 195.572 80.0304 195.387 80.6861 195.108C81.3509 194.845 81.9752 194.486 82.5398 194.043C81.8335 194.118 81.142 194.298 80.4878 194.579V194.593ZM82.6355 234.557C82.6569 234.772 82.6888 234.986 82.7313 235.197L83.0254 235.114C82.9067 234.916 82.7765 234.725 82.6355 234.543V234.557ZM74.0582 206.244C73.797 205.571 73.4448 204.938 73.0116 204.365C73.0894 205.084 73.2715 205.788 73.552 206.453C73.8104 207.127 74.1628 207.76 74.5985 208.332C74.5221 207.608 74.34 206.899 74.0582 206.23V206.244ZM92.5809 213.385C92.32 212.71 91.9653 212.077 91.5275 211.506C91.6103 212.224 91.7922 212.927 92.0679 213.594C92.3271 214.271 92.6819 214.906 93.1212 215.48C93.0389 214.755 92.857 214.045 92.5809 213.371V213.385Z" fill="white"/>
<path d="M85.9938 217.581C87.2955 217.057 88.6245 216.606 89.9747 216.231C90.6587 216.05 91.3427 215.904 92.0267 215.778L93.0185 215.618C93.3879 215.563 93.7572 215.556 94.1198 215.5C94.1608 215.5 94.1745 215.549 94.1198 215.556C93.7846 215.625 93.4358 215.751 93.1143 215.834L92.0951 216.099L90.0431 216.621C88.6751 216.962 87.3071 217.317 85.987 217.699C85.946 217.72 85.9254 217.609 85.9938 217.581Z" fill="#263238"/>
<path d="M83.2213 190.459C83.4265 191.155 87.0722 195.567 90.2665 195.198C91.3062 195.08 90.9095 189.276 90.9095 189.276L90.9778 188.837L91.9081 182.747L83.6454 178.146C83.6454 178.146 83.1324 190.159 83.2213 190.459Z" fill="#D2978F"/>
<path d="M91.9103 182.739L90.9732 188.836C89.3343 188.34 87.8169 187.496 86.5203 186.362C85.2238 185.227 84.1772 183.827 83.4492 182.252C83.5245 180.164 83.5997 178.438 83.6065 178.181L84.6531 178.717L91.9103 182.739Z" fill="#263238"/>
<path d="M79.7678 172.453C79.9368 172.579 80.0596 172.759 80.117 172.964C80.1743 173.17 80.1628 173.388 80.0844 173.586C80.006 173.784 79.8651 173.95 79.6839 174.057C79.5028 174.164 79.2916 174.207 79.0838 174.179C79.1111 174.315 79.1111 174.454 79.0838 174.59C79.0249 174.847 78.8736 175.072 78.6597 175.222C78.4458 175.371 78.1848 175.434 77.9279 175.397C77.9517 175.509 77.9517 175.626 77.9279 175.738C77.8664 175.983 77.7129 176.193 77.5004 176.323C77.2879 176.453 77.0336 176.493 76.7924 176.434C76.583 176.387 76.3967 176.266 76.2657 176.093C76.193 176.323 76.0379 176.516 75.8313 176.635C75.6247 176.754 75.3817 176.789 75.1508 176.733C75.0222 176.7 74.9013 176.641 74.7951 176.559V176.643C74.7655 176.765 74.7127 176.879 74.6396 176.98C74.5665 177.081 74.4746 177.166 74.3691 177.23C74.2637 177.295 74.1468 177.338 74.025 177.356C73.9033 177.375 73.7792 177.369 73.6597 177.339C73.5084 177.311 73.3664 177.245 73.2468 177.146C73.1273 177.048 73.0341 176.92 72.9757 176.775C72.8852 176.975 72.7295 177.137 72.535 177.233C72.3405 177.33 72.1192 177.355 71.9087 177.304C71.7442 177.26 71.5942 177.173 71.4739 177.05C71.3537 176.928 71.2677 176.775 71.2247 176.608C71.0114 176.71 70.7707 176.737 70.5407 176.685C70.4054 176.653 70.2781 176.593 70.1663 176.509C70.0546 176.426 69.9609 176.319 69.8909 176.198C69.7383 176.296 69.5629 176.353 69.3822 176.361C69.2015 176.37 69.0218 176.329 68.8611 176.245C68.7004 176.16 68.5644 176.034 68.4666 175.879C68.3688 175.724 68.3127 175.546 68.304 175.362C68.1794 175.383 68.0523 175.383 67.9278 175.362C67.7047 175.309 67.5081 175.176 67.3747 174.986C67.2413 174.797 67.1802 174.564 67.2027 174.332C67.0315 174.373 66.8529 174.368 66.6839 174.318C66.515 174.269 66.3612 174.176 66.2372 174.049C66.1133 173.923 66.0232 173.766 65.9755 173.593C65.9278 173.421 65.9241 173.24 65.9647 173.066C65.9852 172.951 66.0295 172.841 66.0947 172.745H65.9305C65.692 172.68 65.4877 172.523 65.3603 172.308C65.2328 172.092 65.192 171.835 65.2465 171.59C65.2865 171.417 65.3716 171.258 65.4927 171.131C65.2479 171.047 65.0423 170.874 64.9159 170.645C64.7895 170.416 64.7513 170.148 64.8087 169.892C64.8518 169.698 64.9493 169.522 65.0892 169.384C64.9102 169.265 64.7715 169.093 64.692 168.891C64.6124 168.69 64.5959 168.468 64.6446 168.256C64.6824 168.102 64.7545 167.96 64.8553 167.839C64.9561 167.718 65.083 167.623 65.226 167.56C65.1504 167.45 65.0985 167.325 65.0738 167.193C65.049 167.061 65.0519 166.925 65.0823 166.795C65.1105 166.662 65.1666 166.537 65.247 166.429C65.3273 166.321 65.4298 166.232 65.5475 166.168C65.4431 166.044 65.3689 165.897 65.3308 165.739C65.2928 165.58 65.292 165.415 65.3286 165.256C65.379 165.037 65.4972 164.839 65.6658 164.693C65.8344 164.546 66.0445 164.458 66.2657 164.442C66.2245 164.292 66.2245 164.133 66.2657 163.983C66.3161 163.756 66.4459 163.555 66.6308 163.418C66.8158 163.281 67.0433 163.217 67.2711 163.238C67.2335 163.09 67.2335 162.934 67.2711 162.786C67.301 162.65 67.357 162.522 67.4359 162.408C67.5148 162.295 67.615 162.198 67.7308 162.124C67.8466 162.051 67.9756 162.001 68.1104 161.978C68.2452 161.956 68.383 161.96 68.516 161.992C68.594 162.012 68.6697 162.04 68.7417 162.076C68.7384 162.02 68.7384 161.964 68.7417 161.909C68.8037 161.636 68.9695 161.399 69.2029 161.25C69.4363 161.101 69.7182 161.053 69.9866 161.115C70.0724 161.134 70.1552 161.164 70.2329 161.206C70.2161 161.107 70.2161 161.005 70.2329 160.906C70.2813 160.701 70.3889 160.514 70.5419 160.371C70.6948 160.228 70.8862 160.134 71.0917 160.102C71.2971 160.07 71.5073 160.101 71.6955 160.191C71.8836 160.281 72.0412 160.426 72.1481 160.607C72.272 160.476 72.4272 160.379 72.5985 160.327C72.7699 160.274 72.9516 160.268 73.1262 160.308C73.3868 160.371 73.6141 160.533 73.7623 160.76C73.8508 160.596 73.9839 160.462 74.1458 160.374C74.3076 160.285 74.4911 160.247 74.6742 160.262C74.8572 160.278 75.0319 160.347 75.1772 160.461C75.3225 160.575 75.4321 160.73 75.4928 160.906C75.6288 160.804 75.7892 160.741 75.9572 160.723C76.1253 160.705 76.2951 160.733 76.4491 160.804C76.6031 160.874 76.7357 160.986 76.8334 161.126C76.931 161.267 76.99 161.431 77.0045 161.602C77.1229 161.516 77.2579 161.457 77.4006 161.428C77.5433 161.399 77.6904 161.402 77.8321 161.435C78.0647 161.492 78.2713 161.628 78.418 161.82C78.5647 162.013 78.6427 162.25 78.6392 162.493C78.7523 162.473 78.8681 162.473 78.9812 162.493C79.2216 162.556 79.4281 162.712 79.5561 162.928C79.6841 163.144 79.7233 163.403 79.6652 163.649C79.6381 163.763 79.5918 163.871 79.5284 163.969H79.59C79.7236 164 79.8498 164.058 79.9614 164.139C80.073 164.22 80.1677 164.322 80.2402 164.441C80.3127 164.559 80.3614 164.691 80.3836 164.828C80.4059 164.966 80.4011 165.107 80.3697 165.242C80.3488 165.343 80.3119 165.439 80.2603 165.528C80.3441 165.515 80.4295 165.515 80.5134 165.528C80.7522 165.59 80.9575 165.746 81.0854 165.96C81.2132 166.175 81.2534 166.432 81.1974 166.676C81.1382 166.926 80.9862 167.143 80.7733 167.282C80.8994 167.396 80.9927 167.544 81.0433 167.708C81.0939 167.872 81.0998 168.047 81.0606 168.214C81.0042 168.458 80.8571 168.67 80.6502 168.806C80.8406 168.917 80.9917 169.086 81.0817 169.29C81.1717 169.494 81.1961 169.721 81.1513 169.94C81.1065 170.159 80.9949 170.357 80.8323 170.507C80.6698 170.657 80.4648 170.751 80.2466 170.776C80.3616 170.889 80.4459 171.03 80.4914 171.186C80.5369 171.342 80.5422 171.508 80.5065 171.667C80.4751 171.858 80.3878 172.035 80.2561 172.175C80.1244 172.316 79.9543 172.412 79.7678 172.453Z" fill="#263238"/>
<path d="M95.1184 161.999C95.2874 162.125 95.4102 162.305 95.4676 162.51C95.5249 162.716 95.5135 162.934 95.4351 163.132C95.3567 163.33 95.2158 163.496 95.0346 163.603C94.8534 163.71 94.6422 163.753 94.4344 163.725C94.4617 163.86 94.4617 164 94.4344 164.136C94.3755 164.393 94.2242 164.618 94.0103 164.767C93.7964 164.917 93.5354 164.979 93.2785 164.943C93.3023 165.055 93.3023 165.172 93.2785 165.284C93.2171 165.529 93.0635 165.739 92.851 165.869C92.6385 165.999 92.3842 166.039 92.143 165.98C91.933 165.934 91.7461 165.813 91.6164 165.639C91.5436 165.869 91.3885 166.062 91.1819 166.181C90.9753 166.3 90.7323 166.335 90.5014 166.279C90.3707 166.246 90.2476 166.187 90.1389 166.105C90.1422 166.133 90.1422 166.161 90.1389 166.189C90.1093 166.31 90.0564 166.425 89.9833 166.526C89.9102 166.626 89.8183 166.712 89.7129 166.776C89.6075 166.841 89.4905 166.884 89.3688 166.902C89.2471 166.921 89.1229 166.915 89.0035 166.885C88.8521 166.857 88.7101 166.791 88.5906 166.692C88.4711 166.593 88.3778 166.466 88.3195 166.321C88.2279 166.52 88.0721 166.681 87.8779 166.778C87.6837 166.874 87.4629 166.899 87.2524 166.85C87.088 166.806 86.9379 166.719 86.8177 166.596C86.6975 166.474 86.6115 166.321 86.5684 166.154C86.3551 166.256 86.1145 166.283 85.8844 166.231C85.7434 166.202 85.6097 166.144 85.4919 166.06C85.3741 165.977 85.2748 165.869 85.2004 165.743C85.086 165.818 84.9581 165.869 84.8243 165.893C84.6904 165.917 84.5532 165.913 84.4207 165.883C84.2009 165.83 84.0035 165.707 83.8581 165.532C83.7126 165.356 83.6268 165.137 83.6135 164.908C83.4913 164.929 83.3665 164.929 83.2442 164.908C83.0211 164.855 82.8245 164.722 82.6911 164.532C82.5577 164.343 82.4966 164.11 82.5192 163.878C82.3477 163.918 82.1691 163.913 82 163.863C81.831 163.814 81.6771 163.721 81.5527 163.595C81.4284 163.468 81.3376 163.312 81.2889 163.14C81.2402 162.968 81.2351 162.786 81.2743 162.611C81.3001 162.497 81.3465 162.388 81.4111 162.291H81.2469C81.0075 162.227 80.8021 162.071 80.6744 161.855C80.5467 161.639 80.5067 161.381 80.5629 161.136C80.6029 160.963 80.688 160.804 80.8092 160.677C80.5643 160.593 80.3587 160.42 80.2323 160.191C80.1059 159.962 80.0677 159.694 80.1252 159.438C80.1685 159.246 80.2632 159.07 80.3988 158.93C80.2217 158.809 80.085 158.637 80.0068 158.435C79.9286 158.234 79.9126 158.013 79.961 157.802C79.9988 157.648 80.0709 157.506 80.1717 157.385C80.2726 157.264 80.3994 157.169 80.5424 157.106C80.4666 156.995 80.4145 156.87 80.3896 156.737C80.3647 156.605 80.3675 156.468 80.3978 156.337C80.4282 156.206 80.4853 156.082 80.5656 155.975C80.6459 155.868 80.7476 155.779 80.8639 155.714C80.7595 155.59 80.6853 155.443 80.6473 155.285C80.6092 155.126 80.6085 154.961 80.645 154.802C80.6955 154.583 80.8136 154.385 80.9822 154.239C81.1508 154.092 81.361 154.004 81.5821 153.988C81.5444 153.837 81.5444 153.679 81.5821 153.529C81.634 153.301 81.7651 153.1 81.9512 152.963C82.1372 152.826 82.3657 152.763 82.5944 152.784C82.5603 152.635 82.5603 152.48 82.5944 152.331C82.625 152.196 82.6817 152.067 82.7613 151.954C82.8409 151.84 82.9417 151.744 83.0581 151.67C83.1744 151.596 83.3039 151.547 83.4392 151.524C83.5744 151.501 83.7127 151.506 83.8461 151.538C83.9238 151.559 83.9994 151.587 84.0718 151.622C84.0652 151.566 84.0652 151.51 84.0718 151.455C84.1017 151.319 84.1577 151.191 84.2366 151.077C84.3155 150.964 84.4157 150.867 84.5315 150.793C84.6473 150.72 84.7763 150.67 84.9111 150.647C85.0459 150.624 85.1837 150.629 85.3167 150.661C85.4006 150.678 85.4814 150.709 85.5561 150.752C85.5395 150.653 85.5395 150.551 85.5561 150.452C85.6046 150.247 85.7122 150.06 85.8651 149.917C86.0181 149.774 86.2095 149.68 86.4149 149.648C86.6204 149.616 86.8306 149.647 87.0187 149.737C87.2069 149.827 87.3644 149.972 87.4713 150.153C87.5953 150.022 87.7504 149.925 87.9218 149.873C88.0931 149.82 88.2749 149.814 88.4494 149.854C88.71 149.917 88.9373 150.079 89.0856 150.306C89.1821 150.118 89.3376 149.969 89.5273 149.882C89.717 149.795 89.93 149.775 90.1321 149.826C90.2891 149.862 90.4344 149.939 90.5542 150.049C90.6739 150.158 90.7641 150.297 90.8161 150.452C90.9515 150.35 91.1114 150.286 91.2793 150.268C91.4471 150.249 91.6167 150.277 91.7704 150.348C91.9241 150.419 92.0562 150.531 92.153 150.672C92.2498 150.812 92.3078 150.977 92.3209 151.148C92.4395 151.063 92.5745 151.004 92.7172 150.975C92.8598 150.946 93.0068 150.948 93.1485 150.981C93.3824 151.037 93.5906 151.172 93.7386 151.364C93.8867 151.557 93.9656 151.795 93.9625 152.039C94.0756 152.018 94.1914 152.018 94.3045 152.039C94.5448 152.102 94.7513 152.258 94.8793 152.474C95.0073 152.69 95.0465 152.949 94.9885 153.195C94.9667 153.309 94.9225 153.418 94.8585 153.515H94.9201C95.0621 153.538 95.1978 153.592 95.3185 153.671C95.4393 153.751 95.5425 153.855 95.6216 153.977C95.7007 154.1 95.7539 154.238 95.778 154.382C95.802 154.526 95.7964 154.674 95.7614 154.816C95.7374 154.916 95.7006 155.012 95.6519 155.102C95.7335 155.088 95.8167 155.088 95.8982 155.102C96.138 155.162 96.3444 155.317 96.4726 155.532C96.6007 155.748 96.6401 156.005 96.5822 156.25C96.5227 156.502 96.3678 156.719 96.1513 156.855C96.2792 156.969 96.3743 157.116 96.4261 157.28C96.4779 157.444 96.4846 157.62 96.4454 157.788C96.389 158.032 96.2419 158.244 96.035 158.38C96.2255 158.491 96.3765 158.66 96.4665 158.864C96.5566 159.068 96.5809 159.295 96.5361 159.514C96.4913 159.732 96.3797 159.931 96.2172 160.081C96.0547 160.231 95.8496 160.325 95.6314 160.349C95.7464 160.463 95.8307 160.604 95.8762 160.76C95.9218 160.916 95.927 161.082 95.8914 161.24C95.8518 161.431 95.757 161.605 95.6192 161.74C95.4815 161.875 95.307 161.966 95.1184 161.999Z" fill="#263238"/>
<path d="M98.7415 171.778C101.97 182.085 96.2654 185.224 94.0834 185.927C92.093 186.568 85.2598 188.495 80.9985 178.577C76.7372 168.659 80.4239 163.871 84.8905 162.159C89.357 160.447 95.513 161.463 98.7415 171.778Z" fill="#D2978F"/>
<path d="M96.9151 170.671C96.6688 170.671 96.4294 170.671 96.1832 170.671C95.9264 170.717 95.662 170.676 95.4308 170.553C95.3656 170.499 95.3196 170.425 95.2998 170.342C95.2801 170.259 95.2876 170.172 95.3214 170.094C95.4109 169.95 95.5369 169.833 95.6862 169.756C95.8355 169.679 96.0025 169.644 96.1695 169.655C96.5106 169.624 96.8512 169.72 97.1271 169.927C97.1918 169.978 97.2398 170.048 97.265 170.127C97.2903 170.207 97.2916 170.292 97.2688 170.372C97.2459 170.452 97.2001 170.524 97.137 170.577C97.074 170.63 96.9967 170.663 96.9151 170.671Z" fill="#263238"/>
<path d="M90.036 173.247C90.2705 173.155 90.499 173.048 90.72 172.926C90.9688 172.845 91.1848 172.684 91.3356 172.467C91.3682 172.389 91.3752 172.302 91.3555 172.219C91.3358 172.136 91.2904 172.062 91.2262 172.008C91.0819 171.922 90.9178 171.877 90.7508 171.877C90.5838 171.877 90.4197 171.922 90.2754 172.008C89.9563 172.139 89.6974 172.387 89.5504 172.704C89.5235 172.775 89.5166 172.852 89.5304 172.927C89.5442 173.002 89.5782 173.071 89.6286 173.128C89.679 173.184 89.7437 173.225 89.8157 173.246C89.8877 173.267 89.9639 173.267 90.036 173.247Z" fill="#263238"/>
<path d="M91.8761 174.464C91.8761 174.464 91.8351 174.513 91.8761 174.54C92.0882 175.236 92.2113 176.086 91.6367 176.496C91.6367 176.496 91.6367 176.545 91.6367 176.538C92.3412 176.218 92.1908 175.097 91.8761 174.464Z" fill="#263238"/>
<path d="M91.053 173.887C89.9107 174.11 90.4237 176.427 91.4907 176.226C92.5578 176.024 92.0174 173.706 91.053 173.887Z" fill="#263238"/>
<path d="M90.6356 174.116C90.4646 174.29 90.3209 174.569 90.0884 174.645C89.8558 174.722 89.548 174.548 89.3155 174.353C89.3155 174.353 89.2812 174.353 89.2812 174.388C89.377 174.833 89.6438 175.251 90.1294 175.209C90.6151 175.167 90.8134 174.708 90.8134 174.235C90.7997 174.151 90.704 174.04 90.6356 174.116Z" fill="#263238"/>
<path d="M96.0078 173.315C96.0078 173.315 96.0694 173.315 96.0762 173.371C96.2062 174.067 96.4798 174.902 97.1706 175V175.042C96.3635 175.104 96.0147 174.025 96.0078 173.315Z" fill="#263238"/>
<path d="M96.4442 172.425C97.566 172.084 98.1542 174.388 97.1282 174.701C96.1022 175.014 95.5345 172.71 96.4442 172.425Z" fill="#263238"/>
<path d="M96.9847 172.453C97.1967 172.529 97.4293 172.703 97.6687 172.661C97.9081 172.62 98.038 172.313 98.1338 172.035C98.1338 172 98.168 172.035 98.1748 172.035C98.2979 172.473 98.2774 172.968 97.8807 173.163C97.484 173.357 97.1488 173.037 96.9299 172.627C96.8684 172.564 96.9026 172.418 96.9847 172.453Z" fill="#263238"/>
<path d="M95.4954 177.088C95.4954 177.088 95.8648 178.132 95.9674 178.64C95.9674 178.689 95.8648 178.738 95.6938 178.78C95.2818 178.951 94.8314 179.003 94.3922 178.93C93.953 178.858 93.5419 178.664 93.204 178.369C93.198 178.359 93.1949 178.348 93.1953 178.337C93.1957 178.326 93.1996 178.315 93.2063 178.305C93.213 178.296 93.2222 178.29 93.2328 178.286C93.2434 178.282 93.2549 178.282 93.2656 178.286C93.9943 178.59 94.7999 178.649 95.5638 178.453C95.5638 178.306 94.8798 176.685 94.9551 176.657C95.3479 176.605 95.7456 176.605 96.1384 176.657C95.4544 174.458 94.3873 172.39 93.717 170.184C93.717 170.108 93.8059 170.059 93.8401 170.121C95.0292 172.305 96.0008 174.604 96.7403 176.984C96.8224 177.318 95.7143 177.158 95.4954 177.088Z" fill="#263238"/>
<path d="M95.6307 178.613C95.4535 179.1 95.1568 179.534 94.7689 179.872C94.5507 180.046 94.286 180.148 94.0096 180.165C93.4077 180.199 93.2299 179.677 93.1957 179.197C93.1768 178.941 93.1906 178.684 93.2367 178.432C93.9955 178.749 94.8341 178.813 95.6307 178.613Z" fill="#263238"/>
<path d="M94.7685 179.872C94.5503 180.045 94.2856 180.147 94.0093 180.164C93.4074 180.199 93.2295 179.677 93.1953 179.197C93.4939 179.111 93.8123 179.131 94.0981 179.254C94.384 179.377 94.6204 179.595 94.7685 179.872Z" fill="#FF9CBD"/>
<path d="M89.0516 163.669C89.4848 164.539 89.6516 165.521 89.5304 166.488C88.9353 169.147 85.9462 169.161 85.187 170.337C84.4278 171.513 85.187 173.205 84.5645 174.283C83.6959 175.78 82.7246 175.07 82.7178 175.947C82.7109 176.824 82.7178 179.587 81.7875 180.165C80.8573 180.742 72.1705 164.24 85.8915 161.686C85.8915 161.686 87.622 160.37 90.8095 161.31C95.3512 162.646 97.2459 167.929 97.2459 167.929C96.7564 167.931 96.272 167.829 95.8232 167.63C95.0366 167.191 94.6193 166.822 94.0516 166.551C93.1624 166.126 92.7931 166.655 91.8765 166.252C90.488 165.632 89.0516 163.669 89.0516 163.669Z" fill="#263238"/>
<path d="M88.7953 163.112C89.159 163.751 89.4483 164.431 89.6571 165.138C89.8947 165.806 89.9514 166.527 89.8213 167.226C89.5957 167.898 89.1357 168.462 88.5285 168.813C87.9403 169.202 87.2426 169.439 86.6065 169.877C86.2758 170.102 86.0129 170.415 85.8472 170.782C85.7169 171.152 85.6611 171.545 85.6831 171.938C85.7638 172.652 85.6477 173.375 85.3479 174.026C85.1751 174.335 84.9381 174.602 84.6534 174.809C84.3687 175.016 84.0432 175.157 83.6995 175.223C82.9703 175.265 82.2587 175.466 81.6133 175.814C82.2494 175.404 82.9813 175.494 83.7268 175.39C84.1041 175.336 84.4651 175.198 84.7842 174.986C85.1033 174.775 85.3728 174.494 85.5736 174.165C85.9243 173.48 86.0716 172.706 85.9977 171.938C85.9792 171.59 86.0304 171.242 86.1482 170.914C86.3048 170.605 86.5413 170.345 86.8322 170.163C87.3999 169.752 88.0976 169.502 88.7269 169.084C89.0471 168.875 89.3353 168.62 89.5819 168.325C89.8365 168.028 90.0172 167.672 90.1086 167.288C90.2235 166.531 90.1312 165.755 89.8418 165.047C89.5695 164.362 89.2182 163.713 88.7953 163.112Z" fill="#263238"/>
<path d="M89.1953 163.684C89.4749 164.316 89.8386 164.906 90.276 165.438C90.7113 166.005 91.3014 166.428 91.9724 166.656C92.3091 166.738 92.6525 166.789 92.9984 166.809C93.3047 166.835 93.597 166.951 93.8397 167.143C94.0728 167.401 94.3318 167.635 94.6126 167.839C94.9114 168.017 95.2457 168.124 95.5907 168.152C95.2705 168.061 94.9708 167.907 94.7084 167.7C94.4583 167.476 94.2294 167.229 94.0244 166.962C93.7537 166.707 93.4119 166.544 93.0462 166.495C92.7182 166.474 92.393 166.42 92.075 166.335C91.4625 166.122 90.9138 165.753 90.4812 165.264C90.0176 164.767 89.588 164.239 89.1953 163.684Z" fill="#263238"/>
<path d="M82.8537 178.849C82.8537 178.849 79.8578 176.065 78.5719 177.234C77.2859 178.403 80.0493 182.802 81.9166 183.032C82.1542 183.082 82.3993 183.083 82.6372 183.034C82.8751 182.985 83.1008 182.888 83.3008 182.748C83.5008 182.608 83.671 182.429 83.801 182.221C83.9311 182.012 84.0183 181.779 84.0575 181.535L82.8537 178.849Z" fill="#D2978F"/>
<path d="M79.3984 178.48V178.529C80.7186 178.751 81.6078 179.747 82.3191 180.825C82.2205 180.719 82.1006 180.636 81.9675 180.581C81.8343 180.526 81.6911 180.501 81.5476 180.508C81.4041 180.514 81.2637 180.552 81.136 180.619C81.0083 180.686 80.8962 180.78 80.8075 180.895C80.8075 180.895 80.8075 180.965 80.8554 180.951C81.0525 180.832 81.281 180.78 81.509 180.8C81.737 180.819 81.9532 180.911 82.1276 181.062C82.4189 181.316 82.6826 181.6 82.9142 181.911C82.9963 182.002 83.1741 181.911 83.1057 181.786C82.7637 180.164 81.0879 178.243 79.3984 178.48Z" fill="#263238"/>
<path d="M78.388 199.45C81.0487 216.022 88.5317 228.126 91.637 228.648C99.9887 230.04 114.113 216.12 118.313 212.89C120.016 211.568 106.124 199.736 104.483 201.357C100.611 205.172 95.4811 210.28 95.2007 210.28C94.6124 210.28 92.622 206.16 85.3511 196.444C79.2772 188.307 77.2936 192.678 78.388 199.45Z" fill="#D2978F"/>
<path d="M126.06 185.384C127.209 187.173 122.64 189.699 122.64 189.699C123.546 189.705 124.422 190.033 125.116 190.625C126.293 191.732 125.116 194.105 125.116 194.105C126.053 194.309 126.908 194.794 127.572 195.497C128.591 196.666 127.722 199.221 127.722 199.221C128.461 199.906 128.944 200.831 129.09 201.838C129.63 206.369 119.911 212.841 116.778 214.087L104.035 202.38C104.035 202.38 108.762 191.634 112.613 188.857C114.733 187.312 124.295 182.656 126.06 185.384Z" fill="#D2978F"/>
<path d="M122.566 189.672C119.852 190.621 117.263 191.907 114.857 193.5C114.851 193.503 114.845 193.507 114.841 193.512C114.836 193.517 114.833 193.523 114.831 193.529C114.828 193.536 114.828 193.543 114.828 193.55C114.829 193.557 114.831 193.563 114.835 193.569C114.838 193.575 114.843 193.58 114.848 193.584C114.854 193.588 114.86 193.591 114.867 193.593C114.873 193.594 114.88 193.594 114.887 193.592C114.893 193.591 114.9 193.588 114.905 193.584C117.306 192.08 120.165 191.196 122.621 189.797C122.634 189.788 122.644 189.774 122.648 189.759C122.653 189.743 122.651 189.726 122.645 189.711C122.638 189.696 122.627 189.684 122.612 189.677C122.598 189.67 122.581 189.668 122.566 189.672Z" fill="#263238"/>
<path d="M124.913 193.952C124.309 194.203 123.741 194.536 123.224 194.94C122.649 195.33 122.082 195.727 121.521 196.137C120.394 196.959 119.289 197.808 118.203 198.685C118.155 198.727 118.203 198.81 118.258 198.775C119.38 197.954 120.52 197.158 121.678 196.388C122.253 196.005 122.834 195.629 123.422 195.254C123.995 194.934 124.532 194.551 125.023 194.112C125.044 194.097 125.058 194.075 125.062 194.049C125.067 194.024 125.061 193.998 125.047 193.976C125.039 193.966 125.03 193.957 125.02 193.95C125.009 193.943 124.997 193.938 124.985 193.936C124.96 193.932 124.934 193.937 124.913 193.952Z" fill="#263238"/>
<path d="M127.657 199.256C127.113 199.49 126.614 199.817 126.179 200.223L124.654 201.372C123.642 202.13 122.602 202.889 121.576 203.606C121.568 203.615 121.564 203.626 121.563 203.638C121.562 203.65 121.565 203.662 121.571 203.672C121.577 203.682 121.586 203.69 121.597 203.694C121.607 203.698 121.619 203.699 121.631 203.696C122.691 202.966 123.765 202.256 124.825 201.518L126.378 200.418C126.879 200.13 127.326 199.752 127.698 199.305C127.698 199.305 127.684 199.242 127.657 199.256Z" fill="#263238"/>
<path d="M128.593 200.362C129.065 201.06 129.276 201.907 129.188 202.75C129.083 203.597 128.765 204.402 128.265 205.088C127.326 206.459 126.233 207.713 125.009 208.826C123.795 209.944 122.499 210.966 121.131 211.881C119.766 212.797 118.321 213.582 116.814 214.227C115.857 215.027 109.564 220.56 108.559 220.978C109.448 220.101 115.706 214.846 116.616 214.018C118.063 213.293 119.456 212.461 120.782 211.526C122.113 210.602 123.386 209.593 124.592 208.506C125.8 207.423 126.908 206.231 127.902 204.942C128.4 204.315 128.74 203.575 128.894 202.784C129.075 201.966 128.968 201.109 128.593 200.362Z" fill="#263238"/>
<path d="M80.5226 213.399L93.0877 206.223C93.0877 206.223 87.9782 197.405 83.5117 193.194C79.0452 188.983 77.1847 192.171 77.7456 198.157C78.3065 204.142 80.5226 213.399 80.5226 213.399Z" fill="#455A64"/>
<path d="M80.4865 194.579C79.8217 194.842 79.1974 195.201 78.6328 195.644C79.3385 195.558 80.0291 195.373 80.6848 195.094C81.3496 194.831 81.9739 194.473 82.5385 194.029C81.8315 194.108 81.14 194.294 80.4865 194.579ZM84.3305 206.084C83.6777 205.791 82.9865 205.597 82.2785 205.506C82.8434 205.957 83.4673 206.324 84.1322 206.599C84.7864 206.886 85.4772 207.079 86.1842 207.17C85.6191 206.722 84.9952 206.356 84.3305 206.084Z" fill="white"/>
<path d="M90.9712 203.752C87.2529 205.476 83.6517 207.45 80.1914 209.661C80.1914 209.661 80.1914 209.759 80.2393 209.752C83.2694 208.318 89.0902 205.005 91.0328 203.884C91.067 203.864 90.9712 203.731 90.9712 203.752Z" fill="#263238"/>
<path d="M81.7463 212.702C81.3633 212.974 80.9666 213.231 80.5767 213.489L80.4604 213.572L80.4194 213.419C79.9086 211.493 79.4526 209.552 79.0514 207.593C78.8598 206.619 78.6683 205.638 78.5178 204.656C78.3674 203.675 78.2032 202.687 78.0938 201.691C78.381 202.652 78.6409 203.619 78.8735 204.587C79.1061 205.554 79.3386 206.522 79.5575 207.496C79.977 209.44 80.3327 211.398 80.6246 213.37L80.4672 213.301C80.8982 213.099 81.3154 212.89 81.7463 212.702Z" fill="#263238"/>
<path d="M78.8112 205.408C78.5699 205.076 78.3549 204.724 78.1683 204.357C77.9736 203.996 77.8089 203.619 77.6758 203.229C78.1551 203.896 78.5375 204.63 78.8112 205.408Z" fill="#263238"/>
<path d="M92.6122 206.578C92.7422 206.425 92.8858 206.286 93.0226 206.133V206.279C92.1403 204.928 91.2853 203.571 90.4166 202.221L87.8242 198.149C88.95 199.307 89.9605 200.575 90.8407 201.936C91.735 203.285 92.5262 204.702 93.2073 206.174L93.2552 206.272L93.1799 206.313C92.9679 206.404 92.7969 206.501 92.6122 206.578Z" fill="#263238"/>
<path d="M90.1119 201.114C89.9076 200.758 89.7315 200.385 89.5852 200.001C89.4366 199.616 89.3155 199.22 89.2227 198.817C89.4269 199.174 89.603 199.546 89.7493 199.931C89.8979 200.316 90.019 200.711 90.1119 201.114Z" fill="#263238"/>
<path d="M235.639 281.579C235.078 283.131 207.465 318.049 205.584 318.71C204.9 318.961 199.64 315.161 193.443 310.358C192.075 309.328 190.707 308.27 189.339 307.164C180.303 300.058 170.871 292.304 170.871 292.304L189.278 268.884L207.253 284.425L211.193 287.829C211.193 287.829 227.643 279.268 229.784 278.781C231.925 278.294 236.2 280.034 235.639 281.579Z" fill="#D2978F"/>
<path d="M235.52 280.952C234.905 282.539 205.616 317.889 203.66 318.536C202.921 318.787 197.606 314.743 191.348 309.669L191.156 309.509L209.802 286.485L210.171 286.82C210.171 286.82 227.333 278.391 229.556 277.939C231.779 277.486 236.136 279.4 235.52 280.952Z" fill="#263238"/>
<path d="M233.837 280.193C228.755 286.033 208.803 310.059 204.22 316.218C204.179 316.274 204.22 316.295 204.254 316.253C209.419 310.581 229.179 286.388 233.933 280.277C234.036 280.151 233.926 280.096 233.837 280.193Z" fill="white"/>
<path d="M211.809 284.968C209.436 286.945 207.418 290.119 207.575 293.32C207.575 293.446 207.753 293.432 207.794 293.32C208.939 290.469 210.381 287.75 212.096 285.212C212.116 285.173 212.122 285.127 212.114 285.084C212.105 285.04 212.082 285.001 212.049 284.973C212.015 284.945 211.973 284.929 211.93 284.928C211.886 284.927 211.843 284.941 211.809 284.968Z" fill="white"/>
<path d="M214.214 284.112C211.841 286.082 209.816 289.255 209.973 292.464C209.973 292.589 210.158 292.575 210.192 292.464C211.34 289.614 212.782 286.895 214.495 284.356C214.512 284.317 214.517 284.274 214.508 284.232C214.499 284.191 214.477 284.153 214.445 284.126C214.413 284.098 214.374 284.082 214.332 284.079C214.29 284.077 214.249 284.088 214.214 284.112Z" fill="white"/>
<path d="M216.624 283.277C214.251 285.254 212.226 288.427 212.384 291.629C212.384 291.754 212.561 291.747 212.602 291.629C213.747 288.777 215.189 286.059 216.905 283.521C216.922 283.482 216.927 283.439 216.918 283.397C216.909 283.356 216.887 283.318 216.855 283.291C216.824 283.263 216.784 283.247 216.742 283.244C216.7 283.242 216.659 283.253 216.624 283.277Z" fill="white"/>
<path d="M234.723 279.345C235.489 278.913 237.459 280.841 237.254 281.433C237.049 282.024 204.935 320.409 204.251 320.965C203.567 321.522 201.453 319.274 201.966 318.411C202.479 317.548 234.723 279.345 234.723 279.345Z" fill="#275991"/>
<path d="M199.866 306.989C196.48 308.472 198.737 313.824 202.13 312.342C205.523 310.859 203.252 305.507 199.866 306.989Z" fill="white"/>
<path d="M206.274 280.89L187.122 307.185L122.497 261.555L116.28 257.128C116.28 257.128 114.515 258.339 111.854 259.836C108.167 261.924 102.757 264.534 97.9758 265.251C89.9525 266.462 76.5529 266.329 69.795 257.128C64.0973 249.382 67.189 239.276 67.189 239.276L75.9989 235.427C75.9989 235.427 96.8472 217.749 110.349 217.22C116.088 216.99 124.44 221.396 132.176 226.031C139.912 230.666 206.274 280.89 206.274 280.89Z" fill="#263238"/>
<path d="M116.282 257.128C116.282 257.128 114.517 258.339 111.857 259.836C107.164 254.115 97.2189 243.723 96.918 243.354L116.282 257.128Z" fill="#37474F"/>
<path d="M83.6272 229.532C82.3823 230.409 81.1785 231.349 79.9473 232.254C78.7161 233.158 77.4917 233.973 76.3426 234.947C75.1935 235.921 74.0649 236.986 72.9637 238.051C72.4301 238.566 71.9035 239.081 71.3905 239.61C70.8486 240.123 70.3455 240.677 69.8857 241.267C69.8793 241.28 69.8774 241.295 69.8801 241.31C69.8828 241.324 69.8901 241.338 69.9008 241.348C69.9115 241.358 69.9251 241.364 69.9396 241.366C69.9541 241.368 69.9688 241.365 69.9814 241.357C70.5652 240.928 71.1226 240.463 71.6504 239.965L73.3946 238.455C74.5095 237.487 75.6518 236.541 76.7735 235.566C77.8953 234.592 78.9145 233.548 80.0089 232.567C81.1033 231.585 82.4302 230.548 83.6546 229.56C83.6751 229.553 83.6546 229.511 83.6272 229.532Z" fill="#37474F"/>
<path d="M199.729 278.21C198.566 279.651 197.506 281.189 196.439 282.699C195.372 284.209 194.298 285.741 193.238 287.265C191.118 290.32 188.983 293.369 186.904 296.452C185.762 298.15 184.64 299.855 183.587 301.609C183.546 301.686 183.662 301.762 183.724 301.693C186.022 298.784 188.101 295.7 190.215 292.645C192.328 289.589 194.435 286.52 196.507 283.43C197.643 281.739 198.813 280.047 199.845 278.293C199.85 278.278 199.849 278.262 199.844 278.247C199.839 278.232 199.829 278.219 199.817 278.209C199.804 278.2 199.788 278.195 199.773 278.195C199.757 278.195 199.742 278.2 199.729 278.21Z" fill="#37474F"/>
<path d="M148.738 280.214C145.523 277.639 142.192 275.203 138.854 272.788C135.516 270.373 132.226 267.965 128.861 265.633C127.889 264.965 126.916 264.304 125.94 263.649C124.969 262.988 123.956 262.383 123.006 261.701C122.951 261.659 122.903 261.756 122.958 261.791C123.833 262.431 124.654 263.148 125.516 263.81C126.378 264.471 127.151 265.083 127.978 265.703C129.593 266.921 131.22 268.111 132.848 269.315C136.154 271.746 139.485 274.136 142.842 276.484C144.75 277.813 146.645 279.149 148.594 280.416C148.71 280.493 148.854 280.305 148.738 280.214Z" fill="#37474F"/>
<path d="M169.406 253.084C166.437 250.579 163.25 248.331 160.138 246.013C157.026 243.695 153.852 241.301 150.692 238.976L141.273 232.072C138.236 229.838 135.206 227.562 131.998 225.585C130.24 224.5 128.434 223.497 126.581 222.586C124.783 221.653 122.911 220.875 120.986 220.261C120.974 220.26 120.963 220.263 120.953 220.269C120.943 220.275 120.935 220.284 120.93 220.294C120.926 220.305 120.925 220.317 120.927 220.329C120.93 220.34 120.936 220.351 120.945 220.358C122.531 221.263 124.194 222.015 125.794 222.885C127.395 223.755 128.941 224.646 130.473 225.592C133.667 227.562 136.677 229.768 139.7 232.009C145.986 236.61 152.251 241.225 158.578 245.755C162.121 248.296 165.589 250.975 169.262 253.307C169.379 253.356 169.515 253.175 169.406 253.084Z" fill="#37474F"/>
<path d="M43.2549 144.494C43.5503 147.352 44.6199 150.07 46.3446 152.345C48.0692 154.621 50.381 156.364 53.0223 157.381C55.6636 158.398 58.5306 158.648 61.3035 158.104C64.0765 157.561 66.6465 156.244 68.7271 154.301L76.3468 155.442L72.5369 148.733C73.4118 146.548 73.7857 144.19 73.6303 141.837C73.4749 139.484 72.7942 137.197 71.64 135.152C70.4858 133.107 68.8885 131.356 66.9695 130.033C65.0505 128.71 62.8603 127.85 60.5655 127.518C58.2707 127.186 55.9317 127.39 53.7263 128.116C51.5209 128.842 49.5071 130.07 47.8382 131.707C46.1692 133.343 44.889 135.346 44.0948 137.561C43.3006 139.777 43.0133 142.148 43.2549 144.494Z" fill="white"/>
<path d="M47.8175 131.681C49.4857 130.028 51.4953 128.775 53.6999 128.013C56.4986 127.071 59.5042 126.964 62.3604 127.707C65.2165 128.45 67.8036 130.01 69.8149 132.203C71.8262 134.396 73.1774 137.13 73.7084 140.081C74.2394 143.032 73.9279 146.075 72.8108 148.851V148.58L76.607 155.303L76.8806 155.797L76.3334 155.714L68.7137 154.524L68.8915 154.468C66.7767 156.415 64.1718 157.726 61.3675 158.254C60.6702 158.388 59.9633 158.462 59.2539 158.477C58.5494 158.515 57.843 158.501 57.1404 158.435C55.7332 158.301 54.3517 157.966 53.0364 157.44C51.7182 156.926 50.479 156.223 49.3565 155.352C48.7943 154.92 48.2576 154.455 47.7491 153.96C47.2606 153.449 46.8037 152.907 46.3811 152.338C44.0976 149.306 42.9874 145.526 43.261 141.715C43.5345 137.905 45.1729 134.33 47.8653 131.667L47.8175 131.681ZM46.3811 152.317C47.223 153.459 48.2336 154.462 49.377 155.289C50.4989 156.139 51.7362 156.819 53.0501 157.308C55.0128 158.062 57.1134 158.373 59.2061 158.219C59.8956 158.188 60.5817 158.102 61.2581 157.962C64.0023 157.401 66.5375 156.071 68.5769 154.12L68.6521 154.043H68.7547L76.3881 155.129L76.1145 155.54L72.2773 148.844L72.2021 148.719L72.2636 148.58C73.1073 146.435 73.4718 144.127 73.3307 141.822C73.1831 139.514 72.5236 137.27 71.4018 135.258C70.2586 133.256 68.7021 131.529 66.8395 130.198C64.9572 128.876 62.8022 128.009 60.5399 127.665C58.2712 127.313 55.9536 127.489 53.7614 128.18C51.5632 128.908 49.5532 130.128 47.879 131.75C45.1556 134.372 43.4918 137.933 43.2134 141.737C42.9351 145.542 44.0623 149.314 46.3742 152.317H46.3811Z" fill="#263238"/>
<path d="M56.1561 151.448L49.8086 144.905L51.9427 142.761L55.65 146.582L63.3586 134.284L65.8894 135.927L56.1561 151.448Z" fill="#275991"/>
</g>
<defs>
<clipPath id="clip0_1100_2160">
<rect width="342" height="334" fill="white"/>
</clipPath>
</defs>
</svg>
