<svg width="176" height="229" viewBox="0 0 176 229" fill="none" xmlns="http://www.w3.org/2000/svg">
<rect width="166" height="170" fill="white"/>
<path d="M132.296 25.0549C134.614 22.2355 134.274 18.0557 131.33 15.8967C117.931 6.06818 101.932 0.51683 85.3587 0.0343279C66.6114 -0.51148 48.2362 5.46111 33.2276 16.9788C18.219 28.4965 7.46191 44.8802 2.70922 63.4601C-2.04346 82.0399 -0.511501 101.721 7.05545 119.295C14.6224 136.869 27.7782 151.3 44.379 160.237C60.9798 169.175 80.0469 172.09 98.473 168.51C116.899 164.929 133.598 155.063 145.848 140.52C156.687 127.652 163.478 111.793 165.422 95.0167C165.843 91.385 162.975 88.2995 159.322 88.1488C155.659 87.9977 152.6 90.8559 152.125 94.4908C150.331 108.19 144.686 121.114 135.81 131.652C125.516 143.873 111.485 152.163 96.0016 155.171C80.5186 158.18 64.497 155.73 50.5477 148.22C36.5984 140.711 25.5439 128.584 19.1855 113.817C12.8272 99.0499 11.5399 82.5127 15.5335 66.9005C19.5271 51.2883 28.566 37.5214 41.1774 27.8433C53.7888 18.1653 69.229 13.1467 84.9819 13.6053C98.4539 13.9975 111.475 18.3759 122.503 26.1381C125.589 28.31 129.899 27.9694 132.296 25.0549Z" fill="#39CB04"/>
<path d="M166 26.5322L84.8588 110.058L47.9766 72.0919" stroke="#39CB04" stroke-width="20" stroke-linecap="round" stroke-linejoin="round"/>
<path d="M40.4456 228.608C38.9096 228.608 37.459 228.427 36.0936 228.064C34.7283 227.701 33.523 227.147 32.4776 226.4C31.4323 225.675 30.611 224.747 30.0136 223.616C29.4376 222.507 29.1496 221.195 29.1496 219.68C29.1496 218.379 29.3416 217.152 29.7256 216C30.1096 214.848 30.6643 213.781 31.3896 212.8C32.1363 211.797 33.0323 210.891 34.0776 210.08C35.123 209.248 36.2963 208.523 37.5976 207.904C38.899 207.285 40.2963 206.773 41.7896 206.368L41.5656 206.816C41.0323 206.645 40.467 206.464 39.8696 206.272C39.2936 206.08 38.675 205.899 38.0136 205.728C37.3736 205.536 36.6803 205.387 35.9336 205.28C35.2083 205.173 34.4296 205.12 33.5976 205.12C32.9363 205.12 32.3283 205.173 31.7736 205.28C31.2403 205.365 30.7496 205.472 30.3016 205.6L29.7896 202.624C30.3656 202.411 30.995 202.24 31.6776 202.112C32.3816 201.963 33.0963 201.888 33.8216 201.888C34.867 201.888 35.8056 201.984 36.6376 202.176C37.4696 202.368 38.2483 202.603 38.9736 202.88C39.7203 203.136 40.4776 203.403 41.2456 203.68C42.035 203.957 42.8776 204.192 43.7736 204.384C44.6696 204.576 45.6936 204.672 46.8456 204.672H47.4536L47.6136 207.968C46.6536 207.968 45.6083 208.085 44.4776 208.32C43.347 208.533 42.2163 208.864 41.0856 209.312C39.955 209.739 38.8563 210.272 37.7896 210.912C36.7443 211.552 35.8056 212.299 34.9736 213.152C34.163 213.984 33.5123 214.912 33.0216 215.936C32.5523 216.96 32.3176 218.08 32.3176 219.296C32.3176 220.384 32.5416 221.312 32.9896 222.08C33.4376 222.869 34.0456 223.509 34.8136 224C35.603 224.491 36.5096 224.843 37.5336 225.056C38.5576 225.291 39.6456 225.408 40.7976 225.408C41.8856 225.408 42.995 225.291 44.1256 225.056C45.2563 224.821 46.3656 224.491 47.4536 224.064L48.4776 226.752C47.1336 227.392 45.779 227.861 44.4136 228.16C43.0483 228.459 41.7256 228.608 40.4456 228.608ZM59.2399 216.16C57.4479 216.16 56.0719 215.968 55.1119 215.584C54.1519 215.179 53.4905 214.571 53.1279 213.76C52.7652 212.928 52.5519 211.861 52.4879 210.56L51.8479 192.992H55.0159L55.6879 209.216C55.7305 210.24 55.8265 211.029 55.9759 211.584C56.1465 212.117 56.4985 212.491 57.0319 212.704C57.5865 212.896 58.4292 212.992 59.5599 212.992C60.1145 212.992 60.5092 213.141 60.7439 213.44C60.9999 213.739 61.1279 214.091 61.1279 214.496C61.1279 214.944 60.9572 215.339 60.6159 215.68C60.2745 216 59.8159 216.16 59.2399 216.16ZM79.7784 216.16C78.861 216.16 78.0077 216.096 77.2184 215.968C76.4504 215.84 75.7464 215.616 75.1064 215.296C74.4877 214.955 73.9544 214.475 73.5064 213.856C73.0584 213.216 72.7064 212.395 72.4504 211.392L74.5304 210.016C74.8504 210.827 75.2344 211.445 75.6824 211.872C76.1304 212.277 76.7064 212.565 77.4104 212.736C78.1357 212.907 79.0317 212.992 80.0984 212.992C80.653 212.992 81.0477 213.141 81.2824 213.44C81.5384 213.739 81.6664 214.091 81.6664 214.496C81.6664 214.944 81.4957 215.339 81.1544 215.68C80.813 216 80.3544 216.16 79.7784 216.16ZM59.2344 216.16L59.5224 212.992C60.653 212.992 61.7624 212.917 62.8504 212.768C63.9384 212.597 64.9944 212.363 66.0184 212.064C67.0637 211.765 68.0557 211.392 68.9944 210.944C69.9544 210.496 70.861 209.984 71.7144 209.408C71.1384 208.939 70.4877 208.533 69.7624 208.192C69.037 207.851 68.237 207.595 67.3624 207.424C66.509 207.232 65.613 207.136 64.6744 207.136C64.333 207.136 63.9917 207.147 63.6504 207.168C63.3304 207.189 63.0104 207.232 62.6904 207.296C62.3704 207.339 62.0184 207.403 61.6344 207.488L61.0904 204.48C61.6877 204.309 62.285 204.181 62.8824 204.096C63.501 204.011 64.077 203.968 64.6104 203.968C65.7197 203.968 66.733 204.107 67.6504 204.384C68.5677 204.64 69.4104 204.96 70.1784 205.344C70.9464 205.728 71.661 206.112 72.3224 206.496C73.005 206.88 73.6557 207.2 74.2744 207.456C74.893 207.712 75.533 207.84 76.1944 207.84H77.0264L77.3144 210.72C76.397 210.741 75.5437 210.891 74.7544 211.168C73.9864 211.424 73.229 211.765 72.4824 212.192C71.7357 212.597 70.9464 213.035 70.1144 213.504C69.2824 213.952 68.3544 214.379 67.3304 214.784C66.3277 215.168 65.165 215.499 63.8424 215.776C62.5197 216.032 60.9837 216.16 59.2344 216.16ZM67.8104 222.368C67.2984 222.368 66.8717 222.197 66.5304 221.856C66.189 221.515 66.0184 221.099 66.0184 220.608C66.0184 220.139 66.189 219.723 66.5304 219.36C66.8717 218.997 67.2984 218.816 67.8104 218.816C68.2797 218.816 68.685 218.997 69.0264 219.36C69.389 219.723 69.5704 220.139 69.5704 220.608C69.5704 221.099 69.389 221.515 69.0264 221.856C68.685 222.197 68.2797 222.368 67.8104 222.368ZM79.7656 216.16L80.0856 212.992C80.9603 212.992 81.643 212.917 82.1336 212.768C82.6456 212.597 83.0403 212.288 83.3176 211.84C83.595 211.371 83.8296 210.699 84.0216 209.824C84.2136 208.949 84.4376 207.787 84.6936 206.336L87.7016 206.88C87.6163 207.264 87.5203 207.68 87.4136 208.128C87.3283 208.576 87.2536 209.035 87.1896 209.504C87.1256 209.952 87.0936 210.347 87.0936 210.688C87.0936 211.157 87.1896 211.563 87.3816 211.904C87.595 212.245 88.011 212.512 88.6296 212.704C89.2483 212.896 90.187 212.992 91.4456 212.992C92.0003 212.992 92.395 213.141 92.6296 213.44C92.8856 213.739 93.0136 214.091 93.0136 214.496C93.0136 214.944 92.843 215.339 92.5016 215.68C92.1603 216 91.7016 216.16 91.1256 216.16C89.7176 216.16 88.5976 216.032 87.7656 215.776C86.9336 215.52 86.3256 215.125 85.9416 214.592C85.5576 214.037 85.3016 213.333 85.1736 212.48L86.2936 212.512C85.9523 213.301 85.5576 213.941 85.1096 214.432C84.683 214.901 84.2136 215.264 83.7016 215.52C83.1896 215.776 82.603 215.947 81.9416 216.032C81.3016 216.117 80.5763 216.16 79.7656 216.16ZM85.2056 203.04C84.6936 203.04 84.2563 202.869 83.8936 202.528C83.5523 202.187 83.3816 201.76 83.3816 201.248C83.3816 200.757 83.5523 200.331 83.8936 199.968C84.2563 199.605 84.6936 199.424 85.2056 199.424C85.6963 199.424 86.1123 199.605 86.4536 199.968C86.8163 200.331 86.9976 200.757 86.9976 201.248C86.9976 201.76 86.8163 202.187 86.4536 202.528C86.1123 202.869 85.6963 203.04 85.2056 203.04ZM91.1406 216.16L91.4606 212.992C92.4846 212.992 93.2846 212.928 93.8606 212.8C94.458 212.672 94.8846 212.416 95.1406 212.032C95.418 211.648 95.5566 211.083 95.5566 210.336C95.5566 209.781 95.4713 209.12 95.3006 208.352C95.1513 207.584 94.938 206.784 94.6606 205.952C94.3833 205.099 94.0953 204.267 93.7966 203.456L96.9326 202.432C97.21 203.136 97.466 203.936 97.7006 204.832C97.9566 205.728 98.17 206.624 98.3406 207.52C98.5113 208.416 98.5966 209.237 98.5966 209.984C98.5966 210.923 98.49 211.744 98.2766 212.448C98.0633 213.131 97.7433 213.717 97.3166 214.208C96.9113 214.677 96.3993 215.061 95.7806 215.36C95.1833 215.637 94.49 215.84 93.7006 215.968C92.9326 216.096 92.0793 216.16 91.1406 216.16ZM94.7246 222.528C94.2126 222.528 93.786 222.357 93.4446 222.016C93.1033 221.675 92.9326 221.259 92.9326 220.768C92.9326 220.299 93.1033 219.883 93.4446 219.52C93.786 219.157 94.2126 218.976 94.7246 218.976C95.194 218.976 95.5993 219.157 95.9406 219.52C96.3033 219.883 96.4846 220.299 96.4846 220.768C96.4846 221.259 96.3033 221.675 95.9406 222.016C95.5993 222.357 95.194 222.528 94.7246 222.528ZM110.668 228.576C110.22 226.912 109.836 225.291 109.516 223.712C109.196 222.155 108.951 220.747 108.78 219.488C108.609 218.251 108.524 217.291 108.524 216.608C108.524 214.944 108.791 213.44 109.324 212.096C109.879 210.731 110.583 209.536 111.436 208.512C112.311 207.488 113.239 206.635 114.22 205.952C115.223 205.248 116.183 204.725 117.1 204.384C118.039 204.021 118.839 203.84 119.5 203.84C120.097 203.84 120.609 203.989 121.036 204.288C121.484 204.565 121.9 205.056 122.284 205.76C122.668 206.464 123.084 207.445 123.532 208.704C123.959 209.899 124.353 210.805 124.716 211.424C125.1 212.021 125.505 212.437 125.932 212.672C126.359 212.885 126.849 212.992 127.404 212.992C127.959 212.992 128.353 213.141 128.588 213.44C128.844 213.739 128.972 214.091 128.972 214.496C128.972 214.944 128.801 215.339 128.46 215.68C128.119 216 127.66 216.16 127.084 216.16C126.188 216.16 125.42 216.011 124.78 215.712C124.14 215.392 123.575 214.944 123.084 214.368L123.852 213.664C123.617 214.304 123.308 214.837 122.924 215.264C122.561 215.691 122.124 216.011 121.612 216.224C121.121 216.459 120.577 216.576 119.98 216.576C119.319 216.576 118.647 216.459 117.964 216.224C117.303 216.011 116.641 215.691 115.98 215.264C115.34 214.837 114.721 214.304 114.124 213.664C113.548 213.024 113.025 212.299 112.556 211.488L113.132 211.456C112.577 212.245 112.204 213.12 112.012 214.08C111.82 215.019 111.724 215.883 111.724 216.672C111.724 217.291 111.777 218.059 111.884 218.976C112.012 219.915 112.172 220.896 112.364 221.92C112.577 222.965 112.801 224 113.036 225.024C113.292 226.048 113.527 226.976 113.74 227.808L110.668 228.576ZM120.14 213.408C120.524 213.408 120.833 213.333 121.068 213.184C121.324 213.035 121.495 212.821 121.58 212.544C121.665 212.267 121.633 211.925 121.484 211.52C121.228 210.816 120.993 210.197 120.78 209.664C120.588 209.109 120.385 208.651 120.172 208.288C119.98 207.925 119.777 207.659 119.564 207.488C119.372 207.296 119.169 207.2 118.956 207.2C118.7 207.2 118.391 207.264 118.028 207.392C117.665 207.52 117.281 207.701 116.876 207.936C116.471 208.149 116.087 208.405 115.724 208.704C115.361 209.003 115.041 209.323 114.764 209.664L114.7 209.184C115.127 210.08 115.66 210.848 116.3 211.488C116.94 212.128 117.591 212.608 118.252 212.928C118.935 213.248 119.564 213.408 120.14 213.408ZM127.078 216.16L127.398 212.992C128.657 212.992 129.638 212.939 130.342 212.832C131.046 212.725 131.537 212.48 131.814 212.096C132.113 211.712 132.262 211.125 132.262 210.336C132.262 209.781 132.177 209.12 132.006 208.352C131.835 207.584 131.611 206.784 131.334 205.952C131.078 205.099 130.801 204.267 130.502 203.456L133.606 202.432C133.883 203.136 134.15 203.936 134.406 204.832C134.662 205.728 134.875 206.624 135.046 207.52C135.217 208.416 135.302 209.237 135.302 209.984C135.302 211.157 135.131 212.139 134.79 212.928C134.449 213.717 133.926 214.357 133.222 214.848C132.539 215.317 131.686 215.659 130.662 215.872C129.638 216.064 128.443 216.16 127.078 216.16ZM134.566 199.328C134.054 199.328 133.627 199.157 133.286 198.816C132.945 198.453 132.774 198.037 132.774 197.568C132.774 197.077 132.945 196.661 133.286 196.32C133.627 195.957 134.054 195.776 134.566 195.776C135.035 195.776 135.441 195.957 135.782 196.32C136.123 196.661 136.294 197.077 136.294 197.568C136.294 198.037 136.123 198.453 135.782 198.816C135.441 199.157 135.035 199.328 134.566 199.328ZM129.83 199.328C129.339 199.328 128.913 199.157 128.55 198.816C128.209 198.453 128.038 198.037 128.038 197.568C128.038 197.077 128.209 196.651 128.55 196.288C128.913 195.925 129.339 195.744 129.83 195.744C130.299 195.744 130.705 195.925 131.046 196.288C131.409 196.651 131.59 197.077 131.59 197.568C131.59 198.037 131.409 198.453 131.046 198.816C130.705 199.157 130.299 199.328 129.83 199.328Z" fill="#39CB04"/>
</svg>
