<svg width="27" height="27" viewBox="0 0 27 27" fill="none" xmlns="http://www.w3.org/2000/svg">
<path d="M26.4073 10.722H25.3333V10.6667H13.3333V16H20.8687C19.7693 19.1047 16.8153 21.3333 13.3333 21.3333C8.91533 21.3333 5.33333 17.7513 5.33333 13.3333C5.33333 8.91533 8.91533 5.33333 13.3333 5.33333C15.3727 5.33333 17.228 6.10267 18.6407 7.35933L22.412 3.588C20.0307 1.36867 16.8453 0 13.3333 0C5.97 0 0 5.97 0 13.3333C0 20.6967 5.97 26.6667 13.3333 26.6667C20.6967 26.6667 26.6667 20.6967 26.6667 13.3333C26.6667 12.4393 26.5747 11.5667 26.4073 10.722Z" fill="#FFC107"/>
<path d="M1.53516 7.12733L5.91582 10.34C7.10116 7.40533 9.97182 5.33333 13.3312 5.33333C15.3705 5.33333 17.2258 6.10267 18.6385 7.35933L22.4098 3.588C20.0285 1.36867 16.8432 0 13.3312 0C8.20982 0 3.76849 2.89133 1.53516 7.12733Z" fill="#FF3D00"/>
<path d="M13.3309 26.6668C16.7749 26.6668 19.9043 25.3488 22.2703 23.2055L18.1436 19.7135C16.7602 20.7662 15.0693 21.3353 13.3309 21.3335C9.86294 21.3335 6.91827 19.1221 5.80894 16.0361L1.46094 19.3861C3.6676 23.7041 8.14894 26.6668 13.3309 26.6668Z" fill="#4CAF50"/>
<path d="M26.406 10.7213H25.332V10.666H13.332V15.9993H20.8674C20.3415 17.477 19.3952 18.7683 18.1436 19.7135L18.1447 19.712L22.2714 23.204C21.9794 23.4693 26.6654 19.9993 26.6654 13.3327C26.6654 12.4387 26.5734 11.566 26.406 10.7213Z" fill="#1976D2"/>
</svg>
