<svg width="21" height="20" viewBox="0 0 21 20" fill="none" xmlns="http://www.w3.org/2000/svg">
<path d="M8.2485 1.96509V15.0001C8.2485 15.0903 8.23224 15.1797 8.2005 15.2641L12.7485 17.5381V4.21509L8.2485 1.96509ZM6.7485 1.90509L1.4985 4.23909V17.5981L6.789 15.2461C6.76187 15.1669 6.74818 15.0838 6.7485 15.0001V1.90509ZM7.1595 0.0810916C7.26943 0.0253465 7.3914 -0.00244727 7.51463 0.000169012C7.63785 0.00278529 7.75854 0.0357309 7.866 0.0960916L13.518 2.92209L19.944 0.0660916C20.0582 0.0153593 20.1833 -0.00603711 20.3078 0.00384614C20.4324 0.0137294 20.5525 0.0545791 20.6573 0.122684C20.762 0.190789 20.8481 0.283991 20.9077 0.393823C20.9673 0.503655 20.9985 0.626635 20.9985 0.751592V15.7516C20.9985 15.8967 20.9564 16.0387 20.8774 16.1604C20.7983 16.2821 20.6856 16.3782 20.553 16.4371L13.803 19.4371C13.7018 19.482 13.5918 19.504 13.4811 19.5014C13.3703 19.4988 13.2615 19.4717 13.1625 19.4221L7.479 16.5811L1.0545 19.4371C0.940305 19.4878 0.815245 19.5092 0.69068 19.4993C0.566115 19.4895 0.445993 19.4486 0.341227 19.3805C0.236462 19.3124 0.150373 19.2192 0.090781 19.1094C0.0311894 18.9995 -1.58543e-05 18.8765 6.04333e-09 18.7516V3.75159C-1.84116e-05 3.60648 0.0420606 3.46448 0.121136 3.3428C0.200211 3.22113 0.312886 3.12501 0.4455 3.06609L7.1595 0.0810916ZM14.2485 4.23909V17.5981L19.4985 15.2641V1.90659L14.2485 4.23909Z" fill="#275991"/>
</svg>
