<svg width="32" height="8" viewBox="0 0 32 8" fill="none" xmlns="http://www.w3.org/2000/svg">
<path d="M3.8 4.85102C2.18533 4.83502 1.144 4.06969 1.144 2.89769C1.144 1.72569 2.18533 0.96169 3.79733 0.944356C5.41067 0.96169 6.45333 1.72836 6.45333 2.89769C6.45333 4.06702 5.41067 4.83502 3.8 4.85102ZM3.84533 0.000356038H3.748C1.54133 0.036356 0 1.22702 0 2.89636C0 4.56569 1.54133 5.75902 3.748 5.79502H3.84533C6.052 5.75902 7.59333 4.56702 7.59333 2.89636C7.59333 1.22569 6.052 0.036356 3.84533 0.000356038ZM28.2053 4.85102C26.592 4.83502 25.5493 4.06836 25.5493 2.89769C25.5493 1.72702 26.592 0.96169 28.204 0.944356C29.8173 0.96169 30.8587 1.72836 30.8587 2.89769C30.8587 4.06702 29.8173 4.83502 28.2053 4.85102ZM28.252 0.000356038H28.1547C25.948 0.036356 24.4067 1.22702 24.4067 2.89769C24.4067 4.56836 25.948 5.76036 28.1533 5.79636H28.252C30.4587 5.76036 32 4.56836 32 2.89636C32 1.22436 30.4587 0.036356 28.252 0.000356038ZM20.084 4.85102C18.4707 4.83502 17.4307 4.06836 17.4307 2.89769C17.4307 1.72702 18.4707 0.96169 20.084 0.944356C21.6973 0.96169 22.7387 1.72836 22.7387 2.89769C22.7387 4.06702 21.6973 4.83502 20.0853 4.85102H20.084ZM20.132 0.000356038H20.0347C18.9827 0.0176894 18.0827 0.296357 17.428 0.76569V0.272357H16.2853V7.60569H17.428V5.03102C18.0813 5.49902 18.9827 5.77769 20.0333 5.79636H20.132C22.3387 5.76036 23.8787 4.56836 23.8787 2.89769C23.8787 1.22702 22.3387 0.036356 20.132 0.000356038ZM11.94 4.85102C10.3267 4.83502 9.28667 4.06836 9.28667 2.89769C9.28667 1.72702 10.3267 0.96169 11.94 0.944356C13.5533 0.96169 14.5947 1.72836 14.5947 2.89769C14.5947 4.06702 13.5533 4.83502 11.9413 4.85102H11.94ZM11.9893 0.000356038H11.8933C10.8413 0.0176894 9.94133 0.296357 9.28667 0.76569V0.272357H8.14533V7.60569H9.28667V5.03102C9.94133 5.49902 10.8413 5.77769 11.8933 5.79636H11.9907C14.1973 5.76036 15.7387 4.56836 15.7387 2.89769C15.7387 1.22702 14.1973 0.036356 11.992 0.000356038H11.9893Z" fill="#275991"/>
</svg>
