<?xml version="1.0" encoding="UTF-8"?>
<!DOCTYPE svg PUBLIC "-//W3C//DTD SVG 1.1//EN" "http://www.w3.org/Graphics/SVG/1.1/DTD/svg11.dtd">
<svg xmlns="http://www.w3.org/2000/svg" version="1.1" width="4500px" height="3021px" style="shape-rendering:geometricPrecision; text-rendering:geometricPrecision; image-rendering:optimizeQuality; fill-rule:evenodd; clip-rule:evenodd" xmlns:xlink="http://www.w3.org/1999/xlink">
<g><path style="opacity:0.998" fill="#fe7800" d="M 3335.5,-0.5 C 3347.5,-0.5 3359.5,-0.5 3371.5,-0.5C 3436.94,10.4399 3480.11,47.4399 3501,110.5C 3513.99,162.234 3503.99,208.901 3471,250.5C 3262.83,458.667 3054.67,666.833 2846.5,875C 2978.83,875.333 3111.17,875.667 3243.5,876C 3303.3,884.127 3345.47,915.627 3370,970.5C 3389.91,1025.53 3382.58,1076.53 3348,1123.5C 3318.59,1158.96 3280.75,1178.12 3234.5,1181C 3107.33,1181.17 2980.17,1181.33 2853,1181.5C 2721.49,1181.66 2589.99,1181.16 2458.5,1180C 2393.41,1168.91 2350.58,1132.07 2330,1069.5C 2327.58,1059.96 2325.91,1050.3 2325,1040.5C 2324.33,782.167 2324.33,523.833 2325,265.5C 2332.46,202.059 2365.63,158.225 2424.5,134C 2491.79,112.943 2548.95,128.443 2596,180.5C 2615.94,205.648 2627.28,234.315 2630,266.5C 2630.33,397.167 2630.67,527.833 2631,658.5C 2838.5,451 3046,243.5 3253.5,36C 3277.36,15.9931 3304.69,3.82648 3335.5,-0.5 Z"/></g>
<g><path style="opacity:0.998" fill="#000000" d="M 1258.5,124.5 C 1516.17,124.333 1773.83,124.5 2031.5,125C 2092.97,131.819 2136.47,163.319 2162,219.5C 2168.61,236.212 2172.28,253.546 2173,271.5C 2173.67,525.833 2173.67,780.167 2173,1034.5C 2166.19,1105.47 2129.19,1152.8 2062,1176.5C 1997.72,1191.08 1943.72,1173.41 1900,1123.5C 1881.81,1099.56 1871.15,1072.89 1868,1043.5C 1867.67,911.5 1867.33,779.5 1867,647.5C 1661.83,852.667 1456.67,1057.83 1251.5,1263C 1212.78,1298.16 1169.11,1312.16 1120.5,1305C 1052.98,1291.48 1010.81,1251.31 994,1184.5C 985.476,1137.94 995.476,1095.94 1024,1058.5C 1232.47,849.027 1441.31,639.86 1650.5,431C 1519.5,430.667 1388.5,430.333 1257.5,430C 1188.83,421.322 1143.66,384.155 1122,318.5C 1107.54,255.208 1124.38,202.042 1172.5,159C 1197.85,139.163 1226.52,127.663 1258.5,124.5 Z"/></g>
<g><path style="opacity:0.995" fill="#000000" d="M 1239.5,1610.5 C 1295.67,1607.23 1348.34,1619.06 1397.5,1646C 1456.6,1683.14 1495.1,1735.64 1513,1803.5C 1531.72,1875.44 1528.72,1946.44 1504,2016.5C 1464.38,2112.02 1393.54,2165.69 1291.5,2177.5C 1251.6,2182.98 1211.1,2179.32 1170,2166.5C 1093.33,2141.19 1040.33,2090.19 1011,2013.5C 990.787,1955.49 985.787,1896.15 996,1835.5C 1006.18,1770.28 1035.35,1715.45 1083.5,1671C 1128.81,1633.86 1180.81,1613.69 1239.5,1610.5 Z M 1248.5,1711.5 C 1319.27,1709.64 1366.77,1741.97 1391,1808.5C 1402.83,1844.93 1407.16,1882.26 1404,1920.5C 1401.7,1958.75 1390.03,1993.75 1369,2025.5C 1340.98,2061.34 1303.98,2079 1258,2078.5C 1193.21,2076.79 1149.21,2045.79 1126,1985.5C 1113.63,1949.84 1108.96,1913.17 1112,1875.5C 1113.58,1831.77 1127.24,1792.43 1153,1757.5C 1178.54,1729.14 1210.38,1713.81 1248.5,1711.5 Z"/></g>
<g><path style="opacity:0.99" fill="#000000" d="M 1792.5,1762.5 C 1799.51,1762.33 1806.51,1762.5 1813.5,1763C 1818.57,1763.31 1823.4,1764.48 1828,1766.5C 1828.5,1800.17 1828.67,1833.83 1828.5,1867.5C 1804.3,1862.59 1780.97,1862.43 1758.5,1867C 1729.89,1873.94 1709.39,1890.77 1697,1917.5C 1689.22,1936.04 1684.89,1955.38 1684,1975.5C 1683.5,2039.17 1683.33,2102.83 1683.5,2166.5C 1647.06,2166.71 1610.89,2166.71 1575,2166.5C 1574.5,2035.5 1574.33,1904.5 1574.5,1773.5C 1609.17,1773.5 1643.83,1773.5 1678.5,1773.5C 1678.33,1797.5 1678.5,1821.5 1679,1845.5C 1701.99,1797.69 1739.83,1770.02 1792.5,1762.5 Z"/></g>
<g><path style="opacity:0.993" fill="#000000" d="M 2009.5,1762.5 C 2047.37,1760.56 2084.7,1764.06 2121.5,1773C 2150.72,1780.26 2173.89,1796.09 2191,1820.5C 2198.35,1833.56 2202.69,1847.56 2204,1862.5C 2204.33,1941.83 2204.67,2021.17 2205,2100.5C 2205.61,2117.74 2207.95,2134.74 2212,2151.5C 2213.42,2156.17 2215.25,2160.67 2217.5,2165C 2216.99,2166.17 2216.16,2167 2215,2167.5C 2179.67,2166.17 2144.33,2166.17 2109,2167.5C 2104.13,2155.34 2101.13,2142.67 2100,2129.5C 2077.25,2151.79 2050.42,2165.95 2019.5,2172C 1988.32,2178.78 1957.32,2179.12 1926.5,2173C 1872.24,2161.1 1841.74,2127.94 1835,2073.5C 1828.88,2013.19 1854.05,1972.69 1910.5,1952C 1925.53,1947.08 1940.86,1943.41 1956.5,1941C 1982.13,1937.42 2007.8,1934.09 2033.5,1931C 2050.62,1929.39 2066.62,1924.39 2081.5,1916C 2091.67,1908.83 2096.34,1898.99 2095.5,1886.5C 2096.42,1864.8 2087.08,1849.63 2067.5,1841C 2057.88,1838.04 2048.05,1836.2 2038,1835.5C 2031.01,1836.19 2024.18,1836.19 2017.5,1835.5C 1979.84,1837.5 1959.17,1857.16 1955.5,1894.5C 1919.17,1894.5 1882.83,1894.5 1846.5,1894.5C 1851.02,1835.81 1881.02,1796.65 1936.5,1777C 1960.37,1769.14 1984.7,1764.3 2009.5,1762.5 Z M 2094.5,1975.5 C 2095.66,1993.33 2095.83,2011.33 2095,2029.5C 2092.7,2065 2074.86,2088.5 2041.5,2100C 2017.62,2106.37 1993.95,2105.7 1970.5,2098C 1957.41,2092.58 1948.91,2083.08 1945,2069.5C 1938.52,2033.96 1952.68,2011.46 1987.5,2002C 1994.39,1999.86 2001.39,1998.2 2008.5,1997C 2027.56,1994.37 2046.56,1991.37 2065.5,1988C 2076.23,1985.96 2085.9,1981.79 2094.5,1975.5 Z"/></g>
<g><path style="opacity:0.994" fill="#000000" d="M 2478.5,1762.5 C 2507.63,1760.68 2535.96,1764.52 2563.5,1774C 2592.15,1785.98 2611.98,1806.48 2623,1835.5C 2629.82,1854.93 2633.82,1874.93 2635,1895.5C 2635.67,1986.17 2635.67,2076.83 2635,2167.5C 2599.33,2167.17 2563.67,2166.83 2528,2166.5C 2527.67,2089.5 2527.33,2012.5 2527,1935.5C 2526.91,1917.97 2523.91,1900.97 2518,1884.5C 2508.03,1862.06 2491.03,1850.06 2467,1848.5C 2414.69,1844.78 2385.03,1869.11 2378,1921.5C 2377.11,1928.14 2376.45,1934.81 2376,1941.5C 2375.67,2016.5 2375.33,2091.5 2375,2166.5C 2339,2166.5 2303,2166.5 2267,2166.5C 2266.5,2035.5 2266.33,1904.5 2266.5,1773.5C 2301.17,1773.5 2335.83,1773.5 2370.5,1773.5C 2370.17,1791.51 2370.5,1809.51 2371.5,1827.5C 2397.02,1789.23 2432.69,1767.57 2478.5,1762.5 Z"/></g>
<g><path style="opacity:0.992" fill="#000000" d="M 2832.5,1762.5 C 2859.74,1760.4 2886.07,1764.23 2911.5,1774C 2935.17,1785.34 2953.34,1802.51 2966,1825.5C 2966.5,1808.17 2966.67,1790.84 2966.5,1773.5C 3001.17,1773.5 3035.83,1773.5 3070.5,1773.5C 3070.97,1903.84 3070.47,2034.18 3069,2164.5C 3061.85,2237.65 3023.01,2284.49 2952.5,2305C 2908.28,2316.36 2863.61,2318.36 2818.5,2311C 2786.84,2305.46 2758.51,2292.79 2733.5,2273C 2708.19,2250.55 2694.52,2222.38 2692.5,2188.5C 2728.51,2188.17 2764.51,2188.5 2800.5,2189.5C 2808.11,2217.94 2826.44,2234.77 2855.5,2240C 2874.33,2243.75 2893,2243.08 2911.5,2238C 2938,2228.83 2954.83,2210.67 2962,2183.5C 2963.98,2175.94 2965.31,2168.28 2966,2160.5C 2966.67,2138.5 2966.67,2116.5 2966,2094.5C 2948.61,2122.27 2924.27,2140.27 2893,2148.5C 2847.8,2161 2804.3,2156.5 2762.5,2135C 2729.28,2114.76 2706.61,2086.43 2694.5,2050C 2679.02,2003.78 2675.52,1956.61 2684,1908.5C 2692.22,1862.87 2713.72,1825.03 2748.5,1795C 2773.6,1776.58 2801.6,1765.74 2832.5,1762.5 Z M 2866.5,1844.5 C 2918.05,1842.02 2949.88,1867.02 2962,1919.5C 2968.29,1947.94 2967.96,1976.28 2961,2004.5C 2944.69,2056.41 2909.52,2078.58 2855.5,2071C 2828.87,2063.71 2810.37,2047.21 2800,2021.5C 2788.35,1990 2785.35,1957.67 2791,1924.5C 2795.09,1896.46 2808.26,1873.96 2830.5,1857C 2841.73,1850.31 2853.73,1846.15 2866.5,1844.5 Z"/></g>
<g><path style="opacity:0.994" fill="#000000" d="M 3297.5,1762.5 C 3396.79,1758.36 3462.62,1803.03 3495,1896.5C 3505.36,1929.78 3508.36,1963.45 3504,1997.5C 3410.33,1997.17 3316.67,1996.83 3223,1996.5C 3225.77,2067.61 3262.61,2100.11 3333.5,2094C 3358.32,2090.51 3378.82,2079.35 3395,2060.5C 3398.48,2055.7 3401.32,2050.54 3403.5,2045C 3435.5,2044.33 3467.5,2044.33 3499.5,2045C 3473.39,2126.17 3418.22,2170.33 3334,2177.5C 3321,2177.47 3308,2177.47 3295,2177.5C 3255.07,2173.86 3218.9,2160.36 3186.5,2137C 3143.22,2099.94 3119.38,2052.77 3115,1995.5C 3108.99,1937.54 3122.65,1884.87 3156,1837.5C 3192.39,1792.38 3239.56,1767.38 3297.5,1762.5 Z M 3302.5,1844.5 C 3307.93,1845.35 3313.26,1845.35 3318.5,1844.5C 3350.27,1845.8 3372.77,1860.8 3386,1889.5C 3390.85,1901.71 3394.68,1914.21 3397.5,1927C 3339.17,1927.5 3280.83,1927.67 3222.5,1927.5C 3227.78,1878.56 3254.45,1850.89 3302.5,1844.5 Z"/></g>
<g><path style="opacity:0.994" fill="#000000" d="M 991.5,2339.5 C 1047.83,2339.5 1104.17,2339.5 1160.5,2339.5C 1201.96,2464.04 1244.13,2588.37 1287,2712.5C 1327,2588.51 1367,2464.51 1407,2340.5C 1463.43,2339.5 1519.93,2339.17 1576.5,2339.5C 1576.67,2520.5 1576.5,2701.5 1576,2882.5C 1538.67,2882.5 1501.33,2882.5 1464,2882.5C 1463.67,2754.5 1463.33,2626.5 1463,2498.5C 1418.64,2625.93 1374.47,2753.43 1330.5,2881C 1329.99,2882.17 1329.16,2883 1328,2883.5C 1297.67,2883.17 1267.33,2882.83 1237,2882.5C 1192.97,2756.09 1148.64,2629.42 1104,2502.5C 1103.5,2629.17 1103.33,2755.83 1103.5,2882.5C 1066.06,2882.62 1028.89,2882.95 992,2883.5C 991.5,2702.17 991.333,2520.83 991.5,2339.5 Z"/></g>
<g><path style="opacity:0.994" fill="#000000" d="M 1807.5,2478.5 C 1852.71,2475.37 1895.38,2484.21 1935.5,2505C 1982.73,2533.61 2012.23,2575.11 2024,2629.5C 2035.05,2681.88 2030.71,2732.88 2011,2782.5C 1978.75,2848.36 1925.92,2884.86 1852.5,2892C 1806.33,2897.08 1762.33,2889.42 1720.5,2869C 1668.84,2838.7 1637.67,2794.2 1627,2735.5C 1617.07,2682.24 1623.07,2630.91 1645,2581.5C 1672.32,2529.39 1714.82,2496.89 1772.5,2484C 1784.22,2481.58 1795.89,2479.75 1807.5,2478.5 Z M 1816.5,2560.5 C 1866.87,2557.93 1899.37,2581.26 1914,2630.5C 1924,2667.5 1924,2704.5 1914,2741.5C 1897.07,2795.4 1860.57,2817.9 1804.5,2809C 1774.75,2801.93 1754.25,2784.09 1743,2755.5C 1729.63,2714.67 1727.97,2673.34 1738,2631.5C 1744.12,2607.05 1757.29,2587.55 1777.5,2573C 1789.78,2566.19 1802.78,2562.02 1816.5,2560.5 Z"/></g>
<g><path style="opacity:0.993" fill="#000000" d="M 2286.5,2478.5 C 2313.76,2476.9 2340.42,2480.07 2366.5,2488C 2399.06,2500.23 2421.23,2522.73 2433,2555.5C 2439.63,2576.32 2443.3,2597.65 2444,2619.5C 2445,2707.64 2444.66,2795.64 2443,2883.5C 2407.33,2883.17 2371.67,2882.83 2336,2882.5C 2335.67,2802.17 2335.33,2721.83 2335,2641.5C 2331.07,2580 2299.91,2555.16 2241.5,2567C 2216.3,2573.19 2199.8,2588.69 2192,2613.5C 2188.25,2625.9 2185.92,2638.57 2185,2651.5C 2184.67,2728.5 2184.33,2805.5 2184,2882.5C 2148,2882.5 2112,2882.5 2076,2882.5C 2075.5,2751.5 2075.33,2620.5 2075.5,2489.5C 2109.83,2489.5 2144.17,2489.5 2178.5,2489.5C 2178.17,2507.51 2178.5,2525.51 2179.5,2543.5C 2205.27,2505.77 2240.94,2484.1 2286.5,2478.5 Z"/></g>
<g><path style="opacity:0.994" fill="#000000" d="M 2668.5,2478.5 C 2771.16,2474.72 2837.66,2521.72 2868,2619.5C 2876.87,2650.62 2879.21,2681.95 2875,2713.5C 2781.33,2713.17 2687.67,2712.83 2594,2712.5C 2596.76,2783.59 2633.59,2816.09 2704.5,2810C 2729.31,2806.51 2749.81,2795.35 2766,2776.5C 2769.48,2771.7 2772.32,2766.54 2774.5,2761C 2806.5,2760.33 2838.5,2760.33 2870.5,2761C 2840.48,2849.62 2779.15,2893.78 2686.5,2893.5C 2640.1,2893.73 2598.43,2881.23 2561.5,2856C 2518.08,2821.35 2493.25,2776.18 2487,2720.5C 2479.15,2662.75 2490.81,2609.41 2522,2560.5C 2558.22,2510.96 2607.06,2483.63 2668.5,2478.5 Z M 2673.5,2560.5 C 2679.13,2561.75 2684.46,2561.75 2689.5,2560.5C 2721.08,2561.54 2743.58,2576.54 2757,2605.5C 2761.85,2617.71 2765.68,2630.21 2768.5,2643C 2710.17,2643.5 2651.83,2643.67 2593.5,2643.5C 2598.6,2594.74 2625.27,2567.07 2673.5,2560.5 Z"/></g>
<g><path style="opacity:0.995" fill="#000000" d="M 2993.5,3020.5 C 2975.83,3020.5 2958.17,3020.5 2940.5,3020.5C 2938.83,3019.17 2937.17,3019.17 2935.5,3020.5C 2935.17,3020.5 2934.83,3020.5 2934.5,3020.5C 2924.71,3018.79 2914.71,3017.79 2904.5,3017.5C 2904.5,2987.5 2904.5,2957.5 2904.5,2927.5C 2923.15,2929.01 2941.82,2930.35 2960.5,2931.5C 2988.41,2930.43 3004.57,2916.09 3009,2888.5C 3009.76,2880.39 3009.09,2872.39 3007,2864.5C 2960.56,2740.06 2913.73,2615.4 2866.5,2490.5C 2905.49,2489.5 2944.49,2489.17 2983.5,2489.5C 3012.49,2578.98 3041.99,2668.32 3072,2757.5C 3101.2,2668.41 3129.7,2579.08 3157.5,2489.5C 3195.17,2489.5 3232.83,2489.5 3270.5,2489.5C 3215.97,2637.91 3161.14,2786.25 3106,2934.5C 3086.87,2987.85 3049.37,3016.52 2993.5,3020.5 Z"/></g>
</svg>
