<svg width="375" height="334" viewBox="0 0 375 334" fill="none" xmlns="http://www.w3.org/2000/svg">
<ellipse opacity="0.2" cx="156.394" cy="155.276" rx="156.394" ry="155.276" fill="#0077B6"/>
<ellipse opacity="0.2" cx="262.098" cy="140.119" rx="112.903" ry="112.096" fill="#0077B6"/>
<g clip-path="url(#clip0_706_960)">
<path d="M233.063 279.589C233.093 299.055 226.597 317.976 214.598 333.366H74.3401C62.3413 317.976 55.8444 299.055 55.8751 279.589C55.8751 230.989 95.5413 191.593 144.471 191.593C193.401 191.593 233.063 230.989 233.063 279.589Z" fill="white"/>
<path opacity="0.1" d="M233.063 279.589C233.093 299.055 226.597 317.976 214.598 333.366H74.3401C62.3413 317.976 55.8444 299.055 55.8751 279.589C55.8751 230.989 95.5413 191.593 144.471 191.593C193.401 191.593 233.063 230.989 233.063 279.589Z" fill="#32ABEB"/>
<path d="M234.464 192.718H164.179C157.323 192.718 151.766 198.238 151.766 205.047V205.048C151.766 211.857 157.323 217.377 164.179 217.377H234.464C241.32 217.377 246.877 211.857 246.877 205.048V205.047C246.877 198.238 241.32 192.718 234.464 192.718Z" fill="white"/>
<path d="M234.463 217.621H164.177C160.83 217.605 157.626 216.274 155.265 213.918C152.904 211.561 151.578 208.372 151.578 205.048C151.578 201.723 152.904 198.534 155.265 196.178C157.626 193.822 160.83 192.49 164.177 192.475H234.463C236.13 192.467 237.782 192.786 239.325 193.415C240.868 194.043 242.27 194.968 243.452 196.136C244.633 197.305 245.571 198.693 246.211 200.223C246.851 201.752 247.18 203.392 247.18 205.048C247.18 206.704 246.851 208.344 246.211 209.873C245.571 211.402 244.633 212.791 243.452 213.959C242.27 215.128 240.868 216.052 239.325 216.681C237.782 217.309 236.13 217.629 234.463 217.621ZM164.177 192.962C160.95 192.962 157.855 194.235 155.573 196.501C153.291 198.768 152.009 201.842 152.009 205.047C152.009 208.253 153.291 211.327 155.573 213.593C157.855 215.86 160.95 217.133 164.177 217.133H234.463C237.69 217.133 240.785 215.86 243.066 213.593C245.348 211.327 246.63 208.253 246.63 205.047C246.63 201.842 245.348 198.768 243.066 196.501C240.785 194.235 237.69 192.962 234.463 192.962H164.177Z" fill="#474646"/>
<path d="M106.597 220.725C106.597 220.725 105.841 229.623 103.765 232.819C97.7903 242.021 95.9206 252.459 101.64 258.03C107.36 263.601 144.461 264.329 147.496 251.801C150.051 241.253 144.993 240.025 143.914 231.268C143.425 227.305 142.035 218.99 142.035 218.99" fill="#474646"/>
<path d="M138.255 249.655C138.191 249.647 137.48 261.362 123.778 260.341C114.292 259.635 110.91 249.638 110.691 249.638C111.714 249.422 113.437 249.108 113.891 248.867C115.384 248.07 117.232 247.241 117.714 244.359C117.992 242.7 117.521 234.203 117.666 232.522L132.226 235.751C132.023 239.299 130.599 247.525 135.59 248.981C136.421 249.224 137.316 249.445 138.255 249.655Z" fill="#E98862"/>
<path opacity="0.5" d="M132.432 245.621C132.203 244.891 132.057 244.138 131.994 243.376C131.833 241.638 131.865 239.887 132.089 238.155C129.13 237.758 126.342 236.545 124.042 234.653C123.772 235.645 122.285 239.979 122.697 240.921C123.474 242.702 127.13 245.621 132.432 245.621Z" fill="#474646"/>
<path d="M130.359 241.969C124.609 242.42 117.223 240.009 115.82 232.389L114.554 225.514C113.152 217.895 116.043 210.986 123.266 209.674C130.488 208.362 137.024 213.558 138.427 221.178L138.987 224.221C139.526 227.145 140.617 241.166 130.359 241.969Z" fill="#E98862"/>
<path d="M132.706 231.432L132.72 231.43C133.013 231.374 133.302 231.303 133.587 231.216C134.012 231.083 134.569 230.862 134.499 230.481C134.419 230.047 132.359 225.58 132.125 225.072C132.103 225.03 132.066 224.997 132.02 224.981C131.975 224.965 131.925 224.968 131.882 224.987C131.838 225.007 131.804 225.043 131.786 225.088C131.769 225.132 131.769 225.182 131.788 225.226C132.666 227.128 134.08 230.255 134.134 230.548C134.086 230.683 133.38 230.935 132.654 231.067C132.607 231.076 132.566 231.103 132.538 231.141C132.51 231.18 132.499 231.228 132.505 231.274C132.512 231.321 132.537 231.364 132.574 231.393C132.611 231.422 132.659 231.436 132.706 231.432Z" fill="#474646"/>
<path d="M131.616 234.711C132.794 234.566 133.921 234.149 134.906 233.492C134.948 233.466 134.977 233.424 134.987 233.376C134.998 233.329 134.989 233.279 134.962 233.238C134.936 233.197 134.894 233.168 134.846 233.158C134.798 233.147 134.748 233.156 134.706 233.183C132.574 234.544 130.462 234.753 128.6 233.788C128.562 233.768 128.523 233.749 128.484 233.733C128.437 233.716 128.386 233.718 128.342 233.739C128.297 233.759 128.263 233.796 128.246 233.842C128.229 233.888 128.231 233.939 128.251 233.983C128.272 234.027 128.31 234.061 128.356 234.078C128.37 234.084 128.395 234.097 128.428 234.115C129.408 234.624 130.518 234.832 131.616 234.711Z" fill="#474646"/>
<path d="M108.768 227.873L115.242 226.734C120.152 224.796 121.685 216.383 121.685 216.383C121.685 216.383 127.599 222.179 142.036 218.991C142.036 218.991 139.269 199.003 117.934 204.68C111.055 206.51 106.083 213.354 106.64 222.546C107.031 228.986 108.768 227.873 108.768 227.873Z" fill="#474646"/>
<path d="M116.697 234.629C114.502 235.028 112.293 233.019 111.891 230.839C111.49 228.659 113.048 227.133 115.243 226.734L116.643 227.99L118.584 234.287L116.697 234.629Z" fill="#E98862"/>
<path d="M133.737 221.568C134.29 221.193 134.934 220.971 135.602 220.924C135.938 220.898 136.276 220.922 136.605 220.996C136.936 221.069 137.257 221.184 137.56 221.336L137.569 221.341C137.603 221.356 137.641 221.357 137.675 221.345C137.71 221.333 137.738 221.307 137.755 221.275C137.771 221.242 137.774 221.204 137.762 221.169C137.751 221.134 137.727 221.105 137.694 221.088C137.374 220.913 137.032 220.778 136.678 220.687C136.321 220.595 135.952 220.556 135.584 220.572C134.837 220.6 134.111 220.826 133.483 221.228C133.459 221.243 133.439 221.262 133.424 221.285C133.408 221.308 133.397 221.334 133.391 221.361C133.385 221.389 133.385 221.417 133.39 221.444C133.396 221.471 133.406 221.497 133.422 221.52C133.437 221.543 133.457 221.563 133.48 221.579C133.503 221.595 133.529 221.606 133.556 221.611C133.584 221.617 133.612 221.617 133.639 221.612C133.667 221.607 133.693 221.596 133.716 221.581L133.721 221.578L133.737 221.568Z" fill="#474646"/>
<path d="M127.827 222.273C127.097 222.116 126.337 222.156 125.627 222.389C125.277 222.502 124.945 222.667 124.643 222.878C124.343 223.085 124.07 223.33 123.832 223.606C123.819 223.619 123.809 223.635 123.802 223.653C123.796 223.67 123.793 223.688 123.793 223.707C123.794 223.744 123.81 223.779 123.837 223.805C123.865 223.831 123.901 223.845 123.939 223.844C123.976 223.843 124.012 223.827 124.038 223.8L124.045 223.792C124.275 223.544 124.535 223.325 124.82 223.142C125.102 222.958 125.41 222.817 125.734 222.725C126.377 222.537 127.059 222.521 127.711 222.68L127.727 222.684C127.781 222.698 127.839 222.69 127.888 222.662C127.937 222.634 127.972 222.587 127.986 222.533C128.001 222.479 127.993 222.421 127.964 222.373C127.936 222.324 127.889 222.289 127.834 222.275L127.827 222.273Z" fill="#474646"/>
<path d="M131.857 236.44C132.07 236.417 132.281 236.376 132.488 236.318C132.535 236.305 132.575 236.273 132.599 236.231C132.623 236.188 132.629 236.138 132.616 236.091C132.603 236.044 132.571 236.004 132.528 235.98C132.485 235.956 132.435 235.95 132.387 235.964C131.145 236.31 130.443 235.837 130.414 235.816C130.374 235.788 130.324 235.777 130.275 235.785C130.227 235.793 130.184 235.82 130.155 235.86C130.127 235.899 130.116 235.949 130.124 235.997C130.132 236.045 130.159 236.088 130.199 236.116C130.697 236.411 131.283 236.526 131.857 236.44Z" fill="#474646"/>
<path d="M115.246 226.629C119.612 225.103 121.104 222.152 121.587 219.946C121.9 218.475 121.9 216.955 121.587 215.483L121.452 215.518C121.76 216.97 121.759 218.47 121.45 219.922C120.973 222.092 119.5 224.994 115.199 226.499L115.246 226.629Z" fill="#474646"/>
<path opacity="0.1" d="M126.887 231.956C127.833 231.86 128.544 231.224 128.473 230.534C128.403 229.845 127.578 229.363 126.632 229.458C125.685 229.554 124.975 230.19 125.045 230.88C125.116 231.569 125.94 232.051 126.887 231.956Z" fill="#474646"/>
<path opacity="0.1" d="M136.915 229.381C136.987 230.07 137.811 230.551 138.758 230.457C138.922 230.44 139.083 230.407 139.24 230.357C139.298 229.539 139.315 228.75 139.304 228.02C139.043 227.95 138.771 227.93 138.502 227.959C137.555 228.053 136.846 228.689 136.915 229.381Z" fill="#474646"/>
<path d="M95.2106 319.263L93.5664 333.724H153.179L152.26 319.172L95.2106 319.263Z" fill="#474646"/>
<path d="M123.464 257.429C113.971 256.985 113.572 248.982 113.572 248.982C113.572 248.982 108.868 249.284 105.741 249.704C100.623 250.392 95.1963 252.138 92.7335 256.365C90.9632 259.405 90.5369 259.955 92.1474 277.107C93.3135 289.527 95.213 319.263 95.213 319.263L152.262 319.172C152.262 319.172 154.801 281.038 155.28 275.447C156.194 264.775 157.637 249.732 154.574 248.981C151.006 248.107 139.358 249.545 135.591 248.981C135.527 248.973 136.39 258.034 123.464 257.429Z" fill="#32ABEB"/>
<path d="M224.571 215.597C224.654 215.411 224.775 215.244 224.925 215.105C225.075 214.967 225.252 214.86 225.446 214.792C225.639 214.724 225.844 214.696 226.048 214.709C226.253 214.722 226.453 214.776 226.635 214.869C226.983 215.06 227.244 215.374 227.367 215.75C227.489 216.125 227.464 216.532 227.296 216.889L226.47 218.74L231.774 214.087C232.355 213.56 233.407 213.282 233.96 213.967C234.189 214.218 234.327 214.538 234.35 214.876C234.373 215.213 234.28 215.549 234.086 215.828C234.093 215.832 234.1 215.837 234.105 215.843C234.109 215.848 234.112 215.853 234.114 215.858L235.01 215.045C235.174 214.895 235.371 214.784 235.584 214.718C235.798 214.653 236.023 214.636 236.244 214.668C236.465 214.699 236.676 214.779 236.862 214.902C237.049 215.025 237.205 215.187 237.321 215.377C237.498 215.683 237.564 216.042 237.506 216.391C237.448 216.74 237.271 217.059 237.004 217.293L236.623 217.639C236.628 217.655 236.63 217.672 236.629 217.689C236.938 217.516 237.298 217.457 237.647 217.521C237.995 217.586 238.31 217.77 238.535 218.043C238.776 218.356 238.888 218.748 238.849 219.141C238.81 219.533 238.622 219.896 238.324 220.156L237.387 221.007C237.409 221.004 237.432 221.007 237.452 221.014C237.473 221.022 237.492 221.034 237.507 221.05C237.524 221.07 237.535 221.095 237.538 221.121C237.851 221.044 238.18 221.069 238.477 221.191C238.775 221.314 239.025 221.527 239.192 221.801C239.369 222.108 239.435 222.466 239.377 222.816C239.319 223.165 239.142 223.484 238.875 223.718L230.891 230.972C229.774 231.987 228.378 232.647 226.88 232.868C225.383 233.089 223.853 232.861 222.487 232.213L218.09 230.127L224.571 215.597Z" fill="#E98862"/>
<g opacity="0.2">
<path opacity="0.2" d="M228.862 220.46C228.887 220.486 228.921 220.502 228.958 220.504C228.994 220.506 229.03 220.493 229.057 220.469L234.095 216.039C234.109 216.027 234.12 216.012 234.128 215.996C234.136 215.979 234.141 215.962 234.142 215.944C234.143 215.925 234.141 215.907 234.135 215.89C234.129 215.873 234.119 215.857 234.107 215.844C234.095 215.83 234.08 215.819 234.064 215.811C234.048 215.803 234.03 215.798 234.011 215.797C233.993 215.796 233.975 215.799 233.958 215.804C233.94 215.81 233.924 215.82 233.911 215.832L228.871 220.262C228.857 220.274 228.846 220.289 228.838 220.305C228.83 220.322 228.826 220.339 228.824 220.357C228.823 220.376 228.826 220.394 228.832 220.411C228.838 220.428 228.847 220.444 228.859 220.457L228.862 220.46Z" fill="#474646"/>
</g>
<g opacity="0.2">
<path opacity="0.2" d="M230.767 222.72C230.792 222.747 230.826 222.762 230.863 222.764C230.899 222.766 230.935 222.754 230.962 222.73L236.585 217.785C236.598 217.773 236.609 217.758 236.617 217.742C236.625 217.726 236.63 217.708 236.631 217.69C236.632 217.672 236.63 217.653 236.624 217.636C236.618 217.619 236.609 217.603 236.597 217.59C236.571 217.563 236.537 217.547 236.501 217.545C236.464 217.543 236.428 217.555 236.4 217.578L230.777 222.522C230.764 222.534 230.752 222.549 230.744 222.565C230.736 222.582 230.732 222.599 230.731 222.618C230.73 222.636 230.732 222.654 230.738 222.671C230.744 222.688 230.753 222.704 230.766 222.718L230.767 222.72Z" fill="#474646"/>
</g>
<g opacity="0.2">
<path opacity="0.2" d="M232.818 225.18C232.843 225.207 232.877 225.223 232.913 225.225C232.95 225.227 232.986 225.214 233.013 225.19L237.498 221.246C237.526 221.222 237.543 221.187 237.545 221.151C237.547 221.114 237.534 221.078 237.51 221.05C237.485 221.023 237.451 221.006 237.414 221.004C237.377 221.002 237.341 221.014 237.313 221.039L232.828 224.983C232.815 224.995 232.803 225.009 232.795 225.026C232.787 225.042 232.783 225.06 232.782 225.078C232.78 225.096 232.783 225.114 232.789 225.131C232.795 225.149 232.804 225.164 232.816 225.178L232.818 225.18Z" fill="#474646"/>
</g>
<path d="M219.487 220.726L189.253 245.326L147.401 249.076C144.717 249.299 142.224 250.544 140.443 252.551C138.661 254.557 137.729 257.17 137.841 259.842C137.953 262.515 139.101 265.042 141.044 266.894C142.987 268.746 145.576 269.781 148.27 269.782C148.565 269.782 148.862 269.77 149.161 269.744L194.297 265.718C196.435 265.539 198.466 264.709 200.112 263.343L231.776 235.441L219.487 220.726Z" fill="#32ABEB"/>
<path d="M226.191 219.43L227.295 216.889C227.463 216.531 227.488 216.124 227.366 215.749C227.243 215.374 226.982 215.059 226.634 214.868C226.452 214.776 226.252 214.721 226.047 214.708C225.843 214.695 225.638 214.723 225.445 214.792C225.251 214.86 225.074 214.966 224.924 215.105C224.774 215.243 224.653 215.411 224.57 215.597" fill="#E98862"/>
<path d="M147.257 295.695C147.227 296.088 147.047 296.455 146.754 296.721C146.462 296.988 146.078 297.133 145.682 297.129L144.413 297.144C144.431 297.157 144.446 297.173 144.456 297.193C144.466 297.212 144.472 297.233 144.472 297.255C144.472 297.282 144.464 297.307 144.448 297.329C144.733 297.479 144.962 297.715 145.101 298.004C145.241 298.292 145.284 298.617 145.224 298.932C145.149 299.278 144.957 299.588 144.68 299.81C144.402 300.032 144.056 300.153 143.699 300.151L132.882 300.267C131.369 300.284 129.884 299.852 128.62 299.025C127.356 298.199 126.369 297.015 125.786 295.628L123.906 291.16L129.663 289.943L129.8 288.517L138.492 284.623C138.679 284.539 138.881 284.494 139.086 284.49C139.291 284.487 139.494 284.525 139.684 284.602C139.874 284.679 140.046 284.793 140.189 284.938C140.333 285.084 140.445 285.256 140.52 285.446C140.65 285.818 140.634 286.226 140.474 286.587C140.314 286.948 140.022 287.235 139.656 287.39L137.798 288.222L144.874 288.269C145.662 288.26 146.632 288.749 146.583 289.624C146.587 289.963 146.476 290.293 146.266 290.561C146.057 290.828 145.762 291.017 145.431 291.097C145.431 291.105 145.433 291.112 145.433 291.12L145.429 291.136L146.642 291.123C146.866 291.121 147.087 291.168 147.29 291.26C147.494 291.353 147.674 291.49 147.817 291.66C147.961 291.831 148.064 292.031 148.12 292.246C148.177 292.461 148.184 292.685 148.142 292.904C148.069 293.25 147.877 293.56 147.6 293.781C147.323 294.003 146.977 294.123 146.622 294.121L146.103 294.128C146.095 294.142 146.087 294.155 146.077 294.167C146.423 294.244 146.731 294.439 146.946 294.718C147.162 294.997 147.272 295.343 147.257 295.695Z" fill="#E98862"/>
<g opacity="0.2">
<path opacity="0.2" d="M138.426 291.088C138.426 291.124 138.441 291.159 138.467 291.184C138.493 291.21 138.529 291.224 138.565 291.224L145.294 291.259C145.331 291.259 145.366 291.244 145.392 291.218C145.418 291.192 145.433 291.157 145.433 291.12C145.433 291.084 145.418 291.049 145.392 291.023C145.366 290.997 145.331 290.982 145.294 290.982L138.565 290.947C138.528 290.947 138.493 290.962 138.467 290.988C138.44 291.014 138.426 291.049 138.426 291.086V291.088Z" fill="#474646"/>
</g>
<g opacity="0.2">
<path opacity="0.2" d="M138.328 294.035C138.329 294.071 138.344 294.106 138.37 294.131C138.396 294.157 138.431 294.171 138.467 294.171L145.977 294.21C146.014 294.21 146.049 294.195 146.075 294.169C146.101 294.143 146.116 294.108 146.116 294.072C146.115 294.035 146.1 294.001 146.074 293.975C146.048 293.949 146.013 293.934 145.977 293.933L138.467 293.895C138.43 293.895 138.395 293.909 138.369 293.935C138.343 293.961 138.328 293.996 138.328 294.033V294.035Z" fill="#474646"/>
</g>
<g opacity="0.2">
<path opacity="0.2" d="M138.203 297.227C138.204 297.263 138.219 297.297 138.245 297.323C138.271 297.348 138.306 297.363 138.342 297.363L144.332 297.393C144.369 297.393 144.405 297.379 144.431 297.353C144.457 297.327 144.472 297.292 144.472 297.255C144.472 297.219 144.457 297.183 144.431 297.157C144.405 297.131 144.369 297.117 144.332 297.117L138.342 297.086C138.305 297.086 138.27 297.101 138.244 297.126C138.218 297.152 138.203 297.188 138.203 297.224V297.227Z" fill="#474646"/>
</g>
<path d="M132.322 303.465L87.0302 311.479C85.1273 311.98 83.1205 311.937 81.2411 311.355C79.3618 310.772 77.6865 309.674 76.4087 308.186C75.1308 306.699 74.3023 304.883 74.0189 302.948C73.7355 301.012 74.0087 299.037 74.8069 297.25L91.3011 259.139C93.6399 253.903 99.4205 251.541 104.691 253.864C107.222 254.98 109.204 257.048 110.2 259.615C111.196 262.181 111.124 265.036 110.001 267.55L100.315 290.357L130.606 286.359L132.322 303.465Z" fill="#32ABEB"/>
<path d="M94.8352 310.289C94.8482 310.289 94.8612 310.287 94.8736 310.283L132.36 303.598C132.395 303.588 132.424 303.565 132.442 303.534C132.46 303.502 132.465 303.465 132.456 303.431L130.74 285.771C130.731 285.736 130.708 285.706 130.677 285.687C130.646 285.668 130.608 285.663 130.573 285.671L100.565 290.157L110.124 267.61C110.138 267.577 110.139 267.54 110.126 267.507C110.114 267.474 110.089 267.447 110.056 267.432C110.024 267.416 109.987 267.414 109.953 267.425C109.919 267.436 109.891 267.459 109.874 267.49L100.19 290.297C100.178 290.32 100.174 290.346 100.177 290.372C100.18 290.398 100.191 290.422 100.207 290.442C100.224 290.462 100.245 290.478 100.27 290.486C100.295 290.495 100.321 290.496 100.347 290.49L130.505 285.969L132.152 303.369L94.7965 310.018C94.7641 310.027 94.7362 310.048 94.7178 310.076C94.6995 310.104 94.692 310.138 94.6967 310.171C94.7014 310.204 94.718 310.234 94.7435 310.256C94.769 310.278 94.8016 310.29 94.8352 310.29V310.289Z" fill="#474646"/>
<path d="M96.5684 290.993C96.5783 290.993 96.5882 290.991 96.5979 290.989L100.347 290.491C100.365 290.488 100.382 290.481 100.397 290.47C100.413 290.46 100.426 290.447 100.436 290.431C100.446 290.416 100.452 290.399 100.456 290.381C100.459 290.363 100.459 290.344 100.455 290.327C100.451 290.309 100.443 290.292 100.433 290.277C100.422 290.262 100.409 290.249 100.393 290.239C100.378 290.23 100.361 290.223 100.342 290.22C100.324 290.217 100.306 290.217 100.288 290.221L96.5386 290.719C96.5052 290.726 96.4757 290.746 96.4557 290.773C96.4358 290.801 96.4268 290.835 96.4305 290.869C96.4342 290.903 96.4503 290.934 96.4757 290.957C96.5012 290.98 96.5341 290.992 96.5684 290.992V290.993Z" fill="#474646"/>
<path d="M155.808 269.324C155.843 269.324 155.877 269.311 155.902 269.287C155.928 269.264 155.944 269.231 155.947 269.196L156.567 261.221C156.57 261.184 156.558 261.148 156.534 261.12C156.51 261.092 156.476 261.075 156.439 261.072C156.402 261.069 156.365 261.081 156.337 261.105C156.309 261.129 156.292 261.163 156.289 261.199L155.668 269.175C155.666 269.212 155.678 269.248 155.702 269.276C155.726 269.303 155.76 269.321 155.796 269.323C155.8 269.324 155.804 269.324 155.808 269.324Z" fill="#474646"/>
<path d="M136.83 224.184C137.33 224.184 137.735 223.782 137.735 223.286C137.735 222.79 137.33 222.388 136.83 222.388C136.331 222.388 135.926 222.79 135.926 223.286C135.926 223.782 136.331 224.184 136.83 224.184Z" fill="#474646"/>
<path d="M127.662 225.722C128.162 225.722 128.567 225.32 128.567 224.824C128.567 224.328 128.162 223.926 127.662 223.926C127.163 223.926 126.758 224.328 126.758 224.824C126.758 225.32 127.163 225.722 127.662 225.722Z" fill="#474646"/>
<path d="M72.6144 334H216.323C216.397 334 216.468 333.971 216.52 333.919C216.572 333.868 216.601 333.797 216.601 333.724C216.601 333.65 216.572 333.58 216.52 333.528C216.468 333.476 216.397 333.447 216.323 333.447H72.6144C72.5405 333.447 72.4697 333.476 72.4175 333.528C72.3653 333.58 72.3359 333.65 72.3359 333.724C72.3359 333.797 72.3653 333.868 72.4175 333.919C72.4697 333.971 72.5405 334 72.6144 334Z" fill="#292A2E"/>
<ellipse cx="167.625" cy="204.746" rx="7.48847" ry="7.43494" fill="#8AD7FF"/>
<ellipse cx="189.516" cy="204.746" rx="7.48847" ry="7.43494" fill="#8AD7FF"/>
<ellipse cx="211.406" cy="204.746" rx="7.48847" ry="7.43494" fill="#8AD7FF"/>
<ellipse cx="232.719" cy="204.746" rx="7.48847" ry="7.43494" fill="#8AD7FF"/>
</g>
<defs>
<clipPath id="clip0_706_960">
<rect width="191.244" height="142.408" fill="white" transform="translate(55.875 191.593)"/>
</clipPath>
</defs>
</svg>
