<svg width="32" height="5" viewBox="0 0 32 5" fill="none" xmlns="http://www.w3.org/2000/svg">
<path d="M26.4227 0.151999L26.484 3.744H26.4533L25.4133 0.153333H23.7027V4.676H24.8333L24.772 0.962665H24.8027L25.9173 4.676H27.5533V0.153333L26.4227 0.151999ZM4.88933 0.151999L4.03467 4.72267H5.272L5.89867 0.565333H5.92933L6.54133 4.72267H7.76267L6.92267 0.153333L4.88933 0.151999ZM11.7973 0.151999L11.232 3.63733H11.2013L10.636 0.153333H8.77333L8.68133 4.72267H9.828L9.85867 0.611999H9.87333L10.6373 4.72267H11.7987L12.5627 0.611999H12.5933L12.624 4.72267H13.7707L13.664 0.153333L11.7973 0.151999ZM2.10933 3.424C2.14286 3.53291 2.14791 3.64859 2.124 3.76C2.09333 3.912 1.98667 4.06533 1.68133 4.06533C1.39067 4.06533 1.22267 3.89733 1.22267 3.652V3.20933H0V3.56133C0 4.58533 0.809333 4.89067 1.66667 4.89067C2.49067 4.89067 3.17867 4.6 3.28533 3.85067C3.34667 3.45333 3.30133 3.19467 3.28533 3.10267C3.072 2.14 1.32933 1.864 1.20667 1.32933C1.19166 1.24869 1.19166 1.16597 1.20667 1.08533C1.23733 0.931999 1.34533 0.778666 1.62 0.778666C1.89467 0.778666 2.04667 0.948 2.04667 1.192V1.46667H3.19333V1.14667C3.19333 0.153333 2.292 0 1.65067 0C0.84 0 0.168 0.274667 0.0453333 1.00933C0.00520616 1.21155 0.0106721 1.42016 0.0613333 1.62C0.244 2.56667 1.88 2.84267 2.10933 3.42267M16.9787 3.42267C17.024 3.52933 17.008 3.668 16.9933 3.76C16.9627 3.912 16.856 4.06533 16.5507 4.06533C16.26 4.06533 16.092 3.89733 16.092 3.652V3.20933H14.8693V3.56133C14.8693 4.56933 15.664 4.87467 16.52 4.87467C17.3453 4.87467 18.0173 4.6 18.124 3.836C18.1853 3.43867 18.14 3.19467 18.124 3.08667C17.9413 2.14 16.2133 1.84933 16.092 1.32933C16.077 1.24869 16.077 1.16597 16.092 1.08533C16.1227 0.931999 16.2293 0.778666 16.5053 0.778666C16.764 0.778666 16.932 0.948 16.932 1.192V1.46667H18.0627V1.14667C18.0627 0.153333 17.176 0 16.5347 0C15.7253 0 15.068 0.26 14.9453 1.00933C14.9147 1.208 14.9147 1.39067 14.9613 1.62C15.144 2.56667 16.748 2.82667 16.9787 3.42267ZM20.8293 4.03467C21.1493 4.03467 21.2427 3.82133 21.272 3.69867C21.288 3.652 21.288 3.576 21.288 3.53067V0.151999H22.448V3.43733C22.448 3.52933 22.448 3.69733 22.4347 3.744C22.3573 4.59867 21.6853 4.87333 20.844 4.87333C20.004 4.87333 19.332 4.59867 19.2547 3.74267C19.2547 3.69733 19.24 3.52933 19.24 3.43733V0.151999H20.4V3.52933C20.4 3.59067 20.4 3.65067 20.416 3.69733C20.416 3.81867 20.5093 4.03333 20.8293 4.03333M30.3653 3.988C30.7013 3.988 30.808 3.77467 30.8387 3.65067C30.8533 3.60533 30.8533 3.52933 30.8533 3.48267V2.82533H30.38V2.15333H32V3.376C32 3.468 32 3.52933 31.9853 3.68267C31.908 4.52267 31.1893 4.812 30.38 4.812C29.5707 4.812 28.852 4.52267 28.776 3.68133C28.76 3.52933 28.76 3.468 28.76 3.376V1.45067C28.76 1.37467 28.776 1.22133 28.776 1.144C28.8827 0.289333 29.5707 0.0146662 30.38 0.0146662C31.1893 0.0146662 31.8933 0.289332 31.984 1.14533C32 1.28267 32 1.45067 32 1.45067V1.604H30.8533V1.344C30.8533 1.344 30.8533 1.23733 30.8387 1.176C30.8227 1.06933 30.732 0.839999 30.38 0.839999C30.044 0.839999 29.9533 1.05333 29.9213 1.176C29.9067 1.236 29.9067 1.31333 29.9067 1.38933V3.48267C29.9067 3.544 29.9067 3.60533 29.9213 3.65067C29.9213 3.77333 30.044 3.988 30.3653 3.988Z" fill="#275991"/>
</svg>
