<svg width="32" height="26" viewBox="0 0 32 26" fill="none" xmlns="http://www.w3.org/2000/svg">
<path d="M32 3.06377C30.8017 3.59215 29.5307 3.93893 28.2292 4.09257C29.5849 3.28396 30.6257 2.00349 31.1159 0.477828C29.8272 1.23886 28.4172 1.77508 26.947 2.06333C25.7494 0.79356 24.0432 0 22.1549 0C18.5291 0 15.5895 2.92544 15.5895 6.53359C15.5895 7.04575 15.6476 7.54435 15.7595 8.02268C10.3032 7.75011 5.46575 5.14899 2.22762 1.196C1.66262 2.16099 1.33888 3.28346 1.33888 4.48071C1.33888 6.74756 2.498 8.74732 4.2595 9.91906C3.21693 9.88662 2.19729 9.60638 1.28575 9.10174C1.28542 9.12911 1.28529 9.15652 1.28537 9.18397C1.28537 12.3496 3.54837 14.9904 6.55162 15.5907C5.58485 15.8523 4.57079 15.8906 3.58687 15.7026C4.42225 18.2984 6.84688 20.1873 9.71963 20.2402C7.47275 21.9925 4.64188 23.0371 1.56613 23.0371C1.03613 23.0371 0.513625 23.0061 0 22.9458C2.90538 24.7996 6.35625 25.8813 10.0638 25.8813C22.1396 25.8813 28.743 15.9253 28.743 7.29132C28.743 7.00793 28.7367 6.72616 28.724 6.44601C30.0092 5.52121 31.1185 4.37589 32 3.06377Z" fill="#55ACEE"/>
</svg>
