<svg width="20" height="20" viewBox="0 0 20 20" fill="none" xmlns="http://www.w3.org/2000/svg">
<path d="M7 1H2C1.73478 1 1.48043 1.10536 1.29289 1.29289C1.10536 1.48043 1 1.73478 1 2V7C1 7.26522 1.10536 7.51957 1.29289 7.70711C1.48043 7.89464 1.73478 8 2 8H7C7.26522 8 7.51957 7.89464 7.70711 7.70711C7.89464 7.51957 8 7.26522 8 7V2C8 1.73478 7.89464 1.48043 7.70711 1.29289C7.51957 1.10536 7.26522 1 7 1ZM7 12H2C1.73478 12 1.48043 12.1054 1.29289 12.2929C1.10536 12.4804 1 12.7348 1 13V18C1 18.2652 1.10536 18.5196 1.29289 18.7071C1.48043 18.8946 1.73478 19 2 19H7C7.26522 19 7.51957 18.8946 7.70711 18.7071C7.89464 18.5196 8 18.2652 8 18V13C8 12.7348 7.89464 12.4804 7.70711 12.2929C7.51957 12.1054 7.26522 12 7 12ZM18 1H13C12.7348 1 12.4804 1.10536 12.2929 1.29289C12.1054 1.48043 12 1.73478 12 2V7C12 7.26522 12.1054 7.51957 12.2929 7.70711C12.4804 7.89464 12.7348 8 13 8H18C18.2652 8 18.5196 7.89464 18.7071 7.70711C18.8946 7.51957 19 7.26522 19 7V2C19 1.73478 18.8946 1.48043 18.7071 1.29289C18.5196 1.10536 18.2652 1 18 1ZM18 12H13C12.7348 12 12.4804 12.1054 12.2929 12.2929C12.1054 12.4804 12 12.7348 12 13V18C12 18.2652 12.1054 18.5196 12.2929 18.7071C12.4804 18.8946 12.7348 19 13 19H18C18.2652 19 18.5196 18.8946 18.7071 18.7071C18.8946 18.5196 19 18.2652 19 18V13C19 12.7348 18.8946 12.4804 18.7071 12.2929C18.5196 12.1054 18.2652 12 18 12Z" stroke="white" stroke-width="2" stroke-linejoin="round"/>
</svg>
